<?xml version="1.0" encoding="UTF-8" standalone="no"?>
<svg
   xmlns:dc="http://purl.org/dc/elements/1.1/"
   xmlns:cc="http://creativecommons.org/ns#"
   xmlns:rdf="http://www.w3.org/1999/02/22-rdf-syntax-ns#"
   xmlns:svg="http://www.w3.org/2000/svg"
   xmlns="http://www.w3.org/2000/svg"
   xmlns:sodipodi="http://sodipodi.sourceforge.net/DTD/sodipodi-0.dtd"
   xmlns:inkscape="http://www.inkscape.org/namespaces/inkscape"
   version="1.1"
   width="400mm"
   height="600mm"
   viewBox="0 0 1417.324 2125.986"
   id="svg6580"
   inkscape:version="0.91 r13725"
   sodipodi:docname="BackAndFront-600x400-80Fan.svg">
  <metadata
     id="metadata6692">
    <rdf:RDF>
      <cc:Work
         rdf:about="">
        <dc:format>image/svg+xml</dc:format>
        <dc:type
           rdf:resource="http://purl.org/dc/dcmitype/StillImage" />
        <dc:title />
      </cc:Work>
    </rdf:RDF>
  </metadata>
  <defs
     id="defs6690" />
  <sodipodi:namedview
     pagecolor="#ffffff"
     bordercolor="#666666"
     borderopacity="1"
     objecttolerance="10"
     gridtolerance="10"
     guidetolerance="10"
     inkscape:pageopacity="0"
     inkscape:pageshadow="2"
     inkscape:window-width="2560"
     inkscape:window-height="1335"
     id="namedview6688"
     showgrid="false"
     inkscape:document-units="mm"
     inkscape:zoom="1.3202843"
     inkscape:cx="389.89397"
     inkscape:cy="693.81753"
     inkscape:window-x="2552"
     inkscape:window-y="2152"
     inkscape:window-maximized="1"
     inkscape:current-layer="g6596" />
  <!-- Front-->
  <g
     transform="translate(23.48366,17.798062)"
     id="g6582">
    <polygon
       style="fill:none;stroke:#000000;stroke-width:0.90000075"
       points="331.29949,10.62993 384.44914,10.62993 384.44914,0 437.59879,0 437.59879,10.62993 490.74843,10.62993 490.74843,0 543.89809,0 543.89809,10.62993 597.04773,10.62993 597.04773,0 650.19739,0 650.19739,10.62993 703.34704,10.62993 703.34704,0 756.49669,0 756.49669,10.62993 809.64634,10.62993 809.64634,0 862.79599,0 862.79599,10.62993 915.94564,10.62993 915.94564,0 969.09529,0 969.09529,10.62993 1055.0206,10.62993 1055.0206,0 1140.9458,0 1140.9458,84.153612 1130.3159,84.153612 1130.3159,168.30722 1140.9458,168.30722 1140.9458,221.45687 1130.3159,221.45687 1130.3159,274.60652 1140.9458,274.60652 1140.9458,327.75617 1130.3159,327.75617 1130.3159,380.90582 1140.9458,380.90582 1140.9458,434.05548 1130.3159,434.05548 1130.3159,487.20512 1140.9458,487.20512 1140.9458,540.35478 1130.3159,540.35478 1130.3159,593.50442 1140.9458,593.50442 1140.9458,646.65408 1130.3159,646.65408 1130.3159,699.80372 1140.9458,699.80372 1140.9458,752.95338 1130.3159,752.95338 1130.3159,837.10699 1140.9458,837.10699 1140.9458,921.2606 1055.0206,921.2606 1055.0206,910.63067 969.09529,910.63067 969.09529,921.2606 915.94564,921.2606 915.94564,910.63067 862.79599,910.63067 862.79599,921.2606 809.64634,921.2606 809.64634,910.63067 756.49669,910.63067 756.49669,921.2606 703.34704,921.2606 703.34704,910.63067 650.19739,910.63067 650.19739,921.2606 597.04773,921.2606 597.04773,910.63067 543.89809,910.63067 543.89809,921.2606 490.74843,921.2606 490.74843,910.63067 437.59879,910.63067 437.59879,921.2606 384.44914,921.2606 384.44914,910.63067 331.29949,910.63067 331.29949,921.2606 278.14983,921.2606 278.14983,910.63067 225.00019,910.63067 225.00019,921.2606 171.85054,921.2606 171.85054,910.63067 85.925268,910.63067 85.925268,921.2606 0,921.2606 0,837.10699 10.62993,837.10699 10.62993,752.95338 0,752.95338 0,699.80372 10.62993,699.80372 10.62993,646.65408 0,646.65408 0,593.50442 10.62993,593.50442 10.62993,540.35478 0,540.35478 0,487.20512 10.62993,487.20512 10.62993,434.05548 0,434.05548 0,380.90582 10.62993,380.90582 10.62993,327.75617 0,327.75617 0,274.60652 10.62993,274.60652 10.62993,221.45687 0,221.45687 0,168.30722 10.62993,168.30722 10.62993,84.153612 0,84.153612 0,0 85.925268,0 85.925268,10.62993 171.85054,10.62993 171.85054,0 225.00019,0 225.00019,10.62993 278.14983,10.62993 278.14983,0 331.29949,0 "
       id="polygon6584" />
    <circle
       cx="799.33533"
       cy="90.637871"
       r="7.0866199"
       style="fill:none;stroke:#000000;stroke-width:0.90000075"
       id="circle6586" />
    <circle
       cx="799.33533"
       cy="323.25616"
       r="7.0866199"
       style="fill:none;stroke:#000000;stroke-width:0.90000075"
       id="circle6588" />
    <circle
       cx="352.16959"
       cy="90.637871"
       r="7.0866199"
       style="fill:none;stroke:#000000;stroke-width:0.90000075"
       id="circle6590" />
    <circle
       cx="352.16959"
       cy="323.25616"
       r="7.0866199"
       style="fill:none;stroke:#000000;stroke-width:0.90000075"
       id="circle6592" />
    <rect
       x="387.60269"
       y="55.204769"
       width="376.29953"
       height="331.83099"
       rx="10.62993"
       ry="10.62993"
       style="fill:none;stroke:#000000;stroke-width:0.90000075"
       id="rect6594" />
  </g>
  <!-- Back-->
  <g
     transform="translate(22.589821,960.40495)"
     id="g6596">
    <polygon
       style="fill:none;stroke:#000000;stroke-width:0.90000075"
       points="384.44914,10.62993 384.44914,0 437.59879,0 437.59879,10.62993 490.74843,10.62993 490.74843,0 543.89809,0 543.89809,10.62993 597.04773,10.62993 597.04773,0 650.19739,0 650.19739,10.62993 703.34704,10.62993 703.34704,0 756.49669,0 756.49669,10.62993 809.64634,10.62993 809.64634,0 862.79599,0 862.79599,10.62993 915.94564,10.62993 915.94564,0 969.09529,0 969.09529,10.62993 1055.0206,10.62993 1055.0206,0 1140.9458,0 1140.9458,84.153612 1130.3159,84.153612 1130.3159,168.30722 1140.9458,168.30722 1140.9458,221.45687 1130.3159,221.45687 1130.3159,274.60652 1140.9458,274.60652 1140.9458,327.75617 1130.3159,327.75617 1130.3159,380.90582 1140.9458,380.90582 1140.9458,434.05548 1130.3159,434.05548 1130.3159,487.20512 1140.9458,487.20512 1140.9458,540.35478 1130.3159,540.35478 1130.3159,593.50442 1140.9458,593.50442 1140.9458,646.65408 1130.3159,646.65408 1130.3159,699.80372 1140.9458,699.80372 1140.9458,752.95338 1130.3159,752.95338 1130.3159,837.10699 1140.9458,837.10699 1140.9458,921.2606 1055.0206,921.2606 1055.0206,910.63067 969.09529,910.63067 969.09529,921.2606 915.94564,921.2606 915.94564,910.63067 862.79599,910.63067 862.79599,921.2606 809.64634,921.2606 809.64634,910.63067 756.49669,910.63067 756.49669,921.2606 703.34704,921.2606 703.34704,910.63067 650.19739,910.63067 650.19739,921.2606 597.04773,921.2606 597.04773,910.63067 543.89809,910.63067 543.89809,921.2606 490.74843,921.2606 490.74843,910.63067 437.59879,910.63067 437.59879,921.2606 384.44914,921.2606 384.44914,910.63067 331.29949,910.63067 331.29949,921.2606 278.14983,921.2606 278.14983,910.63067 225.00019,910.63067 225.00019,921.2606 171.85054,921.2606 171.85054,910.63067 85.925268,910.63067 85.925268,921.2606 0,921.2606 0,837.10699 10.62993,837.10699 10.62993,752.95338 0,752.95338 0,699.80372 10.62993,699.80372 10.62993,646.65408 0,646.65408 0,593.50442 10.62993,593.50442 10.62993,540.35478 0,540.35478 0,487.20512 10.62993,487.20512 10.62993,434.05548 0,434.05548 0,380.90582 10.62993,380.90582 10.62993,327.75617 0,327.75617 0,274.60652 10.62993,274.60652 10.62993,221.45687 0,221.45687 0,168.30722 10.62993,168.30722 10.62993,84.153612 0,84.153612 0,0 85.925268,0 85.925268,10.62993 171.85054,10.62993 171.85054,0 225.00019,0 225.00019,10.62993 278.14983,10.62993 278.14983,0 331.29949,0 331.29949,10.62993 "
       id="polygon6598" />
    <rect
       x="807.87469"
       y="212.5986"
       width="226.77184"
       height="715.7486"
       rx="7.0866199"
       ry="7.0866199"
       style="fill:none;stroke:#000000;stroke-width:0.90000075"
       id="rect6600" />
    <circle
       cx="781.29987"
       cy="318.89789"
       r="6.2007923"
       style="fill:none;stroke:#000000;stroke-width:0.90000075"
       id="circle6602" />
    <circle
       cx="781.29987"
       cy="566.92963"
       r="6.2007923"
       style="fill:none;stroke:#000000;stroke-width:0.90000075"
       id="circle6604" />
    <circle
       cx="781.29987"
       cy="814.9613"
       r="6.2007923"
       style="fill:none;stroke:#000000;stroke-width:0.90000075"
       id="circle6606" />
    <circle
       cx="1061.2213"
       cy="814.9613"
       r="6.2007923"
       style="fill:none;stroke:#000000;stroke-width:0.90000075"
       id="circle6608" />
    <circle
       cx="1061.2213"
       cy="566.92963"
       r="6.2007923"
       style="fill:none;stroke:#000000;stroke-width:0.90000075"
       id="circle6610" />
    <circle
       cx="1061.2213"
       cy="318.89789"
       r="6.2007923"
       style="fill:none;stroke:#000000;stroke-width:0.90000075"
       id="circle6612" />
    <rect
       x="35.433102"
       y="850.39441"
       width="85.039436"
       height="49.606339"
       rx="7.0866199"
       ry="7.0866199"
       style="fill:none;stroke:#000000;stroke-width:0.90000075"
       id="rect6614" />
    <ellipse
       cx="80.160301"
       cy="706.45447"
       style="fill:none;stroke:#000000;stroke-width:0.90000069"
       id="circle6616"
       rx="21.695686"
       ry="21.695688" />
    <circle
       cx="212.5986"
       cy="212.5986"
       r="132.87413"
       style="fill:none;stroke:#000000;stroke-width:0.90000075"
       id="circle6628" />
    <circle
       cx="86.456764"
       cy="86.456764"
       r="7.7952819"
       style="fill:none;stroke:#000000;stroke-width:0.90000075"
       id="circle6630" />
    <circle
       cx="86.456764"
       cy="338.38611"
       r="7.7952819"
       style="fill:none;stroke:#000000;stroke-width:0.90000075"
       id="circle6632" />
    <circle
       cx="338.38611"
       cy="338.38611"
       r="7.7952819"
       style="fill:none;stroke:#000000;stroke-width:0.90000075"
       id="circle6634" />
    <circle
       cx="338.38611"
       cy="86.456764"
       r="7.7952819"
       style="fill:none;stroke:#000000;stroke-width:0.90000075"
       id="circle6636" />
  </g>
  <!-- Left-->
  <!-- Right-->
  <!-- Top-->
  <!-- Bottom-->
</svg>
