  0
SECTION
  2
HEADER
  9
$ACADVER
  1
AC1014
  9
$HANDSEED
  5
FFFF
  9
$MEASUREMENT
 70
     1
  0
ENDSEC
  0
SECTION
  2
TABLES
  0
TABLE
  2
VPORT
  5
8
330
0
100
AcDbSymbolTable
 70
     4
  0
VPORT
  5
2E
330
8
100
AcDbSymbolTableRecord
100
AcDbViewportTableRecord
  2
*ACTIVE
 70
     0
 10
0.0
 20
0.0
 11
1.0
 21
1.0
 12
210.0
 22
148.5
 13
0.0
 23
0.0
 14
10.0
 24
10.0
 15
10.0
 25
10.0
 16
0.0
 26
0.0
 36
1.0
 17
0.0
 27
0.0
 37
0.0
 40
341.0
 41
1.24
 42
50.0
 43
0.0
 44
0.0
 50
0.0
 51
0.0
 71
     0
 72
   100
 73
     1
 74
     3
 75
     0
 76
     0
 77
     0
 78
     0
  0
ENDTAB
  0
TABLE
  2
LTYPE
  5
5
330
0
100
AcDbSymbolTable
 70
     1
  0
LTYPE
  5
14
330
5
100
AcDbSymbolTableRecord
100
AcDbLinetypeTableRecord
  2
BYBLOCK
 70
     0
  3

 72
    65
 73
     0
 40
0.0
  0
LTYPE
  5
15
330
5
100
AcDbSymbolTableRecord
100
AcDbLinetypeTableRecord
  2
BYLAYER
 70
     0
  3

 72
    65
 73
     0
 40
0.0
  0
LTYPE
  5
16
330
5
100
AcDbSymbolTableRecord
100
AcDbLinetypeTableRecord
  2
CONTINUOUS
 70
     0
  3
Solid line
 72
    65
 73
     0
 40
0.0
  0
ENDTAB
  0
TABLE
  2
LAYER
  5
2
100
AcDbSymbolTable
 70
1
  0
LAYER
  5
50
100
AcDbSymbolTableRecord
100
AcDbLayerTableRecord
  2
0
 70
0
  6
CONTINUOUS
  0
ENDTAB
  0
TABLE
  2
STYLE
  5
3
330
0
100
AcDbSymbolTable
 70
     1
  0
STYLE
  5
11
330
3
100
AcDbSymbolTableRecord
100
AcDbTextStyleTableRecord
  2
STANDARD
 70
     0
 40
0.0
 41
1.0
 50
0.0
 71
     0
 42
2.5
  3
txt
  4

  0
ENDTAB
  0
TABLE
  2
VIEW
  5
6
330
0
100
AcDbSymbolTable
 70
     0
  0
ENDTAB
  0
TABLE
  2
UCS
  5
7
330
0
100
AcDbSymbolTable
 70
     0
  0
ENDTAB
  0
TABLE
  2
APPID
  5
9
330
0
100
AcDbSymbolTable
 70
     2
  0
APPID
  5
12
330
9
100
AcDbSymbolTableRecord
100
AcDbRegAppTableRecord
  2
ACAD
 70
     0
  0
ENDTAB
  0
TABLE
  2
DIMSTYLE
  5
A
330
0
100
AcDbSymbolTable
 70
     1
  0
DIMSTYLE
105
27
330
A
100
AcDbSymbolTableRecord
100
AcDbDimStyleTableRecord
  2
ISO-25
 70
     0
  3

  4

  5

  6

  7

 40
1.0
 41
2.5
 42
0.625
 43
3.75
 44
1.25
 45
0.0
 46
0.0
 47
0.0
 48
0.0
140
2.5
141
2.5
142
0.0
143
0.03937007874016
144
1.0
145
0.0
146
1.0
147
0.625
 71
     0
 72
     0
 73
     0
 74
     0
 75
     0
 76
     0
 77
     1
 78
     8
170
     0
171
     3
172
     1
173
     0
174
     0
175
     0
176
     0
177
     0
178
     0
270
     2
271
     2
272
     2
273
     2
274
     3
340
11
275
     0
280
     0
281
     0
282
     0
283
     0
284
     8
285
     0
286
     0
287
     3
288
     0
  0
ENDTAB
  0
TABLE
  2
BLOCK_RECORD
  5
1
330
0
100
AcDbSymbolTable
 70
     1
  0
BLOCK_RECORD
  5
1F
330
1
100
AcDbSymbolTableRecord
100
AcDbBlockTableRecord
  2
*MODEL_SPACE
  0
BLOCK_RECORD
  5
1B
330
1
100
AcDbSymbolTableRecord
100
AcDbBlockTableRecord
  2
*PAPER_SPACE
  0
ENDTAB
  0
ENDSEC
  0
SECTION
  2
BLOCKS
  0
BLOCK
  5
20
330
1F
100
AcDbEntity
  8
0
100
AcDbBlockBegin
  2
*MODEL_SPACE
 70
     0
 10
0.0
 20
0.0
 30
0.0
  3
*MODEL_SPACE
  1

  0
ENDBLK
  5
21
330
1F
100
AcDbEntity
  8
0
100
AcDbBlockEnd
  0
BLOCK
  5
1C
330
1B
100
AcDbEntity
 67
     1
  8
0
100
AcDbBlockBegin
  2
*PAPER_SPACE
  1

  0
ENDBLK
  5
1D
330
1B
100
AcDbEntity
 67
     1
  8
0
100
AcDbBlockEnd
  0
ENDSEC
  0
SECTION
  2
ENTITIES
  0
LWPOLYLINE
  5
100
100
AcDbEntity
  8
0
 62
7
100
AcDbPolyline
 90
133
 70
1
 10
100.127689
 20
591.976989
 30
0.0
 10
115.127701
 20
591.976989
 30
0.0
 10
115.127701
 20
594.976991
 30
0.0
 10
130.127714
 20
594.976991
 30
0.0
 10
130.127714
 20
591.976989
 30
0.0
 10
145.127723
 20
591.976989
 30
0.0
 10
145.127723
 20
594.976991
 30
0.0
 10
160.127738
 20
594.976991
 30
0.0
 10
160.127738
 20
591.976989
 30
0.0
 10
175.127748
 20
591.976989
 30
0.0
 10
175.127748
 20
594.976991
 30
0.0
 10
190.127763
 20
594.976991
 30
0.0
 10
190.127763
 20
591.976989
 30
0.0
 10
205.127775
 20
591.976989
 30
0.0
 10
205.127775
 20
594.976991
 30
0.0
 10
220.127788
 20
594.976991
 30
0.0
 10
220.127788
 20
591.976989
 30
0.0
 10
235.127800
 20
591.976989
 30
0.0
 10
235.127800
 20
594.976991
 30
0.0
 10
250.127812
 20
594.976991
 30
0.0
 10
250.127812
 20
591.976989
 30
0.0
 10
265.127825
 20
591.976989
 30
0.0
 10
265.127825
 20
594.976991
 30
0.0
 10
280.127837
 20
594.976991
 30
0.0
 10
280.127837
 20
591.976989
 30
0.0
 10
304.377869
 20
591.976989
 30
0.0
 10
304.377869
 20
594.976991
 30
0.0
 10
328.627870
 20
594.976991
 30
0.0
 10
328.627870
 20
571.226972
 30
0.0
 10
325.627876
 20
571.226972
 30
0.0
 10
325.627876
 20
547.476954
 30
0.0
 10
328.627870
 20
547.476954
 30
0.0
 10
328.627870
 20
532.476941
 30
0.0
 10
325.627876
 20
532.476941
 30
0.0
 10
325.627876
 20
517.476929
 30
0.0
 10
328.627870
 20
517.476929
 30
0.0
 10
328.627870
 20
502.476917
 30
0.0
 10
325.627876
 20
502.476917
 30
0.0
 10
325.627876
 20
487.476904
 30
0.0
 10
328.627870
 20
487.476904
 30
0.0
 10
328.627870
 20
472.476889
 30
0.0
 10
325.627876
 20
472.476889
 30
0.0
 10
325.627876
 20
457.476880
 30
0.0
 10
328.627870
 20
457.476880
 30
0.0
 10
328.627870
 20
442.476865
 30
0.0
 10
325.627876
 20
442.476865
 30
0.0
 10
325.627876
 20
427.476855
 30
0.0
 10
328.627870
 20
427.476855
 30
0.0
 10
328.627870
 20
412.476840
 30
0.0
 10
325.627876
 20
412.476840
 30
0.0
 10
325.627876
 20
397.476830
 30
0.0
 10
328.627870
 20
397.476830
 30
0.0
 10
328.627870
 20
382.476815
 30
0.0
 10
325.627876
 20
382.476815
 30
0.0
 10
325.627876
 20
358.726796
 30
0.0
 10
328.627870
 20
358.726796
 30
0.0
 10
328.627870
 20
334.976778
 30
0.0
 10
304.377869
 20
334.976778
 30
0.0
 10
304.377869
 20
337.976780
 30
0.0
 10
280.127837
 20
337.976780
 30
0.0
 10
280.127837
 20
334.976778
 30
0.0
 10
265.127825
 20
334.976778
 30
0.0
 10
265.127825
 20
337.976780
 30
0.0
 10
250.127812
 20
337.976780
 30
0.0
 10
250.127812
 20
334.976778
 30
0.0
 10
235.127800
 20
334.976778
 30
0.0
 10
235.127800
 20
337.976780
 30
0.0
 10
220.127788
 20
337.976780
 30
0.0
 10
220.127788
 20
334.976778
 30
0.0
 10
205.127775
 20
334.976778
 30
0.0
 10
205.127775
 20
337.976780
 30
0.0
 10
190.127763
 20
337.976780
 30
0.0
 10
190.127763
 20
334.976778
 30
0.0
 10
175.127748
 20
334.976778
 30
0.0
 10
175.127748
 20
337.976780
 30
0.0
 10
160.127738
 20
337.976780
 30
0.0
 10
160.127738
 20
334.976778
 30
0.0
 10
145.127723
 20
334.976778
 30
0.0
 10
145.127723
 20
337.976780
 30
0.0
 10
130.127714
 20
337.976780
 30
0.0
 10
130.127714
 20
334.976778
 30
0.0
 10
115.127701
 20
334.976778
 30
0.0
 10
115.127701
 20
337.976780
 30
0.0
 10
100.127689
 20
337.976780
 30
0.0
 10
100.127689
 20
334.976778
 30
0.0
 10
85.127674
 20
334.976778
 30
0.0
 10
85.127674
 20
337.976780
 30
0.0
 10
70.127664
 20
337.976780
 30
0.0
 10
70.127664
 20
334.976778
 30
0.0
 10
55.127652
 20
334.976778
 30
0.0
 10
55.127652
 20
337.976780
 30
0.0
 10
30.877631
 20
337.976780
 30
0.0
 10
30.877631
 20
334.976778
 30
0.0
 10
6.627611
 20
334.976778
 30
0.0
 10
6.627611
 20
358.726796
 30
0.0
 10
9.627613
 20
358.726796
 30
0.0
 10
9.627613
 20
382.476815
 30
0.0
 10
6.627611
 20
382.476815
 30
0.0
 10
6.627611
 20
397.476830
 30
0.0
 10
9.627613
 20
397.476830
 30
0.0
 10
9.627613
 20
412.476840
 30
0.0
 10
6.627611
 20
412.476840
 30
0.0
 10
6.627611
 20
427.476855
 30
0.0
 10
9.627613
 20
427.476855
 30
0.0
 10
9.627613
 20
442.476865
 30
0.0
 10
6.627611
 20
442.476865
 30
0.0
 10
6.627611
 20
457.476880
 30
0.0
 10
9.627613
 20
457.476880
 30
0.0
 10
9.627613
 20
472.476889
 30
0.0
 10
6.627611
 20
472.476889
 30
0.0
 10
6.627611
 20
487.476904
 30
0.0
 10
9.627613
 20
487.476904
 30
0.0
 10
9.627613
 20
502.476917
 30
0.0
 10
6.627611
 20
502.476917
 30
0.0
 10
6.627611
 20
517.476929
 30
0.0
 10
9.627613
 20
517.476929
 30
0.0
 10
9.627613
 20
532.476941
 30
0.0
 10
6.627611
 20
532.476941
 30
0.0
 10
6.627611
 20
547.476954
 30
0.0
 10
9.627613
 20
547.476954
 30
0.0
 10
9.627613
 20
571.226972
 30
0.0
 10
6.627611
 20
571.226972
 30
0.0
 10
6.627611
 20
594.976991
 30
0.0
 10
30.877631
 20
594.976991
 30
0.0
 10
30.877631
 20
591.976989
 30
0.0
 10
55.127652
 20
591.976989
 30
0.0
 10
55.127652
 20
594.976991
 30
0.0
 10
70.127664
 20
594.976991
 30
0.0
 10
70.127664
 20
591.976989
 30
0.0
 10
85.127674
 20
591.976989
 30
0.0
 10
85.127674
 20
594.976991
 30
0.0
 10
100.127689
 20
594.976991
 30
0.0
 10
100.127689
 20
591.976989
 30
0.0
  0
SPLINE
  5
101
100
AcDbEntity
  8
0
 62
7
100
AcDbSpline
 70
0
 71
3
 72
31
 73
27
 74
25
 40
0.000000
 40
0.000000
 40
0.000000
 40
0.000000
 40
0.523550
 40
1.042768
 40
1.566318
 40
2.089868
 40
2.609086
 40
3.132636
 40
3.656186
 40
4.175404
 40
4.698954
 40
5.222504
 40
5.741722
 40
6.265272
 40
6.788822
 40
7.308040
 40
7.831590
 40
8.355140
 40
8.874358
 40
9.397908
 40
9.921458
 40
10.440676
 40
10.964226
 40
11.487776
 40
12.006994
 40
12.530544
 40
12.530544
 40
12.530544
 40
12.530544
 10
234.217805
 20
569.396970
 30
0.0
 10
234.204473
 20
569.221953
 30
0.0
 10
234.177918
 20
568.873368
 30
0.0
 10
233.968068
 20
568.385538
 30
0.0
 10
233.648801
 20
567.966417
 30
0.0
 10
233.229117
 20
567.645054
 30
0.0
 10
232.741438
 20
567.442988
 30
0.0
 10
232.217795
 20
567.373863
 30
0.0
 10
231.694204
 20
567.442988
 30
0.0
 10
231.206372
 20
567.645054
 30
0.0
 10
230.787251
 20
567.966417
 30
0.0
 10
230.465887
 20
568.385538
 30
0.0
 10
230.263822
 20
568.873368
 30
0.0
 10
230.194697
 20
569.396970
 30
0.0
 10
230.263822
 20
569.920572
 30
0.0
 10
230.465887
 20
570.408402
 30
0.0
 10
230.787251
 20
570.827523
 30
0.0
 10
231.206372
 20
571.148887
 30
0.0
 10
231.694204
 20
571.350952
 30
0.0
 10
232.217795
 20
571.420077
 30
0.0
 10
232.741438
 20
571.350952
 30
0.0
 10
233.229117
 20
571.148887
 30
0.0
 10
233.648801
 20
570.827523
 30
0.0
 10
233.968068
 20
570.408402
 30
0.0
 10
234.177918
 20
569.920572
 30
0.0
 10
234.204473
 20
569.571987
 30
0.0
 10
234.217805
 20
569.396970
 30
0.0
 11
234.217805
 21
569.396970
 31
0.0
 11
234.149284
 21
568.877923
 31
0.0
 11
233.950588
 21
568.398229
 31
0.0
 11
233.632019
 21
567.982755
 31
0.0
 11
233.216545
 21
567.664185
 31
0.0
 11
232.736851
 21
567.465489
 31
0.0
 11
232.217804
 21
567.396968
 31
0.0
 11
231.698757
 21
567.465489
 31
0.0
 11
231.219062
 21
567.664185
 31
0.0
 11
230.803589
 21
567.982755
 31
0.0
 11
230.485019
 21
568.398229
 31
0.0
 11
230.286323
 21
568.877923
 31
0.0
 11
230.217802
 21
569.396970
 31
0.0
 11
230.286323
 21
569.916017
 31
0.0
 11
230.485019
 21
570.395711
 31
0.0
 11
230.803589
 21
570.811185
 31
0.0
 11
231.219062
 21
571.129755
 31
0.0
 11
231.698757
 21
571.328451
 31
0.0
 11
232.217804
 21
571.396972
 31
0.0
 11
232.736851
 21
571.328451
 31
0.0
 11
233.216545
 21
571.129755
 31
0.0
 11
233.632019
 21
570.811185
 31
0.0
 11
233.950588
 21
570.395711
 31
0.0
 11
234.149284
 21
569.916017
 31
0.0
 11
234.217805
 21
569.396970
 31
0.0
  0
LWPOLYLINE
  5
102
100
AcDbEntity
  8
0
 62
7
100
AcDbPolyline
 90
2
 70
1
 10
234.217805
 20
569.396970
 30
0.0
 10
234.217805
 20
569.396970
 30
0.0
  0
SPLINE
  5
103
100
AcDbEntity
  8
0
 62
7
100
AcDbSpline
 70
0
 71
3
 72
31
 73
27
 74
25
 40
0.000000
 40
0.000000
 40
0.000000
 40
0.000000
 40
0.523550
 40
1.042768
 40
1.566318
 40
2.089868
 40
2.609086
 40
3.132636
 40
3.656186
 40
4.175404
 40
4.698954
 40
5.222504
 40
5.741722
 40
6.265272
 40
6.788822
 40
7.308040
 40
7.831590
 40
8.355140
 40
8.874358
 40
9.397908
 40
9.921458
 40
10.440676
 40
10.964226
 40
11.487776
 40
12.006994
 40
12.530544
 40
12.530544
 40
12.530544
 40
12.530544
 10
234.217805
 20
503.746920
 30
0.0
 10
234.204473
 20
503.571903
 30
0.0
 10
234.177918
 20
503.223318
 30
0.0
 10
233.968068
 20
502.735488
 30
0.0
 10
233.648801
 20
502.316367
 30
0.0
 10
233.229117
 20
501.995003
 30
0.0
 10
232.741438
 20
501.792937
 30
0.0
 10
232.217795
 20
501.723813
 30
0.0
 10
231.694204
 20
501.792937
 30
0.0
 10
231.206372
 20
501.995003
 30
0.0
 10
230.787251
 20
502.316367
 30
0.0
 10
230.465887
 20
502.735488
 30
0.0
 10
230.263822
 20
503.223318
 30
0.0
 10
230.194697
 20
503.746920
 30
0.0
 10
230.263822
 20
504.270521
 30
0.0
 10
230.465887
 20
504.758351
 30
0.0
 10
230.787251
 20
505.177472
 30
0.0
 10
231.206372
 20
505.498836
 30
0.0
 10
231.694204
 20
505.700902
 30
0.0
 10
232.217795
 20
505.770027
 30
0.0
 10
232.741438
 20
505.700902
 30
0.0
 10
233.229117
 20
505.498836
 30
0.0
 10
233.648801
 20
505.177472
 30
0.0
 10
233.968068
 20
504.758351
 30
0.0
 10
234.177918
 20
504.270522
 30
0.0
 10
234.204473
 20
503.921936
 30
0.0
 10
234.217805
 20
503.746920
 30
0.0
 11
234.217805
 21
503.746920
 31
0.0
 11
234.149284
 21
503.227873
 31
0.0
 11
233.950588
 21
502.748178
 31
0.0
 11
233.632019
 21
502.332705
 31
0.0
 11
233.216545
 21
502.014135
 31
0.0
 11
232.736851
 21
501.815439
 31
0.0
 11
232.217804
 21
501.746918
 31
0.0
 11
231.698757
 21
501.815439
 31
0.0
 11
231.219062
 21
502.014135
 31
0.0
 11
230.803589
 21
502.332705
 31
0.0
 11
230.485019
 21
502.748178
 31
0.0
 11
230.286323
 21
503.227873
 31
0.0
 11
230.217802
 21
503.746920
 31
0.0
 11
230.286323
 21
504.265966
 31
0.0
 11
230.485019
 21
504.745661
 31
0.0
 11
230.803589
 21
505.161134
 31
0.0
 11
231.219062
 21
505.479704
 31
0.0
 11
231.698757
 21
505.678400
 31
0.0
 11
232.217804
 21
505.746921
 31
0.0
 11
232.736851
 21
505.678400
 31
0.0
 11
233.216545
 21
505.479704
 31
0.0
 11
233.632019
 21
505.161134
 31
0.0
 11
233.950588
 21
504.745661
 31
0.0
 11
234.149284
 21
504.265966
 31
0.0
 11
234.217805
 21
503.746920
 31
0.0
  0
LWPOLYLINE
  5
104
100
AcDbEntity
  8
0
 62
7
100
AcDbPolyline
 90
2
 70
1
 10
234.217805
 20
503.746920
 30
0.0
 10
234.217805
 20
503.746920
 30
0.0
  0
SPLINE
  5
105
100
AcDbEntity
  8
0
 62
7
100
AcDbSpline
 70
0
 71
3
 72
31
 73
27
 74
25
 40
0.000000
 40
0.000000
 40
0.000000
 40
0.000000
 40
0.523550
 40
1.042768
 40
1.566318
 40
2.089868
 40
2.609086
 40
3.132636
 40
3.656186
 40
4.175404
 40
4.698954
 40
5.222504
 40
5.741722
 40
6.265272
 40
6.788822
 40
7.308040
 40
7.831590
 40
8.355140
 40
8.874358
 40
9.397908
 40
9.921458
 40
10.440676
 40
10.964226
 40
11.487776
 40
12.006994
 40
12.530544
 40
12.530544
 40
12.530544
 40
12.530544
 10
108.017697
 20
569.396970
 30
0.0
 10
108.004364
 20
569.221953
 30
0.0
 10
107.977809
 20
568.873368
 30
0.0
 10
107.767959
 20
568.385538
 30
0.0
 10
107.448692
 20
567.966417
 30
0.0
 10
107.029009
 20
567.645054
 30
0.0
 10
106.541329
 20
567.442988
 30
0.0
 10
106.017686
 20
567.373863
 30
0.0
 10
105.494095
 20
567.442988
 30
0.0
 10
105.006263
 20
567.645054
 30
0.0
 10
104.587142
 20
567.966417
 30
0.0
 10
104.265778
 20
568.385538
 30
0.0
 10
104.063713
 20
568.873368
 30
0.0
 10
103.994588
 20
569.396970
 30
0.0
 10
104.063713
 20
569.920572
 30
0.0
 10
104.265778
 20
570.408402
 30
0.0
 10
104.587142
 20
570.827523
 30
0.0
 10
105.006263
 20
571.148887
 30
0.0
 10
105.494095
 20
571.350952
 30
0.0
 10
106.017686
 20
571.420077
 30
0.0
 10
106.541329
 20
571.350952
 30
0.0
 10
107.029009
 20
571.148887
 30
0.0
 10
107.448692
 20
570.827523
 30
0.0
 10
107.767959
 20
570.408402
 30
0.0
 10
107.977809
 20
569.920572
 30
0.0
 10
108.004364
 20
569.571987
 30
0.0
 10
108.017697
 20
569.396970
 30
0.0
 11
108.017697
 21
569.396970
 31
0.0
 11
107.949176
 21
568.877923
 31
0.0
 11
107.750480
 21
568.398229
 31
0.0
 11
107.431910
 21
567.982755
 31
0.0
 11
107.016436
 21
567.664185
 31
0.0
 11
106.536742
 21
567.465489
 31
0.0
 11
106.017695
 21
567.396968
 31
0.0
 11
105.498648
 21
567.465489
 31
0.0
 11
105.018954
 21
567.664185
 31
0.0
 11
104.603480
 21
567.982755
 31
0.0
 11
104.284910
 21
568.398229
 31
0.0
 11
104.086214
 21
568.877923
 31
0.0
 11
104.017693
 21
569.396970
 31
0.0
 11
104.086214
 21
569.916017
 31
0.0
 11
104.284910
 21
570.395711
 31
0.0
 11
104.603480
 21
570.811185
 31
0.0
 11
105.018954
 21
571.129755
 31
0.0
 11
105.498648
 21
571.328451
 31
0.0
 11
106.017695
 21
571.396972
 31
0.0
 11
106.536742
 21
571.328451
 31
0.0
 11
107.016436
 21
571.129755
 31
0.0
 11
107.431910
 21
570.811185
 31
0.0
 11
107.750480
 21
570.395711
 31
0.0
 11
107.949176
 21
569.916017
 31
0.0
 11
108.017697
 21
569.396970
 31
0.0
  0
LWPOLYLINE
  5
106
100
AcDbEntity
  8
0
 62
7
100
AcDbPolyline
 90
2
 70
1
 10
108.017697
 20
569.396970
 30
0.0
 10
108.017697
 20
569.396970
 30
0.0
  0
LWPOLYLINE
  5
107
100
AcDbEntity
  8
0
 62
7
100
AcDbPolyline
 90
2
 70
1
 10
108.017697
 20
503.746920
 30
0.0
 10
108.017697
 20
503.746920
 30
0.0
  0
SPLINE
  5
108
100
AcDbEntity
  8
0
 62
7
100
AcDbSpline
 70
0
 71
3
 72
31
 73
27
 74
25
 40
0.000000
 40
0.000000
 40
0.000000
 40
0.000000
 40
0.523550
 40
1.042768
 40
1.566318
 40
2.089868
 40
2.609086
 40
3.132636
 40
3.656186
 40
4.175404
 40
4.698954
 40
5.222504
 40
5.741722
 40
6.265272
 40
6.788822
 40
7.308040
 40
7.831590
 40
8.355140
 40
8.874358
 40
9.397908
 40
9.921458
 40
10.440676
 40
10.964226
 40
11.487776
 40
12.006994
 40
12.530544
 40
12.530544
 40
12.530544
 40
12.530544
 10
108.017697
 20
503.746920
 30
0.0
 10
108.004364
 20
503.571903
 30
0.0
 10
107.977809
 20
503.223318
 30
0.0
 10
107.767959
 20
502.735488
 30
0.0
 10
107.448692
 20
502.316367
 30
0.0
 10
107.029009
 20
501.995003
 30
0.0
 10
106.541329
 20
501.792937
 30
0.0
 10
106.017686
 20
501.723813
 30
0.0
 10
105.494095
 20
501.792937
 30
0.0
 10
105.006263
 20
501.995003
 30
0.0
 10
104.587142
 20
502.316367
 30
0.0
 10
104.265778
 20
502.735488
 30
0.0
 10
104.063713
 20
503.223318
 30
0.0
 10
103.994588
 20
503.746920
 30
0.0
 10
104.063713
 20
504.270521
 30
0.0
 10
104.265778
 20
504.758351
 30
0.0
 10
104.587142
 20
505.177472
 30
0.0
 10
105.006263
 20
505.498836
 30
0.0
 10
105.494095
 20
505.700902
 30
0.0
 10
106.017686
 20
505.770027
 30
0.0
 10
106.541329
 20
505.700902
 30
0.0
 10
107.029009
 20
505.498836
 30
0.0
 10
107.448692
 20
505.177472
 30
0.0
 10
107.767959
 20
504.758351
 30
0.0
 10
107.977809
 20
504.270522
 30
0.0
 10
108.004364
 20
503.921936
 30
0.0
 10
108.017697
 20
503.746920
 30
0.0
 11
108.017697
 21
503.746920
 31
0.0
 11
107.949176
 21
503.227873
 31
0.0
 11
107.750480
 21
502.748178
 31
0.0
 11
107.431910
 21
502.332705
 31
0.0
 11
107.016436
 21
502.014135
 31
0.0
 11
106.536742
 21
501.815439
 31
0.0
 11
106.017695
 21
501.746918
 31
0.0
 11
105.498648
 21
501.815439
 31
0.0
 11
105.018954
 21
502.014135
 31
0.0
 11
104.603480
 21
502.332705
 31
0.0
 11
104.284910
 21
502.748178
 31
0.0
 11
104.086214
 21
503.227873
 31
0.0
 11
104.017693
 21
503.746920
 31
0.0
 11
104.086214
 21
504.265966
 31
0.0
 11
104.284910
 21
504.745661
 31
0.0
 11
104.603480
 21
505.161134
 31
0.0
 11
105.018954
 21
505.479704
 31
0.0
 11
105.498648
 21
505.678400
 31
0.0
 11
106.017695
 21
505.746921
 31
0.0
 11
106.536742
 21
505.678400
 31
0.0
 11
107.016436
 21
505.479704
 31
0.0
 11
107.431910
 21
505.161134
 31
0.0
 11
107.750480
 21
504.745661
 31
0.0
 11
107.949176
 21
504.265966
 31
0.0
 11
108.017697
 21
503.746920
 31
0.0
  0
LWPOLYLINE
  5
109
100
AcDbEntity
  8
0
 62
7
100
AcDbPolyline
 90
2
 70
1
 10
119.017706
 20
579.396979
 30
0.0
 10
219.217790
 20
579.396979
 30
0.0
  0
SPLINE
  5
10a
100
AcDbEntity
  8
0
 62
7
100
AcDbSpline
 70
0
 71
3
 72
10
 73
6
 74
4
 40
0.000000
 40
0.000000
 40
0.000000
 40
0.000000
 40
1.570489
 40
3.090927
 40
4.661415
 40
4.661415
 40
4.661415
 40
4.661415
 10
219.217790
 20
579.396979
 30
0.0
 10
219.744298
 20
579.315111
 30
0.0
 10
220.780534
 20
579.153986
 30
0.0
 10
221.974800
 20
577.959720
 30
0.0
 10
222.135925
 20
576.923484
 30
0.0
 10
222.217793
 20
576.396976
 30
0.0
 11
219.217790
 21
579.396979
 31
0.0
 11
220.734236
 21
578.988534
 31
0.0
 11
221.809348
 21
577.913422
 31
0.0
 11
222.217793
 21
576.396976
 31
0.0
  0
LWPOLYLINE
  5
10b
100
AcDbEntity
  8
0
 62
7
100
AcDbPolyline
 90
2
 70
1
 10
222.217793
 20
576.396976
 30
0.0
 10
222.217793
 20
488.746902
 30
0.0
  0
SPLINE
  5
10c
100
AcDbEntity
  8
0
 62
7
100
AcDbSpline
 70
0
 71
3
 72
10
 73
6
 74
4
 40
0.000000
 40
0.000000
 40
0.000000
 40
0.000000
 40
1.570489
 40
3.090927
 40
4.661415
 40
4.661415
 40
4.661415
 40
4.661415
 10
222.217793
 20
488.746902
 30
0.0
 10
222.135925
 20
488.220394
 30
0.0
 10
221.974800
 20
487.184158
 30
0.0
 10
220.780534
 20
485.989892
 30
0.0
 10
219.744298
 20
485.828767
 30
0.0
 10
219.217790
 20
485.746899
 30
0.0
 11
222.217793
 21
488.746902
 31
0.0
 11
221.809348
 21
487.230456
 31
0.0
 11
220.734236
 21
486.155344
 31
0.0
 11
219.217790
 21
485.746899
 31
0.0
  0
LWPOLYLINE
  5
10d
100
AcDbEntity
  8
0
 62
7
100
AcDbPolyline
 90
2
 70
1
 10
219.217790
 20
485.746899
 30
0.0
 10
119.017706
 20
485.746899
 30
0.0
  0
SPLINE
  5
10e
100
AcDbEntity
  8
0
 62
7
100
AcDbSpline
 70
0
 71
3
 72
10
 73
6
 74
4
 40
0.000000
 40
0.000000
 40
0.000000
 40
0.000000
 40
1.570489
 40
3.090927
 40
4.661415
 40
4.661415
 40
4.661415
 40
4.661415
 10
119.017706
 20
485.746899
 30
0.0
 10
118.491198
 20
485.828767
 30
0.0
 10
117.454962
 20
485.989892
 30
0.0
 10
116.260696
 20
487.184158
 30
0.0
 10
116.099571
 20
488.220394
 30
0.0
 10
116.017703
 20
488.746902
 30
0.0
 11
119.017706
 21
485.746899
 31
0.0
 11
117.501260
 21
486.155344
 31
0.0
 11
116.426148
 21
487.230456
 31
0.0
 11
116.017703
 21
488.746902
 31
0.0
  0
LWPOLYLINE
  5
10f
100
AcDbEntity
  8
0
 62
7
100
AcDbPolyline
 90
2
 70
1
 10
116.017703
 20
488.746902
 30
0.0
 10
116.017703
 20
576.396976
 30
0.0
  0
LWPOLYLINE
  5
110
100
AcDbEntity
  8
0
 62
7
100
AcDbPolyline
 90
2
 70
1
 10
119.017706
 20
579.396979
 30
0.0
 10
119.017706
 20
579.396979
 30
0.0
  0
LWPOLYLINE
  5
111
100
AcDbEntity
  8
0
 62
7
100
AcDbPolyline
 90
133
 70
1
 10
114.875440
 20
325.952378
 30
0.0
 10
114.875440
 20
328.952381
 30
0.0
 10
129.875452
 20
328.952381
 30
0.0
 10
129.875452
 20
325.952378
 30
0.0
 10
144.875462
 20
325.952378
 30
0.0
 10
144.875462
 20
328.952381
 30
0.0
 10
159.875477
 20
328.952381
 30
0.0
 10
159.875477
 20
325.952378
 30
0.0
 10
174.875487
 20
325.952378
 30
0.0
 10
174.875487
 20
328.952381
 30
0.0
 10
189.875502
 20
328.952381
 30
0.0
 10
189.875502
 20
325.952378
 30
0.0
 10
204.875514
 20
325.952378
 30
0.0
 10
204.875514
 20
328.952381
 30
0.0
 10
219.875526
 20
328.952381
 30
0.0
 10
219.875526
 20
325.952378
 30
0.0
 10
234.875539
 20
325.952378
 30
0.0
 10
234.875539
 20
328.952381
 30
0.0
 10
249.875551
 20
328.952381
 30
0.0
 10
249.875551
 20
325.952378
 30
0.0
 10
264.875563
 20
325.952378
 30
0.0
 10
264.875563
 20
328.952381
 30
0.0
 10
279.875576
 20
328.952381
 30
0.0
 10
279.875576
 20
325.952378
 30
0.0
 10
304.125608
 20
325.952378
 30
0.0
 10
304.125608
 20
328.952381
 30
0.0
 10
328.375609
 20
328.952381
 30
0.0
 10
328.375609
 20
305.202361
 30
0.0
 10
325.375615
 20
305.202361
 30
0.0
 10
325.375615
 20
281.452343
 30
0.0
 10
328.375609
 20
281.452343
 30
0.0
 10
328.375609
 20
266.452331
 30
0.0
 10
325.375615
 20
266.452331
 30
0.0
 10
325.375615
 20
251.452318
 30
0.0
 10
328.375609
 20
251.452318
 30
0.0
 10
328.375609
 20
236.452306
 30
0.0
 10
325.375615
 20
236.452306
 30
0.0
 10
325.375615
 20
221.452294
 30
0.0
 10
328.375609
 20
221.452294
 30
0.0
 10
328.375609
 20
206.452279
 30
0.0
 10
325.375615
 20
206.452279
 30
0.0
 10
325.375615
 20
191.452269
 30
0.0
 10
328.375609
 20
191.452269
 30
0.0
 10
328.375609
 20
176.452254
 30
0.0
 10
325.375615
 20
176.452254
 30
0.0
 10
325.375615
 20
161.452244
 30
0.0
 10
328.375609
 20
161.452244
 30
0.0
 10
328.375609
 20
146.452229
 30
0.0
 10
325.375615
 20
146.452229
 30
0.0
 10
325.375615
 20
131.452220
 30
0.0
 10
328.375609
 20
131.452220
 30
0.0
 10
328.375609
 20
116.452205
 30
0.0
 10
325.375615
 20
116.452205
 30
0.0
 10
325.375615
 20
92.702186
 30
0.0
 10
328.375609
 20
92.702186
 30
0.0
 10
328.375609
 20
68.952167
 30
0.0
 10
304.125608
 20
68.952167
 30
0.0
 10
304.125608
 20
71.952169
 30
0.0
 10
279.875576
 20
71.952169
 30
0.0
 10
279.875576
 20
68.952167
 30
0.0
 10
264.875563
 20
68.952167
 30
0.0
 10
264.875563
 20
71.952169
 30
0.0
 10
249.875551
 20
71.952169
 30
0.0
 10
249.875551
 20
68.952167
 30
0.0
 10
234.875539
 20
68.952167
 30
0.0
 10
234.875539
 20
71.952169
 30
0.0
 10
219.875526
 20
71.952169
 30
0.0
 10
219.875526
 20
68.952167
 30
0.0
 10
204.875514
 20
68.952167
 30
0.0
 10
204.875514
 20
71.952169
 30
0.0
 10
189.875502
 20
71.952169
 30
0.0
 10
189.875502
 20
68.952167
 30
0.0
 10
174.875487
 20
68.952167
 30
0.0
 10
174.875487
 20
71.952169
 30
0.0
 10
159.875477
 20
71.952169
 30
0.0
 10
159.875477
 20
68.952167
 30
0.0
 10
144.875462
 20
68.952167
 30
0.0
 10
144.875462
 20
71.952169
 30
0.0
 10
129.875452
 20
71.952169
 30
0.0
 10
129.875452
 20
68.952167
 30
0.0
 10
114.875440
 20
68.952167
 30
0.0
 10
114.875440
 20
71.952169
 30
0.0
 10
99.875428
 20
71.952169
 30
0.0
 10
99.875428
 20
68.952167
 30
0.0
 10
84.875413
 20
68.952167
 30
0.0
 10
84.875413
 20
71.952169
 30
0.0
 10
69.875403
 20
71.952169
 30
0.0
 10
69.875403
 20
68.952167
 30
0.0
 10
54.875391
 20
68.952167
 30
0.0
 10
54.875391
 20
71.952169
 30
0.0
 10
30.625370
 20
71.952169
 30
0.0
 10
30.625370
 20
68.952167
 30
0.0
 10
6.375349
 20
68.952167
 30
0.0
 10
6.375349
 20
92.702186
 30
0.0
 10
9.375352
 20
92.702186
 30
0.0
 10
9.375352
 20
116.452205
 30
0.0
 10
6.375349
 20
116.452205
 30
0.0
 10
6.375349
 20
131.452220
 30
0.0
 10
9.375352
 20
131.452220
 30
0.0
 10
9.375352
 20
146.452229
 30
0.0
 10
6.375349
 20
146.452229
 30
0.0
 10
6.375349
 20
161.452244
 30
0.0
 10
9.375352
 20
161.452244
 30
0.0
 10
9.375352
 20
176.452254
 30
0.0
 10
6.375349
 20
176.452254
 30
0.0
 10
6.375349
 20
191.452269
 30
0.0
 10
9.375352
 20
191.452269
 30
0.0
 10
9.375352
 20
206.452279
 30
0.0
 10
6.375349
 20
206.452279
 30
0.0
 10
6.375349
 20
221.452294
 30
0.0
 10
9.375352
 20
221.452294
 30
0.0
 10
9.375352
 20
236.452306
 30
0.0
 10
6.375349
 20
236.452306
 30
0.0
 10
6.375349
 20
251.452318
 30
0.0
 10
9.375352
 20
251.452318
 30
0.0
 10
9.375352
 20
266.452331
 30
0.0
 10
6.375349
 20
266.452331
 30
0.0
 10
6.375349
 20
281.452343
 30
0.0
 10
9.375352
 20
281.452343
 30
0.0
 10
9.375352
 20
305.202361
 30
0.0
 10
6.375349
 20
305.202361
 30
0.0
 10
6.375349
 20
328.952381
 30
0.0
 10
30.625370
 20
328.952381
 30
0.0
 10
30.625370
 20
325.952378
 30
0.0
 10
54.875391
 20
325.952378
 30
0.0
 10
54.875391
 20
328.952381
 30
0.0
 10
69.875403
 20
328.952381
 30
0.0
 10
69.875403
 20
325.952378
 30
0.0
 10
84.875413
 20
325.952378
 30
0.0
 10
84.875413
 20
328.952381
 30
0.0
 10
99.875428
 20
328.952381
 30
0.0
 10
99.875428
 20
325.952378
 30
0.0
 10
114.875440
 20
325.952378
 30
0.0
  0
SPLINE
  5
112
100
AcDbEntity
  8
0
 62
7
100
AcDbSpline
 70
0
 71
3
 72
10
 73
6
 74
4
 40
0.000000
 40
0.000000
 40
0.000000
 40
0.000000
 40
1.570489
 40
3.090927
 40
4.661415
 40
4.661415
 40
4.661415
 40
4.661415
 10
116.017703
 20
576.396976
 30
0.0
 10
116.099571
 20
576.923484
 30
0.0
 10
116.260696
 20
577.959720
 30
0.0
 10
117.454962
 20
579.153986
 30
0.0
 10
118.491198
 20
579.315111
 30
0.0
 10
119.017706
 20
579.396979
 30
0.0
 11
116.017703
 21
576.396976
 31
0.0
 11
116.426148
 21
577.913422
 31
0.0
 11
117.501260
 21
578.988534
 31
0.0
 11
119.017706
 21
579.396979
 31
0.0
  0
LWPOLYLINE
  5
113
100
AcDbEntity
  8
0
 62
7
100
AcDbPolyline
 90
2
 70
1
 10
236.375541
 20
268.952331
 30
0.0
 10
296.375588
 20
268.952331
 30
0.0
  0
SPLINE
  5
114
100
AcDbEntity
  8
0
 62
7
100
AcDbSpline
 70
0
 71
3
 72
10
 73
6
 74
4
 40
0.000000
 40
0.000000
 40
0.000000
 40
0.000000
 40
1.046993
 40
2.060615
 40
3.107607
 40
3.107607
 40
3.107607
 40
3.107607
 10
296.375588
 20
268.952331
 30
0.0
 10
296.726593
 20
268.897753
 30
0.0
 10
297.417417
 20
268.790337
 30
0.0
 10
298.213591
 20
267.994158
 30
0.0
 10
298.321006
 20
267.303335
 30
0.0
 10
298.375584
 20
266.952330
 30
0.0
 11
296.375588
 21
268.952331
 31
0.0
 11
297.386552
 21
268.680035
 31
0.0
 11
298.103290
 21
267.963294
 31
0.0
 11
298.375584
 21
266.952330
 31
0.0
  0
LWPOLYLINE
  5
115
100
AcDbEntity
  8
0
 62
7
100
AcDbPolyline
 90
2
 70
1
 10
298.375584
 20
266.952330
 30
0.0
 10
298.375584
 20
68.952173
 30
0.0
  0
SPLINE
  5
116
100
AcDbEntity
  8
0
 62
7
100
AcDbSpline
 70
0
 71
3
 72
10
 73
6
 74
4
 40
0.000000
 40
0.000000
 40
0.000000
 40
0.000000
 40
1.046992
 40
2.060615
 40
3.107607
 40
3.107607
 40
3.107607
 40
3.107607
 10
298.375584
 20
68.952173
 30
0.0
 10
298.321006
 20
68.601168
 30
0.0
 10
298.213591
 20
67.910344
 30
0.0
 10
297.417417
 20
67.114165
 30
0.0
 10
296.726593
 20
67.006749
 30
0.0
 10
296.375588
 20
66.952171
 30
0.0
 11
298.375584
 21
68.952173
 31
0.0
 11
298.103290
 21
67.941209
 31
0.0
 11
297.386552
 21
67.224467
 31
0.0
 11
296.375588
 21
66.952171
 31
0.0
  0
LWPOLYLINE
  5
117
100
AcDbEntity
  8
0
 62
7
100
AcDbPolyline
 90
2
 70
1
 10
296.375588
 20
66.952171
 30
0.0
 10
236.375541
 20
66.952171
 30
0.0
  0
SPLINE
  5
118
100
AcDbEntity
  8
0
 62
7
100
AcDbSpline
 70
0
 71
3
 72
10
 73
6
 74
4
 40
0.000000
 40
0.000000
 40
0.000000
 40
0.000000
 40
1.046992
 40
2.060617
 40
3.107610
 40
3.107610
 40
3.107610
 40
3.107610
 10
236.375541
 20
66.952171
 30
0.0
 10
236.024537
 20
67.006749
 30
0.0
 10
235.333713
 20
67.114167
 30
0.0
 10
234.537536
 20
67.910343
 30
0.0
 10
234.430118
 20
68.601167
 30
0.0
 10
234.375540
 20
68.952173
 30
0.0
 11
236.375541
 21
66.952171
 31
0.0
 11
235.364579
 21
67.224467
 31
0.0
 11
234.647837
 21
67.941209
 31
0.0
 11
234.375540
 21
68.952173
 31
0.0
  0
LWPOLYLINE
  5
119
100
AcDbEntity
  8
0
 62
7
100
AcDbPolyline
 90
2
 70
1
 10
234.375540
 20
68.952173
 30
0.0
 10
234.375540
 20
266.952330
 30
0.0
  0
SPLINE
  5
11a
100
AcDbEntity
  8
0
 62
7
100
AcDbSpline
 70
0
 71
3
 72
10
 73
6
 74
4
 40
0.000000
 40
0.000000
 40
0.000000
 40
0.000000
 40
1.046993
 40
2.060618
 40
3.107610
 40
3.107610
 40
3.107610
 40
3.107610
 10
234.375540
 20
266.952330
 30
0.0
 10
234.430118
 20
267.303335
 30
0.0
 10
234.537536
 20
267.994159
 30
0.0
 10
235.333713
 20
268.790336
 30
0.0
 10
236.024537
 20
268.897753
 30
0.0
 10
236.375541
 20
268.952331
 30
0.0
 11
234.375540
 21
266.952330
 31
0.0
 11
234.647837
 21
267.963294
 31
0.0
 11
235.364579
 21
268.680035
 31
0.0
 11
236.375541
 21
268.952331
 31
0.0
  0
LWPOLYLINE
  5
11b
100
AcDbEntity
  8
0
 62
7
100
AcDbPolyline
 90
2
 70
1
 10
236.375541
 20
268.952331
 30
0.0
 10
236.375541
 20
268.952331
 30
0.0
  0
SPLINE
  5
11c
100
AcDbEntity
  8
0
 62
7
100
AcDbSpline
 70
0
 71
3
 72
25
 73
21
 74
19
 40
0.000000
 40
0.000000
 40
0.000000
 40
0.000000
 40
0.915004
 40
1.802869
 40
2.717873
 40
3.175979
 40
3.630295
 40
4.088402
 40
4.546508
 40
5.000824
 40
5.458931
 40
5.917037
 40
6.371353
 40
6.829460
 40
7.287566
 40
7.741882
 40
8.199988
 40
9.114992
 40
10.002857
 40
10.917861
 40
10.917861
 40
10.917861
 40
10.917861
 10
228.625536
 20
238.952310
 30
0.0
 10
228.577382
 20
238.643834
 30
0.0
 10
228.482502
 20
238.036033
 30
0.0
 10
227.786605
 20
237.366543
 30
0.0
 10
227.027953
 20
237.161258
 30
0.0
 10
226.417442
 20
237.242700
 30
0.0
 10
225.990516
 20
237.419349
 30
0.0
 10
225.623805
 20
237.700585
 30
0.0
 10
225.342605
 20
238.067304
 30
0.0
 10
225.165799
 20
238.494158
 30
0.0
 10
225.105314
 20
238.952310
 30
0.0
 10
225.165799
 20
239.410461
 30
0.0
 10
225.342605
 20
239.837315
 30
0.0
 10
225.623805
 20
240.204034
 30
0.0
 10
225.990516
 20
240.485270
 30
0.0
 10
226.417442
 20
240.661919
 30
0.0
 10
227.027953
 20
240.743361
 30
0.0
 10
227.786605
 20
240.538076
 30
0.0
 10
228.482502
 20
239.868586
 30
0.0
 10
228.577382
 20
239.260785
 30
0.0
 10
228.625536
 20
238.952310
 30
0.0
 11
228.625536
 21
238.952310
 31
0.0
 11
228.386609
 21
238.069051
 31
0.0
 11
227.758794
 21
237.441235
 31
0.0
 11
226.875535
 21
237.202309
 31
0.0
 11
226.421369
 21
237.262264
 31
0.0
 11
226.001636
 21
237.436123
 31
0.0
 11
225.638096
 21
237.714871
 31
0.0
 11
225.359347
 21
238.078411
 31
0.0
 11
225.185488
 21
238.498143
 31
0.0
 11
225.125531
 21
238.952310
 31
0.0
 11
225.185488
 21
239.406476
 31
0.0
 11
225.359347
 21
239.826209
 31
0.0
 11
225.638096
 21
240.189748
 31
0.0
 11
226.001636
 21
240.468496
 31
0.0
 11
226.421369
 21
240.642355
 31
0.0
 11
226.875535
 21
240.702310
 31
0.0
 11
227.758794
 21
240.463384
 31
0.0
 11
228.386609
 21
239.835568
 31
0.0
 11
228.625536
 21
238.952310
 31
0.0
  0
LWPOLYLINE
  5
11d
100
AcDbEntity
  8
0
 62
7
100
AcDbPolyline
 90
2
 70
1
 10
228.625536
 20
238.952310
 30
0.0
 10
228.625536
 20
238.952310
 30
0.0
  0
SPLINE
  5
11e
100
AcDbEntity
  8
0
 62
7
100
AcDbSpline
 70
0
 71
3
 72
28
 73
24
 74
22
 40
0.000000
 40
0.000000
 40
0.000000
 40
0.000000
 40
0.915004
 40
1.802869
 40
2.717873
 40
3.175979
 40
3.630295
 40
4.088402
 40
4.546508
 40
5.000824
 40
5.458931
 40
5.917038
 40
6.371354
 40
6.829461
 40
7.287568
 40
7.741884
 40
8.199991
 40
8.658098
 40
9.112414
 40
9.570520
 40
10.028627
 40
10.482943
 40
10.941049
 40
10.941049
 40
10.941049
 40
10.941049
 10
228.625536
 20
168.952241
 30
0.0
 10
228.577382
 20
168.643765
 30
0.0
 10
228.482502
 20
168.035964
 30
0.0
 10
227.786605
 20
167.366474
 30
0.0
 10
227.027953
 20
167.161189
 30
0.0
 10
226.417442
 20
167.242632
 30
0.0
 10
225.990516
 20
167.419280
 30
0.0
 10
225.623805
 20
167.700516
 30
0.0
 10
225.342605
 20
168.067235
 30
0.0
 10
225.165799
 20
168.494089
 30
0.0
 10
225.105314
 20
168.952241
 30
0.0
 10
225.165798
 20
169.410393
 30
0.0
 10
225.342605
 20
169.837245
 30
0.0
 10
225.623799
 20
170.203977
 30
0.0
 10
225.990530
 20
170.485170
 30
0.0
 10
226.417385
 20
170.661978
 30
0.0
 10
226.875527
 20
170.722461
 30
0.0
 10
227.333715
 20
170.661977
 30
0.0
 10
227.760435
 20
170.485169
 30
0.0
 10
228.127658
 20
170.203975
 30
0.0
 10
228.407016
 20
169.837244
 30
0.0
 10
228.590635
 20
169.410393
 30
0.0
 10
228.613870
 20
169.105381
 30
0.0
 10
228.625536
 20
168.952241
 30
0.0
 11
228.625536
 21
168.952241
 31
0.0
 11
228.386609
 21
168.068982
 31
0.0
 11
227.758794
 21
167.441167
 31
0.0
 11
226.875535
 21
167.202240
 31
0.0
 11
226.421369
 21
167.262195
 31
0.0
 11
226.001636
 21
167.436054
 31
0.0
 11
225.638096
 21
167.714803
 31
0.0
 11
225.359347
 21
168.078342
 31
0.0
 11
225.185488
 21
168.498075
 31
0.0
 11
225.125531
 21
168.952241
 31
0.0
 11
225.185487
 21
169.406408
 31
0.0
 11
225.359346
 21
169.826141
 31
0.0
 11
225.638095
 21
170.189681
 31
0.0
 11
226.001635
 21
170.468430
 31
0.0
 11
226.421368
 21
170.642289
 31
0.0
 11
226.875535
 21
170.702244
 31
0.0
 11
227.329701
 21
170.642288
 31
0.0
 11
227.749434
 21
170.468429
 31
0.0
 11
228.112973
 21
170.189680
 31
0.0
 11
228.391722
 21
169.826140
 31
0.0
 11
228.565580
 21
169.406407
 31
0.0
 11
228.625536
 21
168.952241
 31
0.0
  0
LWPOLYLINE
  5
11f
100
AcDbEntity
  8
0
 62
7
100
AcDbPolyline
 90
2
 70
1
 10
228.625536
 20
168.952241
 30
0.0
 10
228.625536
 20
168.952241
 30
0.0
  0
SPLINE
  5
120
100
AcDbEntity
  8
0
 62
7
100
AcDbSpline
 70
0
 71
3
 72
28
 73
24
 74
22
 40
0.000000
 40
0.000000
 40
0.000000
 40
0.000000
 40
0.458107
 40
0.912422
 40
1.370529
 40
1.828636
 40
2.282951
 40
2.741058
 40
3.199165
 40
3.653481
 40
4.111588
 40
4.569695
 40
5.024012
 40
5.482119
 40
5.940225
 40
6.394541
 40
6.852648
 40
7.310754
 40
7.765070
 40
8.223177
 40
9.138180
 40
10.026045
 40
10.941049
 40
10.941049
 40
10.941049
 40
10.941049
 10
228.625536
 20
98.952192
 30
0.0
 10
228.613870
 20
98.799052
 30
0.0
 10
228.590635
 20
98.494040
 30
0.0
 10
228.407016
 20
98.067188
 30
0.0
 10
228.127658
 20
97.700457
 30
0.0
 10
227.760435
 20
97.419263
 30
0.0
 10
227.333715
 20
97.242455
 30
0.0
 10
226.875527
 20
97.181971
 30
0.0
 10
226.417385
 20
97.242455
 30
0.0
 10
225.990530
 20
97.419262
 30
0.0
 10
225.623799
 20
97.700456
 30
0.0
 10
225.342605
 20
98.067188
 30
0.0
 10
225.165798
 20
98.494039
 30
0.0
 10
225.105314
 20
98.952192
 30
0.0
 10
225.165799
 20
99.410343
 30
0.0
 10
225.342605
 20
99.837197
 30
0.0
 10
225.623805
 20
100.203917
 30
0.0
 10
225.990516
 20
100.485152
 30
0.0
 10
226.417442
 20
100.661801
 30
0.0
 10
227.027953
 20
100.743243
 30
0.0
 10
227.786605
 20
100.537958
 30
0.0
 10
228.482502
 20
99.868468
 30
0.0
 10
228.577382
 20
99.260667
 30
0.0
 10
228.625536
 20
98.952192
 30
0.0
 11
228.625536
 21
98.952192
 31
0.0
 11
228.565580
 21
98.498025
 31
0.0
 11
228.391722
 21
98.078292
 31
0.0
 11
228.112973
 21
97.714753
 31
0.0
 11
227.749434
 21
97.436004
 31
0.0
 11
227.329701
 21
97.262144
 31
0.0
 11
226.875535
 21
97.202188
 31
0.0
 11
226.421368
 21
97.262144
 31
0.0
 11
226.001635
 21
97.436003
 31
0.0
 11
225.638095
 21
97.714752
 31
0.0
 11
225.359346
 21
98.078291
 31
0.0
 11
225.185487
 21
98.498025
 31
0.0
 11
225.125531
 21
98.952192
 31
0.0
 11
225.185488
 21
99.406358
 31
0.0
 11
225.359347
 21
99.826091
 31
0.0
 11
225.638096
 21
100.189630
 31
0.0
 11
226.001636
 21
100.468378
 31
0.0
 11
226.421369
 21
100.642237
 31
0.0
 11
226.875535
 21
100.702192
 31
0.0
 11
227.758794
 21
100.463266
 31
0.0
 11
228.386609
 21
99.835450
 31
0.0
 11
228.625536
 21
98.952192
 31
0.0
  0
LWPOLYLINE
  5
121
100
AcDbEntity
  8
0
 62
7
100
AcDbPolyline
 90
2
 70
1
 10
228.625536
 20
98.952192
 30
0.0
 10
228.625536
 20
98.952192
 30
0.0
  0
SPLINE
  5
122
100
AcDbEntity
  8
0
 62
7
100
AcDbSpline
 70
0
 71
3
 72
31
 73
27
 74
25
 40
0.000000
 40
0.000000
 40
0.000000
 40
0.000000
 40
0.458107
 40
0.912423
 40
1.370530
 40
1.828637
 40
2.282954
 40
2.741061
 40
3.199168
 40
3.653484
 40
4.111591
 40
4.569698
 40
5.024014
 40
5.482121
 40
5.940228
 40
6.394544
 40
6.852650
 40
7.310757
 40
7.765073
 40
8.223179
 40
8.681286
 40
9.135602
 40
9.593708
 40
10.051815
 40
10.506131
 40
10.964237
 40
10.964237
 40
10.964237
 40
10.964237
 10
307.625587
 20
98.952192
 30
0.0
 10
307.613921
 20
98.799052
 30
0.0
 10
307.590686
 20
98.494039
 30
0.0
 10
307.407066
 20
98.067188
 30
0.0
 10
307.127708
 20
97.700456
 30
0.0
 10
306.760484
 20
97.419262
 30
0.0
 10
306.333763
 20
97.242455
 30
0.0
 10
305.875576
 20
97.181971
 30
0.0
 10
305.417433
 20
97.242455
 30
0.0
 10
304.990578
 20
97.419262
 30
0.0
 10
304.623847
 20
97.700456
 30
0.0
 10
304.342654
 20
98.067188
 30
0.0
 10
304.165846
 20
98.494039
 30
0.0
 10
304.105362
 20
98.952192
 30
0.0
 10
304.165847
 20
99.410344
 30
0.0
 10
304.342655
 20
99.837195
 30
0.0
 10
304.623848
 20
100.203926
 30
0.0
 10
304.990579
 20
100.485119
 30
0.0
 10
305.417433
 20
100.661926
 30
0.0
 10
305.875576
 20
100.722409
 30
0.0
 10
306.333763
 20
100.661926
 30
0.0
 10
306.760483
 20
100.485119
 30
0.0
 10
307.127707
 20
100.203926
 30
0.0
 10
307.407065
 20
99.837195
 30
0.0
 10
307.590685
 20
99.410344
 30
0.0
 10
307.613921
 20
99.105331
 30
0.0
 10
307.625587
 20
98.952192
 30
0.0
 11
307.625587
 21
98.952192
 31
0.0
 11
307.565631
 21
98.498025
 31
0.0
 11
307.391772
 21
98.078291
 31
0.0
 11
307.113023
 21
97.714752
 31
0.0
 11
306.749483
 21
97.436003
 31
0.0
 11
306.329750
 21
97.262144
 31
0.0
 11
305.875583
 21
97.202188
 31
0.0
 11
305.421416
 21
97.262144
 31
0.0
 11
305.001683
 21
97.436003
 31
0.0
 11
304.638143
 21
97.714752
 31
0.0
 11
304.359394
 21
98.078291
 31
0.0
 11
304.185535
 21
98.498025
 31
0.0
 11
304.125579
 21
98.952192
 31
0.0
 11
304.185536
 21
99.406358
 31
0.0
 11
304.359395
 21
99.826091
 31
0.0
 11
304.638144
 21
100.189630
 31
0.0
 11
305.001684
 21
100.468378
 31
0.0
 11
305.421417
 21
100.642237
 31
0.0
 11
305.875583
 21
100.702192
 31
0.0
 11
306.329749
 21
100.642237
 31
0.0
 11
306.749482
 21
100.468378
 31
0.0
 11
307.113022
 21
100.189630
 31
0.0
 11
307.391771
 21
99.826091
 31
0.0
 11
307.565630
 21
99.406358
 31
0.0
 11
307.625587
 21
98.952192
 31
0.0
  0
LWPOLYLINE
  5
123
100
AcDbEntity
  8
0
 62
7
100
AcDbPolyline
 90
2
 70
1
 10
307.625587
 20
98.952192
 30
0.0
 10
307.625587
 20
98.952192
 30
0.0
  0
SPLINE
  5
124
100
AcDbEntity
  8
0
 62
7
100
AcDbSpline
 70
0
 71
3
 72
31
 73
27
 74
25
 40
0.000000
 40
0.000000
 40
0.000000
 40
0.000000
 40
0.458107
 40
0.912422
 40
1.370529
 40
1.828636
 40
2.282951
 40
2.741058
 40
3.199165
 40
3.653480
 40
4.111587
 40
4.569694
 40
5.024009
 40
5.482116
 40
5.940223
 40
6.394539
 40
6.852646
 40
7.310753
 40
7.765069
 40
8.223177
 40
8.681284
 40
9.135600
 40
9.593707
 40
10.051814
 40
10.506130
 40
10.964237
 40
10.964237
 40
10.964237
 40
10.964237
 10
307.625587
 20
168.952241
 30
0.0
 10
307.613921
 20
168.799101
 30
0.0
 10
307.590685
 20
168.494089
 30
0.0
 10
307.407065
 20
168.067238
 30
0.0
 10
307.127707
 20
167.700507
 30
0.0
 10
306.760483
 20
167.419314
 30
0.0
 10
306.333763
 20
167.242506
 30
0.0
 10
305.875576
 20
167.182023
 30
0.0
 10
305.417433
 20
167.242506
 30
0.0
 10
304.990579
 20
167.419314
 30
0.0
 10
304.623848
 20
167.700507
 30
0.0
 10
304.342655
 20
168.067238
 30
0.0
 10
304.165847
 20
168.494089
 30
0.0
 10
304.105362
 20
168.952241
 30
0.0
 10
304.165846
 20
169.410393
 30
0.0
 10
304.342654
 20
169.837245
 30
0.0
 10
304.623847
 20
170.203977
 30
0.0
 10
304.990578
 20
170.485170
 30
0.0
 10
305.417433
 20
170.661978
 30
0.0
 10
305.875576
 20
170.722461
 30
0.0
 10
306.333763
 20
170.661978
 30
0.0
 10
306.760484
 20
170.485170
 30
0.0
 10
307.127708
 20
170.203977
 30
0.0
 10
307.407066
 20
169.837245
 30
0.0
 10
307.590686
 20
169.410393
 30
0.0
 10
307.613921
 20
169.105381
 30
0.0
 10
307.625587
 20
168.952241
 30
0.0
 11
307.625587
 21
168.952241
 31
0.0
 11
307.565630
 21
168.498075
 31
0.0
 11
307.391771
 21
168.078342
 31
0.0
 11
307.113022
 21
167.714803
 31
0.0
 11
306.749482
 21
167.436054
 31
0.0
 11
306.329749
 21
167.262195
 31
0.0
 11
305.875583
 21
167.202240
 31
0.0
 11
305.421417
 21
167.262195
 31
0.0
 11
305.001684
 21
167.436054
 31
0.0
 11
304.638144
 21
167.714803
 31
0.0
 11
304.359395
 21
168.078342
 31
0.0
 11
304.185536
 21
168.498075
 31
0.0
 11
304.125579
 21
168.952241
 31
0.0
 11
304.185535
 21
169.406408
 31
0.0
 11
304.359394
 21
169.826141
 31
0.0
 11
304.638143
 21
170.189681
 31
0.0
 11
305.001683
 21
170.468430
 31
0.0
 11
305.421416
 21
170.642289
 31
0.0
 11
305.875583
 21
170.702244
 31
0.0
 11
306.329750
 21
170.642289
 31
0.0
 11
306.749483
 21
170.468430
 31
0.0
 11
307.113023
 21
170.189681
 31
0.0
 11
307.391772
 21
169.826141
 31
0.0
 11
307.565631
 21
169.406408
 31
0.0
 11
307.625587
 21
168.952241
 31
0.0
  0
LWPOLYLINE
  5
125
100
AcDbEntity
  8
0
 62
7
100
AcDbPolyline
 90
2
 70
1
 10
307.625587
 20
168.952241
 30
0.0
 10
307.625587
 20
168.952241
 30
0.0
  0
LWPOLYLINE
  5
126
100
AcDbEntity
  8
0
 62
7
100
AcDbPolyline
 90
2
 70
1
 10
307.625587
 20
238.952310
 30
0.0
 10
307.625587
 20
238.952310
 30
0.0
  0
SPLINE
  5
127
100
AcDbEntity
  8
0
 62
7
100
AcDbSpline
 70
0
 71
3
 72
31
 73
27
 74
25
 40
0.000000
 40
0.000000
 40
0.000000
 40
0.000000
 40
0.458107
 40
0.912422
 40
1.370529
 40
1.828636
 40
2.282951
 40
2.741058
 40
3.199165
 40
3.653480
 40
4.111587
 40
4.569694
 40
5.024009
 40
5.482116
 40
5.940223
 40
6.394538
 40
6.852645
 40
7.310752
 40
7.765067
 40
8.223174
 40
8.681280
 40
9.135596
 40
9.593703
 40
10.051809
 40
10.506125
 40
10.964232
 40
10.964232
 40
10.964232
 40
10.964232
 10
307.625587
 20
238.952310
 30
0.0
 10
307.613921
 20
238.799170
 30
0.0
 10
307.590685
 20
238.494158
 30
0.0
 10
307.407065
 20
238.067307
 30
0.0
 10
307.127707
 20
237.700576
 30
0.0
 10
306.760483
 20
237.419383
 30
0.0
 10
306.333763
 20
237.242575
 30
0.0
 10
305.875576
 20
237.182092
 30
0.0
 10
305.417433
 20
237.242575
 30
0.0
 10
304.990579
 20
237.419383
 30
0.0
 10
304.623848
 20
237.700576
 30
0.0
 10
304.342654
 20
238.067307
 30
0.0
 10
304.165847
 20
238.494158
 30
0.0
 10
304.105362
 20
238.952310
 30
0.0
 10
304.165847
 20
239.410462
 30
0.0
 10
304.342654
 20
239.837313
 30
0.0
 10
304.623848
 20
240.204044
 30
0.0
 10
304.990579
 20
240.485237
 30
0.0
 10
305.417433
 20
240.662044
 30
0.0
 10
305.875576
 20
240.722527
 30
0.0
 10
306.333763
 20
240.662044
 30
0.0
 10
306.760483
 20
240.485237
 30
0.0
 10
307.127707
 20
240.204044
 30
0.0
 10
307.407065
 20
239.837313
 30
0.0
 10
307.590685
 20
239.410462
 30
0.0
 10
307.613921
 20
239.105449
 30
0.0
 10
307.625587
 20
238.952310
 30
0.0
 11
307.625587
 21
238.952310
 31
0.0
 11
307.565630
 21
238.498143
 31
0.0
 11
307.391771
 21
238.078411
 31
0.0
 11
307.113022
 21
237.714871
 31
0.0
 11
306.749482
 21
237.436123
 31
0.0
 11
306.329749
 21
237.262264
 31
0.0
 11
305.875583
 21
237.202309
 31
0.0
 11
305.421417
 21
237.262264
 31
0.0
 11
305.001684
 21
237.436123
 31
0.0
 11
304.638144
 21
237.714871
 31
0.0
 11
304.359395
 21
238.078411
 31
0.0
 11
304.185536
 21
238.498143
 31
0.0
 11
304.125579
 21
238.952310
 31
0.0
 11
304.185536
 21
239.406476
 31
0.0
 11
304.359395
 21
239.826209
 31
0.0
 11
304.638144
 21
240.189748
 31
0.0
 11
305.001684
 21
240.468496
 31
0.0
 11
305.421417
 21
240.642355
 31
0.0
 11
305.875583
 21
240.702310
 31
0.0
 11
306.329749
 21
240.642355
 31
0.0
 11
306.749482
 21
240.468496
 31
0.0
 11
307.113022
 21
240.189748
 31
0.0
 11
307.391771
 21
239.826209
 31
0.0
 11
307.565630
 21
239.406476
 31
0.0
 11
307.625587
 21
238.952310
 31
0.0
  0
LWPOLYLINE
  5
128
100
AcDbEntity
  8
0
 62
7
100
AcDbPolyline
 90
2
 70
1
 10
18.375360
 20
88.952181
 30
0.0
 10
38.375376
 20
88.952181
 30
0.0
  0
SPLINE
  5
129
100
AcDbEntity
  8
0
 62
7
100
AcDbSpline
 70
0
 71
3
 72
10
 73
6
 74
4
 40
0.000000
 40
0.000000
 40
0.000000
 40
0.000000
 40
1.046993
 40
2.060618
 40
3.107611
 40
3.107611
 40
3.107611
 40
3.107611
 10
38.375376
 20
88.952181
 30
0.0
 10
38.726381
 20
88.897602
 30
0.0
 10
39.417205
 20
88.790186
 30
0.0
 10
40.213382
 20
87.994008
 30
0.0
 10
40.320799
 20
87.303184
 30
0.0
 10
40.375377
 20
86.952179
 30
0.0
 11
38.375376
 21
88.952181
 31
0.0
 11
39.386340
 21
88.679884
 31
0.0
 11
40.103081
 21
87.963143
 31
0.0
 11
40.375377
 21
86.952179
 31
0.0
  0
LWPOLYLINE
  5
12a
100
AcDbEntity
  8
0
 62
7
100
AcDbPolyline
 90
2
 70
1
 10
40.375377
 20
86.952179
 30
0.0
 10
40.375377
 20
76.952171
 30
0.0
  0
SPLINE
  5
12b
100
AcDbEntity
  8
0
 62
7
100
AcDbSpline
 70
0
 71
3
 72
10
 73
6
 74
4
 40
0.000000
 40
0.000000
 40
0.000000
 40
0.000000
 40
1.046993
 40
2.060618
 40
3.107611
 40
3.107611
 40
3.107611
 40
3.107611
 10
40.375377
 20
76.952171
 30
0.0
 10
40.320799
 20
76.601165
 30
0.0
 10
40.213382
 20
75.910341
 30
0.0
 10
39.417205
 20
75.114164
 30
0.0
 10
38.726381
 20
75.006747
 30
0.0
 10
38.375376
 20
74.952169
 30
0.0
 11
40.375377
 21
76.952171
 31
0.0
 11
40.103081
 21
75.941207
 31
0.0
 11
39.386340
 21
75.224465
 31
0.0
 11
38.375376
 21
74.952169
 31
0.0
  0
LWPOLYLINE
  5
12c
100
AcDbEntity
  8
0
 62
7
100
AcDbPolyline
 90
2
 70
1
 10
38.375376
 20
74.952169
 30
0.0
 10
18.375360
 20
74.952169
 30
0.0
  0
SPLINE
  5
12d
100
AcDbEntity
  8
0
 62
7
100
AcDbSpline
 70
0
 71
3
 72
10
 73
6
 74
4
 40
0.000000
 40
0.000000
 40
0.000000
 40
0.000000
 40
1.046992
 40
2.060618
 40
3.107610
 40
3.107610
 40
3.107610
 40
3.107610
 10
18.375360
 20
74.952169
 30
0.0
 10
18.024355
 20
75.006747
 30
0.0
 10
17.333531
 20
75.114164
 30
0.0
 10
16.537353
 20
75.910341
 30
0.0
 10
16.429936
 20
76.601165
 30
0.0
 10
16.375358
 20
76.952171
 30
0.0
 11
18.375360
 21
74.952169
 31
0.0
 11
17.364396
 21
75.224465
 31
0.0
 11
16.647655
 21
75.941207
 31
0.0
 11
16.375358
 21
76.952171
 31
0.0
  0
LWPOLYLINE
  5
12e
100
AcDbEntity
  8
0
 62
7
100
AcDbPolyline
 90
2
 70
1
 10
16.375358
 20
76.952171
 30
0.0
 10
16.375358
 20
86.952179
 30
0.0
  0
SPLINE
  5
12f
100
AcDbEntity
  8
0
 62
7
100
AcDbSpline
 70
0
 71
3
 72
10
 73
6
 74
4
 40
0.000000
 40
0.000000
 40
0.000000
 40
0.000000
 40
1.046993
 40
2.060618
 40
3.107610
 40
3.107610
 40
3.107610
 40
3.107610
 10
16.375358
 20
86.952179
 30
0.0
 10
16.429936
 20
87.303184
 30
0.0
 10
16.537353
 20
87.994008
 30
0.0
 10
17.333531
 20
88.790185
 30
0.0
 10
18.024355
 20
88.897602
 30
0.0
 10
18.375360
 20
88.952181
 30
0.0
 11
16.375358
 21
86.952179
 31
0.0
 11
16.647655
 21
87.963143
 31
0.0
 11
17.364396
 21
88.679884
 31
0.0
 11
18.375360
 21
88.952181
 31
0.0
  0
LWPOLYLINE
  5
130
100
AcDbEntity
  8
0
 62
7
100
AcDbPolyline
 90
2
 70
1
 10
18.375360
 20
88.952181
 30
0.0
 10
18.375360
 20
88.952181
 30
0.0
  0
SPLINE
  5
131
100
AcDbEntity
  8
0
 62
7
100
AcDbSpline
 70
0
 71
3
 72
31
 73
27
 74
25
 40
0.000000
 40
0.000000
 40
0.000000
 40
0.000000
 40
1.602849
 40
3.192434
 40
4.795283
 40
6.398133
 40
7.987717
 40
9.590567
 40
11.193415
 40
12.783000
 40
14.385849
 40
15.988698
 40
17.578283
 40
19.181132
 40
20.783981
 40
22.373566
 40
23.976415
 40
25.579264
 40
27.168849
 40
28.771698
 40
30.374547
 40
31.964132
 40
33.566981
 40
35.169830
 40
36.759415
 40
38.362264
 40
38.362264
 40
38.362264
 40
38.362264
 10
35.121373
 20
129.575230
 30
0.0
 10
35.080556
 20
129.039416
 30
0.0
 10
34.999259
 20
127.972223
 30
0.0
 10
34.356801
 20
126.478732
 30
0.0
 10
33.379366
 20
125.195592
 30
0.0
 10
32.094505
 20
124.211737
 30
0.0
 10
30.601473
 20
123.593113
 30
0.0
 10
28.998342
 20
123.381487
 30
0.0
 10
27.395367
 20
123.593113
 30
0.0
 10
25.901868
 20
124.211737
 30
0.0
 10
24.618731
 20
125.195593
 30
0.0
 10
23.634875
 20
126.478732
 30
0.0
 10
23.016252
 20
127.972223
 30
0.0
 10
22.804626
 20
129.575230
 30
0.0
 10
23.016252
 20
131.178238
 30
0.0
 10
23.634875
 20
132.671728
 30
0.0
 10
24.618731
 20
133.954868
 30
0.0
 10
25.901868
 20
134.938723
 30
0.0
 10
27.395367
 20
135.557347
 30
0.0
 10
28.998342
 20
135.768973
 30
0.0
 10
30.601473
 20
135.557348
 30
0.0
 10
32.094505
 20
134.938724
 30
0.0
 10
33.379366
 20
133.954868
 30
0.0
 10
34.356801
 20
132.671729
 30
0.0
 10
34.999259
 20
131.178238
 30
0.0
 10
35.080556
 20
130.111044
 30
0.0
 10
35.121373
 20
129.575230
 30
0.0
 11
35.121373
 21
129.575230
 31
0.0
 11
34.911596
 21
127.986168
 31
0.0
 11
34.303288
 21
126.517583
 31
0.0
 11
33.327987
 21
125.245611
 31
0.0
 11
32.056015
 21
124.270309
 31
0.0
 11
30.587430
 21
123.662002
 31
0.0
 11
28.998368
 21
123.452225
 31
0.0
 11
27.409306
 21
123.662002
 31
0.0
 11
25.940721
 21
124.270310
 31
0.0
 11
24.668749
 21
125.245611
 31
0.0
 11
23.693448
 21
126.517583
 31
0.0
 11
23.085140
 21
127.986168
 31
0.0
 11
22.875363
 21
129.575230
 31
0.0
 11
23.085140
 21
131.164293
 31
0.0
 11
23.693448
 21
132.632878
 31
0.0
 11
24.668749
 21
133.904849
 31
0.0
 11
25.940721
 21
134.880151
 31
0.0
 11
27.409306
 21
135.488459
 31
0.0
 11
28.998368
 21
135.698236
 31
0.0
 11
30.587430
 21
135.488459
 31
0.0
 11
32.056015
 21
134.880151
 31
0.0
 11
33.327987
 21
133.904850
 31
0.0
 11
34.303288
 21
132.632878
 31
0.0
 11
34.911596
 21
131.164293
 31
0.0
 11
35.121373
 21
129.575230
 31
0.0
  0
LWPOLYLINE
  5
132
100
AcDbEntity
  8
0
 62
7
100
AcDbPolyline
 90
2
 70
1
 10
35.121373
 20
129.575230
 30
0.0
 10
35.121373
 20
129.575230
 30
0.0
  0
SPLINE
  5
133
100
AcDbEntity
  8
0
 62
7
100
AcDbSpline
 70
0
 71
3
 72
19
 73
15
 74
13
 40
0.000000
 40
0.000000
 40
0.000000
 40
0.000000
 40
19.607234
 40
38.632924
 40
58.240158
 40
77.847392
 40
96.873082
 40
116.480316
 40
136.087550
 40
155.113239
 40
174.720473
 40
194.327708
 40
213.353397
 40
232.960632
 40
232.960632
 40
232.960632
 40
232.960632
 10
103.875431
 20
268.952331
 30
0.0
 10
102.844750
 20
262.341695
 30
0.0
 10
100.813956
 20
249.316490
 30
0.0
 10
85.884563
 20
234.976804
 30
0.0
 10
66.409817
 20
229.663519
 30
0.0
 10
46.730605
 20
234.976804
 30
0.0
 10
32.402480
 20
249.316490
 30
0.0
 10
27.085264
 20
268.952331
 30
0.0
 10
32.402480
 20
288.588172
 30
0.0
 10
46.730605
 20
302.927858
 30
0.0
 10
66.409817
 20
308.241143
 30
0.0
 10
85.884563
 20
302.927858
 30
0.0
 10
100.813956
 20
288.588172
 30
0.0
 10
102.844750
 20
275.562968
 30
0.0
 10
103.875431
 20
268.952331
 30
0.0
 11
103.875431
 21
268.952331
 31
0.0
 11
98.755577
 21
250.025347
 31
0.0
 11
85.302383
 21
236.572153
 31
0.0
 11
66.375399
 21
231.452299
 31
0.0
 11
47.448415
 21
236.572153
 31
0.0
 11
33.995221
 21
250.025347
 31
0.0
 11
28.875367
 21
268.952331
 31
0.0
 11
33.995221
 21
287.879315
 31
0.0
 11
47.448415
 21
301.332509
 31
0.0
 11
66.375399
 21
306.452363
 31
0.0
 11
85.302383
 21
301.332509
 31
0.0
 11
98.755577
 21
287.879315
 31
0.0
 11
103.875431
 21
268.952331
 31
0.0
  0
LWPOLYLINE
  5
134
100
AcDbEntity
  8
0
 62
7
100
AcDbPolyline
 90
2
 70
1
 10
103.875431
 20
268.952331
 30
0.0
 10
103.875431
 20
268.952331
 30
0.0
  0
SPLINE
  5
135
100
AcDbEntity
  8
0
 62
7
100
AcDbSpline
 70
0
 71
3
 72
31
 73
27
 74
25
 40
0.000000
 40
0.000000
 40
0.000000
 40
0.000000
 40
0.575905
 40
1.147045
 40
1.722950
 40
2.298855
 40
2.869994
 40
3.445900
 40
4.021805
 40
4.592944
 40
5.168849
 40
5.744755
 40
6.315894
 40
6.891799
 40
7.467704
 40
8.038844
 40
8.614749
 40
9.190654
 40
9.761794
 40
10.337699
 40
10.913604
 40
11.484743
 40
12.060649
 40
12.636554
 40
13.207693
 40
13.783598
 40
13.783598
 40
13.783598
 40
13.783598
 10
32.975371
 20
304.552361
 30
0.0
 10
32.960706
 20
304.359842
 30
0.0
 10
32.931495
 20
303.976399
 30
0.0
 10
32.700660
 20
303.439786
 30
0.0
 10
32.349466
 20
302.978753
 30
0.0
 10
31.887814
 20
302.625253
 30
0.0
 10
31.351367
 20
302.402980
 30
0.0
 10
30.775360
 20
302.326943
 30
0.0
 10
30.199410
 20
302.402980
 30
0.0
 10
29.662794
 20
302.625253
 30
0.0
 10
29.201762
 20
302.978753
 30
0.0
 10
28.848261
 20
303.439786
 30
0.0
 10
28.625989
 20
303.976399
 30
0.0
 10
28.549952
 20
304.552361
 30
0.0
 10
28.625989
 20
305.128323
 30
0.0
 10
28.848261
 20
305.664935
 30
0.0
 10
29.201762
 20
306.125969
 30
0.0
 10
29.662794
 20
306.479469
 30
0.0
 10
30.199410
 20
306.701741
 30
0.0
 10
30.775360
 20
306.777778
 30
0.0
 10
31.351367
 20
306.701741
 30
0.0
 10
31.887814
 20
306.479469
 30
0.0
 10
32.349466
 20
306.125969
 30
0.0
 10
32.700660
 20
305.664935
 30
0.0
 10
32.931495
 20
305.128323
 30
0.0
 10
32.960706
 20
304.744879
 30
0.0
 10
32.975371
 20
304.552361
 30
0.0
 11
32.975371
 21
304.552361
 31
0.0
 11
32.899998
 21
303.981409
 31
0.0
 11
32.681433
 21
303.453745
 31
0.0
 11
32.331006
 21
302.996724
 31
0.0
 11
31.873985
 21
302.646298
 31
0.0
 11
31.346321
 21
302.427732
 31
0.0
 11
30.775370
 21
302.352359
 31
0.0
 11
30.204418
 21
302.427732
 31
0.0
 11
29.676754
 21
302.646298
 31
0.0
 11
29.219733
 21
302.996724
 31
0.0
 11
28.869307
 21
303.453745
 31
0.0
 11
28.650741
 21
303.981409
 31
0.0
 11
28.575368
 21
304.552361
 31
0.0
 11
28.650741
 21
305.123312
 31
0.0
 11
28.869307
 21
305.650976
 31
0.0
 11
29.219733
 21
306.107997
 31
0.0
 11
29.676754
 21
306.458424
 31
0.0
 11
30.204418
 21
306.676989
 31
0.0
 11
30.775370
 21
306.752363
 31
0.0
 11
31.346321
 21
306.676989
 31
0.0
 11
31.873985
 21
306.458424
 31
0.0
 11
32.331006
 21
306.107997
 31
0.0
 11
32.681433
 21
305.650976
 31
0.0
 11
32.899998
 21
305.123312
 31
0.0
 11
32.975371
 21
304.552361
 31
0.0
  0
LWPOLYLINE
  5
136
100
AcDbEntity
  8
0
 62
7
100
AcDbPolyline
 90
2
 70
1
 10
32.975371
 20
304.552361
 30
0.0
 10
32.975371
 20
304.552361
 30
0.0
  0
SPLINE
  5
137
100
AcDbEntity
  8
0
 62
7
100
AcDbSpline
 70
0
 71
3
 72
19
 73
15
 74
13
 40
0.000000
 40
0.000000
 40
0.000000
 40
0.000000
 40
1.150291
 40
2.266464
 40
3.416755
 40
4.567046
 40
5.683220
 40
6.833511
 40
7.983801
 40
9.099975
 40
10.250266
 40
11.400557
 40
12.516730
 40
13.667021
 40
13.667021
 40
13.667021
 40
13.667021
 10
32.975371
 20
233.452301
 30
0.0
 10
32.914905
 20
233.064477
 30
0.0
 10
32.795765
 20
232.300332
 30
0.0
 10
31.919907
 20
231.459070
 30
0.0
 10
30.777389
 20
231.147358
 30
0.0
 10
29.622875
 20
231.459070
 30
0.0
 10
28.782292
 20
232.300332
 30
0.0
 10
28.470348
 20
233.452301
 30
0.0
 10
28.782292
 20
234.604270
 30
0.0
 10
29.622875
 20
235.445531
 30
0.0
 10
30.777389
 20
235.757244
 30
0.0
 10
31.919907
 20
235.445531
 30
0.0
 10
32.795765
 20
234.604270
 30
0.0
 10
32.914905
 20
233.840125
 30
0.0
 10
32.975371
 20
233.452301
 30
0.0
 11
32.975371
 21
233.452301
 31
0.0
 11
32.675006
 21
232.341918
 31
0.0
 11
31.885752
 21
231.552664
 31
0.0
 11
30.775370
 21
231.252300
 31
0.0
 11
29.664987
 21
231.552664
 31
0.0
 11
28.875733
 21
232.341918
 31
0.0
 11
28.575368
 21
233.452301
 31
0.0
 11
28.875733
 21
234.562684
 31
0.0
 11
29.664987
 21
235.351937
 31
0.0
 11
30.775370
 21
235.652302
 31
0.0
 11
31.885752
 21
235.351937
 31
0.0
 11
32.675006
 21
234.562684
 31
0.0
 11
32.975371
 21
233.452301
 31
0.0
  0
LWPOLYLINE
  5
138
100
AcDbEntity
  8
0
 62
7
100
AcDbPolyline
 90
2
 70
1
 10
32.975371
 20
233.452301
 30
0.0
 10
32.975371
 20
233.452301
 30
0.0
  0
SPLINE
  5
139
100
AcDbEntity
  8
0
 62
7
100
AcDbSpline
 70
0
 71
3
 72
19
 73
15
 74
13
 40
0.000000
 40
0.000000
 40
0.000000
 40
0.000000
 40
1.150291
 40
2.266464
 40
3.416755
 40
4.567045
 40
5.683219
 40
6.833509
 40
7.983800
 40
9.099974
 40
10.250264
 40
11.400555
 40
12.516728
 40
13.667019
 40
13.667019
 40
13.667019
 40
13.667019
 10
104.075431
 20
233.452301
 30
0.0
 10
104.014964
 20
233.064477
 30
0.0
 10
103.895824
 20
232.300332
 30
0.0
 10
103.019967
 20
231.459071
 30
0.0
 10
101.877449
 20
231.147358
 30
0.0
 10
100.722935
 20
231.459071
 30
0.0
 10
99.882352
 20
232.300332
 30
0.0
 10
99.570409
 20
233.452301
 30
0.0
 10
99.882352
 20
234.604270
 30
0.0
 10
100.722935
 20
235.445531
 30
0.0
 10
101.877449
 20
235.757244
 30
0.0
 10
103.019967
 20
235.445531
 30
0.0
 10
103.895824
 20
234.604270
 30
0.0
 10
104.014964
 20
233.840125
 30
0.0
 10
104.075431
 20
233.452301
 30
0.0
 11
104.075431
 21
233.452301
 31
0.0
 11
103.775066
 21
232.341918
 31
0.0
 11
102.985812
 21
231.552664
 31
0.0
 11
101.875429
 21
231.252300
 31
0.0
 11
100.765047
 21
231.552664
 31
0.0
 11
99.975793
 21
232.341918
 31
0.0
 11
99.675428
 21
233.452301
 31
0.0
 11
99.975793
 21
234.562683
 31
0.0
 11
100.765047
 21
235.351937
 31
0.0
 11
101.875429
 21
235.652302
 31
0.0
 11
102.985812
 21
235.351937
 31
0.0
 11
103.775066
 21
234.562683
 31
0.0
 11
104.075431
 21
233.452301
 31
0.0
  0
LWPOLYLINE
  5
13a
100
AcDbEntity
  8
0
 62
7
100
AcDbPolyline
 90
2
 70
1
 10
104.075431
 20
233.452301
 30
0.0
 10
104.075431
 20
233.452301
 30
0.0
  0
SPLINE
  5
13b
100
AcDbEntity
  8
0
 62
7
100
AcDbSpline
 70
0
 71
3
 72
19
 73
15
 74
13
 40
0.000000
 40
0.000000
 40
0.000000
 40
0.000000
 40
1.150291
 40
2.266464
 40
3.416755
 40
4.567046
 40
5.683220
 40
6.833511
 40
7.983801
 40
9.099975
 40
10.250266
 40
11.400557
 40
12.516730
 40
13.667021
 40
13.667021
 40
13.667021
 40
13.667021
 10
104.075431
 20
304.552361
 30
0.0
 10
104.014964
 20
304.164537
 30
0.0
 10
103.895824
 20
303.400392
 30
0.0
 10
103.019967
 20
302.559130
 30
0.0
 10
101.877449
 20
302.247417
 30
0.0
 10
100.722935
 20
302.559130
 30
0.0
 10
99.882352
 20
303.400392
 30
0.0
 10
99.570409
 20
304.552361
 30
0.0
 10
99.882352
 20
305.704330
 30
0.0
 10
100.722935
 20
306.545591
 30
0.0
 10
101.877449
 20
306.857304
 30
0.0
 10
103.019967
 20
306.545591
 30
0.0
 10
103.895824
 20
305.704330
 30
0.0
 10
104.014964
 20
304.940185
 30
0.0
 10
104.075431
 20
304.552361
 30
0.0
 11
104.075431
 21
304.552361
 31
0.0
 11
103.775066
 21
303.441978
 31
0.0
 11
102.985812
 21
302.652724
 31
0.0
 11
101.875429
 21
302.352359
 31
0.0
 11
100.765047
 21
302.652724
 31
0.0
 11
99.975793
 21
303.441978
 31
0.0
 11
99.675428
 21
304.552361
 31
0.0
 11
99.975793
 21
305.662744
 31
0.0
 11
100.765047
 21
306.451998
 31
0.0
 11
101.875429
 21
306.752363
 31
0.0
 11
102.985812
 21
306.451998
 31
0.0
 11
103.775066
 21
305.662744
 31
0.0
 11
104.075431
 21
304.552361
 31
0.0
  0
LWPOLYLINE
  5
13c
100
AcDbEntity
  8
0
 62
7
100
AcDbPolyline
 90
2
 70
1
 10
104.075431
 20
304.552361
 30
0.0
 10
104.075431
 20
304.552361
 30
0.0
  0
ENDSEC
  0
SECTION
  2
OBJECTS
  0
DICTIONARY
  5
C
330
0
100
AcDbDictionary
  3
ACAD_GROUP
350
D
  3
ACAD_MLINESTYLE
350
17
  0
DICTIONARY
  5
D
330
C
100
AcDbDictionary
  0
DICTIONARY
  5
1A
330
C
100
AcDbDictionary
  0
DICTIONARY
  5
17
330
C
100
AcDbDictionary
  3
STANDARD
350
18
  0
DICTIONARY
  5
19
330
C
100
AcDbDictionary
  0
ENDSEC
  0
EOF
