<?xml version="1.0" encoding="UTF-8" standalone="no"?>
<svg
   xmlns:dc="http://purl.org/dc/elements/1.1/"
   xmlns:cc="http://creativecommons.org/ns#"
   xmlns:rdf="http://www.w3.org/1999/02/22-rdf-syntax-ns#"
   xmlns:svg="http://www.w3.org/2000/svg"
   xmlns="http://www.w3.org/2000/svg"
   xmlns:sodipodi="http://sodipodi.sourceforge.net/DTD/sodipodi-0.dtd"
   xmlns:inkscape="http://www.inkscape.org/namespaces/inkscape"
   version="1.1"
   width="400mm"
   height="600mm"
   viewBox="0 0 1417.324 2125.986"
   id="svg6580"
   inkscape:version="0.91 r13725"
   sodipodi:docname="BackAndFront-600x400-120Fan.svg">
  <metadata
     id="metadata6692">
    <rdf:RDF>
      <cc:Work
         rdf:about="">
        <dc:format>image/svg+xml</dc:format>
        <dc:type
           rdf:resource="http://purl.org/dc/dcmitype/StillImage" />
        <dc:title />
      </cc:Work>
    </rdf:RDF>
  </metadata>
  <defs
     id="defs6690" />
  <sodipodi:namedview
     pagecolor="#ffffff"
     bordercolor="#666666"
     borderopacity="1"
     objecttolerance="10"
     gridtolerance="10"
     guidetolerance="10"
     inkscape:pageopacity="0"
     inkscape:pageshadow="2"
     inkscape:window-width="2560"
     inkscape:window-height="1335"
     id="namedview6688"
     showgrid="false"
     inkscape:document-units="mm"
     inkscape:zoom="0.46679098"
     inkscape:cx="771.79987"
     inkscape:cy="1012.9149"
     inkscape:window-x="2552"
     inkscape:window-y="2152"
     inkscape:window-maximized="1"
     inkscape:current-layer="g6596" />
  <!-- Front-->
  <g
     transform="translate(23.48366,17.798062)"
     id="g6582">
    <path
       style="fill:none;stroke:#000000;stroke-width:0.90000075"
       d="m 331.29949,10.62993 53.14965,0 0,-10.62993 53.14965,0 0,10.62993 53.14964,0 0,-10.62993 53.14966,0 0,10.62993 53.14964,0 0,-10.62993 53.14966,0 0,10.62993 53.14965,0 0,-10.62993 53.14965,0 0,10.62993 53.14965,0 0,-10.62993 53.14965,0 0,10.62993 53.14965,0 0,-10.62993 53.14965,0 0,10.62993 85.92531,0 0,-10.62993 85.9252,0 0,84.153612 -10.6299,0 0,84.153608 10.6299,0 0,53.14965 -10.6299,0 0,53.14965 10.6299,0 0,53.14965 -10.6299,0 0,53.14965 10.6299,0 0,53.14966 -10.6299,0 0,53.14964 10.6299,0 0,53.14966 -10.6299,0 0,53.14964 10.6299,0 0,53.14966 -10.6299,0 0,53.14964 10.6299,0 0,53.14966 -10.6299,0 0,84.15361 10.6299,0 0,84.15361 -85.9252,0 0,-10.62993 -85.92531,0 0,10.62993 -53.14965,0 0,-10.62993 -53.14965,0 0,10.62993 -53.14965,0 0,-10.62993 -53.14965,0 0,10.62993 -53.14965,0 0,-10.62993 -53.14965,0 0,10.62993 -53.14966,0 0,-10.62993 -53.14964,0 0,10.62993 -53.14966,0 0,-10.62993 -53.14964,0 0,10.62993 -53.14965,0 0,-10.62993 -53.14965,0 0,10.62993 -53.14966,0 0,-10.62993 -53.14964,0 0,10.62993 -53.14965,0 0,-10.62993 -85.925272,0 0,10.62993 -85.925268,0 0,-84.15361 10.62993,0 0,-84.15361 -10.62993,0 0,-53.14966 10.62993,0 0,-53.14964 -10.62993,0 0,-53.14966 10.62993,0 0,-53.14964 -10.62993,0 0,-53.14966 10.62993,0 0,-53.14964 -10.62993,0 0,-53.14966 10.62993,0 0,-53.14965 -10.62993,0 0,-53.14965 10.62993,0 0,-53.14965 -10.62993,0 0,-53.14965 10.62993,0 0,-84.153608 L 0,84.153612 0,0 l 85.925268,0 0,10.62993 85.925272,0 0,-10.62993 53.14965,0 0,10.62993 53.14964,0 0,-10.62993 53.14966,0 z"
       id="polygon6584" />
    <path
       style="fill:none;stroke:#000000;stroke-width:0.90000075"
       d="m 806.42195,90.637871 a 7.0866199,7.0866199 0 0 1 -7.08662,7.08662 7.0866199,7.0866199 0 0 1 -7.08662,-7.08662 7.0866199,7.0866199 0 0 1 7.08662,-7.08662 7.0866199,7.0866199 0 0 1 7.08662,7.08662 z"
       id="circle6586" />
    <path
       style="fill:none;stroke:#000000;stroke-width:0.90000075"
       d="m 806.42195,323.25616 a 7.0866199,7.0866199 0 0 1 -7.08662,7.08662 7.0866199,7.0866199 0 0 1 -7.08662,-7.08662 7.0866199,7.0866199 0 0 1 7.08662,-7.08662 7.0866199,7.0866199 0 0 1 7.08662,7.08662 z"
       id="circle6588" />
    <path
       style="fill:none;stroke:#000000;stroke-width:0.90000075"
       d="m 359.25621,90.637871 a 7.0866199,7.0866199 0 0 1 -7.08662,7.08662 7.0866199,7.0866199 0 0 1 -7.08662,-7.08662 7.0866199,7.0866199 0 0 1 7.08662,-7.08662 7.0866199,7.0866199 0 0 1 7.08662,7.08662 z"
       id="circle6590" />
    <path
       style="fill:none;stroke:#000000;stroke-width:0.90000075"
       d="m 359.25621,323.25616 a 7.0866199,7.0866199 0 0 1 -7.08662,7.08662 7.0866199,7.0866199 0 0 1 -7.08662,-7.08662 7.0866199,7.0866199 0 0 1 7.08662,-7.08662 7.0866199,7.0866199 0 0 1 7.08662,7.08662 z"
       id="circle6592" />
    <path
       style="fill:none;stroke:#000000;stroke-width:0.90000075"
       d="m 398.23262,55.204769 355.03967,0 c 5.88898,0 10.62993,4.740949 10.62993,10.62993 l 0,310.571131 c 0,5.88898 -4.74095,10.62993 -10.62993,10.62993 l -355.03967,0 c -5.88898,0 -10.62993,-4.74095 -10.62993,-10.62993 l 0,-310.571131 c 0,-5.888981 4.74095,-10.62993 10.62993,-10.62993 z"
       id="rect6594" />
  </g>
  <!-- Back-->
  <g
     transform="translate(22.589821,960.40495)"
     id="g6596">
    <path
       style="fill:none;stroke:#000000;stroke-width:0.90000075"
       d="m 384.44914,10.62993 0,-10.62993 53.14965,0 0,10.62993 53.14964,0 0,-10.62993 53.14966,0 0,10.62993 53.14964,0 0,-10.62993 53.14966,0 0,10.62993 53.14965,0 0,-10.62993 53.14965,0 0,10.62993 53.14965,0 0,-10.62993 53.14965,0 0,10.62993 53.14965,0 0,-10.62993 53.14965,0 0,10.62993 85.92531,0 0,-10.62993 85.9252,0 0,84.153612 -10.6299,0 0,84.153608 10.6299,0 0,53.14965 -10.6299,0 0,53.14965 10.6299,0 0,53.14965 -10.6299,0 0,53.14965 10.6299,0 0,53.14966 -10.6299,0 0,53.14964 10.6299,0 0,53.14966 -10.6299,0 0,53.14964 10.6299,0 0,53.14966 -10.6299,0 0,53.14964 10.6299,0 0,53.14966 -10.6299,0 0,84.15361 10.6299,0 0,84.15361 -85.9252,0 0,-10.62993 -85.92531,0 0,10.62993 -53.14965,0 0,-10.62993 -53.14965,0 0,10.62993 -53.14965,0 0,-10.62993 -53.14965,0 0,10.62993 -53.14965,0 0,-10.62993 -53.14965,0 0,10.62993 -53.14966,0 0,-10.62993 -53.14964,0 0,10.62993 -53.14966,0 0,-10.62993 -53.14964,0 0,10.62993 -53.14965,0 0,-10.62993 -53.14965,0 0,10.62993 -53.14966,0 0,-10.62993 -53.14964,0 0,10.62993 -53.14965,0 0,-10.62993 -85.925272,0 0,10.62993 -85.925268,0 0,-84.15361 10.62993,0 0,-84.15361 -10.62993,0 0,-53.14966 10.62993,0 0,-53.14964 -10.62993,0 0,-53.14966 10.62993,0 0,-53.14964 -10.62993,0 0,-53.14966 10.62993,0 0,-53.14964 -10.62993,0 0,-53.14966 10.62993,0 0,-53.14965 -10.62993,0 0,-53.14965 10.62993,0 0,-53.14965 -10.62993,0 0,-53.14965 10.62993,0 0,-84.153608 L 0,84.153612 0,0 l 85.925268,0 0,10.62993 85.925272,0 0,-10.62993 53.14965,0 0,10.62993 53.14964,0 0,-10.62993 53.14966,0 0,10.62993 z"
       id="polygon6598" />
    <path
       style="fill:none;stroke:#000000;stroke-width:0.90000075"
       d="m 814.96131,212.5986 212.59859,0 c 3.926,0 7.0866,3.16063 7.0866,7.08662 l 0,701.57536 c 0,3.92599 -3.1606,7.08662 -7.0866,7.08662 l -212.59859,0 c -3.92598,0 -7.08662,-3.16063 -7.08662,-7.08662 l 0,-701.57536 c 0,-3.92599 3.16064,-7.08662 7.08662,-7.08662 z"
       id="rect6600" />
    <path
       style="fill:none;stroke:#000000;stroke-width:0.90000075"
       d="m 787.50066,318.89789 a 6.2007923,6.2007923 0 0 1 -6.20079,6.20079 6.2007923,6.2007923 0 0 1 -6.2008,-6.20079 6.2007923,6.2007923 0 0 1 6.2008,-6.20079 6.2007923,6.2007923 0 0 1 6.20079,6.20079 z"
       id="circle6602" />
    <path
       style="fill:none;stroke:#000000;stroke-width:0.90000075"
       d="m 787.50066,566.92963 a 6.2007923,6.2007923 0 0 1 -6.20079,6.20079 6.2007923,6.2007923 0 0 1 -6.2008,-6.20079 6.2007923,6.2007923 0 0 1 6.2008,-6.2008 6.2007923,6.2007923 0 0 1 6.20079,6.2008 z"
       id="circle6604" />
    <path
       style="fill:none;stroke:#000000;stroke-width:0.90000075"
       d="m 787.50066,814.9613 a 6.2007923,6.2007923 0 0 1 -6.20079,6.2008 6.2007923,6.2007923 0 0 1 -6.2008,-6.2008 6.2007923,6.2007923 0 0 1 6.2008,-6.20079 6.2007923,6.2007923 0 0 1 6.20079,6.20079 z"
       id="circle6606" />
    <path
       style="fill:none;stroke:#000000;stroke-width:0.90000075"
       d="m 1067.4221,814.9613 a 6.2007923,6.2007923 0 0 1 -6.2008,6.2008 6.2007923,6.2007923 0 0 1 -6.2008,-6.2008 6.2007923,6.2007923 0 0 1 6.2008,-6.20079 6.2007923,6.2007923 0 0 1 6.2008,6.20079 z"
       id="circle6608" />
    <path
       style="fill:none;stroke:#000000;stroke-width:0.90000075"
       d="m 1067.4221,566.92963 a 6.2007923,6.2007923 0 0 1 -6.2008,6.20079 6.2007923,6.2007923 0 0 1 -6.2008,-6.20079 6.2007923,6.2007923 0 0 1 6.2008,-6.2008 6.2007923,6.2007923 0 0 1 6.2008,6.2008 z"
       id="circle6610" />
    <path
       style="fill:none;stroke:#000000;stroke-width:0.90000075"
       d="m 1067.4221,318.89789 a 6.2007923,6.2007923 0 0 1 -6.2008,6.20079 6.2007923,6.2007923 0 0 1 -6.2008,-6.20079 6.2007923,6.2007923 0 0 1 6.2008,-6.20079 6.2007923,6.2007923 0 0 1 6.2008,6.20079 z"
       id="circle6612" />
    <path
       style="fill:none;stroke:#000000;stroke-width:0.90000075"
       d="m 42.519722,850.39441 70.866198,0 c 3.92599,0 7.08662,3.16063 7.08662,7.08662 l 0,35.4331 c 0,3.92599 -3.16063,7.08662 -7.08662,7.08662 l -70.866198,0 c -3.925988,0 -7.08662,-3.16063 -7.08662,-7.08662 l 0,-35.4331 c 0,-3.92599 3.160632,-7.08662 7.08662,-7.08662 z"
       id="rect6614" />
    <path
       style="fill:none;stroke:#000000;stroke-width:0.90000069"
       d="M 101.85599,706.45447 A 21.695686,21.695688 0 0 1 80.160301,728.15016 21.695686,21.695688 0 0 1 58.464615,706.45447 21.695686,21.695688 0 0 1 80.160301,684.75878 21.695686,21.695688 0 0 1 101.85599,706.45447 Z"
       id="circle6616" />
    <path
       style="fill:none;stroke:#000000;stroke-width:0.90000075"
       d="M 487.20514,283.46481 A 203.74033,203.74033 0 0 1 283.46481,487.20514 203.74033,203.74033 0 0 1 79.724487,283.46481 203.74033,203.74033 0 0 1 283.46481,79.724487 203.74033,203.74033 0 0 1 487.20514,283.46481 Z"
       id="circle6618" />
    <path
       style="fill:none;stroke:#000000;stroke-width:0.90000075"
       d="m 105.23631,97.441025 a 7.7952819,7.7952819 0 0 1 -7.795285,7.795285 7.7952819,7.7952819 0 0 1 -7.795282,-7.795285 7.7952819,7.7952819 0 0 1 7.795282,-7.795282 7.7952819,7.7952819 0 0 1 7.795285,7.795282 z"
       id="circle6620" />
    <path
       style="fill:none;stroke:#000000;stroke-width:0.90000075"
       d="m 105.23631,469.48859 a 7.7952819,7.7952819 0 0 1 -7.795285,7.79528 7.7952819,7.7952819 0 0 1 -7.795282,-7.79528 7.7952819,7.7952819 0 0 1 7.795282,-7.79529 7.7952819,7.7952819 0 0 1 7.795285,7.79529 z"
       id="circle6622" />
    <path
       style="fill:none;stroke:#000000;stroke-width:0.90000075"
       d="m 477.28387,469.48859 a 7.7952819,7.7952819 0 0 1 -7.79528,7.79528 7.7952819,7.7952819 0 0 1 -7.79529,-7.79528 7.7952819,7.7952819 0 0 1 7.79529,-7.79529 7.7952819,7.7952819 0 0 1 7.79528,7.79529 z"
       id="circle6624" />
    <path
       style="fill:none;stroke:#000000;stroke-width:0.90000075"
       d="m 477.28387,97.441025 a 7.7952819,7.7952819 0 0 1 -7.79528,7.795285 7.7952819,7.7952819 0 0 1 -7.79529,-7.795285 7.7952819,7.7952819 0 0 1 7.79529,-7.795282 7.7952819,7.7952819 0 0 1 7.79528,7.795282 z"
       id="circle6626" />
  </g>
  <!-- Left-->
  <!-- Right-->
  <!-- Top-->
  <!-- Bottom-->
</svg>
