  0
SECTION
  2
HEADER
  9
$ACADVER
  1
AC1014
  9
$HANDSEED
  5
FFFF
  9
$MEASUREMENT
 70
     1
  0
ENDSEC
  0
SECTION
  2
TABLES
  0
TABLE
  2
VPORT
  5
8
330
0
100
AcDbSymbolTable
 70
     4
  0
VPORT
  5
2E
330
8
100
AcDbSymbolTableRecord
100
AcDbViewportTableRecord
  2
*ACTIVE
 70
     0
 10
0.0
 20
0.0
 11
1.0
 21
1.0
 12
210.0
 22
148.5
 13
0.0
 23
0.0
 14
10.0
 24
10.0
 15
10.0
 25
10.0
 16
0.0
 26
0.0
 36
1.0
 17
0.0
 27
0.0
 37
0.0
 40
341.0
 41
1.24
 42
50.0
 43
0.0
 44
0.0
 50
0.0
 51
0.0
 71
     0
 72
   100
 73
     1
 74
     3
 75
     0
 76
     0
 77
     0
 78
     0
  0
ENDTAB
  0
TABLE
  2
LTYPE
  5
5
330
0
100
AcDbSymbolTable
 70
     1
  0
LTYPE
  5
14
330
5
100
AcDbSymbolTableRecord
100
AcDbLinetypeTableRecord
  2
BYBLOCK
 70
     0
  3

 72
    65
 73
     0
 40
0.0
  0
LTYPE
  5
15
330
5
100
AcDbSymbolTableRecord
100
AcDbLinetypeTableRecord
  2
BYLAYER
 70
     0
  3

 72
    65
 73
     0
 40
0.0
  0
LTYPE
  5
16
330
5
100
AcDbSymbolTableRecord
100
AcDbLinetypeTableRecord
  2
CONTINUOUS
 70
     0
  3
Solid line
 72
    65
 73
     0
 40
0.0
  0
ENDTAB
  0
TABLE
  2
LAYER
  5
2
100
AcDbSymbolTable
 70
1
  0
LAYER
  5
50
100
AcDbSymbolTableRecord
100
AcDbLayerTableRecord
  2
0
 70
0
  6
CONTINUOUS
  0
ENDTAB
  0
TABLE
  2
STYLE
  5
3
330
0
100
AcDbSymbolTable
 70
     1
  0
STYLE
  5
11
330
3
100
AcDbSymbolTableRecord
100
AcDbTextStyleTableRecord
  2
STANDARD
 70
     0
 40
0.0
 41
1.0
 50
0.0
 71
     0
 42
2.5
  3
txt
  4

  0
ENDTAB
  0
TABLE
  2
VIEW
  5
6
330
0
100
AcDbSymbolTable
 70
     0
  0
ENDTAB
  0
TABLE
  2
UCS
  5
7
330
0
100
AcDbSymbolTable
 70
     0
  0
ENDTAB
  0
TABLE
  2
APPID
  5
9
330
0
100
AcDbSymbolTable
 70
     2
  0
APPID
  5
12
330
9
100
AcDbSymbolTableRecord
100
AcDbRegAppTableRecord
  2
ACAD
 70
     0
  0
ENDTAB
  0
TABLE
  2
DIMSTYLE
  5
A
330
0
100
AcDbSymbolTable
 70
     1
  0
DIMSTYLE
105
27
330
A
100
AcDbSymbolTableRecord
100
AcDbDimStyleTableRecord
  2
ISO-25
 70
     0
  3

  4

  5

  6

  7

 40
1.0
 41
2.5
 42
0.625
 43
3.75
 44
1.25
 45
0.0
 46
0.0
 47
0.0
 48
0.0
140
2.5
141
2.5
142
0.0
143
0.03937007874016
144
1.0
145
0.0
146
1.0
147
0.625
 71
     0
 72
     0
 73
     0
 74
     0
 75
     0
 76
     0
 77
     1
 78
     8
170
     0
171
     3
172
     1
173
     0
174
     0
175
     0
176
     0
177
     0
178
     0
270
     2
271
     2
272
     2
273
     2
274
     3
340
11
275
     0
280
     0
281
     0
282
     0
283
     0
284
     8
285
     0
286
     0
287
     3
288
     0
  0
ENDTAB
  0
TABLE
  2
BLOCK_RECORD
  5
1
330
0
100
AcDbSymbolTable
 70
     1
  0
BLOCK_RECORD
  5
1F
330
1
100
AcDbSymbolTableRecord
100
AcDbBlockTableRecord
  2
*MODEL_SPACE
  0
BLOCK_RECORD
  5
1B
330
1
100
AcDbSymbolTableRecord
100
AcDbBlockTableRecord
  2
*PAPER_SPACE
  0
ENDTAB
  0
ENDSEC
  0
SECTION
  2
BLOCKS
  0
BLOCK
  5
20
330
1F
100
AcDbEntity
  8
0
100
AcDbBlockBegin
  2
*MODEL_SPACE
 70
     0
 10
0.0
 20
0.0
 30
0.0
  3
*MODEL_SPACE
  1

  0
ENDBLK
  5
21
330
1F
100
AcDbEntity
  8
0
100
AcDbBlockEnd
  0
BLOCK
  5
1C
330
1B
100
AcDbEntity
 67
     1
  8
0
100
AcDbBlockBegin
  2
*PAPER_SPACE
  1

  0
ENDBLK
  5
1D
330
1B
100
AcDbEntity
 67
     1
  8
0
100
AcDbBlockEnd
  0
ENDSEC
  0
SECTION
  2
ENTITIES
  0
LWPOLYLINE
  5
100
100
AcDbEntity
  8
0
 62
7
100
AcDbPolyline
 90
141
 70
1
 10
335.040930
 20
149.828387
 30
0.0
 10
338.040932
 20
149.828387
 30
0.0
 10
338.040932
 20
164.828399
 30
0.0
 10
335.040930
 20
164.828399
 30
0.0
 10
335.040930
 20
179.828411
 30
0.0
 10
338.040932
 20
179.828411
 30
0.0
 10
338.040932
 20
194.828424
 30
0.0
 10
335.040930
 20
194.828424
 30
0.0
 10
335.040930
 20
209.828436
 30
0.0
 10
338.040932
 20
209.828436
 30
0.0
 10
338.040932
 20
224.828448
 30
0.0
 10
335.040930
 20
224.828448
 30
0.0
 10
335.040930
 20
239.828461
 30
0.0
 10
338.040932
 20
239.828461
 30
0.0
 10
338.040932
 20
254.828473
 30
0.0
 10
335.040930
 20
254.828473
 30
0.0
 10
335.040930
 20
269.828485
 30
0.0
 10
338.040932
 20
269.828485
 30
0.0
 10
338.040932
 20
284.828498
 30
0.0
 10
335.040930
 20
284.828498
 30
0.0
 10
335.040930
 20
299.828496
 30
0.0
 10
338.040932
 20
299.828496
 30
0.0
 10
338.040932
 20
319.828541
 30
0.0
 10
335.040930
 20
319.828541
 30
0.0
 10
335.040930
 20
336.828535
 30
0.0
 10
358.790949
 20
336.828535
 30
0.0
 10
358.790949
 20
339.828529
 30
0.0
 10
382.540967
 20
339.828529
 30
0.0
 10
382.540967
 20
336.828535
 30
0.0
 10
397.540980
 20
336.828535
 30
0.0
 10
397.540980
 20
339.828529
 30
0.0
 10
412.540992
 20
339.828529
 30
0.0
 10
412.540992
 20
336.828535
 30
0.0
 10
427.541004
 20
336.828535
 30
0.0
 10
427.541004
 20
339.828529
 30
0.0
 10
442.541017
 20
339.828529
 30
0.0
 10
442.541017
 20
336.828535
 30
0.0
 10
457.541032
 20
336.828535
 30
0.0
 10
457.541032
 20
339.828529
 30
0.0
 10
472.541041
 20
339.828529
 30
0.0
 10
472.541041
 20
336.828535
 30
0.0
 10
487.541056
 20
336.828535
 30
0.0
 10
487.541056
 20
339.828529
 30
0.0
 10
502.541066
 20
339.828529
 30
0.0
 10
502.541066
 20
336.828535
 30
0.0
 10
517.541081
 20
336.828535
 30
0.0
 10
517.541081
 20
339.828529
 30
0.0
 10
532.541091
 20
339.828529
 30
0.0
 10
532.541091
 20
336.828535
 30
0.0
 10
547.541106
 20
336.828535
 30
0.0
 10
547.541106
 20
339.828529
 30
0.0
 10
571.291125
 20
339.828529
 30
0.0
 10
571.291125
 20
336.828535
 30
0.0
 10
595.041143
 20
336.828535
 30
0.0
 10
595.041143
 20
319.828541
 30
0.0
 10
592.041141
 20
319.828541
 30
0.0
 10
592.041141
 20
299.828496
 30
0.0
 10
595.041143
 20
299.828496
 30
0.0
 10
595.041143
 20
284.828498
 30
0.0
 10
592.041141
 20
284.828498
 30
0.0
 10
592.041141
 20
269.828485
 30
0.0
 10
595.041143
 20
269.828485
 30
0.0
 10
595.041143
 20
254.828473
 30
0.0
 10
592.041141
 20
254.828473
 30
0.0
 10
592.041141
 20
239.828461
 30
0.0
 10
595.041143
 20
239.828461
 30
0.0
 10
595.041143
 20
224.828448
 30
0.0
 10
592.041141
 20
224.828448
 30
0.0
 10
592.041141
 20
209.828436
 30
0.0
 10
595.041143
 20
209.828436
 30
0.0
 10
595.041143
 20
194.828424
 30
0.0
 10
592.041141
 20
194.828424
 30
0.0
 10
592.041141
 20
179.828411
 30
0.0
 10
595.041143
 20
179.828411
 30
0.0
 10
595.041143
 20
164.828399
 30
0.0
 10
592.041141
 20
164.828399
 30
0.0
 10
592.041141
 20
149.828387
 30
0.0
 10
595.041143
 20
149.828387
 30
0.0
 10
595.041143
 20
134.828374
 30
0.0
 10
592.041141
 20
134.828374
 30
0.0
 10
592.041141
 20
119.828362
 30
0.0
 10
595.041143
 20
119.828362
 30
0.0
 10
595.041143
 20
104.828350
 30
0.0
 10
592.041141
 20
104.828350
 30
0.0
 10
592.041141
 20
89.828337
 30
0.0
 10
595.041143
 20
89.828337
 30
0.0
 10
595.041143
 20
74.828325
 30
0.0
 10
592.041141
 20
74.828325
 30
0.0
 10
592.041141
 20
59.828313
 30
0.0
 10
595.041143
 20
59.828313
 30
0.0
 10
595.041143
 20
44.828300
 30
0.0
 10
592.041141
 20
44.828300
 30
0.0
 10
592.041141
 20
24.828284
 30
0.0
 10
595.041143
 20
24.828284
 30
0.0
 10
595.041143
 20
7.828270
 30
0.0
 10
571.291125
 20
7.828270
 30
0.0
 10
571.291125
 20
4.828268
 30
0.0
 10
547.541106
 20
4.828268
 30
0.0
 10
547.541106
 20
7.828270
 30
0.0
 10
532.541091
 20
7.828270
 30
0.0
 10
532.541091
 20
4.828268
 30
0.0
 10
517.541081
 20
4.828268
 30
0.0
 10
517.541081
 20
7.828270
 30
0.0
 10
502.541066
 20
7.828270
 30
0.0
 10
502.541066
 20
4.828268
 30
0.0
 10
487.541056
 20
4.828268
 30
0.0
 10
487.541056
 20
7.828270
 30
0.0
 10
472.541041
 20
7.828270
 30
0.0
 10
472.541041
 20
4.828268
 30
0.0
 10
457.541032
 20
4.828268
 30
0.0
 10
457.541032
 20
7.828270
 30
0.0
 10
442.541017
 20
7.828270
 30
0.0
 10
442.541017
 20
4.828268
 30
0.0
 10
427.541004
 20
4.828268
 30
0.0
 10
427.541004
 20
7.828270
 30
0.0
 10
412.540992
 20
7.828270
 30
0.0
 10
412.540992
 20
4.828268
 30
0.0
 10
397.540980
 20
4.828268
 30
0.0
 10
397.540980
 20
7.828270
 30
0.0
 10
382.540967
 20
7.828270
 30
0.0
 10
382.540967
 20
4.828268
 30
0.0
 10
358.790949
 20
4.828268
 30
0.0
 10
358.790949
 20
7.828270
 30
0.0
 10
335.040930
 20
7.828270
 30
0.0
 10
335.040930
 20
24.828284
 30
0.0
 10
338.040932
 20
24.828284
 30
0.0
 10
338.040932
 20
44.828300
 30
0.0
 10
335.040930
 20
44.828300
 30
0.0
 10
335.040930
 20
59.828313
 30
0.0
 10
338.040932
 20
59.828313
 30
0.0
 10
338.040932
 20
74.828325
 30
0.0
 10
335.040930
 20
74.828325
 30
0.0
 10
335.040930
 20
89.828337
 30
0.0
 10
338.040932
 20
89.828337
 30
0.0
 10
338.040932
 20
104.828350
 30
0.0
 10
335.040930
 20
104.828350
 30
0.0
 10
335.040930
 20
119.828362
 30
0.0
 10
338.040932
 20
119.828362
 30
0.0
 10
338.040932
 20
134.828374
 30
0.0
 10
335.040930
 20
134.828374
 30
0.0
 10
335.040930
 20
149.828387
 30
0.0
  0
LWPOLYLINE
  5
101
100
AcDbEntity
  8
0
 62
7
100
AcDbPolyline
 90
157
 70
1
 10
129.270851
 20
336.813763
 30
0.0
 10
129.270851
 20
339.813766
 30
0.0
 10
144.270861
 20
339.813766
 30
0.0
 10
144.270861
 20
336.813763
 30
0.0
 10
159.270876
 20
336.813763
 30
0.0
 10
159.270876
 20
339.813766
 30
0.0
 10
174.270885
 20
339.813766
 30
0.0
 10
174.270885
 20
336.813763
 30
0.0
 10
189.270900
 20
336.813763
 30
0.0
 10
189.270900
 20
339.813766
 30
0.0
 10
204.270913
 20
339.813766
 30
0.0
 10
204.270913
 20
336.813763
 30
0.0
 10
219.270925
 20
336.813763
 30
0.0
 10
219.270925
 20
339.813766
 30
0.0
 10
234.270937
 20
339.813766
 30
0.0
 10
234.270937
 20
336.813763
 30
0.0
 10
249.270950
 20
336.813763
 30
0.0
 10
249.270950
 20
339.813766
 30
0.0
 10
264.270962
 20
339.813766
 30
0.0
 10
264.270962
 20
336.813763
 30
0.0
 10
279.270974
 20
336.813763
 30
0.0
 10
279.270974
 20
339.813766
 30
0.0
 10
303.521006
 20
339.813766
 30
0.0
 10
303.521006
 20
336.813763
 30
0.0
 10
324.771013
 20
336.813763
 30
0.0
 10
324.771013
 20
319.813749
 30
0.0
 10
327.771007
 20
319.813749
 30
0.0
 10
327.771007
 20
299.813733
 30
0.0
 10
324.771013
 20
299.813733
 30
0.0
 10
324.771013
 20
284.813721
 30
0.0
 10
327.771007
 20
284.813721
 30
0.0
 10
327.771007
 20
269.813708
 30
0.0
 10
324.771013
 20
269.813708
 30
0.0
 10
324.771013
 20
254.813696
 30
0.0
 10
327.771007
 20
254.813696
 30
0.0
 10
327.771007
 20
239.813684
 30
0.0
 10
324.771013
 20
239.813684
 30
0.0
 10
324.771013
 20
224.813671
 30
0.0
 10
327.771007
 20
224.813671
 30
0.0
 10
327.771007
 20
209.813659
 30
0.0
 10
324.771013
 20
209.813659
 30
0.0
 10
324.771013
 20
194.813647
 30
0.0
 10
327.771007
 20
194.813647
 30
0.0
 10
327.771007
 20
179.813634
 30
0.0
 10
324.771013
 20
179.813634
 30
0.0
 10
324.771013
 20
164.813622
 30
0.0
 10
327.771007
 20
164.813622
 30
0.0
 10
327.771007
 20
149.813610
 30
0.0
 10
324.771013
 20
149.813610
 30
0.0
 10
324.771013
 20
134.813597
 30
0.0
 10
327.771007
 20
134.813597
 30
0.0
 10
327.771007
 20
119.813585
 30
0.0
 10
324.771013
 20
119.813585
 30
0.0
 10
324.771013
 20
104.813573
 30
0.0
 10
327.771007
 20
104.813573
 30
0.0
 10
327.771007
 20
89.813560
 30
0.0
 10
324.771013
 20
89.813560
 30
0.0
 10
324.771013
 20
74.813548
 30
0.0
 10
327.771007
 20
74.813548
 30
0.0
 10
327.771007
 20
59.813536
 30
0.0
 10
324.771013
 20
59.813536
 30
0.0
 10
324.771013
 20
44.813537
 30
0.0
 10
327.771007
 20
44.813537
 30
0.0
 10
327.771007
 20
24.813493
 30
0.0
 10
324.771013
 20
24.813493
 30
0.0
 10
324.771013
 20
7.813499
 30
0.0
 10
303.521006
 20
7.813499
 30
0.0
 10
303.521006
 20
4.813505
 30
0.0
 10
279.270974
 20
4.813505
 30
0.0
 10
279.270974
 20
7.813499
 30
0.0
 10
264.270962
 20
7.813499
 30
0.0
 10
264.270962
 20
4.813505
 30
0.0
 10
249.270950
 20
4.813505
 30
0.0
 10
249.270950
 20
7.813499
 30
0.0
 10
234.270937
 20
7.813499
 30
0.0
 10
234.270937
 20
4.813505
 30
0.0
 10
219.270925
 20
4.813505
 30
0.0
 10
219.270925
 20
7.813499
 30
0.0
 10
204.270913
 20
7.813499
 30
0.0
 10
204.270913
 20
4.813505
 30
0.0
 10
189.270900
 20
4.813505
 30
0.0
 10
189.270900
 20
7.813499
 30
0.0
 10
174.270885
 20
7.813499
 30
0.0
 10
174.270885
 20
4.813505
 30
0.0
 10
159.270876
 20
4.813505
 30
0.0
 10
159.270876
 20
7.813499
 30
0.0
 10
144.270861
 20
7.813499
 30
0.0
 10
144.270861
 20
4.813505
 30
0.0
 10
129.270851
 20
4.813505
 30
0.0
 10
129.270851
 20
7.813499
 30
0.0
 10
114.270839
 20
7.813499
 30
0.0
 10
114.270839
 20
4.813505
 30
0.0
 10
99.270826
 20
4.813505
 30
0.0
 10
99.270826
 20
7.813499
 30
0.0
 10
84.270811
 20
7.813499
 30
0.0
 10
84.270811
 20
4.813505
 30
0.0
 10
69.270802
 20
4.813505
 30
0.0
 10
69.270802
 20
7.813499
 30
0.0
 10
54.270789
 20
7.813499
 30
0.0
 10
54.270789
 20
4.813505
 30
0.0
 10
30.020768
 20
4.813505
 30
0.0
 10
30.020768
 20
7.813499
 30
0.0
 10
8.770751
 20
7.813499
 30
0.0
 10
8.770751
 20
24.813493
 30
0.0
 10
5.770748
 20
24.813493
 30
0.0
 10
5.770748
 20
44.813537
 30
0.0
 10
8.770751
 20
44.813537
 30
0.0
 10
8.770751
 20
59.813536
 30
0.0
 10
5.770748
 20
59.813536
 30
0.0
 10
5.770748
 20
74.813548
 30
0.0
 10
8.770751
 20
74.813548
 30
0.0
 10
8.770751
 20
89.813560
 30
0.0
 10
5.770748
 20
89.813560
 30
0.0
 10
5.770748
 20
104.813573
 30
0.0
 10
8.770751
 20
104.813573
 30
0.0
 10
8.770751
 20
119.813585
 30
0.0
 10
5.770748
 20
119.813585
 30
0.0
 10
5.770748
 20
134.813597
 30
0.0
 10
8.770751
 20
134.813597
 30
0.0
 10
8.770751
 20
149.813610
 30
0.0
 10
5.770748
 20
149.813610
 30
0.0
 10
5.770748
 20
164.813622
 30
0.0
 10
8.770751
 20
164.813622
 30
0.0
 10
8.770751
 20
179.813634
 30
0.0
 10
5.770748
 20
179.813634
 30
0.0
 10
5.770748
 20
194.813647
 30
0.0
 10
8.770751
 20
194.813647
 30
0.0
 10
8.770751
 20
209.813659
 30
0.0
 10
5.770748
 20
209.813659
 30
0.0
 10
5.770748
 20
224.813671
 30
0.0
 10
8.770751
 20
224.813671
 30
0.0
 10
8.770751
 20
239.813684
 30
0.0
 10
5.770748
 20
239.813684
 30
0.0
 10
5.770748
 20
254.813696
 30
0.0
 10
8.770751
 20
254.813696
 30
0.0
 10
8.770751
 20
269.813708
 30
0.0
 10
5.770748
 20
269.813708
 30
0.0
 10
5.770748
 20
284.813721
 30
0.0
 10
8.770751
 20
284.813721
 30
0.0
 10
8.770751
 20
299.813733
 30
0.0
 10
5.770748
 20
299.813733
 30
0.0
 10
5.770748
 20
319.813749
 30
0.0
 10
8.770751
 20
319.813749
 30
0.0
 10
8.770751
 20
336.813763
 30
0.0
 10
30.020768
 20
336.813763
 30
0.0
 10
30.020768
 20
339.813766
 30
0.0
 10
54.270789
 20
339.813766
 30
0.0
 10
54.270789
 20
336.813763
 30
0.0
 10
69.270802
 20
336.813763
 30
0.0
 10
69.270802
 20
339.813766
 30
0.0
 10
84.270811
 20
339.813766
 30
0.0
 10
84.270811
 20
336.813763
 30
0.0
 10
99.270826
 20
336.813763
 30
0.0
 10
99.270826
 20
339.813766
 30
0.0
 10
114.270839
 20
339.813766
 30
0.0
 10
114.270839
 20
336.813763
 30
0.0
 10
129.270851
 20
336.813763
 30
0.0
  0
LWPOLYLINE
  5
102
100
AcDbEntity
  8
0
 62
7
100
AcDbPolyline
 90
2
 70
1
 10
35.770773
 20
319.813749
 30
0.0
 10
297.770983
 20
319.813749
 30
0.0
  0
SPLINE
  5
103
100
AcDbEntity
  8
0
 62
7
100
AcDbSpline
 70
0
 71
3
 72
10
 73
6
 74
4
 40
0.000000
 40
0.000000
 40
0.000000
 40
0.000000
 40
2.617488
 40
5.151555
 40
7.769037
 40
7.769037
 40
7.769037
 40
7.769037
 10
297.770983
 20
319.813749
 30
0.0
 10
298.648498
 20
319.677303
 30
0.0
 10
300.375561
 20
319.408761
 30
0.0
 10
302.366011
 20
317.418319
 30
0.0
 10
302.634555
 20
315.691257
 30
0.0
 10
302.771001
 20
314.813744
 30
0.0
 11
297.770983
 21
319.813749
 31
0.0
 11
300.298400
 21
319.133007
 31
0.0
 11
302.090258
 21
317.341154
 31
0.0
 11
302.771001
 21
314.813744
 31
0.0
  0
LWPOLYLINE
  5
104
100
AcDbEntity
  8
0
 62
7
100
AcDbPolyline
 90
2
 70
1
 10
302.771001
 20
314.813744
 30
0.0
 10
302.771001
 20
49.813527
 30
0.0
  0
SPLINE
  5
105
100
AcDbEntity
  8
0
 62
7
100
AcDbSpline
 70
0
 71
3
 72
10
 73
6
 74
4
 40
0.000000
 40
0.000000
 40
0.000000
 40
0.000000
 40
2.617489
 40
5.151559
 40
7.769048
 40
7.769048
 40
7.769048
 40
7.769048
 10
302.771001
 20
49.813527
 30
0.0
 10
302.634555
 20
48.936012
 30
0.0
 10
302.366012
 20
47.208947
 30
0.0
 10
300.375563
 20
45.218498
 30
0.0
 10
298.648498
 20
44.949955
 30
0.0
 10
297.770983
 20
44.813509
 30
0.0
 11
302.771001
 21
49.813527
 31
0.0
 11
302.090258
 21
47.286110
 31
0.0
 11
300.298400
 21
45.494252
 31
0.0
 11
297.770983
 21
44.813509
 31
0.0
  0
LWPOLYLINE
  5
106
100
AcDbEntity
  8
0
 62
7
100
AcDbPolyline
 90
2
 70
1
 10
297.770983
 20
44.813509
 30
0.0
 10
35.770773
 20
44.813509
 30
0.0
  0
SPLINE
  5
107
100
AcDbEntity
  8
0
 62
7
100
AcDbSpline
 70
0
 71
3
 72
10
 73
6
 74
4
 40
0.000000
 40
0.000000
 40
0.000000
 40
0.000000
 40
2.617482
 40
5.151549
 40
7.769037
 40
7.769037
 40
7.769037
 40
7.769037
 10
35.770773
 20
44.813509
 30
0.0
 10
34.893260
 20
44.949955
 30
0.0
 10
33.166198
 20
45.218499
 30
0.0
 10
31.175756
 20
47.208949
 30
0.0
 10
30.907214
 20
48.936012
 30
0.0
 10
30.770768
 20
49.813527
 30
0.0
 11
35.770773
 21
44.813509
 31
0.0
 11
33.243363
 21
45.494252
 31
0.0
 11
31.451510
 21
47.286110
 31
0.0
 11
30.770768
 21
49.813527
 31
0.0
  0
LWPOLYLINE
  5
108
100
AcDbEntity
  8
0
 62
7
100
AcDbPolyline
 90
2
 70
1
 10
30.770768
 20
49.813527
 30
0.0
 10
30.770768
 20
314.813744
 30
0.0
  0
LWPOLYLINE
  5
109
100
AcDbEntity
  8
0
 62
7
100
AcDbPolyline
 90
2
 70
1
 10
35.770773
 20
319.813749
 30
0.0
 10
35.770773
 20
319.813749
 30
0.0
  0
LWPOLYLINE
  5
10a
100
AcDbEntity
  8
0
 62
7
100
AcDbPolyline
 90
5
 70
1
 10
20.770761
 20
47.813531
 30
0.0
 10
99.770823
 20
47.813531
 30
0.0
 10
99.770823
 20
7.813499
 30
0.0
 10
20.770761
 20
7.813499
 30
0.0
 10
20.770761
 20
47.813531
 30
0.0
  0
SPLINE
  5
10b
100
AcDbEntity
  8
0
 62
7
100
AcDbSpline
 70
0
 71
3
 72
10
 73
6
 74
4
 40
0.000000
 40
0.000000
 40
0.000000
 40
0.000000
 40
2.617481
 40
5.151545
 40
7.769026
 40
7.769026
 40
7.769026
 40
7.769026
 10
30.770768
 20
314.813744
 30
0.0
 10
30.907214
 20
315.691257
 30
0.0
 10
31.175757
 20
317.418317
 30
0.0
 10
33.166200
 20
319.408760
 30
0.0
 10
34.893260
 20
319.677303
 30
0.0
 10
35.770773
 20
319.813749
 30
0.0
 11
30.770768
 21
314.813744
 31
0.0
 11
31.451510
 21
317.341154
 31
0.0
 11
33.243363
 21
319.133007
 31
0.0
 11
35.770773
 21
319.813749
 31
0.0
  0
LWPOLYLINE
  5
10c
100
AcDbEntity
  8
0
 62
7
100
AcDbPolyline
 90
2
 70
1
 10
165.770885
 20
304.813737
 30
0.0
 10
285.770987
 20
304.813737
 30
0.0
  0
SPLINE
  5
10d
100
AcDbEntity
  8
0
 62
7
100
AcDbSpline
 70
0
 71
3
 72
10
 73
6
 74
4
 40
0.000000
 40
0.000000
 40
0.000000
 40
0.000000
 40
2.617483
 40
5.151548
 40
7.769029
 40
7.769029
 40
7.769029
 40
7.769029
 10
285.770987
 20
304.813737
 30
0.0
 10
286.648500
 20
304.677291
 30
0.0
 10
288.375561
 20
304.408749
 30
0.0
 10
290.366007
 20
302.418307
 30
0.0
 10
290.634551
 20
300.691246
 30
0.0
 10
290.770997
 20
299.813733
 30
0.0
 11
285.770987
 21
304.813737
 31
0.0
 11
288.298398
 21
304.132996
 31
0.0
 11
290.090254
 21
302.341143
 31
0.0
 11
290.770997
 21
299.813733
 31
0.0
  0
LWPOLYLINE
  5
10e
100
AcDbEntity
  8
0
 62
7
100
AcDbPolyline
 90
2
 70
1
 10
290.770997
 20
299.813733
 30
0.0
 10
290.770997
 20
179.813631
 30
0.0
  0
SPLINE
  5
10f
100
AcDbEntity
  8
0
 62
7
100
AcDbSpline
 70
0
 71
3
 72
10
 73
6
 74
4
 40
0.000000
 40
0.000000
 40
0.000000
 40
0.000000
 40
2.617480
 40
5.151546
 40
7.769029
 40
7.769029
 40
7.769029
 40
7.769029
 10
290.770997
 20
179.813631
 30
0.0
 10
290.634550
 20
178.936119
 30
0.0
 10
290.366006
 20
177.209059
 30
0.0
 10
288.375561
 20
175.218617
 30
0.0
 10
286.648500
 20
174.950073
 30
0.0
 10
285.770987
 20
174.813627
 30
0.0
 11
290.770997
 21
179.813631
 31
0.0
 11
290.090254
 21
177.286223
 31
0.0
 11
288.298398
 21
175.494369
 31
0.0
 11
285.770987
 21
174.813627
 31
0.0
  0
LWPOLYLINE
  5
110
100
AcDbEntity
  8
0
 62
7
100
AcDbPolyline
 90
2
 70
1
 10
285.770987
 20
174.813627
 30
0.0
 10
165.770885
 20
174.813627
 30
0.0
  0
SPLINE
  5
111
100
AcDbEntity
  8
0
 62
7
100
AcDbSpline
 70
0
 71
3
 72
10
 73
6
 74
4
 40
0.000000
 40
0.000000
 40
0.000000
 40
0.000000
 40
2.617480
 40
5.151544
 40
7.769024
 40
7.769024
 40
7.769024
 40
7.769024
 10
165.770885
 20
174.813627
 30
0.0
 10
164.893373
 20
174.950073
 30
0.0
 10
163.166313
 20
175.218617
 30
0.0
 10
161.175871
 20
177.209059
 30
0.0
 10
160.907327
 20
178.936119
 30
0.0
 10
160.770881
 20
179.813631
 30
0.0
 11
165.770885
 21
174.813627
 31
0.0
 11
163.243477
 21
175.494369
 31
0.0
 11
161.451623
 21
177.286223
 31
0.0
 11
160.770881
 21
179.813631
 31
0.0
  0
LWPOLYLINE
  5
112
100
AcDbEntity
  8
0
 62
7
100
AcDbPolyline
 90
2
 70
1
 10
160.770881
 20
179.813631
 30
0.0
 10
160.770881
 20
299.813733
 30
0.0
  0
SPLINE
  5
113
100
AcDbEntity
  8
0
 62
7
100
AcDbSpline
 70
0
 71
3
 72
10
 73
6
 74
4
 40
0.000000
 40
0.000000
 40
0.000000
 40
0.000000
 40
2.617481
 40
5.151545
 40
7.769025
 40
7.769025
 40
7.769025
 40
7.769025
 10
160.770881
 20
299.813733
 30
0.0
 10
160.907327
 20
300.691246
 30
0.0
 10
161.175870
 20
302.418306
 30
0.0
 10
163.166313
 20
304.408748
 30
0.0
 10
164.893373
 20
304.677291
 30
0.0
 10
165.770885
 20
304.813737
 30
0.0
 11
160.770881
 21
299.813733
 31
0.0
 11
161.451623
 21
302.341143
 31
0.0
 11
163.243477
 21
304.132996
 31
0.0
 11
165.770885
 21
304.813737
 31
0.0
  0
LWPOLYLINE
  5
114
100
AcDbEntity
  8
0
 62
7
100
AcDbPolyline
 90
2
 70
1
 10
165.770885
 20
304.813737
 30
0.0
 10
165.770885
 20
304.813737
 30
0.0
  0
SPLINE
  5
115
100
AcDbEntity
  8
0
 62
7
100
AcDbSpline
 70
0
 71
3
 72
25
 73
21
 74
19
 40
0.000000
 40
0.000000
 40
0.000000
 40
0.000000
 40
0.575905
 40
1.147045
 40
1.722951
 40
2.298856
 40
2.869996
 40
3.445901
 40
4.596192
 40
5.712365
 40
6.862656
 40
8.012947
 40
9.129120
 40
10.279411
 40
10.855316
 40
11.426456
 40
12.002361
 40
12.578267
 40
13.149407
 40
13.725312
 40
13.725312
 40
13.725312
 40
13.725312
 10
175.470880
 20
292.813727
 30
0.0
 10
175.456214
 20
292.621209
 30
0.0
 10
175.427003
 20
292.237766
 30
0.0
 10
175.196173
 20
291.701149
 30
0.0
 10
174.844956
 20
291.240130
 30
0.0
 10
174.383390
 20
290.886576
 30
0.0
 10
173.846619
 20
290.664504
 30
0.0
 10
173.080204
 20
290.562120
 30
0.0
 10
172.117922
 20
290.820192
 30
0.0
 10
171.277933
 20
291.661836
 30
0.0
 10
170.965787
 20
292.813727
 30
0.0
 10
171.277933
 20
293.965618
 30
0.0
 10
172.117922
 20
294.807262
 30
0.0
 10
173.080204
 20
295.065335
 30
0.0
 10
173.846619
 20
294.962950
 30
0.0
 10
174.383390
 20
294.740878
 30
0.0
 10
174.844956
 20
294.387324
 30
0.0
 10
175.196173
 20
293.926305
 30
0.0
 10
175.427003
 20
293.389689
 30
0.0
 10
175.456214
 20
293.006245
 30
0.0
 10
175.470880
 20
292.813727
 30
0.0
 11
175.470880
 21
292.813727
 31
0.0
 11
175.395507
 21
292.242775
 31
0.0
 11
175.176941
 21
291.715111
 31
0.0
 11
174.826514
 21
291.258091
 31
0.0
 11
174.369492
 21
290.907664
 31
0.0
 11
173.841828
 21
290.689099
 31
0.0
 11
173.270876
 21
290.613726
 31
0.0
 11
172.160493
 21
290.914091
 31
0.0
 11
171.371240
 21
291.703345
 31
0.0
 11
171.070875
 21
292.813727
 31
0.0
 11
171.371240
 21
293.924110
 31
0.0
 11
172.160493
 21
294.713364
 31
0.0
 11
173.270876
 21
295.013728
 31
0.0
 11
173.841828
 21
294.938356
 31
0.0
 11
174.369492
 21
294.719790
 31
0.0
 11
174.826514
 21
294.369364
 31
0.0
 11
175.176941
 21
293.912343
 31
0.0
 11
175.395507
 21
293.384679
 31
0.0
 11
175.470880
 21
292.813727
 31
0.0
  0
LWPOLYLINE
  5
116
100
AcDbEntity
  8
0
 62
7
100
AcDbPolyline
 90
2
 70
1
 10
175.470880
 20
292.813727
 30
0.0
 10
175.470880
 20
292.813727
 30
0.0
  0
SPLINE
  5
117
100
AcDbEntity
  8
0
 62
7
100
AcDbSpline
 70
0
 71
3
 72
25
 73
21
 74
19
 40
0.000000
 40
0.000000
 40
0.000000
 40
0.000000
 40
0.575905
 40
1.147045
 40
1.722951
 40
2.298856
 40
2.869996
 40
3.445901
 40
4.596192
 40
5.712365
 40
6.862656
 40
8.012947
 40
9.129120
 40
10.279411
 40
10.855316
 40
11.426456
 40
12.002361
 40
12.578267
 40
13.149407
 40
13.725312
 40
13.725312
 40
13.725312
 40
13.725312
 10
175.470880
 20
187.313633
 30
0.0
 10
175.456214
 20
187.121115
 30
0.0
 10
175.427003
 20
186.737672
 30
0.0
 10
175.196173
 20
186.201055
 30
0.0
 10
174.844956
 20
185.740036
 30
0.0
 10
174.383390
 20
185.386483
 30
0.0
 10
173.846619
 20
185.164410
 30
0.0
 10
173.080204
 20
185.062026
 30
0.0
 10
172.117922
 20
185.320098
 30
0.0
 10
171.277933
 20
186.161742
 30
0.0
 10
170.965787
 20
187.313633
 30
0.0
 10
171.277933
 20
188.465524
 30
0.0
 10
172.117922
 20
189.307169
 30
0.0
 10
173.080204
 20
189.565241
 30
0.0
 10
173.846619
 20
189.462857
 30
0.0
 10
174.383390
 20
189.240784
 30
0.0
 10
174.844956
 20
188.887230
 30
0.0
 10
175.196173
 20
188.426212
 30
0.0
 10
175.427003
 20
187.889595
 30
0.0
 10
175.456214
 20
187.506152
 30
0.0
 10
175.470880
 20
187.313633
 30
0.0
 11
175.470880
 21
187.313633
 31
0.0
 11
175.395507
 21
186.742682
 31
0.0
 11
175.176941
 21
186.215017
 31
0.0
 11
174.826514
 21
185.757997
 31
0.0
 11
174.369492
 21
185.407570
 31
0.0
 11
173.841828
 21
185.189005
 31
0.0
 11
173.270876
 21
185.113632
 31
0.0
 11
172.160493
 21
185.413997
 31
0.0
 11
171.371240
 21
186.203251
 31
0.0
 11
171.070875
 21
187.313633
 31
0.0
 11
171.371240
 21
188.424016
 31
0.0
 11
172.160493
 21
189.213270
 31
0.0
 11
173.270876
 21
189.513635
 31
0.0
 11
173.841828
 21
189.438262
 31
0.0
 11
174.369492
 21
189.219697
 31
0.0
 11
174.826514
 21
188.869270
 31
0.0
 11
175.176941
 21
188.412249
 31
0.0
 11
175.395507
 21
187.884585
 31
0.0
 11
175.470880
 21
187.313633
 31
0.0
  0
LWPOLYLINE
  5
118
100
AcDbEntity
  8
0
 62
7
100
AcDbPolyline
 90
2
 70
1
 10
175.470880
 20
187.313633
 30
0.0
 10
175.470880
 20
187.313633
 30
0.0
  0
SPLINE
  5
119
100
AcDbEntity
  8
0
 62
7
100
AcDbSpline
 70
0
 71
3
 72
19
 73
15
 74
13
 40
0.000000
 40
0.000000
 40
0.000000
 40
0.000000
 40
1.150291
 40
2.266464
 40
3.416755
 40
4.567045
 40
5.683219
 40
6.833509
 40
7.983800
 40
9.099974
 40
10.250264
 40
11.400555
 40
12.516728
 40
13.667019
 40
13.667019
 40
13.667019
 40
13.667019
 10
280.470981
 20
187.313633
 30
0.0
 10
280.410514
 20
186.925810
 30
0.0
 10
280.291374
 20
186.161664
 30
0.0
 10
279.415516
 20
185.320403
 30
0.0
 10
278.272998
 20
185.008690
 30
0.0
 10
277.118485
 20
185.320403
 30
0.0
 10
276.277902
 20
186.161664
 30
0.0
 10
275.965959
 20
187.313633
 30
0.0
 10
276.277902
 20
188.465602
 30
0.0
 10
277.118485
 20
189.306864
 30
0.0
 10
278.272998
 20
189.618576
 30
0.0
 10
279.415516
 20
189.306864
 30
0.0
 10
280.291374
 20
188.465602
 30
0.0
 10
280.410514
 20
187.701457
 30
0.0
 10
280.470981
 20
187.313633
 30
0.0
 11
280.470981
 21
187.313633
 31
0.0
 11
280.170616
 21
186.203251
 31
0.0
 11
279.381362
 21
185.413997
 31
0.0
 11
278.270979
 21
185.113632
 31
0.0
 11
277.160597
 21
185.413997
 31
0.0
 11
276.371343
 21
186.203251
 31
0.0
 11
276.070978
 21
187.313633
 31
0.0
 11
276.371343
 21
188.424016
 31
0.0
 11
277.160597
 21
189.213270
 31
0.0
 11
278.270979
 21
189.513635
 31
0.0
 11
279.381362
 21
189.213270
 31
0.0
 11
280.170616
 21
188.424016
 31
0.0
 11
280.470981
 21
187.313633
 31
0.0
  0
LWPOLYLINE
  5
11a
100
AcDbEntity
  8
0
 62
7
100
AcDbPolyline
 90
2
 70
1
 10
280.470981
 20
187.313633
 30
0.0
 10
280.470981
 20
187.313633
 30
0.0
  0
LWPOLYLINE
  5
11b
100
AcDbEntity
  8
0
 62
7
100
AcDbPolyline
 90
2
 70
1
 10
280.470981
 20
292.813727
 30
0.0
 10
280.470981
 20
292.813727
 30
0.0
  0
SPLINE
  5
11c
100
AcDbEntity
  8
0
 62
7
100
AcDbSpline
 70
0
 71
3
 72
19
 73
15
 74
13
 40
0.000000
 40
0.000000
 40
0.000000
 40
0.000000
 40
1.150291
 40
2.266464
 40
3.416755
 40
4.567045
 40
5.683219
 40
6.833509
 40
7.983800
 40
9.099974
 40
10.250264
 40
11.400555
 40
12.516728
 40
13.667019
 40
13.667019
 40
13.667019
 40
13.667019
 10
280.470981
 20
292.813727
 30
0.0
 10
280.410514
 20
292.425903
 30
0.0
 10
280.291374
 20
291.661758
 30
0.0
 10
279.415516
 20
290.820497
 30
0.0
 10
278.272998
 20
290.508784
 30
0.0
 10
277.118485
 20
290.820497
 30
0.0
 10
276.277902
 20
291.661758
 30
0.0
 10
275.965959
 20
292.813727
 30
0.0
 10
276.277902
 20
293.965696
 30
0.0
 10
277.118485
 20
294.806957
 30
0.0
 10
278.272998
 20
295.118670
 30
0.0
 10
279.415516
 20
294.806957
 30
0.0
 10
280.291374
 20
293.965696
 30
0.0
 10
280.410514
 20
293.201551
 30
0.0
 10
280.470981
 20
292.813727
 30
0.0
 11
280.470981
 21
292.813727
 31
0.0
 11
280.170616
 21
291.703345
 31
0.0
 11
279.381362
 21
290.914091
 31
0.0
 11
278.270979
 21
290.613726
 31
0.0
 11
277.160597
 21
290.914091
 31
0.0
 11
276.371343
 21
291.703345
 31
0.0
 11
276.070978
 21
292.813727
 31
0.0
 11
276.371343
 21
293.924110
 31
0.0
 11
277.160597
 21
294.713364
 31
0.0
 11
278.270979
 21
295.013728
 31
0.0
 11
279.381362
 21
294.713364
 31
0.0
 11
280.170616
 21
293.924110
 31
0.0
 11
280.470981
 21
292.813727
 31
0.0
  0
LWPOLYLINE
  5
11d
100
AcDbEntity
  8
0
 62
7
100
AcDbPolyline
 90
2
 70
1
 10
68.770800
 20
304.813737
 30
0.0
 10
142.770858
 20
304.813737
 30
0.0
  0
SPLINE
  5
11e
100
AcDbEntity
  8
0
 62
7
100
AcDbSpline
 70
0
 71
3
 72
10
 73
6
 74
4
 40
0.000000
 40
0.000000
 40
0.000000
 40
0.000000
 40
4.187970
 40
8.242471
 40
12.430441
 40
12.430441
 40
12.430441
 40
12.430441
 10
142.770858
 20
304.813737
 30
0.0
 10
144.174879
 20
304.595424
 30
0.0
 10
146.938174
 20
304.165756
 30
0.0
 10
150.122883
 20
300.981047
 30
0.0
 10
150.552552
 20
298.217751
 30
0.0
 10
150.770865
 20
296.813730
 30
0.0
 11
142.770858
 21
304.813737
 31
0.0
 11
146.814713
 21
303.724551
 31
0.0
 11
149.681679
 21
300.857586
 31
0.0
 11
150.770865
 21
296.813730
 31
0.0
  0
LWPOLYLINE
  5
11f
100
AcDbEntity
  8
0
 62
7
100
AcDbPolyline
 90
2
 70
1
 10
150.770865
 20
296.813730
 30
0.0
 10
150.770865
 20
222.813672
 30
0.0
  0
SPLINE
  5
120
100
AcDbEntity
  8
0
 62
7
100
AcDbSpline
 70
0
 71
3
 72
10
 73
6
 74
4
 40
0.000000
 40
0.000000
 40
0.000000
 40
0.000000
 40
4.187968
 40
8.242469
 40
12.430438
 40
12.430438
 40
12.430438
 40
12.430438
 10
150.770865
 20
222.813672
 30
0.0
 10
150.552552
 20
221.409652
 30
0.0
 10
150.122883
 20
218.646358
 30
0.0
 10
146.938174
 20
215.461650
 30
0.0
 10
144.174879
 20
215.031982
 30
0.0
 10
142.770858
 20
214.813669
 30
0.0
 11
150.770865
 21
222.813672
 31
0.0
 11
149.681679
 21
218.769819
 31
0.0
 11
146.814713
 21
215.902855
 31
0.0
 11
142.770858
 21
214.813669
 31
0.0
  0
LWPOLYLINE
  5
121
100
AcDbEntity
  8
0
 62
7
100
AcDbPolyline
 90
2
 70
1
 10
142.770858
 20
214.813669
 30
0.0
 10
68.770800
 20
214.813669
 30
0.0
  0
SPLINE
  5
122
100
AcDbEntity
  8
0
 62
7
100
AcDbSpline
 70
0
 71
3
 72
10
 73
6
 74
4
 40
0.000000
 40
0.000000
 40
0.000000
 40
0.000000
 40
4.187970
 40
8.242470
 40
12.430438
 40
12.430438
 40
12.430438
 40
12.430438
 10
68.770800
 20
214.813669
 30
0.0
 10
67.366779
 20
215.031982
 30
0.0
 10
64.603484
 20
215.461650
 30
0.0
 10
61.418775
 20
218.646358
 30
0.0
 10
60.989107
 20
221.409652
 30
0.0
 10
60.770793
 20
222.813672
 30
0.0
 11
68.770800
 21
214.813669
 31
0.0
 11
64.726945
 21
215.902855
 31
0.0
 11
61.859980
 21
218.769819
 31
0.0
 11
60.770793
 21
222.813672
 31
0.0
  0
LWPOLYLINE
  5
123
100
AcDbEntity
  8
0
 62
7
100
AcDbPolyline
 90
2
 70
1
 10
60.770793
 20
222.813672
 30
0.0
 10
60.770793
 20
296.813730
 30
0.0
  0
SPLINE
  5
124
100
AcDbEntity
  8
0
 62
7
100
AcDbSpline
 70
0
 71
3
 72
10
 73
6
 74
4
 40
0.000000
 40
0.000000
 40
0.000000
 40
0.000000
 40
4.187970
 40
8.242471
 40
12.430441
 40
12.430441
 40
12.430441
 40
12.430441
 10
60.770793
 20
296.813730
 30
0.0
 10
60.989106
 20
298.217751
 30
0.0
 10
61.418775
 20
300.981047
 30
0.0
 10
64.603484
 20
304.165756
 30
0.0
 10
67.366779
 20
304.595424
 30
0.0
 10
68.770800
 20
304.813737
 30
0.0
 11
60.770793
 21
296.813730
 31
0.0
 11
61.859980
 21
300.857586
 31
0.0
 11
64.726945
 21
303.724551
 31
0.0
 11
68.770800
 21
304.813737
 31
0.0
  0
LWPOLYLINE
  5
125
100
AcDbEntity
  8
0
 62
7
100
AcDbPolyline
 90
2
 70
1
 10
68.770800
 20
304.813737
 30
0.0
 10
68.770800
 20
304.813737
 30
0.0
  0
SPLINE
  5
126
100
AcDbEntity
  8
0
 62
7
100
AcDbSpline
 70
0
 71
3
 72
25
 73
21
 74
19
 40
0.000000
 40
0.000000
 40
0.000000
 40
0.000000
 40
0.575905
 40
1.147045
 40
1.722951
 40
2.298856
 40
2.869996
 40
3.445901
 40
4.596192
 40
5.712365
 40
6.862656
 40
8.012947
 40
9.129120
 40
10.279411
 40
10.855316
 40
11.426456
 40
12.002361
 40
12.578267
 40
13.149407
 40
13.725312
 40
13.725312
 40
13.725312
 40
13.725312
 10
72.370804
 20
295.413728
 30
0.0
 10
72.356138
 20
295.221209
 30
0.0
 10
72.326927
 20
294.837766
 30
0.0
 10
72.096097
 20
294.301150
 30
0.0
 10
71.744880
 20
293.840131
 30
0.0
 10
71.283314
 20
293.486577
 30
0.0
 10
70.746543
 20
293.264504
 30
0.0
 10
69.980128
 20
293.162120
 30
0.0
 10
69.017846
 20
293.420193
 30
0.0
 10
68.177857
 20
294.261837
 30
0.0
 10
67.865711
 20
295.413728
 30
0.0
 10
68.177857
 20
296.565619
 30
0.0
 10
69.017846
 20
297.407263
 30
0.0
 10
69.980128
 20
297.665335
 30
0.0
 10
70.746543
 20
297.562951
 30
0.0
 10
71.283314
 20
297.340878
 30
0.0
 10
71.744880
 20
296.987325
 30
0.0
 10
72.096097
 20
296.526306
 30
0.0
 10
72.326927
 20
295.989689
 30
0.0
 10
72.356138
 20
295.606246
 30
0.0
 10
72.370804
 20
295.413728
 30
0.0
 11
72.370804
 21
295.413728
 31
0.0
 11
72.295431
 21
294.842776
 31
0.0
 11
72.076865
 21
294.315112
 31
0.0
 11
71.726437
 21
293.858091
 31
0.0
 11
71.269416
 21
293.507664
 31
0.0
 11
70.741752
 21
293.289099
 31
0.0
 11
70.170800
 21
293.213726
 31
0.0
 11
69.060417
 21
293.514091
 31
0.0
 11
68.271164
 21
294.303345
 31
0.0
 11
67.970799
 21
295.413728
 31
0.0
 11
68.271164
 21
296.524110
 31
0.0
 11
69.060417
 21
297.313364
 31
0.0
 11
70.170800
 21
297.613729
 31
0.0
 11
70.741752
 21
297.538356
 31
0.0
 11
71.269416
 21
297.319791
 31
0.0
 11
71.726437
 21
296.969364
 31
0.0
 11
72.076865
 21
296.512344
 31
0.0
 11
72.295431
 21
295.984679
 31
0.0
 11
72.370804
 21
295.413728
 31
0.0
  0
LWPOLYLINE
  5
127
100
AcDbEntity
  8
0
 62
7
100
AcDbPolyline
 90
2
 70
1
 10
72.370804
 20
295.413728
 30
0.0
 10
72.370804
 20
295.413728
 30
0.0
  0
SPLINE
  5
128
100
AcDbEntity
  8
0
 62
7
100
AcDbSpline
 70
0
 71
3
 72
25
 73
21
 74
19
 40
0.000000
 40
0.000000
 40
0.000000
 40
0.000000
 40
0.575905
 40
1.147045
 40
1.722951
 40
2.298856
 40
2.869996
 40
3.445901
 40
4.596192
 40
5.712365
 40
6.862656
 40
8.012947
 40
9.129120
 40
10.279411
 40
10.855316
 40
11.426456
 40
12.002361
 40
12.578267
 40
13.149407
 40
13.725312
 40
13.725312
 40
13.725312
 40
13.725312
 10
72.370804
 20
224.313667
 30
0.0
 10
72.356138
 20
224.121148
 30
0.0
 10
72.326927
 20
223.737705
 30
0.0
 10
72.096097
 20
223.201089
 30
0.0
 10
71.744880
 20
222.740070
 30
0.0
 10
71.283314
 20
222.386516
 30
0.0
 10
70.746543
 20
222.164443
 30
0.0
 10
69.980128
 20
222.062059
 30
0.0
 10
69.017846
 20
222.320132
 30
0.0
 10
68.177857
 20
223.161776
 30
0.0
 10
67.865711
 20
224.313667
 30
0.0
 10
68.177857
 20
225.465558
 30
0.0
 10
69.017846
 20
226.307202
 30
0.0
 10
69.980128
 20
226.565274
 30
0.0
 10
70.746543
 20
226.462890
 30
0.0
 10
71.283314
 20
226.240817
 30
0.0
 10
71.744880
 20
225.887264
 30
0.0
 10
72.096097
 20
225.426245
 30
0.0
 10
72.326927
 20
224.889628
 30
0.0
 10
72.356138
 20
224.506185
 30
0.0
 10
72.370804
 20
224.313667
 30
0.0
 11
72.370804
 21
224.313667
 31
0.0
 11
72.295431
 21
223.742715
 31
0.0
 11
72.076865
 21
223.215051
 31
0.0
 11
71.726437
 21
222.758030
 31
0.0
 11
71.269416
 21
222.407603
 31
0.0
 11
70.741752
 21
222.189038
 31
0.0
 11
70.170800
 21
222.113665
 31
0.0
 11
69.060417
 21
222.414030
 31
0.0
 11
68.271164
 21
223.203284
 31
0.0
 11
67.970799
 21
224.313667
 31
0.0
 11
68.271164
 21
225.424049
 31
0.0
 11
69.060417
 21
226.213303
 31
0.0
 11
70.170800
 21
226.513668
 31
0.0
 11
70.741752
 21
226.438295
 31
0.0
 11
71.269416
 21
226.219730
 31
0.0
 11
71.726437
 21
225.869303
 31
0.0
 11
72.076865
 21
225.412283
 31
0.0
 11
72.295431
 21
224.884618
 31
0.0
 11
72.370804
 21
224.313667
 31
0.0
  0
LWPOLYLINE
  5
129
100
AcDbEntity
  8
0
 62
7
100
AcDbPolyline
 90
2
 70
1
 10
72.370804
 20
224.313667
 30
0.0
 10
72.370804
 20
224.313667
 30
0.0
  0
SPLINE
  5
12a
100
AcDbEntity
  8
0
 62
7
100
AcDbSpline
 70
0
 71
3
 72
19
 73
15
 74
13
 40
0.000000
 40
0.000000
 40
0.000000
 40
0.000000
 40
1.150291
 40
2.266464
 40
3.416755
 40
4.567045
 40
5.683219
 40
6.833509
 40
7.983800
 40
9.099974
 40
10.250264
 40
11.400555
 40
12.516728
 40
13.667019
 40
13.667019
 40
13.667019
 40
13.667019
 10
143.470859
 20
224.313667
 30
0.0
 10
143.410393
 20
223.925843
 30
0.0
 10
143.291253
 20
223.161698
 30
0.0
 10
142.415395
 20
222.320437
 30
0.0
 10
141.272877
 20
222.008724
 30
0.0
 10
140.118364
 20
222.320437
 30
0.0
 10
139.277781
 20
223.161698
 30
0.0
 10
138.965837
 20
224.313667
 30
0.0
 10
139.277781
 20
225.465636
 30
0.0
 10
140.118364
 20
226.306897
 30
0.0
 10
141.272877
 20
226.618610
 30
0.0
 10
142.415395
 20
226.306897
 30
0.0
 10
143.291253
 20
225.465636
 30
0.0
 10
143.410393
 20
224.701491
 30
0.0
 10
143.470859
 20
224.313667
 30
0.0
 11
143.470859
 21
224.313667
 31
0.0
 11
143.170495
 21
223.203284
 31
0.0
 11
142.381241
 21
222.414030
 31
0.0
 11
141.270858
 21
222.113665
 31
0.0
 11
140.160476
 21
222.414030
 31
0.0
 11
139.371222
 21
223.203284
 31
0.0
 11
139.070857
 21
224.313667
 31
0.0
 11
139.371222
 21
225.424049
 31
0.0
 11
140.160476
 21
226.213303
 31
0.0
 11
141.270858
 21
226.513668
 31
0.0
 11
142.381241
 21
226.213303
 31
0.0
 11
143.170495
 21
225.424049
 31
0.0
 11
143.470859
 21
224.313667
 31
0.0
  0
LWPOLYLINE
  5
12b
100
AcDbEntity
  8
0
 62
7
100
AcDbPolyline
 90
2
 70
1
 10
143.470859
 20
224.313667
 30
0.0
 10
143.470859
 20
224.313667
 30
0.0
  0
SPLINE
  5
12c
100
AcDbEntity
  8
0
 62
7
100
AcDbSpline
 70
0
 71
3
 72
19
 73
15
 74
13
 40
0.000000
 40
0.000000
 40
0.000000
 40
0.000000
 40
1.150291
 40
2.266464
 40
3.416755
 40
4.567045
 40
5.683219
 40
6.833509
 40
7.983800
 40
9.099974
 40
10.250264
 40
11.400555
 40
12.516728
 40
13.667019
 40
13.667019
 40
13.667019
 40
13.667019
 10
143.470859
 20
295.413728
 30
0.0
 10
143.410393
 20
295.025904
 30
0.0
 10
143.291253
 20
294.261759
 30
0.0
 10
142.415395
 20
293.420498
 30
0.0
 10
141.272877
 20
293.108785
 30
0.0
 10
140.118364
 20
293.420498
 30
0.0
 10
139.277781
 20
294.261759
 30
0.0
 10
138.965837
 20
295.413728
 30
0.0
 10
139.277781
 20
296.565697
 30
0.0
 10
140.118364
 20
297.406958
 30
0.0
 10
141.272877
 20
297.718671
 30
0.0
 10
142.415395
 20
297.406958
 30
0.0
 10
143.291253
 20
296.565697
 30
0.0
 10
143.410393
 20
295.801552
 30
0.0
 10
143.470859
 20
295.413728
 30
0.0
 11
143.470859
 21
295.413728
 31
0.0
 11
143.170495
 21
294.303345
 31
0.0
 11
142.381241
 21
293.514091
 31
0.0
 11
141.270858
 21
293.213726
 31
0.0
 11
140.160476
 21
293.514091
 31
0.0
 11
139.371222
 21
294.303345
 31
0.0
 11
139.070857
 21
295.413728
 31
0.0
 11
139.371222
 21
296.524110
 31
0.0
 11
140.160476
 21
297.313364
 31
0.0
 11
141.270858
 21
297.613729
 31
0.0
 11
142.381241
 21
297.313364
 31
0.0
 11
143.170495
 21
296.524110
 31
0.0
 11
143.470859
 21
295.413728
 31
0.0
  0
LWPOLYLINE
  5
12d
100
AcDbEntity
  8
0
 62
7
100
AcDbPolyline
 90
2
 70
1
 10
143.470859
 20
295.413728
 30
0.0
 10
143.470859
 20
295.413728
 30
0.0
  0
ENDSEC
  0
SECTION
  2
OBJECTS
  0
DICTIONARY
  5
C
330
0
100
AcDbDictionary
  3
ACAD_GROUP
350
D
  3
ACAD_MLINESTYLE
350
17
  0
DICTIONARY
  5
D
330
C
100
AcDbDictionary
  0
DICTIONARY
  5
1A
330
C
100
AcDbDictionary
  0
DICTIONARY
  5
17
330
C
100
AcDbDictionary
  3
STANDARD
350
18
  0
DICTIONARY
  5
19
330
C
100
AcDbDictionary
  0
ENDSEC
  0
EOF
