<?xml version="1.0" encoding="UTF-8" standalone="no"?>
<svg
   xmlns:dc="http://purl.org/dc/elements/1.1/"
   xmlns:cc="http://creativecommons.org/ns#"
   xmlns:rdf="http://www.w3.org/1999/02/22-rdf-syntax-ns#"
   xmlns:svg="http://www.w3.org/2000/svg"
   xmlns="http://www.w3.org/2000/svg"
   xmlns:sodipodi="http://sodipodi.sourceforge.net/DTD/sodipodi-0.dtd"
   xmlns:inkscape="http://www.inkscape.org/namespaces/inkscape"
   version="1.1"
   width="600mm"
   height="400mm"
   viewBox="0 0 2125.9861 1417.324"
   id="svg6580"
   inkscape:version="0.91 r13725"
   sodipodi:docname="BottomAndSide-600x400.svg">
  <metadata
     id="metadata6692">
    <rdf:RDF>
      <cc:Work
         rdf:about="">
        <dc:format>image/svg+xml</dc:format>
        <dc:type
           rdf:resource="http://purl.org/dc/dcmitype/StillImage" />
        <dc:title></dc:title>
      </cc:Work>
    </rdf:RDF>
  </metadata>
  <defs
     id="defs6690" />
  <sodipodi:namedview
     pagecolor="#ffffff"
     bordercolor="#666666"
     borderopacity="1"
     objecttolerance="10"
     gridtolerance="10"
     guidetolerance="10"
     inkscape:pageopacity="0"
     inkscape:pageshadow="2"
     inkscape:window-width="2560"
     inkscape:window-height="1335"
     id="namedview6688"
     showgrid="false"
     inkscape:document-units="mm"
     inkscape:zoom="0.46679098"
     inkscape:cx="1515.9956"
     inkscape:cy="999.27339"
     inkscape:window-x="2552"
     inkscape:window-y="2152"
     inkscape:window-maximized="1"
     inkscape:current-layer="svg6580" />
  <!-- Front-->
  <!-- Back-->
  <!-- Left-->
  <!-- Right-->
  <g
     transform="matrix(0,-1,1,0,1187.1529,1400.2148)"
     id="g6642">
    <polygon
       style="fill:none;stroke:#000000;stroke-width:0.90000075"
       points="513.77995,0 513.77995,10.62993 566.9296,10.62993 566.9296,0 620.07925,0 620.07925,10.62993 673.2289,10.62993 673.2289,0 726.37855,0 726.37855,10.62993 779.5282,10.62993 779.5282,0 832.67785,0 832.67785,10.62993 885.8275,10.62993 885.8275,0 938.97715,0 938.97715,10.62993 992.1268,10.62993 992.1268,0 1045.2764,0 1045.2764,10.62993 1116.1427,10.62993 1116.1427,0 1176.3789,0 1176.3789,84.153612 1187.0088,84.153612 1187.0088,168.30722 1176.3789,168.30722 1176.3789,221.45687 1187.0088,221.45687 1187.0088,274.60652 1176.3789,274.60652 1176.3789,327.75617 1187.0088,327.75617 1187.0088,380.90582 1176.3789,380.90582 1176.3789,434.05548 1187.0088,434.05548 1187.0088,487.20512 1176.3789,487.20512 1176.3789,540.35478 1187.0088,540.35478 1187.0088,593.50442 1176.3789,593.50442 1176.3789,646.65408 1187.0088,646.65408 1187.0088,699.80372 1176.3789,699.80372 1176.3789,752.95338 1187.0088,752.95338 1187.0088,837.10699 1176.3789,837.10699 1176.3789,921.2606 1116.1427,921.2606 1116.1427,910.63067 1045.2764,910.63067 1045.2764,921.2606 992.1268,921.2606 992.1268,910.63067 938.97715,910.63067 938.97715,921.2606 885.8275,921.2606 885.8275,910.63067 832.67785,910.63067 832.67785,921.2606 779.5282,921.2606 779.5282,910.63067 726.37855,910.63067 726.37855,921.2606 673.2289,921.2606 673.2289,910.63067 620.07925,910.63067 620.07925,921.2606 566.9296,921.2606 566.9296,910.63067 513.77995,910.63067 513.77995,921.2606 460.6303,921.2606 460.6303,910.63067 407.48065,910.63067 407.48065,921.2606 354.331,921.2606 354.331,910.63067 301.18135,910.63067 301.18135,921.2606 248.0317,921.2606 248.0317,910.63067 194.88205,910.63067 194.88205,921.2606 141.7324,921.2606 141.7324,910.63067 70.8662,910.63067 70.8662,921.2606 10.62993,921.2606 10.62993,837.10699 0,837.10699 0,752.95338 10.62993,752.95338 10.62993,699.80372 0,699.80372 0,646.65408 10.62993,646.65408 10.62993,593.50442 0,593.50442 0,540.35478 10.62993,540.35478 10.62993,487.20512 0,487.20512 0,434.05548 10.62993,434.05548 10.62993,380.90582 0,380.90582 0,327.75617 10.62993,327.75617 10.62993,274.60652 0,274.60652 0,221.45687 10.62993,221.45687 10.62993,168.30722 0,168.30722 0,84.153612 10.62993,84.153612 10.62993,0 70.8662,0 70.8662,10.62993 141.7324,10.62993 141.7324,0 194.88205,0 194.88205,10.62993 248.0317,10.62993 248.0317,0 301.18135,0 301.18135,10.62993 354.331,10.62993 354.331,0 407.48065,0 407.48065,10.62993 460.6303,10.62993 460.6303,0 "
       id="polygon6644" />
  </g>
  <!-- Top-->
  <!-- Bottom-->
  <g
     transform="translate(20.447533,213.25831)"
     id="g6660">
    <polygon
       style="fill:none;stroke:#000000;stroke-width:0.90000075"
       points="437.59879,10.62993 437.59879,0 490.74843,0 490.74843,10.62993 543.89809,10.62993 543.89809,0 597.04773,0 597.04773,10.62993 650.19739,10.62993 650.19739,0 703.34704,0 703.34704,10.62993 756.49669,10.62993 756.49669,0 809.64634,0 809.64634,10.62993 862.79599,10.62993 862.79599,0 915.94564,0 915.94564,10.62993 969.09529,10.62993 969.09529,0 1055.0206,0 1055.0206,10.62993 1130.3159,10.62993 1130.3159,70.8662 1140.9458,70.8662 1140.9458,141.7324 1130.3159,141.7324 1130.3159,194.88205 1140.9458,194.88205 1140.9458,248.0317 1130.3159,248.0317 1130.3159,301.18135 1140.9458,301.18135 1140.9458,354.331 1130.3159,354.331 1130.3159,407.48065 1140.9458,407.48065 1140.9458,460.6303 1130.3159,460.6303 1130.3159,513.77995 1140.9458,513.77995 1140.9458,566.9296 1130.3159,566.9296 1130.3159,620.07925 1140.9458,620.07925 1140.9458,673.2289 1130.3159,673.2289 1130.3159,726.37855 1140.9458,726.37855 1140.9458,779.5282 1130.3159,779.5282 1130.3159,832.67785 1140.9458,832.67785 1140.9458,885.8275 1130.3159,885.8275 1130.3159,938.97715 1140.9458,938.97715 1140.9458,992.1268 1130.3159,992.1268 1130.3159,1045.2764 1140.9458,1045.2764 1140.9458,1116.1427 1130.3159,1116.1427 1130.3159,1176.3789 1055.0206,1176.3789 1055.0206,1187.0088 969.09529,1187.0088 969.09529,1176.3789 915.94564,1176.3789 915.94564,1187.0088 862.79599,1187.0088 862.79599,1176.3789 809.64634,1176.3789 809.64634,1187.0088 756.49669,1187.0088 756.49669,1176.3789 703.34704,1176.3789 703.34704,1187.0088 650.19739,1187.0088 650.19739,1176.3789 597.04773,1176.3789 597.04773,1187.0088 543.89809,1187.0088 543.89809,1176.3789 490.74843,1176.3789 490.74843,1187.0088 437.59879,1187.0088 437.59879,1176.3789 384.44914,1176.3789 384.44914,1187.0088 331.29949,1187.0088 331.29949,1176.3789 278.14983,1176.3789 278.14983,1187.0088 225.00019,1187.0088 225.00019,1176.3789 171.85054,1176.3789 171.85054,1187.0088 85.925268,1187.0088 85.925268,1176.3789 10.62993,1176.3789 10.62993,1116.1427 0,1116.1427 0,1045.2764 10.62993,1045.2764 10.62993,992.1268 0,992.1268 0,938.97715 10.62993,938.97715 10.62993,885.8275 0,885.8275 0,832.67785 10.62993,832.67785 10.62993,779.5282 0,779.5282 0,726.37855 10.62993,726.37855 10.62993,673.2289 0,673.2289 0,620.07925 10.62993,620.07925 10.62993,566.9296 0,566.9296 0,513.77995 10.62993,513.77995 10.62993,460.6303 0,460.6303 0,407.48065 10.62993,407.48065 10.62993,354.331 0,354.331 0,301.18135 10.62993,301.18135 10.62993,248.0317 0,248.0317 0,194.88205 10.62993,194.88205 10.62993,141.7324 0,141.7324 0,70.8662 10.62993,70.8662 10.62993,10.62993 85.925268,10.62993 85.925268,0 171.85054,0 171.85054,10.62993 225.00019,10.62993 225.00019,0 278.14983,0 278.14983,10.62993 331.29949,10.62993 331.29949,0 384.44914,0 384.44914,10.62993 "
       id="polygon6662" />
    <rect
       x="88.582748"
       y="70.866203"
       width="963.78033"
       height="974.41028"
       rx="17.716551"
       ry="17.716551"
       style="fill:none;stroke:#000000;stroke-width:0.90000075"
       id="rect6664" />
    <rect
       x="53.149651"
       y="1034.6465"
       width="279.92148"
       height="141.73241"
       rx="0"
       ry="0"
       style="fill:none;stroke:#000000;stroke-width:0.90000075"
       id="rect6666" />
    <rect
       x="549.21307"
       y="124.01585"
       width="460.63031"
       height="460.63031"
       rx="17.716551"
       ry="17.716551"
       style="fill:none;stroke:#000000;stroke-width:0.90000075"
       id="rect6668" />
    <circle
       cx="593.50439"
       cy="166.53557"
       r="7.7952819"
       style="fill:none;stroke:#000000;stroke-width:0.90000075"
       id="circle6670" />
    <circle
       cx="593.50439"
       cy="540.3548"
       r="7.7952819"
       style="fill:none;stroke:#000000;stroke-width:0.90000075"
       id="circle6672" />
    <circle
       cx="965.552"
       cy="540.3548"
       r="7.7952819"
       style="fill:none;stroke:#000000;stroke-width:0.90000075"
       id="circle6674" />
    <circle
       cx="965.552"
       cy="166.53557"
       r="7.7952819"
       style="fill:none;stroke:#000000;stroke-width:0.90000075"
       id="circle6676" />
    <rect
       x="194.88205"
       y="124.01585"
       width="318.89789"
       height="318.89789"
       rx="28.346479"
       ry="28.346479"
       style="fill:none;stroke:#000000;stroke-width:0.90000075"
       id="rect6678" />
    <circle
       cx="228.18916"
       cy="157.32297"
       r="7.7952819"
       style="fill:none;stroke:#000000;stroke-width:0.90000075"
       id="circle6680" />
    <circle
       cx="228.18916"
       cy="409.25232"
       r="7.7952819"
       style="fill:none;stroke:#000000;stroke-width:0.90000075"
       id="circle6682" />
    <circle
       cx="480.1185"
       cy="409.25232"
       r="7.7952819"
       style="fill:none;stroke:#000000;stroke-width:0.90000075"
       id="circle6684" />
    <circle
       cx="480.1185"
       cy="157.32297"
       r="7.7952819"
       style="fill:none;stroke:#000000;stroke-width:0.90000075"
       id="circle6686" />
  </g>
</svg>
