  0
SECTION
  2
HEADER
  9
$ACADVER
  1
AC1014
  9
$HANDSEED
  5
FFFF
  9
$MEASUREMENT
 70
     1
  0
ENDSEC
  0
SECTION
  2
TABLES
  0
TABLE
  2
VPORT
  5
8
330
0
100
AcDbSymbolTable
 70
     4
  0
VPORT
  5
2E
330
8
100
AcDbSymbolTableRecord
100
AcDbViewportTableRecord
  2
*ACTIVE
 70
     0
 10
0.0
 20
0.0
 11
1.0
 21
1.0
 12
210.0
 22
148.5
 13
0.0
 23
0.0
 14
10.0
 24
10.0
 15
10.0
 25
10.0
 16
0.0
 26
0.0
 36
1.0
 17
0.0
 27
0.0
 37
0.0
 40
341.0
 41
1.24
 42
50.0
 43
0.0
 44
0.0
 50
0.0
 51
0.0
 71
     0
 72
   100
 73
     1
 74
     3
 75
     0
 76
     0
 77
     0
 78
     0
  0
ENDTAB
  0
TABLE
  2
LTYPE
  5
5
330
0
100
AcDbSymbolTable
 70
     1
  0
LTYPE
  5
14
330
5
100
AcDbSymbolTableRecord
100
AcDbLinetypeTableRecord
  2
BYBLOCK
 70
     0
  3

 72
    65
 73
     0
 40
0.0
  0
LTYPE
  5
15
330
5
100
AcDbSymbolTableRecord
100
AcDbLinetypeTableRecord
  2
BYLAYER
 70
     0
  3

 72
    65
 73
     0
 40
0.0
  0
LTYPE
  5
16
330
5
100
AcDbSymbolTableRecord
100
AcDbLinetypeTableRecord
  2
CONTINUOUS
 70
     0
  3
Solid line
 72
    65
 73
     0
 40
0.0
  0
ENDTAB
  0
TABLE
  2
LAYER
  5
2
100
AcDbSymbolTable
 70
1
  0
LAYER
  5
50
100
AcDbSymbolTableRecord
100
AcDbLayerTableRecord
  2
0
 70
0
  6
CONTINUOUS
  0
ENDTAB
  0
TABLE
  2
STYLE
  5
3
330
0
100
AcDbSymbolTable
 70
     1
  0
STYLE
  5
11
330
3
100
AcDbSymbolTableRecord
100
AcDbTextStyleTableRecord
  2
STANDARD
 70
     0
 40
0.0
 41
1.0
 50
0.0
 71
     0
 42
2.5
  3
txt
  4

  0
ENDTAB
  0
TABLE
  2
VIEW
  5
6
330
0
100
AcDbSymbolTable
 70
     0
  0
ENDTAB
  0
TABLE
  2
UCS
  5
7
330
0
100
AcDbSymbolTable
 70
     0
  0
ENDTAB
  0
TABLE
  2
APPID
  5
9
330
0
100
AcDbSymbolTable
 70
     2
  0
APPID
  5
12
330
9
100
AcDbSymbolTableRecord
100
AcDbRegAppTableRecord
  2
ACAD
 70
     0
  0
ENDTAB
  0
TABLE
  2
DIMSTYLE
  5
A
330
0
100
AcDbSymbolTable
 70
     1
  0
DIMSTYLE
105
27
330
A
100
AcDbSymbolTableRecord
100
AcDbDimStyleTableRecord
  2
ISO-25
 70
     0
  3

  4

  5

  6

  7

 40
1.0
 41
2.5
 42
0.625
 43
3.75
 44
1.25
 45
0.0
 46
0.0
 47
0.0
 48
0.0
140
2.5
141
2.5
142
0.0
143
0.03937007874016
144
1.0
145
0.0
146
1.0
147
0.625
 71
     0
 72
     0
 73
     0
 74
     0
 75
     0
 76
     0
 77
     1
 78
     8
170
     0
171
     3
172
     1
173
     0
174
     0
175
     0
176
     0
177
     0
178
     0
270
     2
271
     2
272
     2
273
     2
274
     3
340
11
275
     0
280
     0
281
     0
282
     0
283
     0
284
     8
285
     0
286
     0
287
     3
288
     0
  0
ENDTAB
  0
TABLE
  2
BLOCK_RECORD
  5
1
330
0
100
AcDbSymbolTable
 70
     1
  0
BLOCK_RECORD
  5
1F
330
1
100
AcDbSymbolTableRecord
100
AcDbBlockTableRecord
  2
*MODEL_SPACE
  0
BLOCK_RECORD
  5
1B
330
1
100
AcDbSymbolTableRecord
100
AcDbBlockTableRecord
  2
*PAPER_SPACE
  0
ENDTAB
  0
ENDSEC
  0
SECTION
  2
BLOCKS
  0
BLOCK
  5
20
330
1F
100
AcDbEntity
  8
0
100
AcDbBlockBegin
  2
*MODEL_SPACE
 70
     0
 10
0.0
 20
0.0
 30
0.0
  3
*MODEL_SPACE
  1

  0
ENDBLK
  5
21
330
1F
100
AcDbEntity
  8
0
100
AcDbBlockEnd
  0
BLOCK
  5
1C
330
1B
100
AcDbEntity
 67
     1
  8
0
100
AcDbBlockBegin
  2
*PAPER_SPACE
  1

  0
ENDBLK
  5
1D
330
1B
100
AcDbEntity
 67
     1
  8
0
100
AcDbBlockEnd
  0
ENDSEC
  0
SECTION
  2
ENTITIES
  0
LWPOLYLINE
  5
100
100
AcDbEntity
  8
0
 62
7
100
AcDbPolyline
 90
141
 70
1
 10
332.202406
 20
164.245370
 30
0.0
 10
329.202404
 20
164.245370
 30
0.0
 10
329.202404
 20
179.245383
 30
0.0
 10
332.202406
 20
179.245383
 30
0.0
 10
332.202406
 20
194.245395
 30
0.0
 10
329.202404
 20
194.245395
 30
0.0
 10
329.202404
 20
209.245407
 30
0.0
 10
332.202406
 20
209.245407
 30
0.0
 10
332.202406
 20
224.245420
 30
0.0
 10
329.202404
 20
224.245420
 30
0.0
 10
329.202404
 20
239.245432
 30
0.0
 10
332.202406
 20
239.245432
 30
0.0
 10
332.202406
 20
254.245444
 30
0.0
 10
329.202404
 20
254.245444
 30
0.0
 10
329.202404
 20
269.245457
 30
0.0
 10
332.202406
 20
269.245457
 30
0.0
 10
332.202406
 20
284.245469
 30
0.0
 10
329.202404
 20
284.245469
 30
0.0
 10
329.202404
 20
299.245467
 30
0.0
 10
332.202406
 20
299.245467
 30
0.0
 10
332.202406
 20
319.245512
 30
0.0
 10
329.202404
 20
319.245512
 30
0.0
 10
329.202404
 20
336.245506
 30
0.0
 10
352.952423
 20
336.245506
 30
0.0
 10
352.952423
 20
339.245500
 30
0.0
 10
376.702441
 20
339.245500
 30
0.0
 10
376.702441
 20
336.245506
 30
0.0
 10
391.702454
 20
336.245506
 30
0.0
 10
391.702454
 20
339.245500
 30
0.0
 10
406.702466
 20
339.245500
 30
0.0
 10
406.702466
 20
336.245506
 30
0.0
 10
421.702478
 20
336.245506
 30
0.0
 10
421.702478
 20
339.245500
 30
0.0
 10
436.702491
 20
339.245500
 30
0.0
 10
436.702491
 20
336.245506
 30
0.0
 10
451.702506
 20
336.245506
 30
0.0
 10
451.702506
 20
339.245500
 30
0.0
 10
466.702515
 20
339.245500
 30
0.0
 10
466.702515
 20
336.245506
 30
0.0
 10
481.702531
 20
336.245506
 30
0.0
 10
481.702531
 20
339.245500
 30
0.0
 10
496.702540
 20
339.245500
 30
0.0
 10
496.702540
 20
336.245506
 30
0.0
 10
511.702555
 20
336.245506
 30
0.0
 10
511.702555
 20
339.245500
 30
0.0
 10
526.702565
 20
339.245500
 30
0.0
 10
526.702565
 20
336.245506
 30
0.0
 10
541.702580
 20
336.245506
 30
0.0
 10
541.702580
 20
339.245500
 30
0.0
 10
565.452599
 20
339.245500
 30
0.0
 10
565.452599
 20
336.245506
 30
0.0
 10
589.202617
 20
336.245506
 30
0.0
 10
589.202617
 20
319.245512
 30
0.0
 10
586.202615
 20
319.245512
 30
0.0
 10
586.202615
 20
299.245467
 30
0.0
 10
589.202617
 20
299.245467
 30
0.0
 10
589.202617
 20
284.245469
 30
0.0
 10
586.202615
 20
284.245469
 30
0.0
 10
586.202615
 20
269.245457
 30
0.0
 10
589.202617
 20
269.245457
 30
0.0
 10
589.202617
 20
254.245444
 30
0.0
 10
586.202615
 20
254.245444
 30
0.0
 10
586.202615
 20
239.245432
 30
0.0
 10
589.202617
 20
239.245432
 30
0.0
 10
589.202617
 20
224.245420
 30
0.0
 10
586.202615
 20
224.245420
 30
0.0
 10
586.202615
 20
209.245407
 30
0.0
 10
589.202617
 20
209.245407
 30
0.0
 10
589.202617
 20
194.245395
 30
0.0
 10
586.202615
 20
194.245395
 30
0.0
 10
586.202615
 20
179.245383
 30
0.0
 10
589.202617
 20
179.245383
 30
0.0
 10
589.202617
 20
164.245370
 30
0.0
 10
586.202615
 20
164.245370
 30
0.0
 10
586.202615
 20
149.245358
 30
0.0
 10
589.202617
 20
149.245358
 30
0.0
 10
589.202617
 20
134.245346
 30
0.0
 10
586.202615
 20
134.245346
 30
0.0
 10
586.202615
 20
119.245333
 30
0.0
 10
589.202617
 20
119.245333
 30
0.0
 10
589.202617
 20
104.245321
 30
0.0
 10
586.202615
 20
104.245321
 30
0.0
 10
586.202615
 20
89.245309
 30
0.0
 10
589.202617
 20
89.245309
 30
0.0
 10
589.202617
 20
74.245296
 30
0.0
 10
586.202615
 20
74.245296
 30
0.0
 10
586.202615
 20
59.245284
 30
0.0
 10
589.202617
 20
59.245284
 30
0.0
 10
589.202617
 20
44.245272
 30
0.0
 10
586.202615
 20
44.245272
 30
0.0
 10
586.202615
 20
24.245255
 30
0.0
 10
589.202617
 20
24.245255
 30
0.0
 10
589.202617
 20
7.245241
 30
0.0
 10
565.452599
 20
7.245241
 30
0.0
 10
565.452599
 20
4.245239
 30
0.0
 10
541.702580
 20
4.245239
 30
0.0
 10
541.702580
 20
7.245241
 30
0.0
 10
526.702565
 20
7.245241
 30
0.0
 10
526.702565
 20
4.245239
 30
0.0
 10
511.702555
 20
4.245239
 30
0.0
 10
511.702555
 20
7.245241
 30
0.0
 10
496.702540
 20
7.245241
 30
0.0
 10
496.702540
 20
4.245239
 30
0.0
 10
481.702531
 20
4.245239
 30
0.0
 10
481.702531
 20
7.245241
 30
0.0
 10
466.702515
 20
7.245241
 30
0.0
 10
466.702515
 20
4.245239
 30
0.0
 10
451.702506
 20
4.245239
 30
0.0
 10
451.702506
 20
7.245241
 30
0.0
 10
436.702491
 20
7.245241
 30
0.0
 10
436.702491
 20
4.245239
 30
0.0
 10
421.702478
 20
4.245239
 30
0.0
 10
421.702478
 20
7.245241
 30
0.0
 10
406.702466
 20
7.245241
 30
0.0
 10
406.702466
 20
4.245239
 30
0.0
 10
391.702454
 20
4.245239
 30
0.0
 10
391.702454
 20
7.245241
 30
0.0
 10
376.702441
 20
7.245241
 30
0.0
 10
376.702441
 20
4.245239
 30
0.0
 10
352.952423
 20
4.245239
 30
0.0
 10
352.952423
 20
7.245241
 30
0.0
 10
329.202404
 20
7.245241
 30
0.0
 10
329.202404
 20
24.245255
 30
0.0
 10
332.202406
 20
24.245255
 30
0.0
 10
332.202406
 20
44.245272
 30
0.0
 10
329.202404
 20
44.245272
 30
0.0
 10
329.202404
 20
59.245284
 30
0.0
 10
332.202406
 20
59.245284
 30
0.0
 10
332.202406
 20
74.245296
 30
0.0
 10
329.202404
 20
74.245296
 30
0.0
 10
329.202404
 20
89.245309
 30
0.0
 10
332.202406
 20
89.245309
 30
0.0
 10
332.202406
 20
104.245321
 30
0.0
 10
329.202404
 20
104.245321
 30
0.0
 10
329.202404
 20
119.245333
 30
0.0
 10
332.202406
 20
119.245333
 30
0.0
 10
332.202406
 20
134.245346
 30
0.0
 10
329.202404
 20
134.245346
 30
0.0
 10
329.202404
 20
149.245358
 30
0.0
 10
332.202406
 20
149.245358
 30
0.0
 10
332.202406
 20
164.245370
 30
0.0
  0
LWPOLYLINE
  5
101
100
AcDbEntity
  8
0
 62
7
100
AcDbPolyline
 90
157
 70
1
 10
111.500093
 20
334.999961
 30
0.0
 10
126.500105
 20
334.999961
 30
0.0
 10
126.500105
 20
337.999963
 30
0.0
 10
141.500115
 20
337.999963
 30
0.0
 10
141.500115
 20
334.999961
 30
0.0
 10
156.500130
 20
334.999961
 30
0.0
 10
156.500130
 20
337.999963
 30
0.0
 10
171.500140
 20
337.999963
 30
0.0
 10
171.500140
 20
334.999961
 30
0.0
 10
186.500155
 20
334.999961
 30
0.0
 10
186.500155
 20
337.999963
 30
0.0
 10
201.500167
 20
337.999963
 30
0.0
 10
201.500167
 20
334.999961
 30
0.0
 10
216.500179
 20
334.999961
 30
0.0
 10
216.500179
 20
337.999963
 30
0.0
 10
231.500192
 20
337.999963
 30
0.0
 10
231.500192
 20
334.999961
 30
0.0
 10
246.500204
 20
334.999961
 30
0.0
 10
246.500204
 20
337.999963
 30
0.0
 10
261.500216
 20
337.999963
 30
0.0
 10
261.500216
 20
334.999961
 30
0.0
 10
276.500229
 20
334.999961
 30
0.0
 10
276.500229
 20
337.999963
 30
0.0
 10
300.750261
 20
337.999963
 30
0.0
 10
300.750261
 20
334.999961
 30
0.0
 10
322.000268
 20
334.999961
 30
0.0
 10
322.000268
 20
317.999947
 30
0.0
 10
325.000262
 20
317.999947
 30
0.0
 10
325.000262
 20
297.999930
 30
0.0
 10
322.000268
 20
297.999930
 30
0.0
 10
322.000268
 20
282.999918
 30
0.0
 10
325.000262
 20
282.999918
 30
0.0
 10
325.000262
 20
267.999906
 30
0.0
 10
322.000268
 20
267.999906
 30
0.0
 10
322.000268
 20
252.999893
 30
0.0
 10
325.000262
 20
252.999893
 30
0.0
 10
325.000262
 20
237.999881
 30
0.0
 10
322.000268
 20
237.999881
 30
0.0
 10
322.000268
 20
222.999869
 30
0.0
 10
325.000262
 20
222.999869
 30
0.0
 10
325.000262
 20
207.999856
 30
0.0
 10
322.000268
 20
207.999856
 30
0.0
 10
322.000268
 20
192.999844
 30
0.0
 10
325.000262
 20
192.999844
 30
0.0
 10
325.000262
 20
177.999832
 30
0.0
 10
322.000268
 20
177.999832
 30
0.0
 10
322.000268
 20
162.999819
 30
0.0
 10
325.000262
 20
162.999819
 30
0.0
 10
325.000262
 20
147.999807
 30
0.0
 10
322.000268
 20
147.999807
 30
0.0
 10
322.000268
 20
132.999795
 30
0.0
 10
325.000262
 20
132.999795
 30
0.0
 10
325.000262
 20
117.999782
 30
0.0
 10
322.000268
 20
117.999782
 30
0.0
 10
322.000268
 20
102.999770
 30
0.0
 10
325.000262
 20
102.999770
 30
0.0
 10
325.000262
 20
87.999758
 30
0.0
 10
322.000268
 20
87.999758
 30
0.0
 10
322.000268
 20
72.999745
 30
0.0
 10
325.000262
 20
72.999745
 30
0.0
 10
325.000262
 20
57.999733
 30
0.0
 10
322.000268
 20
57.999733
 30
0.0
 10
322.000268
 20
42.999735
 30
0.0
 10
325.000262
 20
42.999735
 30
0.0
 10
325.000262
 20
22.999690
 30
0.0
 10
322.000268
 20
22.999690
 30
0.0
 10
322.000268
 20
5.999696
 30
0.0
 10
300.750261
 20
5.999696
 30
0.0
 10
300.750261
 20
2.999702
 30
0.0
 10
276.500229
 20
2.999702
 30
0.0
 10
276.500229
 20
5.999696
 30
0.0
 10
261.500216
 20
5.999696
 30
0.0
 10
261.500216
 20
2.999702
 30
0.0
 10
246.500204
 20
2.999702
 30
0.0
 10
246.500204
 20
5.999696
 30
0.0
 10
231.500192
 20
5.999696
 30
0.0
 10
231.500192
 20
2.999702
 30
0.0
 10
216.500179
 20
2.999702
 30
0.0
 10
216.500179
 20
5.999696
 30
0.0
 10
201.500167
 20
5.999696
 30
0.0
 10
201.500167
 20
2.999702
 30
0.0
 10
186.500155
 20
2.999702
 30
0.0
 10
186.500155
 20
5.999696
 30
0.0
 10
171.500140
 20
5.999696
 30
0.0
 10
171.500140
 20
2.999702
 30
0.0
 10
156.500130
 20
2.999702
 30
0.0
 10
156.500130
 20
5.999696
 30
0.0
 10
141.500115
 20
5.999696
 30
0.0
 10
141.500115
 20
2.999702
 30
0.0
 10
126.500105
 20
2.999702
 30
0.0
 10
126.500105
 20
5.999696
 30
0.0
 10
111.500093
 20
5.999696
 30
0.0
 10
111.500093
 20
2.999702
 30
0.0
 10
96.500081
 20
2.999702
 30
0.0
 10
96.500081
 20
5.999696
 30
0.0
 10
81.500066
 20
5.999696
 30
0.0
 10
81.500066
 20
2.999702
 30
0.0
 10
66.500056
 20
2.999702
 30
0.0
 10
66.500056
 20
5.999696
 30
0.0
 10
51.500044
 20
5.999696
 30
0.0
 10
51.500044
 20
2.999702
 30
0.0
 10
27.250023
 20
2.999702
 30
0.0
 10
27.250023
 20
5.999696
 30
0.0
 10
6.000005
 20
5.999696
 30
0.0
 10
6.000005
 20
22.999690
 30
0.0
 10
3.000002
 20
22.999690
 30
0.0
 10
3.000002
 20
42.999735
 30
0.0
 10
6.000005
 20
42.999735
 30
0.0
 10
6.000005
 20
57.999733
 30
0.0
 10
3.000002
 20
57.999733
 30
0.0
 10
3.000002
 20
72.999745
 30
0.0
 10
6.000005
 20
72.999745
 30
0.0
 10
6.000005
 20
87.999758
 30
0.0
 10
3.000002
 20
87.999758
 30
0.0
 10
3.000002
 20
102.999770
 30
0.0
 10
6.000005
 20
102.999770
 30
0.0
 10
6.000005
 20
117.999782
 30
0.0
 10
3.000002
 20
117.999782
 30
0.0
 10
3.000002
 20
132.999795
 30
0.0
 10
6.000005
 20
132.999795
 30
0.0
 10
6.000005
 20
147.999807
 30
0.0
 10
3.000002
 20
147.999807
 30
0.0
 10
3.000002
 20
162.999819
 30
0.0
 10
6.000005
 20
162.999819
 30
0.0
 10
6.000005
 20
177.999832
 30
0.0
 10
3.000002
 20
177.999832
 30
0.0
 10
3.000002
 20
192.999844
 30
0.0
 10
6.000005
 20
192.999844
 30
0.0
 10
6.000005
 20
207.999856
 30
0.0
 10
3.000002
 20
207.999856
 30
0.0
 10
3.000002
 20
222.999869
 30
0.0
 10
6.000005
 20
222.999869
 30
0.0
 10
6.000005
 20
237.999881
 30
0.0
 10
3.000002
 20
237.999881
 30
0.0
 10
3.000002
 20
252.999893
 30
0.0
 10
6.000005
 20
252.999893
 30
0.0
 10
6.000005
 20
267.999906
 30
0.0
 10
3.000002
 20
267.999906
 30
0.0
 10
3.000002
 20
282.999918
 30
0.0
 10
6.000005
 20
282.999918
 30
0.0
 10
6.000005
 20
297.999930
 30
0.0
 10
3.000002
 20
297.999930
 30
0.0
 10
3.000002
 20
317.999947
 30
0.0
 10
6.000005
 20
317.999947
 30
0.0
 10
6.000005
 20
334.999961
 30
0.0
 10
27.250023
 20
334.999961
 30
0.0
 10
27.250023
 20
337.999963
 30
0.0
 10
51.500044
 20
337.999963
 30
0.0
 10
51.500044
 20
334.999961
 30
0.0
 10
66.500056
 20
334.999961
 30
0.0
 10
66.500056
 20
337.999963
 30
0.0
 10
81.500066
 20
337.999963
 30
0.0
 10
81.500066
 20
334.999961
 30
0.0
 10
96.500081
 20
334.999961
 30
0.0
 10
96.500081
 20
337.999963
 30
0.0
 10
111.500093
 20
337.999963
 30
0.0
 10
111.500093
 20
334.999961
 30
0.0
  0
ENDSEC
  0
SECTION
  2
OBJECTS
  0
DICTIONARY
  5
C
330
0
100
AcDbDictionary
  3
ACAD_GROUP
350
D
  3
ACAD_MLINESTYLE
350
17
  0
DICTIONARY
  5
D
330
C
100
AcDbDictionary
  0
DICTIONARY
  5
1A
330
C
100
AcDbDictionary
  0
DICTIONARY
  5
17
330
C
100
AcDbDictionary
  3
STANDARD
350
18
  0
DICTIONARY
  5
19
330
C
100
AcDbDictionary
  0
ENDSEC
  0
EOF
