  0
SECTION
  2
HEADER
  9
$ACADVER
  1
AC1014
  9
$HANDSEED
  5
FFFF
  9
$MEASUREMENT
 70
     1
  0
ENDSEC
  0
SECTION
  2
TABLES
  0
TABLE
  2
VPORT
  5
8
330
0
100
AcDbSymbolTable
 70
     4
  0
VPORT
  5
2E
330
8
100
AcDbSymbolTableRecord
100
AcDbViewportTableRecord
  2
*ACTIVE
 70
     0
 10
0.0
 20
0.0
 11
1.0
 21
1.0
 12
210.0
 22
148.5
 13
0.0
 23
0.0
 14
10.0
 24
10.0
 15
10.0
 25
10.0
 16
0.0
 26
0.0
 36
1.0
 17
0.0
 27
0.0
 37
0.0
 40
341.0
 41
1.24
 42
50.0
 43
0.0
 44
0.0
 50
0.0
 51
0.0
 71
     0
 72
   100
 73
     1
 74
     3
 75
     0
 76
     0
 77
     0
 78
     0
  0
ENDTAB
  0
TABLE
  2
LTYPE
  5
5
330
0
100
AcDbSymbolTable
 70
     1
  0
LTYPE
  5
14
330
5
100
AcDbSymbolTableRecord
100
AcDbLinetypeTableRecord
  2
BYBLOCK
 70
     0
  3

 72
    65
 73
     0
 40
0.0
  0
LTYPE
  5
15
330
5
100
AcDbSymbolTableRecord
100
AcDbLinetypeTableRecord
  2
BYLAYER
 70
     0
  3

 72
    65
 73
     0
 40
0.0
  0
LTYPE
  5
16
330
5
100
AcDbSymbolTableRecord
100
AcDbLinetypeTableRecord
  2
CONTINUOUS
 70
     0
  3
Solid line
 72
    65
 73
     0
 40
0.0
  0
ENDTAB
  0
TABLE
  2
LAYER
  5
2
100
AcDbSymbolTable
 70
2
  0
LAYER
  5
50
100
AcDbSymbolTableRecord
100
AcDbLayerTableRecord
  2
0
 70
0
  6
CONTINUOUS
  0
LAYER
  5
51
100
AcDbSymbolTableRecord
100
AcDbLayerTableRecord
  2
Layer_1
 70
0
  6
CONTINUOUS
  0
ENDTAB
  0
TABLE
  2
STYLE
  5
3
330
0
100
AcDbSymbolTable
 70
     1
  0
STYLE
  5
11
330
3
100
AcDbSymbolTableRecord
100
AcDbTextStyleTableRecord
  2
STANDARD
 70
     0
 40
0.0
 41
1.0
 50
0.0
 71
     0
 42
2.5
  3
txt
  4

  0
ENDTAB
  0
TABLE
  2
VIEW
  5
6
330
0
100
AcDbSymbolTable
 70
     0
  0
ENDTAB
  0
TABLE
  2
UCS
  5
7
330
0
100
AcDbSymbolTable
 70
     0
  0
ENDTAB
  0
TABLE
  2
APPID
  5
9
330
0
100
AcDbSymbolTable
 70
     2
  0
APPID
  5
12
330
9
100
AcDbSymbolTableRecord
100
AcDbRegAppTableRecord
  2
ACAD
 70
     0
  0
ENDTAB
  0
TABLE
  2
DIMSTYLE
  5
A
330
0
100
AcDbSymbolTable
 70
     1
  0
DIMSTYLE
105
27
330
A
100
AcDbSymbolTableRecord
100
AcDbDimStyleTableRecord
  2
ISO-25
 70
     0
  3

  4

  5

  6

  7

 40
1.0
 41
2.5
 42
0.625
 43
3.75
 44
1.25
 45
0.0
 46
0.0
 47
0.0
 48
0.0
140
2.5
141
2.5
142
0.0
143
0.03937007874016
144
1.0
145
0.0
146
1.0
147
0.625
 71
     0
 72
     0
 73
     0
 74
     0
 75
     0
 76
     0
 77
     1
 78
     8
170
     0
171
     3
172
     1
173
     0
174
     0
175
     0
176
     0
177
     0
178
     0
270
     2
271
     2
272
     2
273
     2
274
     3
340
11
275
     0
280
     0
281
     0
282
     0
283
     0
284
     8
285
     0
286
     0
287
     3
288
     0
  0
ENDTAB
  0
TABLE
  2
BLOCK_RECORD
  5
1
330
0
100
AcDbSymbolTable
 70
     1
  0
BLOCK_RECORD
  5
1F
330
1
100
AcDbSymbolTableRecord
100
AcDbBlockTableRecord
  2
*MODEL_SPACE
  0
BLOCK_RECORD
  5
1B
330
1
100
AcDbSymbolTableRecord
100
AcDbBlockTableRecord
  2
*PAPER_SPACE
  0
ENDTAB
  0
ENDSEC
  0
SECTION
  2
BLOCKS
  0
BLOCK
  5
20
330
1F
100
AcDbEntity
  8
0
100
AcDbBlockBegin
  2
*MODEL_SPACE
 70
     0
 10
0.0
 20
0.0
 30
0.0
  3
*MODEL_SPACE
  1

  0
ENDBLK
  5
21
330
1F
100
AcDbEntity
  8
0
100
AcDbBlockEnd
  0
BLOCK
  5
1C
330
1B
100
AcDbEntity
 67
     1
  8
0
100
AcDbBlockBegin
  2
*PAPER_SPACE
  1

  0
ENDBLK
  5
1D
330
1B
100
AcDbEntity
 67
     1
  8
0
100
AcDbBlockEnd
  0
ENDSEC
  0
SECTION
  2
ENTITIES
  0
LINE
  5
100
100
AcDbEntity
  8
Layer_1
 62
7
100
AcDbLine
 10
10.127001
 20
118.627082
 30
0.0
 11
10.127001
 21
133.627094
 31
0.0
  0
LINE
  5
101
100
AcDbEntity
  8
Layer_1
 62
7
100
AcDbLine
 10
10.127001
 20
133.627094
 30
0.0
 11
13.127004
 21
133.627094
 31
0.0
  0
LINE
  5
102
100
AcDbEntity
  8
Layer_1
 62
7
100
AcDbLine
 10
13.127004
 20
133.627094
 30
0.0
 11
13.127004
 21
148.627102
 31
0.0
  0
LINE
  5
103
100
AcDbEntity
  8
Layer_1
 62
7
100
AcDbLine
 10
13.127004
 20
148.627102
 30
0.0
 11
10.127001
 21
148.627102
 31
0.0
  0
LINE
  5
104
100
AcDbEntity
  8
Layer_1
 62
7
100
AcDbLine
 10
10.127001
 20
148.627102
 30
0.0
 11
10.127001
 21
163.627117
 31
0.0
  0
LINE
  5
105
100
AcDbEntity
  8
Layer_1
 62
7
100
AcDbLine
 10
10.127001
 20
163.627117
 30
0.0
 11
13.127004
 21
163.627117
 31
0.0
  0
LINE
  5
106
100
AcDbEntity
  8
Layer_1
 62
7
100
AcDbLine
 10
13.127004
 20
163.627117
 30
0.0
 11
13.127004
 21
178.627125
 31
0.0
  0
LINE
  5
107
100
AcDbEntity
  8
Layer_1
 62
7
100
AcDbLine
 10
13.127004
 20
178.627125
 30
0.0
 11
10.127001
 21
178.627125
 31
0.0
  0
LINE
  5
108
100
AcDbEntity
  8
Layer_1
 62
7
100
AcDbLine
 10
10.127001
 20
178.627125
 30
0.0
 11
10.127001
 21
193.627140
 31
0.0
  0
LINE
  5
109
100
AcDbEntity
  8
Layer_1
 62
7
100
AcDbLine
 10
10.127001
 20
193.627140
 30
0.0
 11
13.127004
 21
193.627140
 31
0.0
  0
LINE
  5
10a
100
AcDbEntity
  8
Layer_1
 62
7
100
AcDbLine
 10
13.127004
 20
193.627140
 30
0.0
 11
13.127004
 21
208.627151
 31
0.0
  0
LINE
  5
10b
100
AcDbEntity
  8
Layer_1
 62
7
100
AcDbLine
 10
13.127004
 20
208.627151
 30
0.0
 11
10.127001
 21
208.627151
 31
0.0
  0
LINE
  5
10c
100
AcDbEntity
  8
Layer_1
 62
7
100
AcDbLine
 10
10.127001
 20
208.627151
 30
0.0
 11
10.127001
 21
223.627162
 31
0.0
  0
LINE
  5
10d
100
AcDbEntity
  8
Layer_1
 62
7
100
AcDbLine
 10
10.127001
 20
223.627162
 30
0.0
 11
13.127004
 21
223.627162
 31
0.0
  0
LINE
  5
10e
100
AcDbEntity
  8
Layer_1
 62
7
100
AcDbLine
 10
13.127004
 20
223.627162
 30
0.0
 11
13.127004
 21
238.627174
 31
0.0
  0
LINE
  5
10f
100
AcDbEntity
  8
Layer_1
 62
7
100
AcDbLine
 10
13.127004
 20
238.627174
 30
0.0
 11
10.127001
 21
238.627174
 31
0.0
  0
LINE
  5
110
100
AcDbEntity
  8
Layer_1
 62
7
100
AcDbLine
 10
10.127001
 20
238.627174
 30
0.0
 11
10.127001
 21
253.627185
 31
0.0
  0
LINE
  5
111
100
AcDbEntity
  8
Layer_1
 62
7
100
AcDbLine
 10
10.127001
 20
253.627185
 30
0.0
 11
13.127004
 21
253.627185
 31
0.0
  0
LINE
  5
112
100
AcDbEntity
  8
Layer_1
 62
7
100
AcDbLine
 10
13.127004
 20
253.627185
 30
0.0
 11
13.127004
 21
268.627197
 31
0.0
  0
LINE
  5
113
100
AcDbEntity
  8
Layer_1
 62
7
100
AcDbLine
 10
13.127004
 20
268.627197
 30
0.0
 11
10.127001
 21
268.627197
 31
0.0
  0
LINE
  5
114
100
AcDbEntity
  8
Layer_1
 62
7
100
AcDbLine
 10
10.127001
 20
268.627197
 30
0.0
 11
10.127001
 21
283.627208
 31
0.0
  0
LINE
  5
115
100
AcDbEntity
  8
Layer_1
 62
7
100
AcDbLine
 10
10.127001
 20
283.627208
 30
0.0
 11
13.127004
 21
283.627208
 31
0.0
  0
LINE
  5
116
100
AcDbEntity
  8
Layer_1
 62
7
100
AcDbLine
 10
13.127004
 20
283.627208
 30
0.0
 11
13.127004
 21
307.877239
 31
0.0
  0
LINE
  5
117
100
AcDbEntity
  8
Layer_1
 62
7
100
AcDbLine
 10
13.127004
 20
307.877239
 30
0.0
 11
10.127001
 21
307.877239
 31
0.0
  0
LINE
  5
118
100
AcDbEntity
  8
Layer_1
 62
7
100
AcDbLine
 10
10.127001
 20
307.877239
 30
0.0
 11
10.127001
 21
332.127238
 31
0.0
  0
LINE
  5
119
100
AcDbEntity
  8
Layer_1
 62
7
100
AcDbLine
 10
10.127001
 20
332.127238
 30
0.0
 11
31.377021
 21
332.127238
 31
0.0
  0
LINE
  5
11a
100
AcDbEntity
  8
Layer_1
 62
7
100
AcDbLine
 10
31.377021
 20
332.127238
 30
0.0
 11
31.377021
 21
329.127244
 31
0.0
  0
LINE
  5
11b
100
AcDbEntity
  8
Layer_1
 62
7
100
AcDbLine
 10
31.377021
 20
329.127244
 30
0.0
 11
52.627042
 21
329.127244
 31
0.0
  0
LINE
  5
11c
100
AcDbEntity
  8
Layer_1
 62
7
100
AcDbLine
 10
52.627042
 20
329.127244
 30
0.0
 11
52.627042
 21
332.127238
 31
0.0
  0
LINE
  5
11d
100
AcDbEntity
  8
Layer_1
 62
7
100
AcDbLine
 10
52.627042
 20
332.127238
 30
0.0
 11
67.627056
 21
332.127238
 31
0.0
  0
LINE
  5
11e
100
AcDbEntity
  8
Layer_1
 62
7
100
AcDbLine
 10
67.627056
 20
332.127238
 30
0.0
 11
67.627056
 21
329.127244
 31
0.0
  0
LINE
  5
11f
100
AcDbEntity
  8
Layer_1
 62
7
100
AcDbLine
 10
67.627056
 20
329.127244
 30
0.0
 11
82.627067
 21
329.127244
 31
0.0
  0
LINE
  5
120
100
AcDbEntity
  8
Layer_1
 62
7
100
AcDbLine
 10
82.627067
 20
329.127244
 30
0.0
 11
82.627067
 21
332.127238
 31
0.0
  0
LINE
  5
121
100
AcDbEntity
  8
Layer_1
 62
7
100
AcDbLine
 10
82.627067
 20
332.127238
 30
0.0
 11
97.627084
 21
332.127238
 31
0.0
  0
LINE
  5
122
100
AcDbEntity
  8
Layer_1
 62
7
100
AcDbLine
 10
97.627084
 20
332.127238
 30
0.0
 11
97.627084
 21
329.127244
 31
0.0
  0
LINE
  5
123
100
AcDbEntity
  8
Layer_1
 62
7
100
AcDbLine
 10
97.627084
 20
329.127244
 30
0.0
 11
112.627097
 21
329.127244
 31
0.0
  0
LINE
  5
124
100
AcDbEntity
  8
Layer_1
 62
7
100
AcDbLine
 10
112.627097
 20
329.127244
 30
0.0
 11
112.627097
 21
332.127238
 31
0.0
  0
LINE
  5
125
100
AcDbEntity
  8
Layer_1
 62
7
100
AcDbLine
 10
112.627097
 20
332.127238
 30
0.0
 11
127.627111
 21
332.127238
 31
0.0
  0
LINE
  5
126
100
AcDbEntity
  8
Layer_1
 62
7
100
AcDbLine
 10
127.627111
 20
332.127238
 30
0.0
 11
127.627111
 21
329.127244
 31
0.0
  0
LINE
  5
127
100
AcDbEntity
  8
Layer_1
 62
7
100
AcDbLine
 10
127.627111
 20
329.127244
 30
0.0
 11
142.627122
 21
329.127244
 31
0.0
  0
LINE
  5
128
100
AcDbEntity
  8
Layer_1
 62
7
100
AcDbLine
 10
142.627122
 20
329.127244
 30
0.0
 11
142.627122
 21
332.127238
 31
0.0
  0
LINE
  5
129
100
AcDbEntity
  8
Layer_1
 62
7
100
AcDbLine
 10
142.627122
 20
332.127238
 30
0.0
 11
157.627139
 21
332.127238
 31
0.0
  0
LINE
  5
12a
100
AcDbEntity
  8
Layer_1
 62
7
100
AcDbLine
 10
157.627139
 20
332.127238
 30
0.0
 11
157.627139
 21
329.127244
 31
0.0
  0
LINE
  5
12b
100
AcDbEntity
  8
Layer_1
 62
7
100
AcDbLine
 10
157.627139
 20
329.127244
 30
0.0
 11
172.627150
 21
329.127244
 31
0.0
  0
LINE
  5
12c
100
AcDbEntity
  8
Layer_1
 62
7
100
AcDbLine
 10
172.627150
 20
329.127244
 30
0.0
 11
172.627150
 21
332.127238
 31
0.0
  0
LINE
  5
12d
100
AcDbEntity
  8
Layer_1
 62
7
100
AcDbLine
 10
172.627150
 20
332.127238
 30
0.0
 11
187.627167
 21
332.127238
 31
0.0
  0
LINE
  5
12e
100
AcDbEntity
  8
Layer_1
 62
7
100
AcDbLine
 10
187.627167
 20
332.127238
 30
0.0
 11
187.627167
 21
329.127244
 31
0.0
  0
LINE
  5
12f
100
AcDbEntity
  8
Layer_1
 62
7
100
AcDbLine
 10
187.627167
 20
329.127244
 30
0.0
 11
208.877184
 21
329.127244
 31
0.0
  0
LINE
  5
130
100
AcDbEntity
  8
Layer_1
 62
7
100
AcDbLine
 10
208.877184
 20
329.127244
 30
0.0
 11
208.877184
 21
332.127238
 31
0.0
  0
LINE
  5
131
100
AcDbEntity
  8
Layer_1
 62
7
100
AcDbLine
 10
208.877184
 20
332.127238
 30
0.0
 11
230.127204
 21
332.127238
 31
0.0
  0
LINE
  5
132
100
AcDbEntity
  8
Layer_1
 62
7
100
AcDbLine
 10
230.127204
 20
332.127238
 30
0.0
 11
230.127204
 21
307.877239
 31
0.0
  0
LINE
  5
133
100
AcDbEntity
  8
Layer_1
 62
7
100
AcDbLine
 10
230.127204
 20
307.877239
 30
0.0
 11
227.127202
 21
307.877239
 31
0.0
  0
LINE
  5
134
100
AcDbEntity
  8
Layer_1
 62
7
100
AcDbLine
 10
227.127202
 20
307.877239
 30
0.0
 11
227.127202
 21
283.627208
 31
0.0
  0
LINE
  5
135
100
AcDbEntity
  8
Layer_1
 62
7
100
AcDbLine
 10
227.127202
 20
283.627208
 30
0.0
 11
230.127204
 21
283.627208
 31
0.0
  0
LINE
  5
136
100
AcDbEntity
  8
Layer_1
 62
7
100
AcDbLine
 10
230.127204
 20
283.627208
 30
0.0
 11
230.127204
 21
268.627197
 31
0.0
  0
LINE
  5
137
100
AcDbEntity
  8
Layer_1
 62
7
100
AcDbLine
 10
230.127204
 20
268.627197
 30
0.0
 11
227.127202
 21
268.627197
 31
0.0
  0
LINE
  5
138
100
AcDbEntity
  8
Layer_1
 62
7
100
AcDbLine
 10
227.127202
 20
268.627197
 30
0.0
 11
227.127202
 21
253.627185
 31
0.0
  0
LINE
  5
139
100
AcDbEntity
  8
Layer_1
 62
7
100
AcDbLine
 10
227.127202
 20
253.627185
 30
0.0
 11
230.127204
 21
253.627185
 31
0.0
  0
LINE
  5
13a
100
AcDbEntity
  8
Layer_1
 62
7
100
AcDbLine
 10
230.127204
 20
253.627185
 30
0.0
 11
230.127204
 21
238.627174
 31
0.0
  0
LINE
  5
13b
100
AcDbEntity
  8
Layer_1
 62
7
100
AcDbLine
 10
230.127204
 20
238.627174
 30
0.0
 11
227.127202
 21
238.627174
 31
0.0
  0
LINE
  5
13c
100
AcDbEntity
  8
Layer_1
 62
7
100
AcDbLine
 10
227.127202
 20
238.627174
 30
0.0
 11
227.127202
 21
223.627162
 31
0.0
  0
LINE
  5
13d
100
AcDbEntity
  8
Layer_1
 62
7
100
AcDbLine
 10
227.127202
 20
223.627162
 30
0.0
 11
230.127204
 21
223.627162
 31
0.0
  0
LINE
  5
13e
100
AcDbEntity
  8
Layer_1
 62
7
100
AcDbLine
 10
230.127204
 20
223.627162
 30
0.0
 11
230.127204
 21
208.627151
 31
0.0
  0
LINE
  5
13f
100
AcDbEntity
  8
Layer_1
 62
7
100
AcDbLine
 10
230.127204
 20
208.627151
 30
0.0
 11
227.127202
 21
208.627151
 31
0.0
  0
LINE
  5
140
100
AcDbEntity
  8
Layer_1
 62
7
100
AcDbLine
 10
227.127202
 20
208.627151
 30
0.0
 11
227.127202
 21
193.627140
 31
0.0
  0
LINE
  5
141
100
AcDbEntity
  8
Layer_1
 62
7
100
AcDbLine
 10
227.127202
 20
193.627140
 30
0.0
 11
230.127204
 21
193.627140
 31
0.0
  0
LINE
  5
142
100
AcDbEntity
  8
Layer_1
 62
7
100
AcDbLine
 10
230.127204
 20
193.627140
 30
0.0
 11
230.127204
 21
178.627125
 31
0.0
  0
LINE
  5
143
100
AcDbEntity
  8
Layer_1
 62
7
100
AcDbLine
 10
230.127204
 20
178.627125
 30
0.0
 11
227.127202
 21
178.627125
 31
0.0
  0
LINE
  5
144
100
AcDbEntity
  8
Layer_1
 62
7
100
AcDbLine
 10
227.127202
 20
178.627125
 30
0.0
 11
227.127202
 21
163.627117
 31
0.0
  0
LINE
  5
145
100
AcDbEntity
  8
Layer_1
 62
7
100
AcDbLine
 10
227.127202
 20
163.627117
 30
0.0
 11
230.127204
 21
163.627117
 31
0.0
  0
LINE
  5
146
100
AcDbEntity
  8
Layer_1
 62
7
100
AcDbLine
 10
230.127204
 20
163.627117
 30
0.0
 11
230.127204
 21
148.627102
 31
0.0
  0
LINE
  5
147
100
AcDbEntity
  8
Layer_1
 62
7
100
AcDbLine
 10
230.127204
 20
148.627102
 30
0.0
 11
227.127202
 21
148.627102
 31
0.0
  0
LINE
  5
148
100
AcDbEntity
  8
Layer_1
 62
7
100
AcDbLine
 10
227.127202
 20
148.627102
 30
0.0
 11
227.127202
 21
133.627094
 31
0.0
  0
LINE
  5
149
100
AcDbEntity
  8
Layer_1
 62
7
100
AcDbLine
 10
227.127202
 20
133.627094
 30
0.0
 11
230.127204
 21
133.627094
 31
0.0
  0
LINE
  5
14a
100
AcDbEntity
  8
Layer_1
 62
7
100
AcDbLine
 10
230.127204
 20
133.627094
 30
0.0
 11
230.127204
 21
118.627082
 31
0.0
  0
LINE
  5
14b
100
AcDbEntity
  8
Layer_1
 62
7
100
AcDbLine
 10
230.127204
 20
118.627082
 30
0.0
 11
227.127202
 21
118.627082
 31
0.0
  0
LINE
  5
14c
100
AcDbEntity
  8
Layer_1
 62
7
100
AcDbLine
 10
227.127202
 20
118.627082
 30
0.0
 11
227.127202
 21
103.627071
 31
0.0
  0
LINE
  5
14d
100
AcDbEntity
  8
Layer_1
 62
7
100
AcDbLine
 10
227.127202
 20
103.627071
 30
0.0
 11
230.127204
 21
103.627071
 31
0.0
  0
LINE
  5
14e
100
AcDbEntity
  8
Layer_1
 62
7
100
AcDbLine
 10
230.127204
 20
103.627071
 30
0.0
 11
230.127204
 21
88.627057
 31
0.0
  0
LINE
  5
14f
100
AcDbEntity
  8
Layer_1
 62
7
100
AcDbLine
 10
230.127204
 20
88.627057
 30
0.0
 11
227.127202
 21
88.627057
 31
0.0
  0
LINE
  5
150
100
AcDbEntity
  8
Layer_1
 62
7
100
AcDbLine
 10
227.127202
 20
88.627057
 30
0.0
 11
227.127202
 21
73.627048
 31
0.0
  0
LINE
  5
151
100
AcDbEntity
  8
Layer_1
 62
7
100
AcDbLine
 10
227.127202
 20
73.627048
 30
0.0
 11
230.127204
 21
73.627048
 31
0.0
  0
LINE
  5
152
100
AcDbEntity
  8
Layer_1
 62
7
100
AcDbLine
 10
230.127204
 20
73.627048
 30
0.0
 11
230.127204
 21
58.627037
 31
0.0
  0
LINE
  5
153
100
AcDbEntity
  8
Layer_1
 62
7
100
AcDbLine
 10
230.127204
 20
58.627037
 30
0.0
 11
227.127202
 21
58.627037
 31
0.0
  0
LINE
  5
154
100
AcDbEntity
  8
Layer_1
 62
7
100
AcDbLine
 10
227.127202
 20
58.627037
 30
0.0
 11
227.127202
 21
34.377017
 31
0.0
  0
LINE
  5
155
100
AcDbEntity
  8
Layer_1
 62
7
100
AcDbLine
 10
227.127202
 20
34.377017
 30
0.0
 11
230.127204
 21
34.377017
 31
0.0
  0
LINE
  5
156
100
AcDbEntity
  8
Layer_1
 62
7
100
AcDbLine
 10
230.127204
 20
34.377017
 30
0.0
 11
230.127204
 21
10.126998
 31
0.0
  0
LINE
  5
157
100
AcDbEntity
  8
Layer_1
 62
7
100
AcDbLine
 10
230.127204
 20
10.126998
 30
0.0
 11
208.877184
 21
10.126998
 31
0.0
  0
LINE
  5
158
100
AcDbEntity
  8
Layer_1
 62
7
100
AcDbLine
 10
208.877184
 20
10.126998
 30
0.0
 11
208.877184
 21
13.127001
 31
0.0
  0
LINE
  5
159
100
AcDbEntity
  8
Layer_1
 62
7
100
AcDbLine
 10
208.877184
 20
13.127001
 30
0.0
 11
187.627167
 21
13.127001
 31
0.0
  0
LINE
  5
15a
100
AcDbEntity
  8
Layer_1
 62
7
100
AcDbLine
 10
187.627167
 20
13.127001
 30
0.0
 11
187.627167
 21
10.126998
 31
0.0
  0
LINE
  5
15b
100
AcDbEntity
  8
Layer_1
 62
7
100
AcDbLine
 10
187.627167
 20
10.126998
 30
0.0
 11
172.627150
 21
10.126998
 31
0.0
  0
LINE
  5
15c
100
AcDbEntity
  8
Layer_1
 62
7
100
AcDbLine
 10
172.627150
 20
10.126998
 30
0.0
 11
172.627150
 21
13.127001
 31
0.0
  0
LINE
  5
15d
100
AcDbEntity
  8
Layer_1
 62
7
100
AcDbLine
 10
172.627150
 20
13.127001
 30
0.0
 11
157.627139
 21
13.127001
 31
0.0
  0
LINE
  5
15e
100
AcDbEntity
  8
Layer_1
 62
7
100
AcDbLine
 10
157.627139
 20
13.127001
 30
0.0
 11
157.627139
 21
10.126998
 31
0.0
  0
LINE
  5
15f
100
AcDbEntity
  8
Layer_1
 62
7
100
AcDbLine
 10
157.627139
 20
10.126998
 30
0.0
 11
142.627122
 21
10.126998
 31
0.0
  0
LINE
  5
160
100
AcDbEntity
  8
Layer_1
 62
7
100
AcDbLine
 10
142.627122
 20
10.126998
 30
0.0
 11
142.627122
 21
13.127001
 31
0.0
  0
LINE
  5
161
100
AcDbEntity
  8
Layer_1
 62
7
100
AcDbLine
 10
142.627122
 20
13.127001
 30
0.0
 11
127.627111
 21
13.127001
 31
0.0
  0
LINE
  5
162
100
AcDbEntity
  8
Layer_1
 62
7
100
AcDbLine
 10
127.627111
 20
13.127001
 30
0.0
 11
127.627111
 21
10.126998
 31
0.0
  0
LINE
  5
163
100
AcDbEntity
  8
Layer_1
 62
7
100
AcDbLine
 10
127.627111
 20
10.126998
 30
0.0
 11
112.627097
 21
10.126998
 31
0.0
  0
LINE
  5
164
100
AcDbEntity
  8
Layer_1
 62
7
100
AcDbLine
 10
112.627097
 20
10.126998
 30
0.0
 11
112.627097
 21
13.127001
 31
0.0
  0
LINE
  5
165
100
AcDbEntity
  8
Layer_1
 62
7
100
AcDbLine
 10
112.627097
 20
13.127001
 30
0.0
 11
97.627084
 21
13.127001
 31
0.0
  0
LINE
  5
166
100
AcDbEntity
  8
Layer_1
 62
7
100
AcDbLine
 10
97.627084
 20
13.127001
 30
0.0
 11
97.627084
 21
10.126998
 31
0.0
  0
LINE
  5
167
100
AcDbEntity
  8
Layer_1
 62
7
100
AcDbLine
 10
97.627084
 20
10.126998
 30
0.0
 11
82.627067
 21
10.126998
 31
0.0
  0
LINE
  5
168
100
AcDbEntity
  8
Layer_1
 62
7
100
AcDbLine
 10
82.627067
 20
10.126998
 30
0.0
 11
82.627067
 21
13.127001
 31
0.0
  0
LINE
  5
169
100
AcDbEntity
  8
Layer_1
 62
7
100
AcDbLine
 10
82.627067
 20
13.127001
 30
0.0
 11
67.627056
 21
13.127001
 31
0.0
  0
LINE
  5
16a
100
AcDbEntity
  8
Layer_1
 62
7
100
AcDbLine
 10
67.627056
 20
13.127001
 30
0.0
 11
67.627056
 21
10.126998
 31
0.0
  0
LINE
  5
16b
100
AcDbEntity
  8
Layer_1
 62
7
100
AcDbLine
 10
67.627056
 20
10.126998
 30
0.0
 11
52.627042
 21
10.126998
 31
0.0
  0
LINE
  5
16c
100
AcDbEntity
  8
Layer_1
 62
7
100
AcDbLine
 10
52.627042
 20
10.126998
 30
0.0
 11
52.627042
 21
13.127001
 31
0.0
  0
LINE
  5
16d
100
AcDbEntity
  8
Layer_1
 62
7
100
AcDbLine
 10
52.627042
 20
13.127001
 30
0.0
 11
31.377021
 21
13.127001
 31
0.0
  0
LINE
  5
16e
100
AcDbEntity
  8
Layer_1
 62
7
100
AcDbLine
 10
31.377021
 20
13.127001
 30
0.0
 11
31.377021
 21
10.126998
 31
0.0
  0
LINE
  5
16f
100
AcDbEntity
  8
Layer_1
 62
7
100
AcDbLine
 10
31.377021
 20
10.126998
 30
0.0
 11
10.127001
 21
10.126998
 31
0.0
  0
LINE
  5
170
100
AcDbEntity
  8
Layer_1
 62
7
100
AcDbLine
 10
10.127001
 20
10.126998
 30
0.0
 11
10.127001
 21
34.377017
 31
0.0
  0
LINE
  5
171
100
AcDbEntity
  8
Layer_1
 62
7
100
AcDbLine
 10
10.127001
 20
34.377017
 30
0.0
 11
13.127004
 21
34.377017
 31
0.0
  0
LINE
  5
172
100
AcDbEntity
  8
Layer_1
 62
7
100
AcDbLine
 10
13.127004
 20
34.377017
 30
0.0
 11
13.127004
 21
58.627037
 31
0.0
  0
LINE
  5
173
100
AcDbEntity
  8
Layer_1
 62
7
100
AcDbLine
 10
13.127004
 20
58.627037
 30
0.0
 11
10.127001
 21
58.627037
 31
0.0
  0
LINE
  5
174
100
AcDbEntity
  8
Layer_1
 62
7
100
AcDbLine
 10
10.127001
 20
58.627037
 30
0.0
 11
10.127001
 21
73.627048
 31
0.0
  0
LINE
  5
175
100
AcDbEntity
  8
Layer_1
 62
7
100
AcDbLine
 10
10.127001
 20
73.627048
 30
0.0
 11
13.127004
 21
73.627048
 31
0.0
  0
LINE
  5
176
100
AcDbEntity
  8
Layer_1
 62
7
100
AcDbLine
 10
13.127004
 20
73.627048
 30
0.0
 11
13.127004
 21
88.627057
 31
0.0
  0
LINE
  5
177
100
AcDbEntity
  8
Layer_1
 62
7
100
AcDbLine
 10
13.127004
 20
88.627057
 30
0.0
 11
10.127001
 21
88.627057
 31
0.0
  0
LINE
  5
178
100
AcDbEntity
  8
Layer_1
 62
7
100
AcDbLine
 10
10.127001
 20
88.627057
 30
0.0
 11
10.127001
 21
103.627071
 31
0.0
  0
LINE
  5
179
100
AcDbEntity
  8
Layer_1
 62
7
100
AcDbLine
 10
10.127001
 20
103.627071
 30
0.0
 11
13.127004
 21
103.627071
 31
0.0
  0
LINE
  5
17a
100
AcDbEntity
  8
Layer_1
 62
7
100
AcDbLine
 10
13.127004
 20
103.627071
 30
0.0
 11
13.127004
 21
118.627082
 31
0.0
  0
LINE
  5
17b
100
AcDbEntity
  8
Layer_1
 62
7
100
AcDbLine
 10
13.127004
 20
118.627082
 30
0.0
 11
10.127001
 21
118.627082
 31
0.0
  0
SPLINE
  5
17c
100
AcDbEntity
  8
Layer_1
 62
7
100
AcDbSpline
 70
8
 71
3
 72
8
 73
4
 74
0
 40
0
 40
0
 40
0
 40
0
 40
1
 40
1
 40
1
 40
1
 10
31.707021
 20
237.717179
 30
0.0
 10
32.237455
 20
237.717179
 30
0.0
 10
32.746163
 20
237.506466
 30
0.0
 10
33.121236
 20
237.131392
 30
0.0
  0
SPLINE
  5
17d
100
AcDbEntity
  8
Layer_1
 62
7
100
AcDbSpline
 70
8
 71
3
 72
8
 73
4
 74
0
 40
0
 40
0
 40
0
 40
0
 40
1
 40
1
 40
1
 40
1
 10
33.121236
 20
237.131392
 30
0.0
 10
33.496309
 20
236.756319
 30
0.0
 10
33.707023
 20
236.247611
 30
0.0
 10
33.707023
 20
235.717178
 30
0.0
  0
SPLINE
  5
17e
100
AcDbEntity
  8
Layer_1
 62
7
100
AcDbSpline
 70
8
 71
3
 72
8
 73
4
 74
0
 40
0
 40
0
 40
0
 40
0
 40
1
 40
1
 40
1
 40
1
 10
33.707023
 20
235.717178
 30
0.0
 10
33.707023
 20
235.186744
 30
0.0
 10
33.496309
 20
234.678036
 30
0.0
 10
33.121236
 20
234.302963
 30
0.0
  0
SPLINE
  5
17f
100
AcDbEntity
  8
Layer_1
 62
7
100
AcDbSpline
 70
8
 71
3
 72
8
 73
4
 74
0
 40
0
 40
0
 40
0
 40
0
 40
1
 40
1
 40
1
 40
1
 10
33.121236
 20
234.302963
 30
0.0
 10
32.746163
 20
233.927890
 30
0.0
 10
32.237455
 20
233.717176
 30
0.0
 10
31.707021
 20
233.717176
 30
0.0
  0
SPLINE
  5
180
100
AcDbEntity
  8
Layer_1
 62
7
100
AcDbSpline
 70
8
 71
3
 72
8
 73
4
 74
0
 40
0
 40
0
 40
0
 40
0
 40
1
 40
1
 40
1
 40
1
 10
31.707021
 20
233.717176
 30
0.0
 10
31.176588
 20
233.717176
 30
0.0
 10
30.667880
 20
233.927890
 30
0.0
 10
30.292807
 20
234.302963
 30
0.0
  0
SPLINE
  5
181
100
AcDbEntity
  8
Layer_1
 62
7
100
AcDbSpline
 70
8
 71
3
 72
8
 73
4
 74
0
 40
0
 40
0
 40
0
 40
0
 40
1
 40
1
 40
1
 40
1
 10
30.292807
 20
234.302963
 30
0.0
 10
29.917733
 20
234.678036
 30
0.0
 10
29.707020
 20
235.186744
 30
0.0
 10
29.707020
 20
235.717178
 30
0.0
  0
SPLINE
  5
182
100
AcDbEntity
  8
Layer_1
 62
7
100
AcDbSpline
 70
8
 71
3
 72
8
 73
4
 74
0
 40
0
 40
0
 40
0
 40
0
 40
1
 40
1
 40
1
 40
1
 10
29.707020
 20
235.717178
 30
0.0
 10
29.707020
 20
236.247611
 30
0.0
 10
29.917733
 20
236.756319
 30
0.0
 10
30.292807
 20
237.131392
 30
0.0
  0
SPLINE
  5
183
100
AcDbEntity
  8
Layer_1
 62
7
100
AcDbSpline
 70
8
 71
3
 72
8
 73
4
 74
0
 40
0
 40
0
 40
0
 40
0
 40
1
 40
1
 40
1
 40
1
 10
30.292807
 20
237.131392
 30
0.0
 10
30.667880
 20
237.506466
 30
0.0
 10
31.176588
 20
237.717179
 30
0.0
 10
31.707021
 20
237.717179
 30
0.0
  0
LINE
  5
184
100
AcDbEntity
  8
Layer_1
 62
7
100
AcDbLine
 10
31.707021
 20
237.717179
 30
0.0
 11
31.707021
 21
237.717179
 31
0.0
  0
SPLINE
  5
185
100
AcDbEntity
  8
Layer_1
 62
7
100
AcDbSpline
 70
8
 71
3
 72
8
 73
4
 74
0
 40
0
 40
0
 40
0
 40
0
 40
1
 40
1
 40
1
 40
1
 10
97.357079
 20
237.717179
 30
0.0
 10
97.887512
 20
237.717179
 30
0.0
 10
98.396220
 20
237.506466
 30
0.0
 10
98.771294
 20
237.131392
 30
0.0
  0
SPLINE
  5
186
100
AcDbEntity
  8
Layer_1
 62
7
100
AcDbSpline
 70
8
 71
3
 72
8
 73
4
 74
0
 40
0
 40
0
 40
0
 40
0
 40
1
 40
1
 40
1
 40
1
 10
98.771294
 20
237.131392
 30
0.0
 10
99.146367
 20
236.756319
 30
0.0
 10
99.357081
 20
236.247611
 30
0.0
 10
99.357081
 20
235.717178
 30
0.0
  0
SPLINE
  5
187
100
AcDbEntity
  8
Layer_1
 62
7
100
AcDbSpline
 70
8
 71
3
 72
8
 73
4
 74
0
 40
0
 40
0
 40
0
 40
0
 40
1
 40
1
 40
1
 40
1
 10
99.357081
 20
235.717178
 30
0.0
 10
99.357081
 20
235.186744
 30
0.0
 10
99.146367
 20
234.678036
 30
0.0
 10
98.771294
 20
234.302963
 30
0.0
  0
SPLINE
  5
188
100
AcDbEntity
  8
Layer_1
 62
7
100
AcDbSpline
 70
8
 71
3
 72
8
 73
4
 74
0
 40
0
 40
0
 40
0
 40
0
 40
1
 40
1
 40
1
 40
1
 10
98.771294
 20
234.302963
 30
0.0
 10
98.396220
 20
233.927890
 30
0.0
 10
97.887512
 20
233.717176
 30
0.0
 10
97.357079
 20
233.717176
 30
0.0
  0
SPLINE
  5
189
100
AcDbEntity
  8
Layer_1
 62
7
100
AcDbSpline
 70
8
 71
3
 72
8
 73
4
 74
0
 40
0
 40
0
 40
0
 40
0
 40
1
 40
1
 40
1
 40
1
 10
97.357079
 20
233.717176
 30
0.0
 10
96.826645
 20
233.717176
 30
0.0
 10
96.317937
 20
233.927890
 30
0.0
 10
95.942864
 20
234.302963
 30
0.0
  0
SPLINE
  5
18a
100
AcDbEntity
  8
Layer_1
 62
7
100
AcDbSpline
 70
8
 71
3
 72
8
 73
4
 74
0
 40
0
 40
0
 40
0
 40
0
 40
1
 40
1
 40
1
 40
1
 10
95.942864
 20
234.302963
 30
0.0
 10
95.567791
 20
234.678036
 30
0.0
 10
95.357077
 20
235.186744
 30
0.0
 10
95.357077
 20
235.717178
 30
0.0
  0
SPLINE
  5
18b
100
AcDbEntity
  8
Layer_1
 62
7
100
AcDbSpline
 70
8
 71
3
 72
8
 73
4
 74
0
 40
0
 40
0
 40
0
 40
0
 40
1
 40
1
 40
1
 40
1
 10
95.357077
 20
235.717178
 30
0.0
 10
95.357077
 20
236.247611
 30
0.0
 10
95.567791
 20
236.756319
 30
0.0
 10
95.942864
 20
237.131392
 30
0.0
  0
SPLINE
  5
18c
100
AcDbEntity
  8
Layer_1
 62
7
100
AcDbSpline
 70
8
 71
3
 72
8
 73
4
 74
0
 40
0
 40
0
 40
0
 40
0
 40
1
 40
1
 40
1
 40
1
 10
95.942864
 20
237.131392
 30
0.0
 10
96.317937
 20
237.506466
 30
0.0
 10
96.826645
 20
237.717179
 30
0.0
 10
97.357079
 20
237.717179
 30
0.0
  0
LINE
  5
18d
100
AcDbEntity
  8
Layer_1
 62
7
100
AcDbLine
 10
97.357079
 20
237.717179
 30
0.0
 11
97.357079
 21
237.717179
 31
0.0
  0
SPLINE
  5
18e
100
AcDbEntity
  8
Layer_1
 62
7
100
AcDbSpline
 70
8
 71
3
 72
8
 73
4
 74
0
 40
0
 40
0
 40
0
 40
0
 40
1
 40
1
 40
1
 40
1
 10
31.707021
 20
111.517078
 30
0.0
 10
32.237455
 20
111.517078
 30
0.0
 10
32.746163
 20
111.306364
 30
0.0
 10
33.121236
 20
110.931291
 30
0.0
  0
SPLINE
  5
18f
100
AcDbEntity
  8
Layer_1
 62
7
100
AcDbSpline
 70
8
 71
3
 72
8
 73
4
 74
0
 40
0
 40
0
 40
0
 40
0
 40
1
 40
1
 40
1
 40
1
 10
33.121236
 20
110.931291
 30
0.0
 10
33.496309
 20
110.556218
 30
0.0
 10
33.707023
 20
110.047510
 30
0.0
 10
33.707023
 20
109.517077
 30
0.0
  0
SPLINE
  5
190
100
AcDbEntity
  8
Layer_1
 62
7
100
AcDbSpline
 70
8
 71
3
 72
8
 73
4
 74
0
 40
0
 40
0
 40
0
 40
0
 40
1
 40
1
 40
1
 40
1
 10
33.707023
 20
109.517077
 30
0.0
 10
33.707023
 20
108.986643
 30
0.0
 10
33.496309
 20
108.477935
 30
0.0
 10
33.121236
 20
108.102862
 30
0.0
  0
SPLINE
  5
191
100
AcDbEntity
  8
Layer_1
 62
7
100
AcDbSpline
 70
8
 71
3
 72
8
 73
4
 74
0
 40
0
 40
0
 40
0
 40
0
 40
1
 40
1
 40
1
 40
1
 10
33.121236
 20
108.102862
 30
0.0
 10
32.746163
 20
107.727789
 30
0.0
 10
32.237455
 20
107.517075
 30
0.0
 10
31.707021
 20
107.517075
 30
0.0
  0
SPLINE
  5
192
100
AcDbEntity
  8
Layer_1
 62
7
100
AcDbSpline
 70
8
 71
3
 72
8
 73
4
 74
0
 40
0
 40
0
 40
0
 40
0
 40
1
 40
1
 40
1
 40
1
 10
31.707021
 20
107.517075
 30
0.0
 10
31.176588
 20
107.517075
 30
0.0
 10
30.667880
 20
107.727789
 30
0.0
 10
30.292807
 20
108.102862
 30
0.0
  0
SPLINE
  5
193
100
AcDbEntity
  8
Layer_1
 62
7
100
AcDbSpline
 70
8
 71
3
 72
8
 73
4
 74
0
 40
0
 40
0
 40
0
 40
0
 40
1
 40
1
 40
1
 40
1
 10
30.292807
 20
108.102862
 30
0.0
 10
29.917733
 20
108.477935
 30
0.0
 10
29.707020
 20
108.986643
 30
0.0
 10
29.707020
 20
109.517077
 30
0.0
  0
SPLINE
  5
194
100
AcDbEntity
  8
Layer_1
 62
7
100
AcDbSpline
 70
8
 71
3
 72
8
 73
4
 74
0
 40
0
 40
0
 40
0
 40
0
 40
1
 40
1
 40
1
 40
1
 10
29.707020
 20
109.517077
 30
0.0
 10
29.707020
 20
110.047510
 30
0.0
 10
29.917733
 20
110.556218
 30
0.0
 10
30.292807
 20
110.931291
 30
0.0
  0
SPLINE
  5
195
100
AcDbEntity
  8
Layer_1
 62
7
100
AcDbSpline
 70
8
 71
3
 72
8
 73
4
 74
0
 40
0
 40
0
 40
0
 40
0
 40
1
 40
1
 40
1
 40
1
 10
30.292807
 20
110.931291
 30
0.0
 10
30.667880
 20
111.306364
 30
0.0
 10
31.176588
 20
111.517078
 30
0.0
 10
31.707021
 20
111.517078
 30
0.0
  0
LINE
  5
196
100
AcDbEntity
  8
Layer_1
 62
7
100
AcDbLine
 10
31.707021
 20
111.517078
 30
0.0
 11
31.707021
 21
111.517078
 31
0.0
  0
SPLINE
  5
197
100
AcDbEntity
  8
Layer_1
 62
7
100
AcDbSpline
 70
8
 71
3
 72
8
 73
4
 74
0
 40
0
 40
0
 40
0
 40
0
 40
1
 40
1
 40
1
 40
1
 10
97.357079
 20
111.517078
 30
0.0
 10
97.887512
 20
111.517078
 30
0.0
 10
98.396220
 20
111.306364
 30
0.0
 10
98.771294
 20
110.931291
 30
0.0
  0
SPLINE
  5
198
100
AcDbEntity
  8
Layer_1
 62
7
100
AcDbSpline
 70
8
 71
3
 72
8
 73
4
 74
0
 40
0
 40
0
 40
0
 40
0
 40
1
 40
1
 40
1
 40
1
 10
98.771294
 20
110.931291
 30
0.0
 10
99.146367
 20
110.556218
 30
0.0
 10
99.357081
 20
110.047510
 30
0.0
 10
99.357081
 20
109.517077
 30
0.0
  0
SPLINE
  5
199
100
AcDbEntity
  8
Layer_1
 62
7
100
AcDbSpline
 70
8
 71
3
 72
8
 73
4
 74
0
 40
0
 40
0
 40
0
 40
0
 40
1
 40
1
 40
1
 40
1
 10
99.357081
 20
109.517077
 30
0.0
 10
99.357081
 20
108.986643
 30
0.0
 10
99.146367
 20
108.477935
 30
0.0
 10
98.771294
 20
108.102862
 30
0.0
  0
SPLINE
  5
19a
100
AcDbEntity
  8
Layer_1
 62
7
100
AcDbSpline
 70
8
 71
3
 72
8
 73
4
 74
0
 40
0
 40
0
 40
0
 40
0
 40
1
 40
1
 40
1
 40
1
 10
98.771294
 20
108.102862
 30
0.0
 10
98.396220
 20
107.727789
 30
0.0
 10
97.887512
 20
107.517075
 30
0.0
 10
97.357079
 20
107.517075
 30
0.0
  0
SPLINE
  5
19b
100
AcDbEntity
  8
Layer_1
 62
7
100
AcDbSpline
 70
8
 71
3
 72
8
 73
4
 74
0
 40
0
 40
0
 40
0
 40
0
 40
1
 40
1
 40
1
 40
1
 10
97.357079
 20
107.517075
 30
0.0
 10
96.826645
 20
107.517075
 30
0.0
 10
96.317937
 20
107.727789
 30
0.0
 10
95.942864
 20
108.102862
 30
0.0
  0
SPLINE
  5
19c
100
AcDbEntity
  8
Layer_1
 62
7
100
AcDbSpline
 70
8
 71
3
 72
8
 73
4
 74
0
 40
0
 40
0
 40
0
 40
0
 40
1
 40
1
 40
1
 40
1
 10
95.942864
 20
108.102862
 30
0.0
 10
95.567791
 20
108.477935
 30
0.0
 10
95.357077
 20
108.986643
 30
0.0
 10
95.357077
 20
109.517077
 30
0.0
  0
SPLINE
  5
19d
100
AcDbEntity
  8
Layer_1
 62
7
100
AcDbSpline
 70
8
 71
3
 72
8
 73
4
 74
0
 40
0
 40
0
 40
0
 40
0
 40
1
 40
1
 40
1
 40
1
 10
95.357077
 20
109.517077
 30
0.0
 10
95.357077
 20
110.047510
 30
0.0
 10
95.567791
 20
110.556218
 30
0.0
 10
95.942864
 20
110.931291
 30
0.0
  0
SPLINE
  5
19e
100
AcDbEntity
  8
Layer_1
 62
7
100
AcDbSpline
 70
8
 71
3
 72
8
 73
4
 74
0
 40
0
 40
0
 40
0
 40
0
 40
1
 40
1
 40
1
 40
1
 10
95.942864
 20
110.931291
 30
0.0
 10
96.317937
 20
111.306364
 30
0.0
 10
96.826645
 20
111.517078
 30
0.0
 10
97.357079
 20
111.517078
 30
0.0
  0
LINE
  5
19f
100
AcDbEntity
  8
Layer_1
 62
7
100
AcDbLine
 10
97.357079
 20
111.517078
 30
0.0
 11
97.357079
 21
111.517078
 31
0.0
  0
LINE
  5
1a0
100
AcDbEntity
  8
Layer_1
 62
7
100
AcDbLine
 10
21.707012
 20
142.517096
 30
0.0
 11
21.707012
 21
212.717149
 31
0.0
  0
SPLINE
  5
1a1
100
AcDbEntity
  8
Layer_1
 62
7
100
AcDbSpline
 70
8
 71
3
 72
8
 73
4
 74
0
 40
0
 40
0
 40
0
 40
0
 40
1
 40
1
 40
1
 40
1
 10
21.707012
 20
212.717149
 30
0.0
 10
21.707012
 20
214.379150
 30
0.0
 10
23.045013
 20
215.717151
 30
0.0
 10
24.707014
 20
215.717151
 30
0.0
  0
LINE
  5
1a2
100
AcDbEntity
  8
Layer_1
 62
7
100
AcDbLine
 10
24.707014
 20
215.717151
 30
0.0
 11
112.357098
 21
215.717151
 31
0.0
  0
SPLINE
  5
1a3
100
AcDbEntity
  8
Layer_1
 62
7
100
AcDbSpline
 70
8
 71
3
 72
8
 73
4
 74
0
 40
0
 40
0
 40
0
 40
0
 40
1
 40
1
 40
1
 40
1
 10
112.357098
 20
215.717151
 30
0.0
 10
114.019099
 20
215.717151
 30
0.0
 10
115.357101
 20
214.379150
 30
0.0
 10
115.357101
 20
212.717149
 30
0.0
  0
LINE
  5
1a4
100
AcDbEntity
  8
Layer_1
 62
7
100
AcDbLine
 10
115.357101
 20
212.717149
 30
0.0
 11
115.357101
 21
142.517096
 31
0.0
  0
SPLINE
  5
1a5
100
AcDbEntity
  8
Layer_1
 62
7
100
AcDbSpline
 70
8
 71
3
 72
8
 73
4
 74
0
 40
0
 40
0
 40
0
 40
0
 40
1
 40
1
 40
1
 40
1
 10
115.357101
 20
142.517096
 30
0.0
 10
115.357101
 20
140.855095
 30
0.0
 10
114.019099
 20
139.517094
 30
0.0
 10
112.357098
 20
139.517094
 30
0.0
  0
LINE
  5
1a6
100
AcDbEntity
  8
Layer_1
 62
7
100
AcDbLine
 10
112.357098
 20
139.517094
 30
0.0
 11
24.707014
 21
139.517094
 31
0.0
  0
SPLINE
  5
1a7
100
AcDbEntity
  8
Layer_1
 62
7
100
AcDbSpline
 70
8
 71
3
 72
8
 73
4
 74
0
 40
0
 40
0
 40
0
 40
0
 40
1
 40
1
 40
1
 40
1
 10
24.707014
 20
139.517094
 30
0.0
 10
23.045013
 20
139.517094
 30
0.0
 10
21.707012
 20
140.855095
 30
0.0
 10
21.707012
 20
142.517096
 30
0.0
  0
LINE
  5
1a8
100
AcDbEntity
  8
Layer_1
 62
7
100
AcDbLine
 10
21.707012
 20
142.517096
 30
0.0
 11
21.707012
 21
142.517096
 31
0.0
  0
LINE
  5
1a9
100
AcDbEntity
  8
Layer_1
 62
7
100
AcDbLine
 10
240.127028
 20
133.627094
 30
0.0
 11
243.127031
 21
133.627094
 31
0.0
  0
LINE
  5
1aa
100
AcDbEntity
  8
Layer_1
 62
7
100
AcDbLine
 10
243.127031
 20
133.627094
 30
0.0
 11
243.127031
 21
148.627102
 31
0.0
  0
LINE
  5
1ab
100
AcDbEntity
  8
Layer_1
 62
7
100
AcDbLine
 10
243.127031
 20
148.627102
 30
0.0
 11
240.127028
 21
148.627102
 31
0.0
  0
LINE
  5
1ac
100
AcDbEntity
  8
Layer_1
 62
7
100
AcDbLine
 10
240.127028
 20
148.627102
 30
0.0
 11
240.127028
 21
163.627117
 31
0.0
  0
LINE
  5
1ad
100
AcDbEntity
  8
Layer_1
 62
7
100
AcDbLine
 10
240.127028
 20
163.627117
 30
0.0
 11
243.127031
 21
163.627117
 31
0.0
  0
LINE
  5
1ae
100
AcDbEntity
  8
Layer_1
 62
7
100
AcDbLine
 10
243.127031
 20
163.627117
 30
0.0
 11
243.127031
 21
178.627125
 31
0.0
  0
LINE
  5
1af
100
AcDbEntity
  8
Layer_1
 62
7
100
AcDbLine
 10
243.127031
 20
178.627125
 30
0.0
 11
240.127028
 21
178.627125
 31
0.0
  0
LINE
  5
1b0
100
AcDbEntity
  8
Layer_1
 62
7
100
AcDbLine
 10
240.127028
 20
178.627125
 30
0.0
 11
240.127028
 21
193.627140
 31
0.0
  0
LINE
  5
1b1
100
AcDbEntity
  8
Layer_1
 62
7
100
AcDbLine
 10
240.127028
 20
193.627140
 30
0.0
 11
243.127031
 21
193.627140
 31
0.0
  0
LINE
  5
1b2
100
AcDbEntity
  8
Layer_1
 62
7
100
AcDbLine
 10
243.127031
 20
193.627140
 30
0.0
 11
243.127031
 21
208.627151
 31
0.0
  0
LINE
  5
1b3
100
AcDbEntity
  8
Layer_1
 62
7
100
AcDbLine
 10
243.127031
 20
208.627151
 30
0.0
 11
240.127028
 21
208.627151
 31
0.0
  0
LINE
  5
1b4
100
AcDbEntity
  8
Layer_1
 62
7
100
AcDbLine
 10
240.127028
 20
208.627151
 30
0.0
 11
240.127028
 21
223.627162
 31
0.0
  0
LINE
  5
1b5
100
AcDbEntity
  8
Layer_1
 62
7
100
AcDbLine
 10
240.127028
 20
223.627162
 30
0.0
 11
243.127031
 21
223.627162
 31
0.0
  0
LINE
  5
1b6
100
AcDbEntity
  8
Layer_1
 62
7
100
AcDbLine
 10
243.127031
 20
223.627162
 30
0.0
 11
243.127031
 21
238.627174
 31
0.0
  0
LINE
  5
1b7
100
AcDbEntity
  8
Layer_1
 62
7
100
AcDbLine
 10
243.127031
 20
238.627174
 30
0.0
 11
240.127028
 21
238.627174
 31
0.0
  0
LINE
  5
1b8
100
AcDbEntity
  8
Layer_1
 62
7
100
AcDbLine
 10
240.127028
 20
238.627174
 30
0.0
 11
240.127028
 21
253.627185
 31
0.0
  0
LINE
  5
1b9
100
AcDbEntity
  8
Layer_1
 62
7
100
AcDbLine
 10
240.127028
 20
253.627185
 30
0.0
 11
243.127031
 21
253.627185
 31
0.0
  0
LINE
  5
1ba
100
AcDbEntity
  8
Layer_1
 62
7
100
AcDbLine
 10
243.127031
 20
253.627185
 30
0.0
 11
243.127031
 21
268.627197
 31
0.0
  0
LINE
  5
1bb
100
AcDbEntity
  8
Layer_1
 62
7
100
AcDbLine
 10
243.127031
 20
268.627197
 30
0.0
 11
240.127028
 21
268.627197
 31
0.0
  0
LINE
  5
1bc
100
AcDbEntity
  8
Layer_1
 62
7
100
AcDbLine
 10
240.127028
 20
268.627197
 30
0.0
 11
240.127028
 21
283.627208
 31
0.0
  0
LINE
  5
1bd
100
AcDbEntity
  8
Layer_1
 62
7
100
AcDbLine
 10
240.127028
 20
283.627208
 30
0.0
 11
243.127031
 21
283.627208
 31
0.0
  0
LINE
  5
1be
100
AcDbEntity
  8
Layer_1
 62
7
100
AcDbLine
 10
243.127031
 20
283.627208
 30
0.0
 11
243.127031
 21
307.877239
 31
0.0
  0
LINE
  5
1bf
100
AcDbEntity
  8
Layer_1
 62
7
100
AcDbLine
 10
243.127031
 20
307.877239
 30
0.0
 11
240.127028
 21
307.877239
 31
0.0
  0
LINE
  5
1c0
100
AcDbEntity
  8
Layer_1
 62
7
100
AcDbLine
 10
240.127028
 20
307.877239
 30
0.0
 11
240.127028
 21
332.127238
 31
0.0
  0
LINE
  5
1c1
100
AcDbEntity
  8
Layer_1
 62
7
100
AcDbLine
 10
240.127028
 20
332.127238
 30
0.0
 11
261.377048
 21
332.127238
 31
0.0
  0
LINE
  5
1c2
100
AcDbEntity
  8
Layer_1
 62
7
100
AcDbLine
 10
261.377048
 20
332.127238
 30
0.0
 11
261.377048
 21
329.127244
 31
0.0
  0
LINE
  5
1c3
100
AcDbEntity
  8
Layer_1
 62
7
100
AcDbLine
 10
261.377048
 20
329.127244
 30
0.0
 11
282.627069
 21
329.127244
 31
0.0
  0
LINE
  5
1c4
100
AcDbEntity
  8
Layer_1
 62
7
100
AcDbLine
 10
282.627069
 20
329.127244
 30
0.0
 11
282.627069
 21
332.127238
 31
0.0
  0
LINE
  5
1c5
100
AcDbEntity
  8
Layer_1
 62
7
100
AcDbLine
 10
282.627069
 20
332.127238
 30
0.0
 11
297.627082
 21
332.127238
 31
0.0
  0
LINE
  5
1c6
100
AcDbEntity
  8
Layer_1
 62
7
100
AcDbLine
 10
297.627082
 20
332.127238
 30
0.0
 11
297.627082
 21
329.127244
 31
0.0
  0
LINE
  5
1c7
100
AcDbEntity
  8
Layer_1
 62
7
100
AcDbLine
 10
297.627082
 20
329.127244
 30
0.0
 11
312.627093
 21
329.127244
 31
0.0
  0
LINE
  5
1c8
100
AcDbEntity
  8
Layer_1
 62
7
100
AcDbLine
 10
312.627093
 20
329.127244
 30
0.0
 11
312.627093
 21
332.127238
 31
0.0
  0
LINE
  5
1c9
100
AcDbEntity
  8
Layer_1
 62
7
100
AcDbLine
 10
312.627093
 20
332.127238
 30
0.0
 11
327.627110
 21
332.127238
 31
0.0
  0
LINE
  5
1ca
100
AcDbEntity
  8
Layer_1
 62
7
100
AcDbLine
 10
327.627110
 20
332.127238
 30
0.0
 11
327.627110
 21
329.127244
 31
0.0
  0
LINE
  5
1cb
100
AcDbEntity
  8
Layer_1
 62
7
100
AcDbLine
 10
327.627110
 20
329.127244
 30
0.0
 11
342.627124
 21
329.127244
 31
0.0
  0
LINE
  5
1cc
100
AcDbEntity
  8
Layer_1
 62
7
100
AcDbLine
 10
342.627124
 20
329.127244
 30
0.0
 11
342.627124
 21
332.127238
 31
0.0
  0
LINE
  5
1cd
100
AcDbEntity
  8
Layer_1
 62
7
100
AcDbLine
 10
342.627124
 20
332.127238
 30
0.0
 11
357.627138
 21
332.127238
 31
0.0
  0
LINE
  5
1ce
100
AcDbEntity
  8
Layer_1
 62
7
100
AcDbLine
 10
357.627138
 20
332.127238
 30
0.0
 11
357.627138
 21
329.127244
 31
0.0
  0
LINE
  5
1cf
100
AcDbEntity
  8
Layer_1
 62
7
100
AcDbLine
 10
357.627138
 20
329.127244
 30
0.0
 11
372.627149
 21
329.127244
 31
0.0
  0
LINE
  5
1d0
100
AcDbEntity
  8
Layer_1
 62
7
100
AcDbLine
 10
372.627149
 20
329.127244
 30
0.0
 11
372.627149
 21
332.127238
 31
0.0
  0
LINE
  5
1d1
100
AcDbEntity
  8
Layer_1
 62
7
100
AcDbLine
 10
372.627149
 20
332.127238
 30
0.0
 11
387.627165
 21
332.127238
 31
0.0
  0
LINE
  5
1d2
100
AcDbEntity
  8
Layer_1
 62
7
100
AcDbLine
 10
387.627165
 20
332.127238
 30
0.0
 11
387.627165
 21
329.127244
 31
0.0
  0
LINE
  5
1d3
100
AcDbEntity
  8
Layer_1
 62
7
100
AcDbLine
 10
387.627165
 20
329.127244
 30
0.0
 11
402.627176
 21
329.127244
 31
0.0
  0
LINE
  5
1d4
100
AcDbEntity
  8
Layer_1
 62
7
100
AcDbLine
 10
402.627176
 20
329.127244
 30
0.0
 11
402.627176
 21
332.127238
 31
0.0
  0
LINE
  5
1d5
100
AcDbEntity
  8
Layer_1
 62
7
100
AcDbLine
 10
402.627176
 20
332.127238
 30
0.0
 11
417.627193
 21
332.127238
 31
0.0
  0
LINE
  5
1d6
100
AcDbEntity
  8
Layer_1
 62
7
100
AcDbLine
 10
417.627193
 20
332.127238
 30
0.0
 11
417.627193
 21
329.127244
 31
0.0
  0
LINE
  5
1d7
100
AcDbEntity
  8
Layer_1
 62
7
100
AcDbLine
 10
417.627193
 20
329.127244
 30
0.0
 11
438.877211
 21
329.127244
 31
0.0
  0
LINE
  5
1d8
100
AcDbEntity
  8
Layer_1
 62
7
100
AcDbLine
 10
438.877211
 20
329.127244
 30
0.0
 11
438.877211
 21
332.127238
 31
0.0
  0
LINE
  5
1d9
100
AcDbEntity
  8
Layer_1
 62
7
100
AcDbLine
 10
438.877211
 20
332.127238
 30
0.0
 11
460.127231
 21
332.127238
 31
0.0
  0
LINE
  5
1da
100
AcDbEntity
  8
Layer_1
 62
7
100
AcDbLine
 10
460.127231
 20
332.127238
 30
0.0
 11
460.127231
 21
307.877239
 31
0.0
  0
LINE
  5
1db
100
AcDbEntity
  8
Layer_1
 62
7
100
AcDbLine
 10
460.127231
 20
307.877239
 30
0.0
 11
457.127228
 21
307.877239
 31
0.0
  0
LINE
  5
1dc
100
AcDbEntity
  8
Layer_1
 62
7
100
AcDbLine
 10
457.127228
 20
307.877239
 30
0.0
 11
457.127228
 21
283.627208
 31
0.0
  0
LINE
  5
1dd
100
AcDbEntity
  8
Layer_1
 62
7
100
AcDbLine
 10
457.127228
 20
283.627208
 30
0.0
 11
460.127231
 21
283.627208
 31
0.0
  0
LINE
  5
1de
100
AcDbEntity
  8
Layer_1
 62
7
100
AcDbLine
 10
460.127231
 20
283.627208
 30
0.0
 11
460.127231
 21
268.627197
 31
0.0
  0
LINE
  5
1df
100
AcDbEntity
  8
Layer_1
 62
7
100
AcDbLine
 10
460.127231
 20
268.627197
 30
0.0
 11
457.127228
 21
268.627197
 31
0.0
  0
LINE
  5
1e0
100
AcDbEntity
  8
Layer_1
 62
7
100
AcDbLine
 10
457.127228
 20
268.627197
 30
0.0
 11
457.127228
 21
253.627185
 31
0.0
  0
LINE
  5
1e1
100
AcDbEntity
  8
Layer_1
 62
7
100
AcDbLine
 10
457.127228
 20
253.627185
 30
0.0
 11
460.127231
 21
253.627185
 31
0.0
  0
LINE
  5
1e2
100
AcDbEntity
  8
Layer_1
 62
7
100
AcDbLine
 10
460.127231
 20
253.627185
 30
0.0
 11
460.127231
 21
238.627174
 31
0.0
  0
LINE
  5
1e3
100
AcDbEntity
  8
Layer_1
 62
7
100
AcDbLine
 10
460.127231
 20
238.627174
 30
0.0
 11
457.127228
 21
238.627174
 31
0.0
  0
LINE
  5
1e4
100
AcDbEntity
  8
Layer_1
 62
7
100
AcDbLine
 10
457.127228
 20
238.627174
 30
0.0
 11
457.127228
 21
223.627162
 31
0.0
  0
LINE
  5
1e5
100
AcDbEntity
  8
Layer_1
 62
7
100
AcDbLine
 10
457.127228
 20
223.627162
 30
0.0
 11
460.127231
 21
223.627162
 31
0.0
  0
LINE
  5
1e6
100
AcDbEntity
  8
Layer_1
 62
7
100
AcDbLine
 10
460.127231
 20
223.627162
 30
0.0
 11
460.127231
 21
208.627151
 31
0.0
  0
LINE
  5
1e7
100
AcDbEntity
  8
Layer_1
 62
7
100
AcDbLine
 10
460.127231
 20
208.627151
 30
0.0
 11
457.127228
 21
208.627151
 31
0.0
  0
LINE
  5
1e8
100
AcDbEntity
  8
Layer_1
 62
7
100
AcDbLine
 10
457.127228
 20
208.627151
 30
0.0
 11
457.127228
 21
193.627140
 31
0.0
  0
LINE
  5
1e9
100
AcDbEntity
  8
Layer_1
 62
7
100
AcDbLine
 10
457.127228
 20
193.627140
 30
0.0
 11
460.127231
 21
193.627140
 31
0.0
  0
LINE
  5
1ea
100
AcDbEntity
  8
Layer_1
 62
7
100
AcDbLine
 10
460.127231
 20
193.627140
 30
0.0
 11
460.127231
 21
178.627125
 31
0.0
  0
LINE
  5
1eb
100
AcDbEntity
  8
Layer_1
 62
7
100
AcDbLine
 10
460.127231
 20
178.627125
 30
0.0
 11
457.127228
 21
178.627125
 31
0.0
  0
LINE
  5
1ec
100
AcDbEntity
  8
Layer_1
 62
7
100
AcDbLine
 10
457.127228
 20
178.627125
 30
0.0
 11
457.127228
 21
163.627117
 31
0.0
  0
LINE
  5
1ed
100
AcDbEntity
  8
Layer_1
 62
7
100
AcDbLine
 10
457.127228
 20
163.627117
 30
0.0
 11
460.127231
 21
163.627117
 31
0.0
  0
LINE
  5
1ee
100
AcDbEntity
  8
Layer_1
 62
7
100
AcDbLine
 10
460.127231
 20
163.627117
 30
0.0
 11
460.127231
 21
148.627102
 31
0.0
  0
LINE
  5
1ef
100
AcDbEntity
  8
Layer_1
 62
7
100
AcDbLine
 10
460.127231
 20
148.627102
 30
0.0
 11
457.127228
 21
148.627102
 31
0.0
  0
LINE
  5
1f0
100
AcDbEntity
  8
Layer_1
 62
7
100
AcDbLine
 10
457.127228
 20
148.627102
 30
0.0
 11
457.127228
 21
133.627094
 31
0.0
  0
LINE
  5
1f1
100
AcDbEntity
  8
Layer_1
 62
7
100
AcDbLine
 10
457.127228
 20
133.627094
 30
0.0
 11
460.127231
 21
133.627094
 31
0.0
  0
LINE
  5
1f2
100
AcDbEntity
  8
Layer_1
 62
7
100
AcDbLine
 10
460.127231
 20
133.627094
 30
0.0
 11
460.127231
 21
118.627082
 31
0.0
  0
LINE
  5
1f3
100
AcDbEntity
  8
Layer_1
 62
7
100
AcDbLine
 10
460.127231
 20
118.627082
 30
0.0
 11
457.127228
 21
118.627082
 31
0.0
  0
LINE
  5
1f4
100
AcDbEntity
  8
Layer_1
 62
7
100
AcDbLine
 10
457.127228
 20
118.627082
 30
0.0
 11
457.127228
 21
103.627071
 31
0.0
  0
LINE
  5
1f5
100
AcDbEntity
  8
Layer_1
 62
7
100
AcDbLine
 10
457.127228
 20
103.627071
 30
0.0
 11
460.127231
 21
103.627071
 31
0.0
  0
LINE
  5
1f6
100
AcDbEntity
  8
Layer_1
 62
7
100
AcDbLine
 10
460.127231
 20
103.627071
 30
0.0
 11
460.127231
 21
88.627057
 31
0.0
  0
LINE
  5
1f7
100
AcDbEntity
  8
Layer_1
 62
7
100
AcDbLine
 10
460.127231
 20
88.627057
 30
0.0
 11
457.127228
 21
88.627057
 31
0.0
  0
LINE
  5
1f8
100
AcDbEntity
  8
Layer_1
 62
7
100
AcDbLine
 10
457.127228
 20
88.627057
 30
0.0
 11
457.127228
 21
73.627048
 31
0.0
  0
LINE
  5
1f9
100
AcDbEntity
  8
Layer_1
 62
7
100
AcDbLine
 10
457.127228
 20
73.627048
 30
0.0
 11
460.127231
 21
73.627048
 31
0.0
  0
LINE
  5
1fa
100
AcDbEntity
  8
Layer_1
 62
7
100
AcDbLine
 10
460.127231
 20
73.627048
 30
0.0
 11
460.127231
 21
58.627037
 31
0.0
  0
LINE
  5
1fb
100
AcDbEntity
  8
Layer_1
 62
7
100
AcDbLine
 10
460.127231
 20
58.627037
 30
0.0
 11
457.127228
 21
58.627037
 31
0.0
  0
LINE
  5
1fc
100
AcDbEntity
  8
Layer_1
 62
7
100
AcDbLine
 10
457.127228
 20
58.627037
 30
0.0
 11
457.127228
 21
34.377017
 31
0.0
  0
LINE
  5
1fd
100
AcDbEntity
  8
Layer_1
 62
7
100
AcDbLine
 10
457.127228
 20
34.377017
 30
0.0
 11
460.127231
 21
34.377017
 31
0.0
  0
LINE
  5
1fe
100
AcDbEntity
  8
Layer_1
 62
7
100
AcDbLine
 10
460.127231
 20
34.377017
 30
0.0
 11
460.127231
 21
10.126998
 31
0.0
  0
LINE
  5
1ff
100
AcDbEntity
  8
Layer_1
 62
7
100
AcDbLine
 10
460.127231
 20
10.126998
 30
0.0
 11
438.877211
 21
10.126998
 31
0.0
  0
LINE
  5
200
100
AcDbEntity
  8
Layer_1
 62
7
100
AcDbLine
 10
438.877211
 20
10.126998
 30
0.0
 11
438.877211
 21
13.127001
 31
0.0
  0
LINE
  5
201
100
AcDbEntity
  8
Layer_1
 62
7
100
AcDbLine
 10
438.877211
 20
13.127001
 30
0.0
 11
417.627193
 21
13.127001
 31
0.0
  0
LINE
  5
202
100
AcDbEntity
  8
Layer_1
 62
7
100
AcDbLine
 10
417.627193
 20
13.127001
 30
0.0
 11
417.627193
 21
10.126998
 31
0.0
  0
LINE
  5
203
100
AcDbEntity
  8
Layer_1
 62
7
100
AcDbLine
 10
417.627193
 20
10.126998
 30
0.0
 11
402.627176
 21
10.126998
 31
0.0
  0
LINE
  5
204
100
AcDbEntity
  8
Layer_1
 62
7
100
AcDbLine
 10
402.627176
 20
10.126998
 30
0.0
 11
402.627176
 21
13.127001
 31
0.0
  0
LINE
  5
205
100
AcDbEntity
  8
Layer_1
 62
7
100
AcDbLine
 10
402.627176
 20
13.127001
 30
0.0
 11
387.627165
 21
13.127001
 31
0.0
  0
LINE
  5
206
100
AcDbEntity
  8
Layer_1
 62
7
100
AcDbLine
 10
387.627165
 20
13.127001
 30
0.0
 11
387.627165
 21
10.126998
 31
0.0
  0
LINE
  5
207
100
AcDbEntity
  8
Layer_1
 62
7
100
AcDbLine
 10
387.627165
 20
10.126998
 30
0.0
 11
372.627149
 21
10.126998
 31
0.0
  0
LINE
  5
208
100
AcDbEntity
  8
Layer_1
 62
7
100
AcDbLine
 10
372.627149
 20
10.126998
 30
0.0
 11
372.627149
 21
13.127001
 31
0.0
  0
LINE
  5
209
100
AcDbEntity
  8
Layer_1
 62
7
100
AcDbLine
 10
372.627149
 20
13.127001
 30
0.0
 11
357.627138
 21
13.127001
 31
0.0
  0
LINE
  5
20a
100
AcDbEntity
  8
Layer_1
 62
7
100
AcDbLine
 10
357.627138
 20
13.127001
 30
0.0
 11
357.627138
 21
10.126998
 31
0.0
  0
LINE
  5
20b
100
AcDbEntity
  8
Layer_1
 62
7
100
AcDbLine
 10
357.627138
 20
10.126998
 30
0.0
 11
342.627124
 21
10.126998
 31
0.0
  0
LINE
  5
20c
100
AcDbEntity
  8
Layer_1
 62
7
100
AcDbLine
 10
342.627124
 20
10.126998
 30
0.0
 11
342.627124
 21
13.127001
 31
0.0
  0
LINE
  5
20d
100
AcDbEntity
  8
Layer_1
 62
7
100
AcDbLine
 10
342.627124
 20
13.127001
 30
0.0
 11
327.627110
 21
13.127001
 31
0.0
  0
LINE
  5
20e
100
AcDbEntity
  8
Layer_1
 62
7
100
AcDbLine
 10
327.627110
 20
13.127001
 30
0.0
 11
327.627110
 21
10.126998
 31
0.0
  0
LINE
  5
20f
100
AcDbEntity
  8
Layer_1
 62
7
100
AcDbLine
 10
327.627110
 20
10.126998
 30
0.0
 11
312.627093
 21
10.126998
 31
0.0
  0
LINE
  5
210
100
AcDbEntity
  8
Layer_1
 62
7
100
AcDbLine
 10
312.627093
 20
10.126998
 30
0.0
 11
312.627093
 21
13.127001
 31
0.0
  0
LINE
  5
211
100
AcDbEntity
  8
Layer_1
 62
7
100
AcDbLine
 10
312.627093
 20
13.127001
 30
0.0
 11
297.627082
 21
13.127001
 31
0.0
  0
LINE
  5
212
100
AcDbEntity
  8
Layer_1
 62
7
100
AcDbLine
 10
297.627082
 20
13.127001
 30
0.0
 11
297.627082
 21
10.126998
 31
0.0
  0
LINE
  5
213
100
AcDbEntity
  8
Layer_1
 62
7
100
AcDbLine
 10
297.627082
 20
10.126998
 30
0.0
 11
282.627069
 21
10.126998
 31
0.0
  0
LINE
  5
214
100
AcDbEntity
  8
Layer_1
 62
7
100
AcDbLine
 10
282.627069
 20
10.126998
 30
0.0
 11
282.627069
 21
13.127001
 31
0.0
  0
LINE
  5
215
100
AcDbEntity
  8
Layer_1
 62
7
100
AcDbLine
 10
282.627069
 20
13.127001
 30
0.0
 11
261.377048
 21
13.127001
 31
0.0
  0
LINE
  5
216
100
AcDbEntity
  8
Layer_1
 62
7
100
AcDbLine
 10
261.377048
 20
13.127001
 30
0.0
 11
261.377048
 21
10.126998
 31
0.0
  0
LINE
  5
217
100
AcDbEntity
  8
Layer_1
 62
7
100
AcDbLine
 10
261.377048
 20
10.126998
 30
0.0
 11
240.127028
 21
10.126998
 31
0.0
  0
LINE
  5
218
100
AcDbEntity
  8
Layer_1
 62
7
100
AcDbLine
 10
240.127028
 20
10.126998
 30
0.0
 11
240.127028
 21
34.377017
 31
0.0
  0
LINE
  5
219
100
AcDbEntity
  8
Layer_1
 62
7
100
AcDbLine
 10
240.127028
 20
34.377017
 30
0.0
 11
243.127031
 21
34.377017
 31
0.0
  0
LINE
  5
21a
100
AcDbEntity
  8
Layer_1
 62
7
100
AcDbLine
 10
243.127031
 20
34.377017
 30
0.0
 11
243.127031
 21
58.627037
 31
0.0
  0
LINE
  5
21b
100
AcDbEntity
  8
Layer_1
 62
7
100
AcDbLine
 10
243.127031
 20
58.627037
 30
0.0
 11
240.127028
 21
58.627037
 31
0.0
  0
LINE
  5
21c
100
AcDbEntity
  8
Layer_1
 62
7
100
AcDbLine
 10
240.127028
 20
58.627037
 30
0.0
 11
240.127028
 21
73.627048
 31
0.0
  0
LINE
  5
21d
100
AcDbEntity
  8
Layer_1
 62
7
100
AcDbLine
 10
240.127028
 20
73.627048
 30
0.0
 11
243.127031
 21
73.627048
 31
0.0
  0
LINE
  5
21e
100
AcDbEntity
  8
Layer_1
 62
7
100
AcDbLine
 10
243.127031
 20
73.627048
 30
0.0
 11
243.127031
 21
88.627057
 31
0.0
  0
LINE
  5
21f
100
AcDbEntity
  8
Layer_1
 62
7
100
AcDbLine
 10
243.127031
 20
88.627057
 30
0.0
 11
240.127028
 21
88.627057
 31
0.0
  0
LINE
  5
220
100
AcDbEntity
  8
Layer_1
 62
7
100
AcDbLine
 10
240.127028
 20
88.627057
 30
0.0
 11
240.127028
 21
103.627071
 31
0.0
  0
LINE
  5
221
100
AcDbEntity
  8
Layer_1
 62
7
100
AcDbLine
 10
240.127028
 20
103.627071
 30
0.0
 11
243.127031
 21
103.627071
 31
0.0
  0
LINE
  5
222
100
AcDbEntity
  8
Layer_1
 62
7
100
AcDbLine
 10
243.127031
 20
103.627071
 30
0.0
 11
243.127031
 21
118.627082
 31
0.0
  0
LINE
  5
223
100
AcDbEntity
  8
Layer_1
 62
7
100
AcDbLine
 10
243.127031
 20
118.627082
 30
0.0
 11
240.127028
 21
118.627082
 31
0.0
  0
LINE
  5
224
100
AcDbEntity
  8
Layer_1
 62
7
100
AcDbLine
 10
240.127028
 20
118.627082
 30
0.0
 11
240.127028
 21
133.627094
 31
0.0
  0
LINE
  5
225
100
AcDbEntity
  8
Layer_1
 62
7
100
AcDbLine
 10
260.127047
 20
240.127179
 30
0.0
 11
260.127047
 21
300.127219
 31
0.0
  0
SPLINE
  5
226
100
AcDbEntity
  8
Layer_1
 62
7
100
AcDbSpline
 70
8
 71
3
 72
8
 73
4
 74
0
 40
0
 40
0
 40
0
 40
0
 40
1
 40
1
 40
1
 40
1
 10
260.127047
 20
300.127219
 30
0.0
 10
260.127047
 20
301.235224
 30
0.0
 10
261.019048
 20
302.127215
 30
0.0
 10
262.127049
 20
302.127215
 30
0.0
  0
LINE
  5
227
100
AcDbEntity
  8
Layer_1
 62
7
100
AcDbLine
 10
262.127049
 20
302.127215
 30
0.0
 11
460.127225
 21
302.127215
 31
0.0
  0
SPLINE
  5
228
100
AcDbEntity
  8
Layer_1
 62
7
100
AcDbSpline
 70
8
 71
3
 72
8
 73
4
 74
0
 40
0
 40
0
 40
0
 40
0
 40
1
 40
1
 40
1
 40
1
 10
460.127225
 20
302.127215
 30
0.0
 10
461.235227
 20
302.127215
 30
0.0
 10
462.127227
 20
301.235224
 30
0.0
 10
462.127227
 20
300.127219
 30
0.0
  0
LINE
  5
229
100
AcDbEntity
  8
Layer_1
 62
7
100
AcDbLine
 10
462.127227
 20
300.127219
 30
0.0
 11
462.127227
 21
240.127179
 31
0.0
  0
SPLINE
  5
22a
100
AcDbEntity
  8
Layer_1
 62
7
100
AcDbSpline
 70
8
 71
3
 72
8
 73
4
 74
0
 40
0
 40
0
 40
0
 40
0
 40
1
 40
1
 40
1
 40
1
 10
462.127227
 20
240.127179
 30
0.0
 10
462.127227
 20
239.019178
 30
0.0
 10
461.235227
 20
238.127175
 30
0.0
 10
460.127225
 20
238.127175
 30
0.0
  0
LINE
  5
22b
100
AcDbEntity
  8
Layer_1
 62
7
100
AcDbLine
 10
460.127225
 20
238.127175
 30
0.0
 11
262.127049
 21
238.127175
 31
0.0
  0
SPLINE
  5
22c
100
AcDbEntity
  8
Layer_1
 62
7
100
AcDbSpline
 70
8
 71
3
 72
8
 73
4
 74
0
 40
0
 40
0
 40
0
 40
0
 40
1
 40
1
 40
1
 40
1
 10
262.127049
 20
238.127175
 30
0.0
 10
261.019048
 20
238.127175
 30
0.0
 10
260.127047
 20
239.019178
 30
0.0
 10
260.127047
 20
240.127179
 30
0.0
  0
LINE
  5
22d
100
AcDbEntity
  8
Layer_1
 62
7
100
AcDbLine
 10
260.127047
 20
240.127179
 30
0.0
 11
260.127047
 21
240.127179
 31
0.0
  0
SPLINE
  5
22e
100
AcDbEntity
  8
Layer_1
 62
7
100
AcDbSpline
 70
8
 71
3
 72
8
 73
4
 74
0
 40
0
 40
0
 40
0
 40
0
 40
1
 40
1
 40
1
 40
1
 10
290.127074
 20
232.377171
 30
0.0
 10
291.093573
 20
232.377171
 30
0.0
 10
291.877075
 20
231.593669
 30
0.0
 10
291.877075
 20
230.627171
 30
0.0
  0
SPLINE
  5
22f
100
AcDbEntity
  8
Layer_1
 62
7
100
AcDbSpline
 70
8
 71
3
 72
8
 73
4
 74
0
 40
0
 40
0
 40
0
 40
0
 40
1
 40
1
 40
1
 40
1
 10
291.877075
 20
230.627171
 30
0.0
 10
291.877076
 20
230.163041
 30
0.0
 10
291.692701
 20
229.717921
 30
0.0
 10
291.364512
 20
229.389732
 30
0.0
  0
SPLINE
  5
230
100
AcDbEntity
  8
Layer_1
 62
7
100
AcDbSpline
 70
8
 71
3
 72
8
 73
4
 74
0
 40
0
 40
0
 40
0
 40
0
 40
1
 40
1
 40
1
 40
1
 10
291.364512
 20
229.389732
 30
0.0
 10
291.036324
 20
229.061542
 30
0.0
 10
290.591204
 20
228.877167
 30
0.0
 10
290.127074
 20
228.877167
 30
0.0
  0
SPLINE
  5
231
100
AcDbEntity
  8
Layer_1
 62
7
100
AcDbSpline
 70
8
 71
3
 72
8
 73
4
 74
0
 40
0
 40
0
 40
0
 40
0
 40
1
 40
1
 40
1
 40
1
 10
290.127074
 20
228.877167
 30
0.0
 10
289.662944
 20
228.877167
 30
0.0
 10
289.217823
 20
229.061541
 30
0.0
 10
288.889634
 20
229.389731
 30
0.0
  0
SPLINE
  5
232
100
AcDbEntity
  8
Layer_1
 62
7
100
AcDbSpline
 70
8
 71
3
 72
8
 73
4
 74
0
 40
0
 40
0
 40
0
 40
0
 40
1
 40
1
 40
1
 40
1
 10
288.889634
 20
229.389731
 30
0.0
 10
288.561444
 20
229.717920
 30
0.0
 10
288.377070
 20
230.163041
 30
0.0
 10
288.377070
 20
230.627171
 30
0.0
  0
SPLINE
  5
233
100
AcDbEntity
  8
Layer_1
 62
7
100
AcDbSpline
 70
8
 71
3
 72
8
 73
4
 74
0
 40
0
 40
0
 40
0
 40
0
 40
1
 40
1
 40
1
 40
1
 10
288.377070
 20
230.627171
 30
0.0
 10
288.377071
 20
231.091300
 30
0.0
 10
288.561446
 20
231.536420
 30
0.0
 10
288.889635
 20
231.864609
 30
0.0
  0
SPLINE
  5
234
100
AcDbEntity
  8
Layer_1
 62
7
100
AcDbSpline
 70
8
 71
3
 72
8
 73
4
 74
0
 40
0
 40
0
 40
0
 40
0
 40
1
 40
1
 40
1
 40
1
 10
288.889635
 20
231.864609
 30
0.0
 10
289.217824
 20
232.192797
 30
0.0
 10
289.662945
 20
232.377172
 30
0.0
 10
290.127074
 20
232.377171
 30
0.0
  0
LINE
  5
235
100
AcDbEntity
  8
Layer_1
 62
7
100
AcDbLine
 10
290.127074
 20
232.377171
 30
0.0
 11
290.127074
 21
232.377171
 31
0.0
  0
SPLINE
  5
236
100
AcDbEntity
  8
Layer_1
 62
7
100
AcDbSpline
 70
8
 71
3
 72
8
 73
4
 74
0
 40
0
 40
0
 40
0
 40
0
 40
1
 40
1
 40
1
 40
1
 10
360.127139
 20
232.377171
 30
0.0
 10
360.591268
 20
232.377172
 30
0.0
 10
361.036388
 20
232.192797
 30
0.0
 10
361.364578
 20
231.864609
 30
0.0
  0
SPLINE
  5
237
100
AcDbEntity
  8
Layer_1
 62
7
100
AcDbSpline
 70
8
 71
3
 72
8
 73
4
 74
0
 40
0
 40
0
 40
0
 40
0
 40
1
 40
1
 40
1
 40
1
 10
361.364578
 20
231.864609
 30
0.0
 10
361.692767
 20
231.536420
 30
0.0
 10
361.877142
 20
231.091300
 30
0.0
 10
361.877142
 20
230.627171
 30
0.0
  0
SPLINE
  5
238
100
AcDbEntity
  8
Layer_1
 62
7
100
AcDbSpline
 70
8
 71
3
 72
8
 73
4
 74
0
 40
0
 40
0
 40
0
 40
0
 40
1
 40
1
 40
1
 40
1
 10
361.877142
 20
230.627171
 30
0.0
 10
361.877143
 20
230.163041
 30
0.0
 10
361.692768
 20
229.717920
 30
0.0
 10
361.364579
 20
229.389731
 30
0.0
  0
SPLINE
  5
239
100
AcDbEntity
  8
Layer_1
 62
7
100
AcDbSpline
 70
8
 71
3
 72
8
 73
4
 74
0
 40
0
 40
0
 40
0
 40
0
 40
1
 40
1
 40
1
 40
1
 10
361.364579
 20
229.389731
 30
0.0
 10
361.036389
 20
229.061541
 30
0.0
 10
360.591269
 20
228.877167
 30
0.0
 10
360.127139
 20
228.877167
 30
0.0
  0
SPLINE
  5
23a
100
AcDbEntity
  8
Layer_1
 62
7
100
AcDbSpline
 70
8
 71
3
 72
8
 73
4
 74
0
 40
0
 40
0
 40
0
 40
0
 40
1
 40
1
 40
1
 40
1
 10
360.127139
 20
228.877167
 30
0.0
 10
359.663009
 20
228.877167
 30
0.0
 10
359.217889
 20
229.061542
 30
0.0
 10
358.889700
 20
229.389732
 30
0.0
  0
SPLINE
  5
23b
100
AcDbEntity
  8
Layer_1
 62
7
100
AcDbSpline
 70
8
 71
3
 72
8
 73
4
 74
0
 40
0
 40
0
 40
0
 40
0
 40
1
 40
1
 40
1
 40
1
 10
358.889700
 20
229.389732
 30
0.0
 10
358.561511
 20
229.717921
 30
0.0
 10
358.377137
 20
230.163041
 30
0.0
 10
358.377138
 20
230.627171
 30
0.0
  0
SPLINE
  5
23c
100
AcDbEntity
  8
Layer_1
 62
7
100
AcDbSpline
 70
8
 71
3
 72
8
 73
4
 74
0
 40
0
 40
0
 40
0
 40
0
 40
1
 40
1
 40
1
 40
1
 10
358.377138
 20
230.627171
 30
0.0
 10
358.377138
 20
231.593669
 30
0.0
 10
359.160640
 20
232.377171
 30
0.0
 10
360.127139
 20
232.377171
 30
0.0
  0
LINE
  5
23d
100
AcDbEntity
  8
Layer_1
 62
7
100
AcDbLine
 10
360.127139
 20
232.377171
 30
0.0
 11
360.127139
 21
232.377171
 31
0.0
  0
SPLINE
  5
23e
100
AcDbEntity
  8
Layer_1
 62
7
100
AcDbSpline
 70
8
 71
3
 72
8
 73
4
 74
0
 40
0
 40
0
 40
0
 40
0
 40
1
 40
1
 40
1
 40
1
 10
430.127198
 20
232.377171
 30
0.0
 10
431.093696
 20
232.377171
 30
0.0
 10
431.877198
 20
231.593669
 30
0.0
 10
431.877198
 20
230.627171
 30
0.0
  0
SPLINE
  5
23f
100
AcDbEntity
  8
Layer_1
 62
7
100
AcDbSpline
 70
8
 71
3
 72
8
 73
4
 74
0
 40
0
 40
0
 40
0
 40
0
 40
1
 40
1
 40
1
 40
1
 10
431.877198
 20
230.627171
 30
0.0
 10
431.877199
 20
230.163041
 30
0.0
 10
431.692825
 20
229.717921
 30
0.0
 10
431.364636
 20
229.389732
 30
0.0
  0
SPLINE
  5
240
100
AcDbEntity
  8
Layer_1
 62
7
100
AcDbSpline
 70
8
 71
3
 72
8
 73
4
 74
0
 40
0
 40
0
 40
0
 40
0
 40
1
 40
1
 40
1
 40
1
 10
431.364636
 20
229.389732
 30
0.0
 10
431.036447
 20
229.061542
 30
0.0
 10
430.591327
 20
228.877167
 30
0.0
 10
430.127198
 20
228.877167
 30
0.0
  0
SPLINE
  5
241
100
AcDbEntity
  8
Layer_1
 62
7
100
AcDbSpline
 70
8
 71
3
 72
8
 73
4
 74
0
 40
0
 40
0
 40
0
 40
0
 40
1
 40
1
 40
1
 40
1
 10
430.127198
 20
228.877167
 30
0.0
 10
429.663068
 20
228.877167
 30
0.0
 10
429.217948
 20
229.061542
 30
0.0
 10
428.889759
 20
229.389732
 30
0.0
  0
SPLINE
  5
242
100
AcDbEntity
  8
Layer_1
 62
7
100
AcDbSpline
 70
8
 71
3
 72
8
 73
4
 74
0
 40
0
 40
0
 40
0
 40
0
 40
1
 40
1
 40
1
 40
1
 10
428.889759
 20
229.389732
 30
0.0
 10
428.561570
 20
229.717921
 30
0.0
 10
428.377196
 20
230.163041
 30
0.0
 10
428.377197
 20
230.627171
 30
0.0
  0
SPLINE
  5
243
100
AcDbEntity
  8
Layer_1
 62
7
100
AcDbSpline
 70
8
 71
3
 72
8
 73
4
 74
0
 40
0
 40
0
 40
0
 40
0
 40
1
 40
1
 40
1
 40
1
 10
428.377197
 20
230.627171
 30
0.0
 10
428.377197
 20
231.593669
 30
0.0
 10
429.160699
 20
232.377171
 30
0.0
 10
430.127198
 20
232.377171
 30
0.0
  0
LINE
  5
244
100
AcDbEntity
  8
Layer_1
 62
7
100
AcDbLine
 10
430.127198
 20
232.377171
 30
0.0
 11
430.127198
 21
232.377171
 31
0.0
  0
SPLINE
  5
245
100
AcDbEntity
  8
Layer_1
 62
7
100
AcDbSpline
 70
8
 71
3
 72
8
 73
4
 74
0
 40
0
 40
0
 40
0
 40
0
 40
1
 40
1
 40
1
 40
1
 10
430.127198
 20
311.377217
 30
0.0
 10
430.591327
 20
311.377217
 30
0.0
 10
431.036447
 20
311.192842
 30
0.0
 10
431.364636
 20
310.864653
 30
0.0
  0
SPLINE
  5
246
100
AcDbEntity
  8
Layer_1
 62
7
100
AcDbSpline
 70
8
 71
3
 72
8
 73
4
 74
0
 40
0
 40
0
 40
0
 40
0
 40
1
 40
1
 40
1
 40
1
 10
431.364636
 20
310.864653
 30
0.0
 10
431.692825
 20
310.536463
 30
0.0
 10
431.877199
 20
310.091343
 30
0.0
 10
431.877198
 20
309.627214
 30
0.0
  0
SPLINE
  5
247
100
AcDbEntity
  8
Layer_1
 62
7
100
AcDbSpline
 70
8
 71
3
 72
8
 73
4
 74
0
 40
0
 40
0
 40
0
 40
0
 40
1
 40
1
 40
1
 40
1
 10
431.877198
 20
309.627214
 30
0.0
 10
431.877199
 20
309.163084
 30
0.0
 10
431.692825
 20
308.717964
 30
0.0
 10
431.364636
 20
308.389775
 30
0.0
  0
SPLINE
  5
248
100
AcDbEntity
  8
Layer_1
 62
7
100
AcDbSpline
 70
8
 71
3
 72
8
 73
4
 74
0
 40
0
 40
0
 40
0
 40
0
 40
1
 40
1
 40
1
 40
1
 10
431.364636
 20
308.389775
 30
0.0
 10
431.036447
 20
308.061586
 30
0.0
 10
430.591327
 20
307.877211
 30
0.0
 10
430.127198
 20
307.877210
 30
0.0
  0
SPLINE
  5
249
100
AcDbEntity
  8
Layer_1
 62
7
100
AcDbSpline
 70
8
 71
3
 72
8
 73
4
 74
0
 40
0
 40
0
 40
0
 40
0
 40
1
 40
1
 40
1
 40
1
 10
430.127198
 20
307.877210
 30
0.0
 10
429.663068
 20
307.877211
 30
0.0
 10
429.217948
 20
308.061586
 30
0.0
 10
428.889759
 20
308.389775
 30
0.0
  0
SPLINE
  5
24a
100
AcDbEntity
  8
Layer_1
 62
7
100
AcDbSpline
 70
8
 71
3
 72
8
 73
4
 74
0
 40
0
 40
0
 40
0
 40
0
 40
1
 40
1
 40
1
 40
1
 10
428.889759
 20
308.389775
 30
0.0
 10
428.561570
 20
308.717964
 30
0.0
 10
428.377196
 20
309.163084
 30
0.0
 10
428.377197
 20
309.627214
 30
0.0
  0
SPLINE
  5
24b
100
AcDbEntity
  8
Layer_1
 62
7
100
AcDbSpline
 70
8
 71
3
 72
8
 73
4
 74
0
 40
0
 40
0
 40
0
 40
0
 40
1
 40
1
 40
1
 40
1
 10
428.377197
 20
309.627214
 30
0.0
 10
428.377196
 20
310.091343
 30
0.0
 10
428.561570
 20
310.536463
 30
0.0
 10
428.889759
 20
310.864653
 30
0.0
  0
SPLINE
  5
24c
100
AcDbEntity
  8
Layer_1
 62
7
100
AcDbSpline
 70
8
 71
3
 72
8
 73
4
 74
0
 40
0
 40
0
 40
0
 40
0
 40
1
 40
1
 40
1
 40
1
 10
428.889759
 20
310.864653
 30
0.0
 10
429.217948
 20
311.192842
 30
0.0
 10
429.663068
 20
311.377217
 30
0.0
 10
430.127198
 20
311.377217
 30
0.0
  0
LINE
  5
24d
100
AcDbEntity
  8
Layer_1
 62
7
100
AcDbLine
 10
430.127198
 20
311.377217
 30
0.0
 11
430.127198
 21
311.377217
 31
0.0
  0
SPLINE
  5
24e
100
AcDbEntity
  8
Layer_1
 62
7
100
AcDbSpline
 70
8
 71
3
 72
8
 73
4
 74
0
 40
0
 40
0
 40
0
 40
0
 40
1
 40
1
 40
1
 40
1
 10
360.127139
 20
311.377217
 30
0.0
 10
360.591269
 20
311.377218
 30
0.0
 10
361.036389
 20
311.192843
 30
0.0
 10
361.364579
 20
310.864654
 30
0.0
  0
SPLINE
  5
24f
100
AcDbEntity
  8
Layer_1
 62
7
100
AcDbSpline
 70
8
 71
3
 72
8
 73
4
 74
0
 40
0
 40
0
 40
0
 40
0
 40
1
 40
1
 40
1
 40
1
 10
361.364579
 20
310.864654
 30
0.0
 10
361.692768
 20
310.536464
 30
0.0
 10
361.877143
 20
310.091344
 30
0.0
 10
361.877142
 20
309.627214
 30
0.0
  0
SPLINE
  5
250
100
AcDbEntity
  8
Layer_1
 62
7
100
AcDbSpline
 70
8
 71
3
 72
8
 73
4
 74
0
 40
0
 40
0
 40
0
 40
0
 40
1
 40
1
 40
1
 40
1
 10
361.877142
 20
309.627214
 30
0.0
 10
361.877143
 20
309.163084
 30
0.0
 10
361.692768
 20
308.717963
 30
0.0
 10
361.364579
 20
308.389774
 30
0.0
  0
SPLINE
  5
251
100
AcDbEntity
  8
Layer_1
 62
7
100
AcDbSpline
 70
8
 71
3
 72
8
 73
4
 74
0
 40
0
 40
0
 40
0
 40
0
 40
1
 40
1
 40
1
 40
1
 10
361.364579
 20
308.389774
 30
0.0
 10
361.036389
 20
308.061584
 30
0.0
 10
360.591269
 20
307.877210
 30
0.0
 10
360.127139
 20
307.877210
 30
0.0
  0
SPLINE
  5
252
100
AcDbEntity
  8
Layer_1
 62
7
100
AcDbSpline
 70
8
 71
3
 72
8
 73
4
 74
0
 40
0
 40
0
 40
0
 40
0
 40
1
 40
1
 40
1
 40
1
 10
360.127139
 20
307.877210
 30
0.0
 10
359.663009
 20
307.877211
 30
0.0
 10
359.217889
 20
308.061586
 30
0.0
 10
358.889700
 20
308.389775
 30
0.0
  0
SPLINE
  5
253
100
AcDbEntity
  8
Layer_1
 62
7
100
AcDbSpline
 70
8
 71
3
 72
8
 73
4
 74
0
 40
0
 40
0
 40
0
 40
0
 40
1
 40
1
 40
1
 40
1
 10
358.889700
 20
308.389775
 30
0.0
 10
358.561511
 20
308.717964
 30
0.0
 10
358.377137
 20
309.163084
 30
0.0
 10
358.377138
 20
309.627214
 30
0.0
  0
SPLINE
  5
254
100
AcDbEntity
  8
Layer_1
 62
7
100
AcDbSpline
 70
8
 71
3
 72
8
 73
4
 74
0
 40
0
 40
0
 40
0
 40
0
 40
1
 40
1
 40
1
 40
1
 10
358.377138
 20
309.627214
 30
0.0
 10
358.377137
 20
310.091343
 30
0.0
 10
358.561511
 20
310.536463
 30
0.0
 10
358.889700
 20
310.864653
 30
0.0
  0
SPLINE
  5
255
100
AcDbEntity
  8
Layer_1
 62
7
100
AcDbSpline
 70
8
 71
3
 72
8
 73
4
 74
0
 40
0
 40
0
 40
0
 40
0
 40
1
 40
1
 40
1
 40
1
 10
358.889700
 20
310.864653
 30
0.0
 10
359.217889
 20
311.192842
 30
0.0
 10
359.663009
 20
311.377217
 30
0.0
 10
360.127139
 20
311.377217
 30
0.0
  0
LINE
  5
256
100
AcDbEntity
  8
Layer_1
 62
7
100
AcDbLine
 10
360.127139
 20
311.377217
 30
0.0
 11
360.127139
 21
311.377217
 31
0.0
  0
SPLINE
  5
257
100
AcDbEntity
  8
Layer_1
 62
7
100
AcDbSpline
 70
8
 71
3
 72
8
 73
4
 74
0
 40
0
 40
0
 40
0
 40
0
 40
1
 40
1
 40
1
 40
1
 10
290.127074
 20
311.377217
 30
0.0
 10
290.591204
 20
311.377217
 30
0.0
 10
291.036324
 20
311.192842
 30
0.0
 10
291.364512
 20
310.864653
 30
0.0
  0
SPLINE
  5
258
100
AcDbEntity
  8
Layer_1
 62
7
100
AcDbSpline
 70
8
 71
3
 72
8
 73
4
 74
0
 40
0
 40
0
 40
0
 40
0
 40
1
 40
1
 40
1
 40
1
 10
291.364512
 20
310.864653
 30
0.0
 10
291.692701
 20
310.536463
 30
0.0
 10
291.877076
 20
310.091343
 30
0.0
 10
291.877075
 20
309.627214
 30
0.0
  0
SPLINE
  5
259
100
AcDbEntity
  8
Layer_1
 62
7
100
AcDbSpline
 70
8
 71
3
 72
8
 73
4
 74
0
 40
0
 40
0
 40
0
 40
0
 40
1
 40
1
 40
1
 40
1
 10
291.877075
 20
309.627214
 30
0.0
 10
291.877076
 20
309.163084
 30
0.0
 10
291.692701
 20
308.717964
 30
0.0
 10
291.364512
 20
308.389775
 30
0.0
  0
SPLINE
  5
25a
100
AcDbEntity
  8
Layer_1
 62
7
100
AcDbSpline
 70
8
 71
3
 72
8
 73
4
 74
0
 40
0
 40
0
 40
0
 40
0
 40
1
 40
1
 40
1
 40
1
 10
291.364512
 20
308.389775
 30
0.0
 10
291.036324
 20
308.061586
 30
0.0
 10
290.591204
 20
307.877211
 30
0.0
 10
290.127074
 20
307.877210
 30
0.0
  0
SPLINE
  5
25b
100
AcDbEntity
  8
Layer_1
 62
7
100
AcDbSpline
 70
8
 71
3
 72
8
 73
4
 74
0
 40
0
 40
0
 40
0
 40
0
 40
1
 40
1
 40
1
 40
1
 10
290.127074
 20
307.877210
 30
0.0
 10
289.662944
 20
307.877210
 30
0.0
 10
289.217823
 20
308.061584
 30
0.0
 10
288.889634
 20
308.389774
 30
0.0
  0
SPLINE
  5
25c
100
AcDbEntity
  8
Layer_1
 62
7
100
AcDbSpline
 70
8
 71
3
 72
8
 73
4
 74
0
 40
0
 40
0
 40
0
 40
0
 40
1
 40
1
 40
1
 40
1
 10
288.889634
 20
308.389774
 30
0.0
 10
288.561444
 20
308.717963
 30
0.0
 10
288.377070
 20
309.163084
 30
0.0
 10
288.377070
 20
309.627214
 30
0.0
  0
SPLINE
  5
25d
100
AcDbEntity
  8
Layer_1
 62
7
100
AcDbSpline
 70
8
 71
3
 72
8
 73
4
 74
0
 40
0
 40
0
 40
0
 40
0
 40
1
 40
1
 40
1
 40
1
 10
288.377070
 20
309.627214
 30
0.0
 10
288.377070
 20
310.091344
 30
0.0
 10
288.561444
 20
310.536464
 30
0.0
 10
288.889634
 20
310.864654
 30
0.0
  0
SPLINE
  5
25e
100
AcDbEntity
  8
Layer_1
 62
7
100
AcDbSpline
 70
8
 71
3
 72
8
 73
4
 74
0
 40
0
 40
0
 40
0
 40
0
 40
1
 40
1
 40
1
 40
1
 10
288.889634
 20
310.864654
 30
0.0
 10
289.217823
 20
311.192843
 30
0.0
 10
289.662944
 20
311.377218
 30
0.0
 10
290.127074
 20
311.377217
 30
0.0
  0
LINE
  5
25f
100
AcDbEntity
  8
Layer_1
 62
7
100
AcDbLine
 10
290.127074
 20
311.377217
 30
0.0
 11
290.127074
 21
311.377217
 31
0.0
  0
LINE
  5
260
100
AcDbEntity
  8
Layer_1
 62
7
100
AcDbLine
 10
440.127210
 20
22.127008
 30
0.0
 11
440.127210
 21
38.127021
 31
0.0
  0
SPLINE
  5
261
100
AcDbEntity
  8
Layer_1
 62
7
100
AcDbSpline
 70
8
 71
3
 72
8
 73
4
 74
0
 40
0
 40
0
 40
0
 40
0
 40
1
 40
1
 40
1
 40
1
 10
440.127210
 20
38.127021
 30
0.0
 10
440.127210
 20
39.235021
 30
0.0
 10
441.019210
 20
40.127021
 30
0.0
 10
442.127211
 20
40.127021
 30
0.0
  0
LINE
  5
262
100
AcDbEntity
  8
Layer_1
 62
7
100
AcDbLine
 10
442.127211
 20
40.127021
 30
0.0
 11
450.127219
 21
40.127021
 31
0.0
  0
SPLINE
  5
263
100
AcDbEntity
  8
Layer_1
 62
7
100
AcDbSpline
 70
8
 71
3
 72
8
 73
4
 74
0
 40
0
 40
0
 40
0
 40
0
 40
1
 40
1
 40
1
 40
1
 10
450.127219
 20
40.127021
 30
0.0
 10
451.235218
 20
40.127021
 30
0.0
 10
452.127221
 20
39.235021
 30
0.0
 10
452.127221
 20
38.127021
 30
0.0
  0
LINE
  5
264
100
AcDbEntity
  8
Layer_1
 62
7
100
AcDbLine
 10
452.127221
 20
38.127021
 30
0.0
 11
452.127221
 21
22.127008
 31
0.0
  0
SPLINE
  5
265
100
AcDbEntity
  8
Layer_1
 62
7
100
AcDbSpline
 70
8
 71
3
 72
8
 73
4
 74
0
 40
0
 40
0
 40
0
 40
0
 40
1
 40
1
 40
1
 40
1
 10
452.127221
 20
22.127008
 30
0.0
 10
452.127221
 20
21.019007
 30
0.0
 10
451.235218
 20
20.127006
 30
0.0
 10
450.127219
 20
20.127006
 30
0.0
  0
LINE
  5
266
100
AcDbEntity
  8
Layer_1
 62
7
100
AcDbLine
 10
450.127219
 20
20.127006
 30
0.0
 11
442.127211
 21
20.127006
 31
0.0
  0
SPLINE
  5
267
100
AcDbEntity
  8
Layer_1
 62
7
100
AcDbSpline
 70
8
 71
3
 72
8
 73
4
 74
0
 40
0
 40
0
 40
0
 40
0
 40
1
 40
1
 40
1
 40
1
 10
442.127211
 20
20.127006
 30
0.0
 10
441.019210
 20
20.127006
 30
0.0
 10
440.127210
 20
21.019007
 30
0.0
 10
440.127210
 20
22.127008
 30
0.0
  0
LINE
  5
268
100
AcDbEntity
  8
Layer_1
 62
7
100
AcDbLine
 10
440.127210
 20
22.127008
 30
0.0
 11
440.127210
 21
22.127008
 31
0.0
  0
ENDSEC
  0
SECTION
  2
OBJECTS
  0
DICTIONARY
  5
C
330
0
100
AcDbDictionary
  3
ACAD_GROUP
350
D
  3
ACAD_MLINESTYLE
350
17
  0
DICTIONARY
  5
D
330
C
100
AcDbDictionary
  0
DICTIONARY
  5
1A
330
C
100
AcDbDictionary
  0
DICTIONARY
  5
17
330
C
100
AcDbDictionary
  3
STANDARD
350
18
  0
DICTIONARY
  5
19
330
C
100
AcDbDictionary
  0
ENDSEC
  0
EOF
