<?xml version="1.0" encoding="UTF-8" standalone="no"?>
<!-- Created with Inkscape (http://www.inkscape.org/) -->

<svg
   xmlns:dc="http://purl.org/dc/elements/1.1/"
   xmlns:cc="http://creativecommons.org/ns#"
   xmlns:rdf="http://www.w3.org/1999/02/22-rdf-syntax-ns#"
   xmlns:svg="http://www.w3.org/2000/svg"
   xmlns="http://www.w3.org/2000/svg"
   xmlns:sodipodi="http://sodipodi.sourceforge.net/DTD/sodipodi-0.dtd"
   xmlns:inkscape="http://www.inkscape.org/namespaces/inkscape"
   width="600mm"
   height="400mm"
   viewBox="0 0 2125.9844 1417.3228"
   id="svg7639"
   version="1.1"
   inkscape:version="0.91 r13725"
   sodipodi:docname="BackAndFront-600x400.svg">
  <defs
     id="defs7641" />
  <sodipodi:namedview
     id="base"
     pagecolor="#ffffff"
     bordercolor="#666666"
     borderopacity="1.0"
     inkscape:pageopacity="0.0"
     inkscape:pageshadow="2"
     inkscape:zoom="0.7"
     inkscape:cx="1091.4439"
     inkscape:cy="758.87882"
     inkscape:document-units="mm"
     inkscape:current-layer="layer1"
     showgrid="true"
     inkscape:window-width="2560"
     inkscape:window-height="1335"
     inkscape:window-x="1912"
     inkscape:window-y="-8"
     inkscape:window-maximized="1">
    <inkscape:grid
       type="xygrid"
       id="grid8187" />
  </sodipodi:namedview>
  <metadata
     id="metadata7644">
    <rdf:RDF>
      <cc:Work
         rdf:about="">
        <dc:format>image/svg+xml</dc:format>
        <dc:type
           rdf:resource="http://purl.org/dc/dcmitype/StillImage" />
        <dc:title />
      </cc:Work>
    </rdf:RDF>
  </metadata>
  <g
     inkscape:label="Layer 1"
     inkscape:groupmode="layer"
     id="layer1"
     transform="translate(0,364.96067)">
    <g
       id="g8279"
       transform="matrix(0,-0.99999994,1.0000001,0,35.883076,1016.4791)">
      <path
         style="fill:none;stroke:#000000;stroke-width:0.90000075"
         d="m 384.44914,0 53.14965,0 0,10.62993 53.14964,0 0,-10.62993 53.14966,0 0,10.62993 53.14964,0 0,-10.62993 53.14966,0 0,10.62993 53.14965,0 0,-10.62993 53.14965,0 0,10.62993 53.14965,0 0,-10.62993 53.14965,0 0,10.62993 53.14965,0 0,-10.62993 53.14965,0 0,10.62993 85.92531,0 0,-10.62993 85.9252,0 0,75.295338 -10.6299,0 0,75.295342 10.6299,0 0,53.14965 -10.6299,0 0,53.14964 10.6299,0 0,53.14966 -10.6299,0 0,53.14965 10.6299,0 0,53.14965 -10.6299,0 0,53.14964 10.6299,0 0,53.14966 -10.6299,0 0,53.14964 10.6299,0 0,53.14966 -10.6299,0 0,75.29533 10.6299,0 0,75.29534 -85.9252,0 0,-10.62993 -85.92531,0 0,10.62993 -53.14965,0 0,-10.62993 -53.14965,0 0,10.62993 -53.14965,0 0,-10.62993 -53.14965,0 0,10.62993 -53.14965,0 0,-10.62993 -53.14965,0 0,10.62993 -53.14966,0 0,-10.62993 -53.14964,0 0,10.62993 -53.14966,0 0,-10.62993 -53.14964,0 0,10.62993 -53.14965,0 0,-10.62993 -53.14965,0 0,10.62993 -53.14966,0 0,-10.62993 -53.14964,0 0,10.62993 -53.14965,0 0,-10.62993 -85.925272,0 0,10.62993 -85.925268,0 0,-75.29534 10.62993,0 0,-75.29533 -10.62993,0 0,-53.14966 10.62993,0 0,-53.14964 -10.62993,0 0,-53.14966 10.62993,0 0,-53.14964 -10.62993,0 0,-53.14965 10.62993,0 0,-53.14965 -10.62993,0 0,-53.14966 10.62993,0 0,-53.14964 -10.62993,0 0,-53.14965 10.62993,0 0,-75.295342 L 0,75.295338 0,0 l 85.925268,0 0,10.62993 85.925272,0 0,-10.62993 53.14965,0 0,10.62993 53.14964,0 0,-10.62993 53.14966,0 0,10.62993 53.14965,0 z"
         id="polygon8281" />
      <path
         style="fill:none;stroke:#000000;stroke-width:0.90000075"
         d="m 806.42195,76.46463 a 7.0866199,7.0866199 0 0 1 -7.08662,7.08662 7.0866199,7.0866199 0 0 1 -7.08662,-7.08662 7.0866199,7.0866199 0 0 1 7.08662,-7.08662 7.0866199,7.0866199 0 0 1 7.08662,7.08662 z"
         id="circle8283" />
      <path
         style="fill:none;stroke:#000000;stroke-width:0.90000075"
         d="m 806.42195,309.08292 a 7.0866199,7.0866199 0 0 1 -7.08662,7.08662 7.0866199,7.0866199 0 0 1 -7.08662,-7.08662 7.0866199,7.0866199 0 0 1 7.08662,-7.08662 7.0866199,7.0866199 0 0 1 7.08662,7.08662 z"
         id="circle8285" />
      <path
         style="fill:none;stroke:#000000;stroke-width:0.90000075"
         d="m 359.25621,76.46463 a 7.0866199,7.0866199 0 0 1 -7.08662,7.08662 7.0866199,7.0866199 0 0 1 -7.08662,-7.08662 7.0866199,7.0866199 0 0 1 7.08662,-7.08662 7.0866199,7.0866199 0 0 1 7.08662,7.08662 z"
         id="circle8287" />
      <path
         style="fill:none;stroke:#000000;stroke-width:0.90000075"
         d="m 359.25621,309.08292 a 7.0866199,7.0866199 0 0 1 -7.08662,7.08662 7.0866199,7.0866199 0 0 1 -7.08662,-7.08662 7.0866199,7.0866199 0 0 1 7.08662,-7.08662 7.0866199,7.0866199 0 0 1 7.08662,7.08662 z"
         id="circle8289" />
      <path
         style="fill:none;stroke:#000000;stroke-width:0.90000075"
         d="m 469.0988,41.031528 248.74036,0 c 5.88898,0 10.62993,4.740949 10.62993,10.629929 l 0,310.571133 c 0,5.88898 -4.74095,10.62993 -10.62993,10.62993 l -248.74036,0 c -5.88898,0 -10.62993,-4.74095 -10.62993,-10.62993 l 0,-310.571133 c 0,-5.88898 4.74095,-10.629929 10.62993,-10.629929 z"
         id="rect8291" />
    </g>
    <text
       xml:space="preserve"
       style="font-style:normal;font-weight:normal;font-size:40px;line-height:125%;font-family:Sans;letter-spacing:0px;word-spacing:0px;fill:#000000;fill-opacity:1;stroke:none;stroke-width:1px;stroke-linecap:butt;stroke-linejoin:miter;stroke-opacity:1"
       x="1707.3146"
       y="-448.25931"
       id="text8695"
       sodipodi:linespacing="125%"><tspan
         sodipodi:role="line"
         id="tspan8697"
         x="1707.3146"
         y="-448.25931">Add cut outs for display here...</tspan></text>
    <text
       xml:space="preserve"
       style="font-style:normal;font-weight:normal;font-size:40px;line-height:125%;font-family:Sans;letter-spacing:0px;word-spacing:0px;fill:#000000;fill-opacity:1;stroke:none;stroke-width:1px;stroke-linecap:butt;stroke-linejoin:miter;stroke-opacity:1"
       x="372.04724"
       y="-471.25995"
       id="text8699"
       sodipodi:linespacing="125%"><tspan
         sodipodi:role="line"
         id="tspan8701"
         x="372.04724"
         y="-471.25995">If you already have top/bottom/sides from V1.1 case this </tspan><tspan
         sodipodi:role="line"
         x="372.04724"
         y="-421.25995"
         id="tspan8703">gives you the extras needed for the V1.2</tspan></text>
    <g
       id="g5392"
       transform="matrix(0,-0.99999994,1.0000001,0,850.8438,1016.4791)">
      <path
         style="fill:none;stroke:#000000;stroke-width:0.90000075"
         d="m 437.59879,0 0,10.62993 53.14964,0 0,-10.62993 53.14966,0 0,10.62993 53.14964,0 0,-10.62993 53.14966,0 0,10.62993 53.14965,0 0,-10.62993 53.14965,0 0,10.62993 53.14965,0 0,-10.62993 53.14965,0 0,10.62993 53.14965,0 0,-10.62993 53.14965,0 0,10.62993 85.92531,0 0,-10.62993 85.9252,0 0,75.295338 -10.6299,0 0,75.295342 10.6299,0 0,53.14965 -10.6299,0 0,53.14964 10.6299,0 0,53.14966 -10.6299,0 0,53.14965 10.6299,0 0,53.14965 -10.6299,0 0,53.14964 10.6299,0 0,53.14966 -10.6299,0 0,53.14964 10.6299,0 0,53.14966 -10.6299,0 0,75.29533 10.6299,0 0,75.29534 -85.9252,0 0,-10.62993 -85.92531,0 0,10.62993 -53.14965,0 0,-10.62993 -53.14965,0 0,10.62993 -53.14965,0 0,-10.62993 -53.14965,0 0,10.62993 -53.14965,0 0,-10.62993 -53.14965,0 0,10.62993 -53.14966,0 0,-10.62993 -53.14964,0 0,10.62993 -53.14966,0 0,-10.62993 -53.14964,0 0,10.62993 -53.14965,0 0,-10.62993 -53.14965,0 0,10.62993 -53.14966,0 0,-10.62993 -53.14964,0 0,10.62993 -53.14965,0 0,-10.62993 -85.925272,0 0,10.62993 -85.925268,0 0,-75.29534 10.62993,0 0,-75.29533 -10.62993,0 0,-53.14966 10.62993,0 0,-53.14964 -10.62993,0 0,-53.14966 10.62993,0 0,-53.14964 -10.62993,0 0,-53.14965 10.62993,0 0,-53.14965 -10.62993,0 0,-53.14966 10.62993,0 0,-53.14964 -10.62993,0 0,-53.14965 10.62993,0 0,-75.295342 L 0,75.295338 0,0 l 85.925268,0 0,10.62993 85.925272,0 0,-10.62993 53.14965,0 0,10.62993 53.14964,0 0,-10.62993 53.14966,0 0,10.62993 53.14965,0 0,-10.62993 z"
         id="polygon5394" />
      <path
         style="fill:none;stroke:#000000;stroke-width:0.90000075"
         d="m 814.96132,70.866203 212.59858,0 c 3.926,0 7.0866,3.160633 7.0866,7.08662 l 0,701.575357 c 0,3.92599 -3.1606,7.08662 -7.0866,7.08662 l -212.59858,0 c -3.92599,0 -7.08663,-3.16063 -7.08663,-7.08662 l 0,-701.575357 c 0,-3.925987 3.16064,-7.08662 7.08663,-7.08662 z"
         id="rect5396" />
      <path
         style="fill:none;stroke:#000000;stroke-width:0.90000075"
         d="m 787.50066,177.1655 a 6.2007923,6.2007923 0 0 1 -6.20079,6.20079 6.2007923,6.2007923 0 0 1 -6.2008,-6.20079 6.2007923,6.2007923 0 0 1 6.2008,-6.2008 6.2007923,6.2007923 0 0 1 6.20079,6.2008 z"
         id="circle5398" />
      <path
         style="fill:none;stroke:#000000;stroke-width:0.90000075"
         d="m 787.50066,425.1972 a 6.2007923,6.2007923 0 0 1 -6.20079,6.2008 6.2007923,6.2007923 0 0 1 -6.2008,-6.2008 6.2007923,6.2007923 0 0 1 6.2008,-6.20079 6.2007923,6.2007923 0 0 1 6.20079,6.20079 z"
         id="circle5400" />
      <path
         style="fill:none;stroke:#000000;stroke-width:0.90000075"
         d="m 787.50066,673.22888 a 6.2007923,6.2007923 0 0 1 -6.20079,6.20079 6.2007923,6.2007923 0 0 1 -6.2008,-6.20079 6.2007923,6.2007923 0 0 1 6.2008,-6.20079 6.2007923,6.2007923 0 0 1 6.20079,6.20079 z"
         id="circle5402" />
      <path
         style="fill:none;stroke:#000000;stroke-width:0.90000075"
         d="m 1067.4221,673.22888 a 6.2007923,6.2007923 0 0 1 -6.2008,6.20079 6.2007923,6.2007923 0 0 1 -6.2008,-6.20079 6.2007923,6.2007923 0 0 1 6.2008,-6.20079 6.2007923,6.2007923 0 0 1 6.2008,6.20079 z"
         id="circle5404" />
      <path
         style="fill:none;stroke:#000000;stroke-width:0.90000075"
         d="m 1067.4221,425.1972 a 6.2007923,6.2007923 0 0 1 -6.2008,6.2008 6.2007923,6.2007923 0 0 1 -6.2008,-6.2008 6.2007923,6.2007923 0 0 1 6.2008,-6.20079 6.2007923,6.2007923 0 0 1 6.2008,6.20079 z"
         id="circle5406" />
      <path
         style="fill:none;stroke:#000000;stroke-width:0.90000075"
         d="m 1067.4221,177.1655 a 6.2007923,6.2007923 0 0 1 -6.2008,6.20079 6.2007923,6.2007923 0 0 1 -6.2008,-6.20079 6.2007923,6.2007923 0 0 1 6.2008,-6.2008 6.2007923,6.2007923 0 0 1 6.2008,6.2008 z"
         id="circle5408" />
      <path
         style="fill:none;stroke:#000000;stroke-width:0.90000075"
         d="m 42.519722,708.66199 56.692963,0 c 3.925985,0 7.086615,3.16063 7.086615,7.08662 l 0,28.34648 c 0,3.92598 -3.16063,7.08662 -7.086615,7.08662 l -56.692963,0 c -3.925988,0 -7.08662,-3.16064 -7.08662,-7.08662 l 0,-28.34648 c 0,-3.92599 3.160632,-7.08662 7.08662,-7.08662 z"
         id="rect5410" />
    </g>
  </g>
</svg>
