<svg xmlns="http://www.w3.org/2000/svg" version="1.1" width="991.7mm" height="567.7mm" viewBox = " 0 0 3513.9005270000002 2011.5370870000002" >
<!-- Front--> 
<g transform="translate(22.5000185, 22.5000185) " > 
<polygon style="stroke:#000000; fill:none; stroke-width:0.90000074" points="0, 0 85.9252675, 0 85.9252675, 10.62993 171.850535, 10.62993 171.850535, 0 225.00018500000002, 0 225.00018500000002, 10.62993 278.149835, 10.62993 278.149835, 0 331.299485, 0 331.299485, 10.62993 384.449135, 10.62993 384.449135, 0 437.598785, 0 437.598785, 10.62993 490.748435, 10.62993 490.748435, 0 543.898085, 0 543.898085, 10.62993 597.047735, 10.62993 597.047735, 0 650.197385, 0 650.197385, 10.62993 703.347035, 10.62993 703.347035, 0 756.4966850000001, 0 756.4966850000001, 10.62993 809.646335, 10.62993 809.646335, 0 862.7959850000001, 0 862.7959850000001, 10.62993 915.945635, 10.62993 915.945635, 0 969.0952850000001, 0 969.0952850000001, 10.62993 1055.0205525000001, 10.62993 1055.0205525000001, 0 1140.94582, 0 1140.94582, 75.2953375 1130.3158899999999, 75.2953375 1130.3158899999999, 150.590675 1140.94582, 150.590675 1140.94582, 203.740325 1130.3158899999999, 203.740325 1130.3158899999999, 256.889975 1140.94582, 256.889975 1140.94582, 310.039625 1130.3158899999999, 310.039625 1130.3158899999999, 363.189275 1140.94582, 363.189275 1140.94582, 416.338925 1130.3158899999999, 416.338925 1130.3158899999999, 469.48857499999997 1140.94582, 469.48857499999997 1140.94582, 522.638225 1130.3158899999999, 522.638225 1130.3158899999999, 575.787875 1140.94582, 575.787875 1140.94582, 628.937525 1130.3158899999999, 628.937525 1130.3158899999999, 704.2328625 1140.94582, 704.2328625 1140.9458200000001, 779.5282 1055.0205525000001, 779.5282 1055.0205525000001, 768.89827 969.0952850000001, 768.89827 969.0952850000001, 779.5282 915.945635, 779.5282 915.945635, 768.89827 862.7959850000001, 768.89827 862.7959850000001, 779.5282 809.646335, 779.5282 809.646335, 768.89827 756.4966850000001, 768.89827 756.4966850000001, 779.5282 703.347035, 779.5282 703.347035, 768.89827 650.197385, 768.89827 650.197385, 779.5282 597.047735, 779.5282 597.047735, 768.89827 543.898085, 768.89827 543.898085, 779.5282 490.748435, 779.5282 490.748435, 768.89827 437.598785, 768.89827 437.598785, 779.5282 384.449135, 779.5282 384.449135, 768.89827 331.299485, 768.89827 331.299485, 779.5282 278.149835, 779.5282 278.149835, 768.89827 225.00018500000002, 768.89827 225.00018500000002, 779.5282 171.850535, 779.5282 171.850535, 768.89827 85.9252675, 768.89827 85.9252675, 779.5282 0, 779.5282 0, 704.2328625 10.62993, 704.2328625 10.62993, 628.937525 0, 628.937525 0, 575.787875 10.62993, 575.787875 10.62993, 522.638225 0, 522.638225 0, 469.48857499999997 10.62993, 469.48857499999997 10.62993, 416.338925 0, 416.338925 0, 363.189275 10.62993, 363.189275 10.62993, 310.039625 0, 310.039625 0, 256.889975 10.62993, 256.889975 10.62993, 203.740325 0, 203.740325 0, 150.590675 10.62993, 150.590675 10.62993, 75.2953375 0, 75.2953375 "/> 
 <circle cx="799.3353029" cy="76.4646298" r="7.08662" style="stroke:#000000;stroke-width:0.90000074;fill:none" /> 
 <circle cx="799.3353029" cy="309.0829313" r="7.08662" style="stroke:#000000;stroke-width:0.90000074;fill:none" /> 
 <circle cx="352.16958089999997" cy="76.4646298" r="7.08662" style="stroke:#000000;stroke-width:0.90000074;fill:none" /> 
 <circle cx="352.16958089999997" cy="309.0829313" r="7.08662" style="stroke:#000000;stroke-width:0.90000074;fill:none" /> 
 <rect x="458.46888089999993" y="41.0315298" width="270.000222" height="331.8309815" rx="10.62993" ry="10.62993" style="stroke:#000000;stroke-width:0.90000074;fill:none" /> 
</g>
<!-- Back--> 
<g transform="translate(1163.4458385, 22.5000185) " > 
<polygon style="stroke:#000000; fill:none; stroke-width:0.90000074" points="0, 0 85.9252675, 0 85.9252675, 10.62993 171.850535, 10.62993 171.850535, 0 225.00018500000002, 0 225.00018500000002, 10.62993 278.149835, 10.62993 278.149835, 0 331.299485, 0 331.299485, 10.62993 384.449135, 10.62993 384.449135, 0 437.598785, 0 437.598785, 10.62993 490.748435, 10.62993 490.748435, 0 543.898085, 0 543.898085, 10.62993 597.047735, 10.62993 597.047735, 0 650.197385, 0 650.197385, 10.62993 703.347035, 10.62993 703.347035, 0 756.4966850000001, 0 756.4966850000001, 10.62993 809.646335, 10.62993 809.646335, 0 862.7959850000001, 0 862.7959850000001, 10.62993 915.945635, 10.62993 915.945635, 0 969.0952850000001, 0 969.0952850000001, 10.62993 1055.0205525000001, 10.62993 1055.0205525000001, 0 1140.94582, 0 1140.94582, 75.2953375 1130.3158899999999, 75.2953375 1130.3158899999999, 150.590675 1140.94582, 150.590675 1140.94582, 203.740325 1130.3158899999999, 203.740325 1130.3158899999999, 256.889975 1140.94582, 256.889975 1140.94582, 310.039625 1130.3158899999999, 310.039625 1130.3158899999999, 363.189275 1140.94582, 363.189275 1140.94582, 416.338925 1130.3158899999999, 416.338925 1130.3158899999999, 469.48857499999997 1140.94582, 469.48857499999997 1140.94582, 522.638225 1130.3158899999999, 522.638225 1130.3158899999999, 575.787875 1140.94582, 575.787875 1140.94582, 628.937525 1130.3158899999999, 628.937525 1130.3158899999999, 704.2328625 1140.94582, 704.2328625 1140.9458200000001, 779.5282 1055.0205525000001, 779.5282 1055.0205525000001, 768.89827 969.0952850000001, 768.89827 969.0952850000001, 779.5282 915.945635, 779.5282 915.945635, 768.89827 862.7959850000001, 768.89827 862.7959850000001, 779.5282 809.646335, 779.5282 809.646335, 768.89827 756.4966850000001, 768.89827 756.4966850000001, 779.5282 703.347035, 779.5282 703.347035, 768.89827 650.197385, 768.89827 650.197385, 779.5282 597.047735, 779.5282 597.047735, 768.89827 543.898085, 768.89827 543.898085, 779.5282 490.748435, 779.5282 490.748435, 768.89827 437.598785, 768.89827 437.598785, 779.5282 384.449135, 779.5282 384.449135, 768.89827 331.299485, 768.89827 331.299485, 779.5282 278.149835, 779.5282 278.149835, 768.89827 225.00018500000002, 768.89827 225.00018500000002, 779.5282 171.850535, 779.5282 171.850535, 768.89827 85.9252675, 768.89827 85.9252675, 779.5282 0, 779.5282 0, 704.2328625 10.62993, 704.2328625 10.62993, 628.937525 0, 628.937525 0, 575.787875 10.62993, 575.787875 10.62993, 522.638225 0, 522.638225 0, 469.48857499999997 10.62993, 469.48857499999997 10.62993, 416.338925 0, 416.338925 0, 363.189275 10.62993, 363.189275 10.62993, 310.039625 0, 310.039625 0, 256.889975 10.62993, 256.889975 10.62993, 203.740325 0, 203.740325 0, 150.590675 10.62993, 150.590675 10.62993, 75.2953375 0, 75.2953375 "/> 
 <rect x="807.87468" y="70.86619999999999" width="226.77184" height="715.74862" rx="7.08662" ry="7.08662" style="stroke:#000000;stroke-width:0.90000074;fill:none" /> 
 <circle cx="781.299855" cy="177.1655" r="6.2007925" style="stroke:#000000;stroke-width:0.90000074;fill:none" /> 
 <circle cx="781.299855" cy="425.1972" r="6.2007925" style="stroke:#000000;stroke-width:0.90000074;fill:none" /> 
 <circle cx="781.299855" cy="673.2289" r="6.2007925" style="stroke:#000000;stroke-width:0.90000074;fill:none" /> 
 <circle cx="1061.221345" cy="673.2289" r="6.2007925" style="stroke:#000000;stroke-width:0.90000074;fill:none" /> 
 <circle cx="1061.221345" cy="425.1972" r="6.2007925" style="stroke:#000000;stroke-width:0.90000074;fill:none" /> 
 <circle cx="1061.221345" cy="177.1655" r="6.2007925" style="stroke:#000000;stroke-width:0.90000074;fill:none" /> 
 <rect x="35.433099999999996" y="708.662" width="70.86619999999999" height="42.51972" rx="7.08662" ry="7.08662" style="stroke:#000000;stroke-width:0.90000074;fill:none" /> 
</g>
<!-- Left--> 
<g transform="translate(2304.3916585, 22.5000185) " > 
<polygon style="stroke:#000000; fill:none; stroke-width:0.90000074" points="10.62993, 0 70.86619999999999, 0 70.86619999999999, 10.62993 141.73239999999998, 10.62993 141.73239999999998, 0 194.88205, 0 194.88205, 10.62993 248.0317, 10.62993 248.0317, 0 301.18134999999995, 0 301.18134999999995, 10.62993 354.331, 10.62993 354.331, 0 407.48064999999997, 0 407.48064999999997, 10.62993 460.6303, 10.62993 460.6303, 0 513.77995, 0 513.77995, 10.62993 566.9295999999999, 10.62993 566.9295999999999, 0 620.07925, 0 620.07925, 10.62993 673.2289, 10.62993 673.2289, 0 726.37855, 0 726.37855, 10.62993 779.5282, 10.62993 779.5282, 0 832.67785, 0 832.67785, 10.62993 885.8275, 10.62993 885.8275, 0 938.97715, 0 938.97715, 10.62993 992.1268, 10.62993 992.1268, 0 1045.2764499999998, 0 1045.2764499999998, 10.62993 1116.14265, 10.62993 1116.14265, 0 1176.3789199999999, 0 1176.3789199999999, 75.2953375 1187.00885, 75.2953375 1187.00885, 150.590675 1176.3789199999999, 150.590675 1176.3789199999999, 203.740325 1187.00885, 203.740325 1187.00885, 256.889975 1176.3789199999999, 256.889975 1176.3789199999999, 310.039625 1187.00885, 310.039625 1187.00885, 363.189275 1176.3789199999999, 363.189275 1176.3789199999999, 416.338925 1187.00885, 416.338925 1187.00885, 469.48857499999997 1176.3789199999999, 469.48857499999997 1176.3789199999999, 522.638225 1187.00885, 522.638225 1187.00885, 575.787875 1176.3789199999999, 575.787875 1176.3789199999999, 628.937525 1187.00885, 628.937525 1187.00885, 704.2328625 1176.3789199999999, 704.2328625 1176.3789199999999, 779.5282 1116.14265, 779.5282 1116.14265, 768.89827 1045.2764499999998, 768.89827 1045.2764499999998, 779.5282 992.1268, 779.5282 992.1268, 768.89827 938.97715, 768.89827 938.97715, 779.5282 885.8275, 779.5282 885.8275, 768.89827 832.67785, 768.89827 832.67785, 779.5282 779.5282, 779.5282 779.5282, 768.89827 726.37855, 768.89827 726.37855, 779.5282 673.2289, 779.5282 673.2289, 768.89827 620.07925, 768.89827 620.07925, 779.5282 566.9295999999999, 779.5282 566.9295999999999, 768.89827 513.77995, 768.89827 513.77995, 779.5282 460.6303, 779.5282 460.6303, 768.89827 407.48064999999997, 768.89827 407.48064999999997, 779.5282 354.331, 779.5282 354.331, 768.89827 301.18134999999995, 768.89827 301.18134999999995, 779.5282 248.0317, 779.5282 248.0317, 768.89827 194.88205, 768.89827 194.88205, 779.5282 141.73239999999998, 779.5282 141.73239999999998, 768.89827 70.86619999999999, 768.89827 70.86619999999999, 779.5282 10.62993, 779.5282 10.62993, 704.2328625 0, 704.2328625 0, 628.937525 10.62993, 628.937525 10.62993, 575.787875 0, 575.787875 0, 522.638225 10.62993, 522.638225 10.62993, 469.48857499999997 0, 469.48857499999997 0, 416.338925 10.62993, 416.338925 10.62993, 363.189275 0, 363.189275 0, 310.039625 10.62993, 310.039625 10.62993, 256.889975 0, 256.889975 0, 203.740325 10.62993, 203.740325 10.62993, 150.590675 0, 150.590675 0, 75.2953375 10.62993, 75.2953375 "/> 
</g>
<!-- Right--> 
<g transform="translate(2304.3916585, 802.0282185) " > 
<polygon style="stroke:#000000; fill:none; stroke-width:0.90000074" points="10.62993, 0 70.86619999999999, 0 70.86619999999999, 10.62993 141.73239999999998, 10.62993 141.73239999999998, 0 194.88205, 0 194.88205, 10.62993 248.0317, 10.62993 248.0317, 0 301.18134999999995, 0 301.18134999999995, 10.62993 354.331, 10.62993 354.331, 0 407.48064999999997, 0 407.48064999999997, 10.62993 460.6303, 10.62993 460.6303, 0 513.77995, 0 513.77995, 10.62993 566.9295999999999, 10.62993 566.9295999999999, 0 620.07925, 0 620.07925, 10.62993 673.2289, 10.62993 673.2289, 0 726.37855, 0 726.37855, 10.62993 779.5282, 10.62993 779.5282, 0 832.67785, 0 832.67785, 10.62993 885.8275, 10.62993 885.8275, 0 938.97715, 0 938.97715, 10.62993 992.1268, 10.62993 992.1268, 0 1045.2764499999998, 0 1045.2764499999998, 10.62993 1116.14265, 10.62993 1116.14265, 0 1176.3789199999999, 0 1176.3789199999999, 75.2953375 1187.00885, 75.2953375 1187.00885, 150.590675 1176.3789199999999, 150.590675 1176.3789199999999, 203.740325 1187.00885, 203.740325 1187.00885, 256.889975 1176.3789199999999, 256.889975 1176.3789199999999, 310.039625 1187.00885, 310.039625 1187.00885, 363.189275 1176.3789199999999, 363.189275 1176.3789199999999, 416.338925 1187.00885, 416.338925 1187.00885, 469.48857499999997 1176.3789199999999, 469.48857499999997 1176.3789199999999, 522.638225 1187.00885, 522.638225 1187.00885, 575.787875 1176.3789199999999, 575.787875 1176.3789199999999, 628.937525 1187.00885, 628.937525 1187.00885, 704.2328625 1176.3789199999999, 704.2328625 1176.3789199999999, 779.5282 1116.14265, 779.5282 1116.14265, 768.89827 1045.2764499999998, 768.89827 1045.2764499999998, 779.5282 992.1268, 779.5282 992.1268, 768.89827 938.97715, 768.89827 938.97715, 779.5282 885.8275, 779.5282 885.8275, 768.89827 832.67785, 768.89827 832.67785, 779.5282 779.5282, 779.5282 779.5282, 768.89827 726.37855, 768.89827 726.37855, 779.5282 673.2289, 779.5282 673.2289, 768.89827 620.07925, 768.89827 620.07925, 779.5282 566.9295999999999, 779.5282 566.9295999999999, 768.89827 513.77995, 768.89827 513.77995, 779.5282 460.6303, 779.5282 460.6303, 768.89827 407.48064999999997, 768.89827 407.48064999999997, 779.5282 354.331, 779.5282 354.331, 768.89827 301.18134999999995, 768.89827 301.18134999999995, 779.5282 248.0317, 779.5282 248.0317, 768.89827 194.88205, 768.89827 194.88205, 779.5282 141.73239999999998, 779.5282 141.73239999999998, 768.89827 70.86619999999999, 768.89827 70.86619999999999, 779.5282 10.62993, 779.5282 10.62993, 704.2328625 0, 704.2328625 0, 628.937525 10.62993, 628.937525 10.62993, 575.787875 0, 575.787875 0, 522.638225 10.62993, 522.638225 10.62993, 469.48857499999997 0, 469.48857499999997 0, 416.338925 10.62993, 416.338925 10.62993, 363.189275 0, 363.189275 0, 310.039625 10.62993, 310.039625 10.62993, 256.889975 0, 256.889975 0, 203.740325 10.62993, 203.740325 10.62993, 150.590675 0, 150.590675 0, 75.2953375 10.62993, 75.2953375 "/> 
</g>
<!-- Top--> 
<g transform="translate(22.5000185, 802.0282185) " > 
<polygon style="stroke:#000000; fill:none; stroke-width:0.90000074" points="10.62993, 10.62993 85.9252675, 10.62993 85.9252675, 0 171.850535, 0 171.850535, 10.62993 225.00018500000002, 10.62993 225.00018500000002, 0 278.149835, 0 278.149835, 10.62993 331.299485, 10.62993 331.299485, 0 384.449135, 0 384.449135, 10.62993 437.598785, 10.62993 437.598785, 0 490.748435, 0 490.748435, 10.62993 543.898085, 10.62993 543.898085, 0 597.047735, 0 597.047735, 10.62993 650.197385, 10.62993 650.197385, 0 703.347035, 0 703.347035, 10.62993 756.4966850000001, 10.62993 756.4966850000001, 0 809.646335, 0 809.646335, 10.62993 862.7959850000001, 10.62993 862.7959850000001, 0 915.945635, 0 915.945635, 10.62993 969.0952850000001, 10.62993 969.0952850000001, 0 1055.0205525000001, 0 1055.0205525000001, 10.62993 1130.3158899999999, 10.62993 1130.3158899999999, 70.86619999999999 1140.94582, 70.86619999999999 1140.94582, 141.73239999999998 1130.3158899999999, 141.73239999999998 1130.3158899999999, 194.88205 1140.94582, 194.88205 1140.94582, 248.0317 1130.3158899999999, 248.0317 1130.3158899999999, 301.18134999999995 1140.94582, 301.18134999999995 1140.94582, 354.331 1130.3158899999999, 354.331 1130.3158899999999, 407.48064999999997 1140.94582, 407.48064999999997 1140.94582, 460.6303 1130.3158899999999, 460.6303 1130.3158899999999, 513.77995 1140.94582, 513.77995 1140.94582, 566.9295999999999 1130.3158899999999, 566.9295999999999 1130.3158899999999, 620.07925 1140.94582, 620.07925 1140.94582, 673.2289 1130.3158899999999, 673.2289 1130.3158899999999, 726.37855 1140.94582, 726.37855 1140.94582, 779.5282 1130.3158899999999, 779.5282 1130.3158899999999, 832.67785 1140.94582, 832.67785 1140.94582, 885.8275 1130.3158899999999, 885.8275 1130.3158899999999, 938.97715 1140.94582, 938.97715 1140.94582, 992.1268 1130.3158899999999, 992.1268 1130.3158899999999, 1045.2764499999998 1140.94582, 1045.2764499999998 1140.94582, 1116.14265 1130.3158899999999, 1116.14265 1130.31589, 1176.3789199999999 1055.0205525000001, 1176.3789199999999 1055.0205525000001, 1187.00885 969.0952850000001, 1187.00885 969.0952850000001, 1176.3789199999999 915.945635, 1176.3789199999999 915.945635, 1187.00885 862.7959850000001, 1187.00885 862.7959850000001, 1176.3789199999999 809.646335, 1176.3789199999999 809.646335, 1187.00885 756.4966850000001, 1187.00885 756.4966850000001, 1176.3789199999999 703.347035, 1176.3789199999999 703.347035, 1187.00885 650.197385, 1187.00885 650.197385, 1176.3789199999999 597.047735, 1176.3789199999999 597.047735, 1187.00885 543.898085, 1187.00885 543.898085, 1176.3789199999999 490.748435, 1176.3789199999999 490.748435, 1187.00885 437.598785, 1187.00885 437.598785, 1176.3789199999999 384.449135, 1176.3789199999999 384.449135, 1187.00885 331.299485, 1187.00885 331.299485, 1176.3789199999999 278.149835, 1176.3789199999999 278.149835, 1187.00885 225.00018500000002, 1187.00885 225.00018500000002, 1176.3789199999999 171.850535, 1176.3789199999999 171.850535, 1187.00885 85.9252675, 1187.00885 85.9252675, 1176.3789199999999 10.62993, 1176.3789199999999 10.62993, 1116.14265 0, 1116.14265 0, 1045.2764499999998 10.62993, 1045.2764499999998 10.62993, 992.1268 0, 992.1268 0, 938.97715 10.62993, 938.97715 10.62993, 885.8275 0, 885.8275 0, 832.67785 10.62993, 832.67785 10.62993, 779.5282 0, 779.5282 0, 726.37855 10.62993, 726.37855 10.62993, 673.2289 0, 673.2289 0, 620.07925 10.62993, 620.07925 10.62993, 566.9295999999999 0, 566.9295999999999 0, 513.77995 10.62993, 513.77995 10.62993, 460.6303 0, 460.6303 0, 407.48064999999997 10.62993, 407.48064999999997 10.62993, 354.331 0, 354.331 0, 301.18134999999995 10.62993, 301.18134999999995 10.62993, 248.0317 0, 248.0317 0, 194.88205 10.62993, 194.88205 10.62993, 141.73239999999998 0, 141.73239999999998 0, 70.86619999999999 10.62993, 70.86619999999999 "/> 
</g>
<!-- Bottom--> 
<g transform="translate(1163.4458385, 802.0282185) " > 
<polygon style="stroke:#000000; fill:none; stroke-width:0.90000074" points="10.62993, 10.62993 85.9252675, 10.62993 85.9252675, 0 171.850535, 0 171.850535, 10.62993 225.00018500000002, 10.62993 225.00018500000002, 0 278.149835, 0 278.149835, 10.62993 331.299485, 10.62993 331.299485, 0 384.449135, 0 384.449135, 10.62993 437.598785, 10.62993 437.598785, 0 490.748435, 0 490.748435, 10.62993 543.898085, 10.62993 543.898085, 0 597.047735, 0 597.047735, 10.62993 650.197385, 10.62993 650.197385, 0 703.347035, 0 703.347035, 10.62993 756.4966850000001, 10.62993 756.4966850000001, 0 809.646335, 0 809.646335, 10.62993 862.7959850000001, 10.62993 862.7959850000001, 0 915.945635, 0 915.945635, 10.62993 969.0952850000001, 10.62993 969.0952850000001, 0 1055.0205525000001, 0 1055.0205525000001, 10.62993 1130.3158899999999, 10.62993 1130.3158899999999, 70.86619999999999 1140.94582, 70.86619999999999 1140.94582, 141.73239999999998 1130.3158899999999, 141.73239999999998 1130.3158899999999, 194.88205 1140.94582, 194.88205 1140.94582, 248.0317 1130.3158899999999, 248.0317 1130.3158899999999, 301.18134999999995 1140.94582, 301.18134999999995 1140.94582, 354.331 1130.3158899999999, 354.331 1130.3158899999999, 407.48064999999997 1140.94582, 407.48064999999997 1140.94582, 460.6303 1130.3158899999999, 460.6303 1130.3158899999999, 513.77995 1140.94582, 513.77995 1140.94582, 566.9295999999999 1130.3158899999999, 566.9295999999999 1130.3158899999999, 620.07925 1140.94582, 620.07925 1140.94582, 673.2289 1130.3158899999999, 673.2289 1130.3158899999999, 726.37855 1140.94582, 726.37855 1140.94582, 779.5282 1130.3158899999999, 779.5282 1130.3158899999999, 832.67785 1140.94582, 832.67785 1140.94582, 885.8275 1130.3158899999999, 885.8275 1130.3158899999999, 938.97715 1140.94582, 938.97715 1140.94582, 992.1268 1130.3158899999999, 992.1268 1130.3158899999999, 1045.2764499999998 1140.94582, 1045.2764499999998 1140.94582, 1116.14265 1130.3158899999999, 1116.14265 1130.31589, 1176.3789199999999 1055.0205525000001, 1176.3789199999999 1055.0205525000001, 1187.00885 969.0952850000001, 1187.00885 969.0952850000001, 1176.3789199999999 915.945635, 1176.3789199999999 915.945635, 1187.00885 862.7959850000001, 1187.00885 862.7959850000001, 1176.3789199999999 809.646335, 1176.3789199999999 809.646335, 1187.00885 756.4966850000001, 1187.00885 756.4966850000001, 1176.3789199999999 703.347035, 1176.3789199999999 703.347035, 1187.00885 650.197385, 1187.00885 650.197385, 1176.3789199999999 597.047735, 1176.3789199999999 597.047735, 1187.00885 543.898085, 1187.00885 543.898085, 1176.3789199999999 490.748435, 1176.3789199999999 490.748435, 1187.00885 437.598785, 1187.00885 437.598785, 1176.3789199999999 384.449135, 1176.3789199999999 384.449135, 1187.00885 331.299485, 1187.00885 331.299485, 1176.3789199999999 278.149835, 1176.3789199999999 278.149835, 1187.00885 225.00018500000002, 1187.00885 225.00018500000002, 1176.3789199999999 171.850535, 1176.3789199999999 171.850535, 1187.00885 85.9252675, 1187.00885 85.9252675, 1176.3789199999999 10.62993, 1176.3789199999999 10.62993, 1116.14265 0, 1116.14265 0, 1045.2764499999998 10.62993, 1045.2764499999998 10.62993, 992.1268 0, 992.1268 0, 938.97715 10.62993, 938.97715 10.62993, 885.8275 0, 885.8275 0, 832.67785 10.62993, 832.67785 10.62993, 779.5282 0, 779.5282 0, 726.37855 10.62993, 726.37855 10.62993, 673.2289 0, 673.2289 0, 620.07925 10.62993, 620.07925 10.62993, 566.9295999999999 0, 566.9295999999999 0, 513.77995 10.62993, 513.77995 10.62993, 460.6303 0, 460.6303 0, 407.48064999999997 10.62993, 407.48064999999997 10.62993, 354.331 0, 354.331 0, 301.18134999999995 10.62993, 301.18134999999995 10.62993, 248.0317 0, 248.0317 0, 194.88205 10.62993, 194.88205 10.62993, 141.73239999999998 0, 141.73239999999998 0, 70.86619999999999 10.62993, 70.86619999999999 "/> 
 <rect x="88.58275" y="70.86619999999999" width="963.78032" height="974.41025" rx="7.08662" ry="7.08662" style="stroke:#000000;stroke-width:0.90000074;fill:none" /> 
 <rect x="53.14965" y="1038.18983" width="279.92149" height="155.90564" rx="0" ry="0" style="stroke:#000000;stroke-width:0.90000074;fill:none" /> 
</g></svg>