<?xml version="1.0" encoding="UTF-8" standalone="no"?>
<!-- Created with Inkscape (http://www.inkscape.org/) -->

<svg
   xmlns:dc="http://purl.org/dc/elements/1.1/"
   xmlns:cc="http://creativecommons.org/ns#"
   xmlns:rdf="http://www.w3.org/1999/02/22-rdf-syntax-ns#"
   xmlns:svg="http://www.w3.org/2000/svg"
   xmlns="http://www.w3.org/2000/svg"
   xmlns:sodipodi="http://sodipodi.sourceforge.net/DTD/sodipodi-0.dtd"
   xmlns:inkscape="http://www.inkscape.org/namespaces/inkscape"
   width="1000mm"
   height="600mm"
   viewBox="0 0 3543.3071 2125.9842"
   id="svg6721"
   version="1.1"
   inkscape:version="0.91 r13725"
   sodipodi:docname="Master-V1.2-1000x600.svg">
  <defs
     id="defs6723" />
  <sodipodi:namedview
     id="base"
     pagecolor="#ffffff"
     bordercolor="#666666"
     borderopacity="1.0"
     inkscape:pageopacity="0.0"
     inkscape:pageshadow="2"
     inkscape:zoom="0.35"
     inkscape:cx="1430.4128"
     inkscape:cy="962.08981"
     inkscape:document-units="mm"
     inkscape:current-layer="g7495"
     showgrid="false"
     inkscape:window-width="2560"
     inkscape:window-height="1335"
     inkscape:window-x="1912"
     inkscape:window-y="-8"
     inkscape:window-maximized="1" />
  <metadata
     id="metadata6726">
    <rdf:RDF>
      <cc:Work
         rdf:about="">
        <dc:format>image/svg+xml</dc:format>
        <dc:type
           rdf:resource="http://purl.org/dc/dcmitype/StillImage" />
        <dc:title />
      </cc:Work>
    </rdf:RDF>
  </metadata>
  <g
     inkscape:label="Layer 1"
     inkscape:groupmode="layer"
     id="layer1"
     transform="translate(0,1073.622)">
    <g
       id="g7539"
       transform="translate(-1068.3788,-431.23536)">
      <g
         id="g7495"
         transform="translate(1163.4458,22.500018)">
        <g
           id="g5438"
           transform="translate(-117.11702,-535.47609)">
          <g
             id="g5378"
             transform="translate(22.500018,22.500018)">
            <polygon
               id="polygon5380"
               points="171.85054,0 225.00019,0 225.00019,10.62993 278.14983,10.62993 278.14983,0 331.29949,0 331.29949,10.62993 384.44914,10.62993 384.44914,0 437.59879,0 437.59879,10.62993 490.74843,10.62993 490.74843,0 543.89809,0 543.89809,10.62993 597.04773,10.62993 597.04773,0 650.19739,0 650.19739,10.62993 703.34704,10.62993 703.34704,0 756.49669,0 756.49669,10.62993 809.64634,10.62993 809.64634,0 862.79599,0 862.79599,10.62993 915.94564,10.62993 915.94564,0 969.09529,0 969.09529,10.62993 1055.0206,10.62993 1055.0206,0 1140.9458,0 1140.9458,75.295338 1130.3159,75.295338 1130.3159,150.59068 1140.9458,150.59068 1140.9458,203.74033 1130.3159,203.74033 1130.3159,256.88997 1140.9458,256.88997 1140.9458,310.03963 1130.3159,310.03963 1130.3159,363.18928 1140.9458,363.18928 1140.9458,416.33893 1130.3159,416.33893 1130.3159,469.48857 1140.9458,469.48857 1140.9458,522.63823 1130.3159,522.63823 1130.3159,575.78787 1140.9458,575.78787 1140.9458,628.93753 1130.3159,628.93753 1130.3159,704.23286 1140.9458,704.23286 1140.9458,779.5282 1055.0206,779.5282 1055.0206,768.89827 969.09529,768.89827 969.09529,779.5282 915.94564,779.5282 915.94564,768.89827 862.79599,768.89827 862.79599,779.5282 809.64634,779.5282 809.64634,768.89827 756.49669,768.89827 756.49669,779.5282 703.34704,779.5282 703.34704,768.89827 650.19739,768.89827 650.19739,779.5282 597.04773,779.5282 597.04773,768.89827 543.89809,768.89827 543.89809,779.5282 490.74843,779.5282 490.74843,768.89827 437.59879,768.89827 437.59879,779.5282 384.44914,779.5282 384.44914,768.89827 331.29949,768.89827 331.29949,779.5282 278.14983,779.5282 278.14983,768.89827 225.00019,768.89827 225.00019,779.5282 171.85054,779.5282 171.85054,768.89827 85.925268,768.89827 85.925268,779.5282 0,779.5282 0,704.23286 10.62993,704.23286 10.62993,628.93753 0,628.93753 0,575.78787 10.62993,575.78787 10.62993,522.63823 0,522.63823 0,469.48857 10.62993,469.48857 10.62993,416.33893 0,416.33893 0,363.18928 10.62993,363.18928 10.62993,310.03963 0,310.03963 0,256.88997 10.62993,256.88997 10.62993,203.74033 0,203.74033 0,150.59068 10.62993,150.59068 10.62993,75.295338 0,75.295338 0,0 85.925268,0 85.925268,10.62993 171.85054,10.62993 "
               style="fill:none;stroke:#000000;stroke-width:0.90000075" />
            <circle
               id="circle5382"
               style="fill:none;stroke:#000000;stroke-width:0.90000075"
               r="7.0866199"
               cy="76.46463"
               cx="799.33533" />
            <circle
               id="circle5384"
               style="fill:none;stroke:#000000;stroke-width:0.90000075"
               r="7.0866199"
               cy="309.08292"
               cx="799.33533" />
            <circle
               id="circle5386"
               style="fill:none;stroke:#000000;stroke-width:0.90000075"
               r="7.0866199"
               cy="76.46463"
               cx="352.16959" />
            <circle
               id="circle5388"
               style="fill:none;stroke:#000000;stroke-width:0.90000075"
               r="7.0866199"
               cy="309.08292"
               cx="352.16959" />
            <rect
               id="rect5390"
               style="fill:none;stroke:#000000;stroke-width:0.90000075"
               ry="10.62993"
               rx="10.62993"
               height="331.83099"
               width="270.00021"
               y="41.031528"
               x="458.46887" />
          </g>
          <g
             id="g5392"
             transform="translate(1163.4458,22.500018)">
            <polygon
               id="polygon5394"
               points="171.85054,0 225.00019,0 225.00019,10.62993 278.14983,10.62993 278.14983,0 331.29949,0 331.29949,10.62993 384.44914,10.62993 384.44914,0 437.59879,0 437.59879,10.62993 490.74843,10.62993 490.74843,0 543.89809,0 543.89809,10.62993 597.04773,10.62993 597.04773,0 650.19739,0 650.19739,10.62993 703.34704,10.62993 703.34704,0 756.49669,0 756.49669,10.62993 809.64634,10.62993 809.64634,0 862.79599,0 862.79599,10.62993 915.94564,10.62993 915.94564,0 969.09529,0 969.09529,10.62993 1055.0206,10.62993 1055.0206,0 1140.9458,0 1140.9458,75.295338 1130.3159,75.295338 1130.3159,150.59068 1140.9458,150.59068 1140.9458,203.74033 1130.3159,203.74033 1130.3159,256.88997 1140.9458,256.88997 1140.9458,310.03963 1130.3159,310.03963 1130.3159,363.18928 1140.9458,363.18928 1140.9458,416.33893 1130.3159,416.33893 1130.3159,469.48857 1140.9458,469.48857 1140.9458,522.63823 1130.3159,522.63823 1130.3159,575.78787 1140.9458,575.78787 1140.9458,628.93753 1130.3159,628.93753 1130.3159,704.23286 1140.9458,704.23286 1140.9458,779.5282 1055.0206,779.5282 1055.0206,768.89827 969.09529,768.89827 969.09529,779.5282 915.94564,779.5282 915.94564,768.89827 862.79599,768.89827 862.79599,779.5282 809.64634,779.5282 809.64634,768.89827 756.49669,768.89827 756.49669,779.5282 703.34704,779.5282 703.34704,768.89827 650.19739,768.89827 650.19739,779.5282 597.04773,779.5282 597.04773,768.89827 543.89809,768.89827 543.89809,779.5282 490.74843,779.5282 490.74843,768.89827 437.59879,768.89827 437.59879,779.5282 384.44914,779.5282 384.44914,768.89827 331.29949,768.89827 331.29949,779.5282 278.14983,779.5282 278.14983,768.89827 225.00019,768.89827 225.00019,779.5282 171.85054,779.5282 171.85054,768.89827 85.925268,768.89827 85.925268,779.5282 0,779.5282 0,704.23286 10.62993,704.23286 10.62993,628.93753 0,628.93753 0,575.78787 10.62993,575.78787 10.62993,522.63823 0,522.63823 0,469.48857 10.62993,469.48857 10.62993,416.33893 0,416.33893 0,363.18928 10.62993,363.18928 10.62993,310.03963 0,310.03963 0,256.88997 10.62993,256.88997 10.62993,203.74033 0,203.74033 0,150.59068 10.62993,150.59068 10.62993,75.295338 0,75.295338 0,0 85.925268,0 85.925268,10.62993 171.85054,10.62993 "
               style="fill:none;stroke:#000000;stroke-width:0.90000075" />
            <rect
               id="rect5396"
               style="fill:none;stroke:#000000;stroke-width:0.90000075"
               ry="7.0866199"
               rx="7.0866199"
               height="715.7486"
               width="226.77184"
               y="70.866203"
               x="807.87469" />
            <circle
               id="circle5398"
               style="fill:none;stroke:#000000;stroke-width:0.90000075"
               r="6.2007923"
               cy="177.1655"
               cx="781.29987" />
            <circle
               id="circle5400"
               style="fill:none;stroke:#000000;stroke-width:0.90000075"
               r="6.2007923"
               cy="425.1972"
               cx="781.29987" />
            <circle
               id="circle5402"
               style="fill:none;stroke:#000000;stroke-width:0.90000075"
               r="6.2007923"
               cy="673.22888"
               cx="781.29987" />
            <circle
               id="circle5404"
               style="fill:none;stroke:#000000;stroke-width:0.90000075"
               r="6.2007923"
               cy="673.22888"
               cx="1061.2213" />
            <circle
               id="circle5406"
               style="fill:none;stroke:#000000;stroke-width:0.90000075"
               r="6.2007923"
               cy="425.1972"
               cx="1061.2213" />
            <circle
               id="circle5408"
               style="fill:none;stroke:#000000;stroke-width:0.90000075"
               r="6.2007923"
               cy="177.1655"
               cx="1061.2213" />
            <rect
               id="rect5410"
               style="fill:none;stroke:#000000;stroke-width:0.90000075"
               ry="7.0866199"
               rx="7.0866199"
               height="42.519718"
               width="70.866203"
               y="708.66199"
               x="35.433102" />
          </g>
          <g
             id="g5412"
             transform="translate(2304.3917,22.500018)">
            <polygon
               id="polygon5414"
               points="141.7324,0 194.88205,0 194.88205,10.62993 248.0317,10.62993 248.0317,0 301.18135,0 301.18135,10.62993 354.331,10.62993 354.331,0 407.48065,0 407.48065,10.62993 460.6303,10.62993 460.6303,0 513.77995,0 513.77995,10.62993 566.9296,10.62993 566.9296,0 620.07925,0 620.07925,10.62993 673.2289,10.62993 673.2289,0 726.37855,0 726.37855,10.62993 779.5282,10.62993 779.5282,0 832.67785,0 832.67785,10.62993 885.8275,10.62993 885.8275,0 938.97715,0 938.97715,10.62993 992.1268,10.62993 992.1268,0 1045.2764,0 1045.2764,10.62993 1116.1427,10.62993 1116.1427,0 1176.3789,0 1176.3789,75.295338 1187.0088,75.295338 1187.0088,150.59068 1176.3789,150.59068 1176.3789,203.74033 1187.0088,203.74033 1187.0088,256.88997 1176.3789,256.88997 1176.3789,310.03963 1187.0088,310.03963 1187.0088,363.18928 1176.3789,363.18928 1176.3789,416.33893 1187.0088,416.33893 1187.0088,469.48857 1176.3789,469.48857 1176.3789,522.63823 1187.0088,522.63823 1187.0088,575.78787 1176.3789,575.78787 1176.3789,628.93753 1187.0088,628.93753 1187.0088,704.23286 1176.3789,704.23286 1176.3789,779.5282 1116.1427,779.5282 1116.1427,768.89827 1045.2764,768.89827 1045.2764,779.5282 992.1268,779.5282 992.1268,768.89827 938.97715,768.89827 938.97715,779.5282 885.8275,779.5282 885.8275,768.89827 832.67785,768.89827 832.67785,779.5282 779.5282,779.5282 779.5282,768.89827 726.37855,768.89827 726.37855,779.5282 673.2289,779.5282 673.2289,768.89827 620.07925,768.89827 620.07925,779.5282 566.9296,779.5282 566.9296,768.89827 513.77995,768.89827 513.77995,779.5282 460.6303,779.5282 460.6303,768.89827 407.48065,768.89827 407.48065,779.5282 354.331,779.5282 354.331,768.89827 301.18135,768.89827 301.18135,779.5282 248.0317,779.5282 248.0317,768.89827 194.88205,768.89827 194.88205,779.5282 141.7324,779.5282 141.7324,768.89827 70.8662,768.89827 70.8662,779.5282 10.62993,779.5282 10.62993,704.23286 0,704.23286 0,628.93753 10.62993,628.93753 10.62993,575.78787 0,575.78787 0,522.63823 10.62993,522.63823 10.62993,469.48857 0,469.48857 0,416.33893 10.62993,416.33893 10.62993,363.18928 0,363.18928 0,310.03963 10.62993,310.03963 10.62993,256.88997 0,256.88997 0,203.74033 10.62993,203.74033 10.62993,150.59068 0,150.59068 0,75.295338 10.62993,75.295338 10.62993,0 70.8662,0 70.8662,10.62993 141.7324,10.62993 "
               style="fill:none;stroke:#000000;stroke-width:0.90000075" />
          </g>
          <g
             id="g5416"
             transform="translate(2304.3917,802.02822)">
            <polygon
               id="polygon5418"
               points="141.7324,0 194.88205,0 194.88205,10.62993 248.0317,10.62993 248.0317,0 301.18135,0 301.18135,10.62993 354.331,10.62993 354.331,0 407.48065,0 407.48065,10.62993 460.6303,10.62993 460.6303,0 513.77995,0 513.77995,10.62993 566.9296,10.62993 566.9296,0 620.07925,0 620.07925,10.62993 673.2289,10.62993 673.2289,0 726.37855,0 726.37855,10.62993 779.5282,10.62993 779.5282,0 832.67785,0 832.67785,10.62993 885.8275,10.62993 885.8275,0 938.97715,0 938.97715,10.62993 992.1268,10.62993 992.1268,0 1045.2764,0 1045.2764,10.62993 1116.1427,10.62993 1116.1427,0 1176.3789,0 1176.3789,75.295338 1187.0088,75.295338 1187.0088,150.59068 1176.3789,150.59068 1176.3789,203.74033 1187.0088,203.74033 1187.0088,256.88997 1176.3789,256.88997 1176.3789,310.03963 1187.0088,310.03963 1187.0088,363.18928 1176.3789,363.18928 1176.3789,416.33893 1187.0088,416.33893 1187.0088,469.48857 1176.3789,469.48857 1176.3789,522.63823 1187.0088,522.63823 1187.0088,575.78787 1176.3789,575.78787 1176.3789,628.93753 1187.0088,628.93753 1187.0088,704.23286 1176.3789,704.23286 1176.3789,779.5282 1116.1427,779.5282 1116.1427,768.89827 1045.2764,768.89827 1045.2764,779.5282 992.1268,779.5282 992.1268,768.89827 938.97715,768.89827 938.97715,779.5282 885.8275,779.5282 885.8275,768.89827 832.67785,768.89827 832.67785,779.5282 779.5282,779.5282 779.5282,768.89827 726.37855,768.89827 726.37855,779.5282 673.2289,779.5282 673.2289,768.89827 620.07925,768.89827 620.07925,779.5282 566.9296,779.5282 566.9296,768.89827 513.77995,768.89827 513.77995,779.5282 460.6303,779.5282 460.6303,768.89827 407.48065,768.89827 407.48065,779.5282 354.331,779.5282 354.331,768.89827 301.18135,768.89827 301.18135,779.5282 248.0317,779.5282 248.0317,768.89827 194.88205,768.89827 194.88205,779.5282 141.7324,779.5282 141.7324,768.89827 70.8662,768.89827 70.8662,779.5282 10.62993,779.5282 10.62993,704.23286 0,704.23286 0,628.93753 10.62993,628.93753 10.62993,575.78787 0,575.78787 0,522.63823 10.62993,522.63823 10.62993,469.48857 0,469.48857 0,416.33893 10.62993,416.33893 10.62993,363.18928 0,363.18928 0,310.03963 10.62993,310.03963 10.62993,256.88997 0,256.88997 0,203.74033 10.62993,203.74033 10.62993,150.59068 0,150.59068 0,75.295338 10.62993,75.295338 10.62993,0 70.8662,0 70.8662,10.62993 141.7324,10.62993 "
               style="fill:none;stroke:#000000;stroke-width:0.90000075" />
          </g>
          <g
             id="g5420"
             transform="translate(22.500018,802.02822)">
            <polygon
               id="polygon5422"
               points="171.85054,10.62993 225.00019,10.62993 225.00019,0 278.14983,0 278.14983,10.62993 331.29949,10.62993 331.29949,0 384.44914,0 384.44914,10.62993 437.59879,10.62993 437.59879,0 490.74843,0 490.74843,10.62993 543.89809,10.62993 543.89809,0 597.04773,0 597.04773,10.62993 650.19739,10.62993 650.19739,0 703.34704,0 703.34704,10.62993 756.49669,10.62993 756.49669,0 809.64634,0 809.64634,10.62993 862.79599,10.62993 862.79599,0 915.94564,0 915.94564,10.62993 969.09529,10.62993 969.09529,0 1055.0206,0 1055.0206,10.62993 1130.3159,10.62993 1130.3159,70.8662 1140.9458,70.8662 1140.9458,141.7324 1130.3159,141.7324 1130.3159,194.88205 1140.9458,194.88205 1140.9458,248.0317 1130.3159,248.0317 1130.3159,301.18135 1140.9458,301.18135 1140.9458,354.331 1130.3159,354.331 1130.3159,407.48065 1140.9458,407.48065 1140.9458,460.6303 1130.3159,460.6303 1130.3159,513.77995 1140.9458,513.77995 1140.9458,566.9296 1130.3159,566.9296 1130.3159,620.07925 1140.9458,620.07925 1140.9458,673.2289 1130.3159,673.2289 1130.3159,726.37855 1140.9458,726.37855 1140.9458,779.5282 1130.3159,779.5282 1130.3159,832.67785 1140.9458,832.67785 1140.9458,885.8275 1130.3159,885.8275 1130.3159,938.97715 1140.9458,938.97715 1140.9458,992.1268 1130.3159,992.1268 1130.3159,1045.2764 1140.9458,1045.2764 1140.9458,1116.1427 1130.3159,1116.1427 1130.3159,1176.3789 1055.0206,1176.3789 1055.0206,1187.0088 969.09529,1187.0088 969.09529,1176.3789 915.94564,1176.3789 915.94564,1187.0088 862.79599,1187.0088 862.79599,1176.3789 809.64634,1176.3789 809.64634,1187.0088 756.49669,1187.0088 756.49669,1176.3789 703.34704,1176.3789 703.34704,1187.0088 650.19739,1187.0088 650.19739,1176.3789 597.04773,1176.3789 597.04773,1187.0088 543.89809,1187.0088 543.89809,1176.3789 490.74843,1176.3789 490.74843,1187.0088 437.59879,1187.0088 437.59879,1176.3789 384.44914,1176.3789 384.44914,1187.0088 331.29949,1187.0088 331.29949,1176.3789 278.14983,1176.3789 278.14983,1187.0088 225.00019,1187.0088 225.00019,1176.3789 171.85054,1176.3789 171.85054,1187.0088 85.925268,1187.0088 85.925268,1176.3789 10.62993,1176.3789 10.62993,1116.1427 0,1116.1427 0,1045.2764 10.62993,1045.2764 10.62993,992.1268 0,992.1268 0,938.97715 10.62993,938.97715 10.62993,885.8275 0,885.8275 0,832.67785 10.62993,832.67785 10.62993,779.5282 0,779.5282 0,726.37855 10.62993,726.37855 10.62993,673.2289 0,673.2289 0,620.07925 10.62993,620.07925 10.62993,566.9296 0,566.9296 0,513.77995 10.62993,513.77995 10.62993,460.6303 0,460.6303 0,407.48065 10.62993,407.48065 10.62993,354.331 0,354.331 0,301.18135 10.62993,301.18135 10.62993,248.0317 0,248.0317 0,194.88205 10.62993,194.88205 10.62993,141.7324 0,141.7324 0,70.8662 10.62993,70.8662 10.62993,10.62993 85.925268,10.62993 85.925268,0 171.85054,0 "
               style="fill:none;stroke:#000000;stroke-width:0.90000075" />
          </g>
          <g
             id="g5424"
             transform="translate(1163.4458,802.02822)">
            <polygon
               id="polygon5426"
               points="171.85054,10.62993 225.00019,10.62993 225.00019,0 278.14983,0 278.14983,10.62993 331.29949,10.62993 331.29949,0 384.44914,0 384.44914,10.62993 437.59879,10.62993 437.59879,0 490.74843,0 490.74843,10.62993 543.89809,10.62993 543.89809,0 597.04773,0 597.04773,10.62993 650.19739,10.62993 650.19739,0 703.34704,0 703.34704,10.62993 756.49669,10.62993 756.49669,0 809.64634,0 809.64634,10.62993 862.79599,10.62993 862.79599,0 915.94564,0 915.94564,10.62993 969.09529,10.62993 969.09529,0 1055.0206,0 1055.0206,10.62993 1130.3159,10.62993 1130.3159,70.8662 1140.9458,70.8662 1140.9458,141.7324 1130.3159,141.7324 1130.3159,194.88205 1140.9458,194.88205 1140.9458,248.0317 1130.3159,248.0317 1130.3159,301.18135 1140.9458,301.18135 1140.9458,354.331 1130.3159,354.331 1130.3159,407.48065 1140.9458,407.48065 1140.9458,460.6303 1130.3159,460.6303 1130.3159,513.77995 1140.9458,513.77995 1140.9458,566.9296 1130.3159,566.9296 1130.3159,620.07925 1140.9458,620.07925 1140.9458,673.2289 1130.3159,673.2289 1130.3159,726.37855 1140.9458,726.37855 1140.9458,779.5282 1130.3159,779.5282 1130.3159,832.67785 1140.9458,832.67785 1140.9458,885.8275 1130.3159,885.8275 1130.3159,938.97715 1140.9458,938.97715 1140.9458,992.1268 1130.3159,992.1268 1130.3159,1045.2764 1140.9458,1045.2764 1140.9458,1116.1427 1130.3159,1116.1427 1130.3159,1176.3789 1055.0206,1176.3789 1055.0206,1187.0088 969.09529,1187.0088 969.09529,1176.3789 915.94564,1176.3789 915.94564,1187.0088 862.79599,1187.0088 862.79599,1176.3789 809.64634,1176.3789 809.64634,1187.0088 756.49669,1187.0088 756.49669,1176.3789 703.34704,1176.3789 703.34704,1187.0088 650.19739,1187.0088 650.19739,1176.3789 597.04773,1176.3789 597.04773,1187.0088 543.89809,1187.0088 543.89809,1176.3789 490.74843,1176.3789 490.74843,1187.0088 437.59879,1187.0088 437.59879,1176.3789 384.44914,1176.3789 384.44914,1187.0088 331.29949,1187.0088 331.29949,1176.3789 278.14983,1176.3789 278.14983,1187.0088 225.00019,1187.0088 225.00019,1176.3789 171.85054,1176.3789 171.85054,1187.0088 85.925268,1187.0088 85.925268,1176.3789 10.62993,1176.3789 10.62993,1116.1427 0,1116.1427 0,1045.2764 10.62993,1045.2764 10.62993,992.1268 0,992.1268 0,938.97715 10.62993,938.97715 10.62993,885.8275 0,885.8275 0,832.67785 10.62993,832.67785 10.62993,779.5282 0,779.5282 0,726.37855 10.62993,726.37855 10.62993,673.2289 0,673.2289 0,620.07925 10.62993,620.07925 10.62993,566.9296 0,566.9296 0,513.77995 10.62993,513.77995 10.62993,460.6303 0,460.6303 0,407.48065 10.62993,407.48065 10.62993,354.331 0,354.331 0,301.18135 10.62993,301.18135 10.62993,248.0317 0,248.0317 0,194.88205 10.62993,194.88205 10.62993,141.7324 0,141.7324 0,70.8662 10.62993,70.8662 10.62993,10.62993 85.925268,10.62993 85.925268,0 171.85054,0 "
               style="fill:none;stroke:#000000;stroke-width:0.90000075" />
            <rect
               id="rect5428"
               style="fill:none;stroke:#000000;stroke-width:0.90000075"
               ry="7.0866199"
               rx="7.0866199"
               height="974.41028"
               width="963.78033"
               y="70.866203"
               x="88.582748" />
            <rect
               id="rect5430"
               style="fill:none;stroke:#000000;stroke-width:0.90000075"
               ry="0"
               rx="0"
               height="155.90564"
               width="279.92148"
               y="1038.1898"
               x="53.149651" />
          </g>
        </g>
      </g>
    </g>
  </g>
</svg>
