  0
SECTION
  2
HEADER
  9
$ACADVER
  1
AC1014
  9
$HANDSEED
  5
FFFF
  9
$MEASUREMENT
 70
     1
  0
ENDSEC
  0
SECTION
  2
TABLES
  0
TABLE
  2
VPORT
  5
8
330
0
100
AcDbSymbolTable
 70
     4
  0
VPORT
  5
2E
330
8
100
AcDbSymbolTableRecord
100
AcDbViewportTableRecord
  2
*ACTIVE
 70
     0
 10
0.0
 20
0.0
 11
1.0
 21
1.0
 12
210.0
 22
148.5
 13
0.0
 23
0.0
 14
10.0
 24
10.0
 15
10.0
 25
10.0
 16
0.0
 26
0.0
 36
1.0
 17
0.0
 27
0.0
 37
0.0
 40
341.0
 41
1.24
 42
50.0
 43
0.0
 44
0.0
 50
0.0
 51
0.0
 71
     0
 72
   100
 73
     1
 74
     3
 75
     0
 76
     0
 77
     0
 78
     0
  0
ENDTAB
  0
TABLE
  2
LTYPE
  5
5
330
0
100
AcDbSymbolTable
 70
     1
  0
LTYPE
  5
14
330
5
100
AcDbSymbolTableRecord
100
AcDbLinetypeTableRecord
  2
BYBLOCK
 70
     0
  3

 72
    65
 73
     0
 40
0.0
  0
LTYPE
  5
15
330
5
100
AcDbSymbolTableRecord
100
AcDbLinetypeTableRecord
  2
BYLAYER
 70
     0
  3

 72
    65
 73
     0
 40
0.0
  0
LTYPE
  5
16
330
5
100
AcDbSymbolTableRecord
100
AcDbLinetypeTableRecord
  2
CONTINUOUS
 70
     0
  3
Solid line
 72
    65
 73
     0
 40
0.0
  0
ENDTAB
  0
TABLE
  2
LAYER
  5
2
100
AcDbSymbolTable
 70
2
  0
LAYER
  5
50
100
AcDbSymbolTableRecord
100
AcDbLayerTableRecord
  2
0
 70
0
  6
CONTINUOUS
  0
LAYER
  5
51
100
AcDbSymbolTableRecord
100
AcDbLayerTableRecord
  2
Layer_1
 70
0
  6
CONTINUOUS
  0
ENDTAB
  0
TABLE
  2
STYLE
  5
3
330
0
100
AcDbSymbolTable
 70
     1
  0
STYLE
  5
11
330
3
100
AcDbSymbolTableRecord
100
AcDbTextStyleTableRecord
  2
STANDARD
 70
     0
 40
0.0
 41
1.0
 50
0.0
 71
     0
 42
2.5
  3
txt
  4

  0
ENDTAB
  0
TABLE
  2
VIEW
  5
6
330
0
100
AcDbSymbolTable
 70
     0
  0
ENDTAB
  0
TABLE
  2
UCS
  5
7
330
0
100
AcDbSymbolTable
 70
     0
  0
ENDTAB
  0
TABLE
  2
APPID
  5
9
330
0
100
AcDbSymbolTable
 70
     2
  0
APPID
  5
12
330
9
100
AcDbSymbolTableRecord
100
AcDbRegAppTableRecord
  2
ACAD
 70
     0
  0
ENDTAB
  0
TABLE
  2
DIMSTYLE
  5
A
330
0
100
AcDbSymbolTable
 70
     1
  0
DIMSTYLE
105
27
330
A
100
AcDbSymbolTableRecord
100
AcDbDimStyleTableRecord
  2
ISO-25
 70
     0
  3

  4

  5

  6

  7

 40
1.0
 41
2.5
 42
0.625
 43
3.75
 44
1.25
 45
0.0
 46
0.0
 47
0.0
 48
0.0
140
2.5
141
2.5
142
0.0
143
0.03937007874016
144
1.0
145
0.0
146
1.0
147
0.625
 71
     0
 72
     0
 73
     0
 74
     0
 75
     0
 76
     0
 77
     1
 78
     8
170
     0
171
     3
172
     1
173
     0
174
     0
175
     0
176
     0
177
     0
178
     0
270
     2
271
     2
272
     2
273
     2
274
     3
340
11
275
     0
280
     0
281
     0
282
     0
283
     0
284
     8
285
     0
286
     0
287
     3
288
     0
  0
ENDTAB
  0
TABLE
  2
BLOCK_RECORD
  5
1
330
0
100
AcDbSymbolTable
 70
     1
  0
BLOCK_RECORD
  5
1F
330
1
100
AcDbSymbolTableRecord
100
AcDbBlockTableRecord
  2
*MODEL_SPACE
  0
BLOCK_RECORD
  5
1B
330
1
100
AcDbSymbolTableRecord
100
AcDbBlockTableRecord
  2
*PAPER_SPACE
  0
ENDTAB
  0
ENDSEC
  0
SECTION
  2
BLOCKS
  0
BLOCK
  5
20
330
1F
100
AcDbEntity
  8
0
100
AcDbBlockBegin
  2
*MODEL_SPACE
 70
     0
 10
0.0
 20
0.0
 30
0.0
  3
*MODEL_SPACE
  1

  0
ENDBLK
  5
21
330
1F
100
AcDbEntity
  8
0
100
AcDbBlockEnd
  0
BLOCK
  5
1C
330
1B
100
AcDbEntity
 67
     1
  8
0
100
AcDbBlockBegin
  2
*PAPER_SPACE
  1

  0
ENDBLK
  5
1D
330
1B
100
AcDbEntity
 67
     1
  8
0
100
AcDbBlockEnd
  0
ENDSEC
  0
SECTION
  2
ENTITIES
  0
LINE
  5
100
100
AcDbEntity
  8
Layer_1
 62
7
100
AcDbLine
 10
118.627092
 20
342.127271
 30
0.0
 11
133.627104
 21
342.127271
 31
0.0
  0
LINE
  5
101
100
AcDbEntity
  8
Layer_1
 62
7
100
AcDbLine
 10
133.627104
 20
342.127271
 30
0.0
 11
133.627104
 21
345.127274
 31
0.0
  0
LINE
  5
102
100
AcDbEntity
  8
Layer_1
 62
7
100
AcDbLine
 10
133.627104
 20
345.127274
 30
0.0
 11
148.627114
 21
345.127274
 31
0.0
  0
LINE
  5
103
100
AcDbEntity
  8
Layer_1
 62
7
100
AcDbLine
 10
148.627114
 20
345.127274
 30
0.0
 11
148.627114
 21
342.127271
 31
0.0
  0
LINE
  5
104
100
AcDbEntity
  8
Layer_1
 62
7
100
AcDbLine
 10
148.627114
 20
342.127271
 30
0.0
 11
163.627129
 21
342.127271
 31
0.0
  0
LINE
  5
105
100
AcDbEntity
  8
Layer_1
 62
7
100
AcDbLine
 10
163.627129
 20
342.127271
 30
0.0
 11
163.627129
 21
345.127274
 31
0.0
  0
LINE
  5
106
100
AcDbEntity
  8
Layer_1
 62
7
100
AcDbLine
 10
163.627129
 20
345.127274
 30
0.0
 11
178.627138
 21
345.127274
 31
0.0
  0
LINE
  5
107
100
AcDbEntity
  8
Layer_1
 62
7
100
AcDbLine
 10
178.627138
 20
345.127274
 30
0.0
 11
178.627138
 21
342.127271
 31
0.0
  0
LINE
  5
108
100
AcDbEntity
  8
Layer_1
 62
7
100
AcDbLine
 10
178.627138
 20
342.127271
 30
0.0
 11
193.627153
 21
342.127271
 31
0.0
  0
LINE
  5
109
100
AcDbEntity
  8
Layer_1
 62
7
100
AcDbLine
 10
193.627153
 20
342.127271
 30
0.0
 11
193.627153
 21
345.127274
 31
0.0
  0
LINE
  5
10a
100
AcDbEntity
  8
Layer_1
 62
7
100
AcDbLine
 10
193.627153
 20
345.127274
 30
0.0
 11
208.627166
 21
345.127274
 31
0.0
  0
LINE
  5
10b
100
AcDbEntity
  8
Layer_1
 62
7
100
AcDbLine
 10
208.627166
 20
345.127274
 30
0.0
 11
208.627166
 21
342.127271
 31
0.0
  0
LINE
  5
10c
100
AcDbEntity
  8
Layer_1
 62
7
100
AcDbLine
 10
208.627166
 20
342.127271
 30
0.0
 11
223.627178
 21
342.127271
 31
0.0
  0
LINE
  5
10d
100
AcDbEntity
  8
Layer_1
 62
7
100
AcDbLine
 10
223.627178
 20
342.127271
 30
0.0
 11
223.627178
 21
345.127274
 31
0.0
  0
LINE
  5
10e
100
AcDbEntity
  8
Layer_1
 62
7
100
AcDbLine
 10
223.627178
 20
345.127274
 30
0.0
 11
238.627190
 21
345.127274
 31
0.0
  0
LINE
  5
10f
100
AcDbEntity
  8
Layer_1
 62
7
100
AcDbLine
 10
238.627190
 20
345.127274
 30
0.0
 11
238.627190
 21
342.127271
 31
0.0
  0
LINE
  5
110
100
AcDbEntity
  8
Layer_1
 62
7
100
AcDbLine
 10
238.627190
 20
342.127271
 30
0.0
 11
253.627203
 21
342.127271
 31
0.0
  0
LINE
  5
111
100
AcDbEntity
  8
Layer_1
 62
7
100
AcDbLine
 10
253.627203
 20
342.127271
 30
0.0
 11
253.627203
 21
345.127274
 31
0.0
  0
LINE
  5
112
100
AcDbEntity
  8
Layer_1
 62
7
100
AcDbLine
 10
253.627203
 20
345.127274
 30
0.0
 11
268.627215
 21
345.127274
 31
0.0
  0
LINE
  5
113
100
AcDbEntity
  8
Layer_1
 62
7
100
AcDbLine
 10
268.627215
 20
345.127274
 30
0.0
 11
268.627215
 21
342.127271
 31
0.0
  0
LINE
  5
114
100
AcDbEntity
  8
Layer_1
 62
7
100
AcDbLine
 10
268.627215
 20
342.127271
 30
0.0
 11
283.627227
 21
342.127271
 31
0.0
  0
LINE
  5
115
100
AcDbEntity
  8
Layer_1
 62
7
100
AcDbLine
 10
283.627227
 20
342.127271
 30
0.0
 11
283.627227
 21
345.127274
 31
0.0
  0
LINE
  5
116
100
AcDbEntity
  8
Layer_1
 62
7
100
AcDbLine
 10
283.627227
 20
345.127274
 30
0.0
 11
307.877259
 21
345.127274
 31
0.0
  0
LINE
  5
117
100
AcDbEntity
  8
Layer_1
 62
7
100
AcDbLine
 10
307.877259
 20
345.127274
 30
0.0
 11
307.877259
 21
342.127271
 31
0.0
  0
LINE
  5
118
100
AcDbEntity
  8
Layer_1
 62
7
100
AcDbLine
 10
307.877259
 20
342.127271
 30
0.0
 11
329.127266
 21
342.127271
 31
0.0
  0
LINE
  5
119
100
AcDbEntity
  8
Layer_1
 62
7
100
AcDbLine
 10
329.127266
 20
342.127271
 30
0.0
 11
329.127266
 21
325.127257
 31
0.0
  0
LINE
  5
11a
100
AcDbEntity
  8
Layer_1
 62
7
100
AcDbLine
 10
329.127266
 20
325.127257
 30
0.0
 11
332.127260
 21
325.127257
 31
0.0
  0
LINE
  5
11b
100
AcDbEntity
  8
Layer_1
 62
7
100
AcDbLine
 10
332.127260
 20
325.127257
 30
0.0
 11
332.127260
 21
305.127241
 31
0.0
  0
LINE
  5
11c
100
AcDbEntity
  8
Layer_1
 62
7
100
AcDbLine
 10
332.127260
 20
305.127241
 30
0.0
 11
329.127266
 21
305.127241
 31
0.0
  0
LINE
  5
11d
100
AcDbEntity
  8
Layer_1
 62
7
100
AcDbLine
 10
329.127266
 20
305.127241
 30
0.0
 11
329.127266
 21
290.127228
 31
0.0
  0
LINE
  5
11e
100
AcDbEntity
  8
Layer_1
 62
7
100
AcDbLine
 10
329.127266
 20
290.127228
 30
0.0
 11
332.127260
 21
290.127228
 31
0.0
  0
LINE
  5
11f
100
AcDbEntity
  8
Layer_1
 62
7
100
AcDbLine
 10
332.127260
 20
290.127228
 30
0.0
 11
332.127260
 21
275.127216
 31
0.0
  0
LINE
  5
120
100
AcDbEntity
  8
Layer_1
 62
7
100
AcDbLine
 10
332.127260
 20
275.127216
 30
0.0
 11
329.127266
 21
275.127216
 31
0.0
  0
LINE
  5
121
100
AcDbEntity
  8
Layer_1
 62
7
100
AcDbLine
 10
329.127266
 20
275.127216
 30
0.0
 11
329.127266
 21
260.127204
 31
0.0
  0
LINE
  5
122
100
AcDbEntity
  8
Layer_1
 62
7
100
AcDbLine
 10
329.127266
 20
260.127204
 30
0.0
 11
332.127260
 21
260.127204
 31
0.0
  0
LINE
  5
123
100
AcDbEntity
  8
Layer_1
 62
7
100
AcDbLine
 10
332.127260
 20
260.127204
 30
0.0
 11
332.127260
 21
245.127191
 31
0.0
  0
LINE
  5
124
100
AcDbEntity
  8
Layer_1
 62
7
100
AcDbLine
 10
332.127260
 20
245.127191
 30
0.0
 11
329.127266
 21
245.127191
 31
0.0
  0
LINE
  5
125
100
AcDbEntity
  8
Layer_1
 62
7
100
AcDbLine
 10
329.127266
 20
245.127191
 30
0.0
 11
329.127266
 21
230.127179
 31
0.0
  0
LINE
  5
126
100
AcDbEntity
  8
Layer_1
 62
7
100
AcDbLine
 10
329.127266
 20
230.127179
 30
0.0
 11
332.127260
 21
230.127179
 31
0.0
  0
LINE
  5
127
100
AcDbEntity
  8
Layer_1
 62
7
100
AcDbLine
 10
332.127260
 20
230.127179
 30
0.0
 11
332.127260
 21
215.127167
 31
0.0
  0
LINE
  5
128
100
AcDbEntity
  8
Layer_1
 62
7
100
AcDbLine
 10
332.127260
 20
215.127167
 30
0.0
 11
329.127266
 21
215.127167
 31
0.0
  0
LINE
  5
129
100
AcDbEntity
  8
Layer_1
 62
7
100
AcDbLine
 10
329.127266
 20
215.127167
 30
0.0
 11
329.127266
 21
200.127154
 31
0.0
  0
LINE
  5
12a
100
AcDbEntity
  8
Layer_1
 62
7
100
AcDbLine
 10
329.127266
 20
200.127154
 30
0.0
 11
332.127260
 21
200.127154
 31
0.0
  0
LINE
  5
12b
100
AcDbEntity
  8
Layer_1
 62
7
100
AcDbLine
 10
332.127260
 20
200.127154
 30
0.0
 11
332.127260
 21
185.127142
 31
0.0
  0
LINE
  5
12c
100
AcDbEntity
  8
Layer_1
 62
7
100
AcDbLine
 10
332.127260
 20
185.127142
 30
0.0
 11
329.127266
 21
185.127142
 31
0.0
  0
LINE
  5
12d
100
AcDbEntity
  8
Layer_1
 62
7
100
AcDbLine
 10
329.127266
 20
185.127142
 30
0.0
 11
329.127266
 21
170.127130
 31
0.0
  0
LINE
  5
12e
100
AcDbEntity
  8
Layer_1
 62
7
100
AcDbLine
 10
329.127266
 20
170.127130
 30
0.0
 11
332.127260
 21
170.127130
 31
0.0
  0
LINE
  5
12f
100
AcDbEntity
  8
Layer_1
 62
7
100
AcDbLine
 10
332.127260
 20
170.127130
 30
0.0
 11
332.127260
 21
155.127117
 31
0.0
  0
LINE
  5
130
100
AcDbEntity
  8
Layer_1
 62
7
100
AcDbLine
 10
332.127260
 20
155.127117
 30
0.0
 11
329.127266
 21
155.127117
 31
0.0
  0
LINE
  5
131
100
AcDbEntity
  8
Layer_1
 62
7
100
AcDbLine
 10
329.127266
 20
155.127117
 30
0.0
 11
329.127266
 21
140.127105
 31
0.0
  0
LINE
  5
132
100
AcDbEntity
  8
Layer_1
 62
7
100
AcDbLine
 10
329.127266
 20
140.127105
 30
0.0
 11
332.127260
 21
140.127105
 31
0.0
  0
LINE
  5
133
100
AcDbEntity
  8
Layer_1
 62
7
100
AcDbLine
 10
332.127260
 20
140.127105
 30
0.0
 11
332.127260
 21
125.127093
 31
0.0
  0
LINE
  5
134
100
AcDbEntity
  8
Layer_1
 62
7
100
AcDbLine
 10
332.127260
 20
125.127093
 30
0.0
 11
329.127266
 21
125.127093
 31
0.0
  0
LINE
  5
135
100
AcDbEntity
  8
Layer_1
 62
7
100
AcDbLine
 10
329.127266
 20
125.127093
 30
0.0
 11
329.127266
 21
110.127080
 31
0.0
  0
LINE
  5
136
100
AcDbEntity
  8
Layer_1
 62
7
100
AcDbLine
 10
329.127266
 20
110.127080
 30
0.0
 11
332.127260
 21
110.127080
 31
0.0
  0
LINE
  5
137
100
AcDbEntity
  8
Layer_1
 62
7
100
AcDbLine
 10
332.127260
 20
110.127080
 30
0.0
 11
332.127260
 21
95.127068
 31
0.0
  0
LINE
  5
138
100
AcDbEntity
  8
Layer_1
 62
7
100
AcDbLine
 10
332.127260
 20
95.127068
 30
0.0
 11
329.127266
 21
95.127068
 31
0.0
  0
LINE
  5
139
100
AcDbEntity
  8
Layer_1
 62
7
100
AcDbLine
 10
329.127266
 20
95.127068
 30
0.0
 11
329.127266
 21
80.127056
 31
0.0
  0
LINE
  5
13a
100
AcDbEntity
  8
Layer_1
 62
7
100
AcDbLine
 10
329.127266
 20
80.127056
 30
0.0
 11
332.127260
 21
80.127056
 31
0.0
  0
LINE
  5
13b
100
AcDbEntity
  8
Layer_1
 62
7
100
AcDbLine
 10
332.127260
 20
80.127056
 30
0.0
 11
332.127260
 21
65.127043
 31
0.0
  0
LINE
  5
13c
100
AcDbEntity
  8
Layer_1
 62
7
100
AcDbLine
 10
332.127260
 20
65.127043
 30
0.0
 11
329.127266
 21
65.127043
 31
0.0
  0
LINE
  5
13d
100
AcDbEntity
  8
Layer_1
 62
7
100
AcDbLine
 10
329.127266
 20
65.127043
 30
0.0
 11
329.127266
 21
50.127045
 31
0.0
  0
LINE
  5
13e
100
AcDbEntity
  8
Layer_1
 62
7
100
AcDbLine
 10
329.127266
 20
50.127045
 30
0.0
 11
332.127260
 21
50.127045
 31
0.0
  0
LINE
  5
13f
100
AcDbEntity
  8
Layer_1
 62
7
100
AcDbLine
 10
332.127260
 20
50.127045
 30
0.0
 11
332.127260
 21
30.127001
 31
0.0
  0
LINE
  5
140
100
AcDbEntity
  8
Layer_1
 62
7
100
AcDbLine
 10
332.127260
 20
30.127001
 30
0.0
 11
329.127266
 21
30.127001
 31
0.0
  0
LINE
  5
141
100
AcDbEntity
  8
Layer_1
 62
7
100
AcDbLine
 10
329.127266
 20
30.127001
 30
0.0
 11
329.127266
 21
13.127006
 31
0.0
  0
LINE
  5
142
100
AcDbEntity
  8
Layer_1
 62
7
100
AcDbLine
 10
329.127266
 20
13.127006
 30
0.0
 11
307.877259
 21
13.127006
 31
0.0
  0
LINE
  5
143
100
AcDbEntity
  8
Layer_1
 62
7
100
AcDbLine
 10
307.877259
 20
13.127006
 30
0.0
 11
307.877259
 21
10.127012
 31
0.0
  0
LINE
  5
144
100
AcDbEntity
  8
Layer_1
 62
7
100
AcDbLine
 10
307.877259
 20
10.127012
 30
0.0
 11
283.627227
 21
10.127012
 31
0.0
  0
LINE
  5
145
100
AcDbEntity
  8
Layer_1
 62
7
100
AcDbLine
 10
283.627227
 20
10.127012
 30
0.0
 11
283.627227
 21
13.127006
 31
0.0
  0
LINE
  5
146
100
AcDbEntity
  8
Layer_1
 62
7
100
AcDbLine
 10
283.627227
 20
13.127006
 30
0.0
 11
268.627215
 21
13.127006
 31
0.0
  0
LINE
  5
147
100
AcDbEntity
  8
Layer_1
 62
7
100
AcDbLine
 10
268.627215
 20
13.127006
 30
0.0
 11
268.627215
 21
10.127012
 31
0.0
  0
LINE
  5
148
100
AcDbEntity
  8
Layer_1
 62
7
100
AcDbLine
 10
268.627215
 20
10.127012
 30
0.0
 11
253.627203
 21
10.127012
 31
0.0
  0
LINE
  5
149
100
AcDbEntity
  8
Layer_1
 62
7
100
AcDbLine
 10
253.627203
 20
10.127012
 30
0.0
 11
253.627203
 21
13.127006
 31
0.0
  0
LINE
  5
14a
100
AcDbEntity
  8
Layer_1
 62
7
100
AcDbLine
 10
253.627203
 20
13.127006
 30
0.0
 11
238.627190
 21
13.127006
 31
0.0
  0
LINE
  5
14b
100
AcDbEntity
  8
Layer_1
 62
7
100
AcDbLine
 10
238.627190
 20
13.127006
 30
0.0
 11
238.627190
 21
10.127012
 31
0.0
  0
LINE
  5
14c
100
AcDbEntity
  8
Layer_1
 62
7
100
AcDbLine
 10
238.627190
 20
10.127012
 30
0.0
 11
223.627178
 21
10.127012
 31
0.0
  0
LINE
  5
14d
100
AcDbEntity
  8
Layer_1
 62
7
100
AcDbLine
 10
223.627178
 20
10.127012
 30
0.0
 11
223.627178
 21
13.127006
 31
0.0
  0
LINE
  5
14e
100
AcDbEntity
  8
Layer_1
 62
7
100
AcDbLine
 10
223.627178
 20
13.127006
 30
0.0
 11
208.627166
 21
13.127006
 31
0.0
  0
LINE
  5
14f
100
AcDbEntity
  8
Layer_1
 62
7
100
AcDbLine
 10
208.627166
 20
13.127006
 30
0.0
 11
208.627166
 21
10.127012
 31
0.0
  0
LINE
  5
150
100
AcDbEntity
  8
Layer_1
 62
7
100
AcDbLine
 10
208.627166
 20
10.127012
 30
0.0
 11
193.627153
 21
10.127012
 31
0.0
  0
LINE
  5
151
100
AcDbEntity
  8
Layer_1
 62
7
100
AcDbLine
 10
193.627153
 20
10.127012
 30
0.0
 11
193.627153
 21
13.127006
 31
0.0
  0
LINE
  5
152
100
AcDbEntity
  8
Layer_1
 62
7
100
AcDbLine
 10
193.627153
 20
13.127006
 30
0.0
 11
178.627138
 21
13.127006
 31
0.0
  0
LINE
  5
153
100
AcDbEntity
  8
Layer_1
 62
7
100
AcDbLine
 10
178.627138
 20
13.127006
 30
0.0
 11
178.627138
 21
10.127012
 31
0.0
  0
LINE
  5
154
100
AcDbEntity
  8
Layer_1
 62
7
100
AcDbLine
 10
178.627138
 20
10.127012
 30
0.0
 11
163.627129
 21
10.127012
 31
0.0
  0
LINE
  5
155
100
AcDbEntity
  8
Layer_1
 62
7
100
AcDbLine
 10
163.627129
 20
10.127012
 30
0.0
 11
163.627129
 21
13.127006
 31
0.0
  0
LINE
  5
156
100
AcDbEntity
  8
Layer_1
 62
7
100
AcDbLine
 10
163.627129
 20
13.127006
 30
0.0
 11
148.627114
 21
13.127006
 31
0.0
  0
LINE
  5
157
100
AcDbEntity
  8
Layer_1
 62
7
100
AcDbLine
 10
148.627114
 20
13.127006
 30
0.0
 11
148.627114
 21
10.127012
 31
0.0
  0
LINE
  5
158
100
AcDbEntity
  8
Layer_1
 62
7
100
AcDbLine
 10
148.627114
 20
10.127012
 30
0.0
 11
133.627104
 21
10.127012
 31
0.0
  0
LINE
  5
159
100
AcDbEntity
  8
Layer_1
 62
7
100
AcDbLine
 10
133.627104
 20
10.127012
 30
0.0
 11
133.627104
 21
13.127006
 31
0.0
  0
LINE
  5
15a
100
AcDbEntity
  8
Layer_1
 62
7
100
AcDbLine
 10
133.627104
 20
13.127006
 30
0.0
 11
118.627092
 21
13.127006
 31
0.0
  0
LINE
  5
15b
100
AcDbEntity
  8
Layer_1
 62
7
100
AcDbLine
 10
118.627092
 20
13.127006
 30
0.0
 11
118.627092
 21
10.127012
 31
0.0
  0
LINE
  5
15c
100
AcDbEntity
  8
Layer_1
 62
7
100
AcDbLine
 10
118.627092
 20
10.127012
 30
0.0
 11
103.627079
 21
10.127012
 31
0.0
  0
LINE
  5
15d
100
AcDbEntity
  8
Layer_1
 62
7
100
AcDbLine
 10
103.627079
 20
10.127012
 30
0.0
 11
103.627079
 21
13.127006
 31
0.0
  0
LINE
  5
15e
100
AcDbEntity
  8
Layer_1
 62
7
100
AcDbLine
 10
103.627079
 20
13.127006
 30
0.0
 11
88.627064
 21
13.127006
 31
0.0
  0
LINE
  5
15f
100
AcDbEntity
  8
Layer_1
 62
7
100
AcDbLine
 10
88.627064
 20
13.127006
 30
0.0
 11
88.627064
 21
10.127012
 31
0.0
  0
LINE
  5
160
100
AcDbEntity
  8
Layer_1
 62
7
100
AcDbLine
 10
88.627064
 20
10.127012
 30
0.0
 11
73.627055
 21
10.127012
 31
0.0
  0
LINE
  5
161
100
AcDbEntity
  8
Layer_1
 62
7
100
AcDbLine
 10
73.627055
 20
10.127012
 30
0.0
 11
73.627055
 21
13.127006
 31
0.0
  0
LINE
  5
162
100
AcDbEntity
  8
Layer_1
 62
7
100
AcDbLine
 10
73.627055
 20
13.127006
 30
0.0
 11
58.627042
 21
13.127006
 31
0.0
  0
LINE
  5
163
100
AcDbEntity
  8
Layer_1
 62
7
100
AcDbLine
 10
58.627042
 20
13.127006
 30
0.0
 11
58.627042
 21
10.127012
 31
0.0
  0
LINE
  5
164
100
AcDbEntity
  8
Layer_1
 62
7
100
AcDbLine
 10
58.627042
 20
10.127012
 30
0.0
 11
34.377021
 21
10.127012
 31
0.0
  0
LINE
  5
165
100
AcDbEntity
  8
Layer_1
 62
7
100
AcDbLine
 10
34.377021
 20
10.127012
 30
0.0
 11
34.377021
 21
13.127006
 31
0.0
  0
LINE
  5
166
100
AcDbEntity
  8
Layer_1
 62
7
100
AcDbLine
 10
34.377021
 20
13.127006
 30
0.0
 11
13.127004
 21
13.127006
 31
0.0
  0
LINE
  5
167
100
AcDbEntity
  8
Layer_1
 62
7
100
AcDbLine
 10
13.127004
 20
13.127006
 30
0.0
 11
13.127004
 21
30.127001
 31
0.0
  0
LINE
  5
168
100
AcDbEntity
  8
Layer_1
 62
7
100
AcDbLine
 10
13.127004
 20
30.127001
 30
0.0
 11
10.127001
 21
30.127001
 31
0.0
  0
LINE
  5
169
100
AcDbEntity
  8
Layer_1
 62
7
100
AcDbLine
 10
10.127001
 20
30.127001
 30
0.0
 11
10.127001
 21
50.127045
 31
0.0
  0
LINE
  5
16a
100
AcDbEntity
  8
Layer_1
 62
7
100
AcDbLine
 10
10.127001
 20
50.127045
 30
0.0
 11
13.127004
 21
50.127045
 31
0.0
  0
LINE
  5
16b
100
AcDbEntity
  8
Layer_1
 62
7
100
AcDbLine
 10
13.127004
 20
50.127045
 30
0.0
 11
13.127004
 21
65.127043
 31
0.0
  0
LINE
  5
16c
100
AcDbEntity
  8
Layer_1
 62
7
100
AcDbLine
 10
13.127004
 20
65.127043
 30
0.0
 11
10.127001
 21
65.127043
 31
0.0
  0
LINE
  5
16d
100
AcDbEntity
  8
Layer_1
 62
7
100
AcDbLine
 10
10.127001
 20
65.127043
 30
0.0
 11
10.127001
 21
80.127056
 31
0.0
  0
LINE
  5
16e
100
AcDbEntity
  8
Layer_1
 62
7
100
AcDbLine
 10
10.127001
 20
80.127056
 30
0.0
 11
13.127004
 21
80.127056
 31
0.0
  0
LINE
  5
16f
100
AcDbEntity
  8
Layer_1
 62
7
100
AcDbLine
 10
13.127004
 20
80.127056
 30
0.0
 11
13.127004
 21
95.127068
 31
0.0
  0
LINE
  5
170
100
AcDbEntity
  8
Layer_1
 62
7
100
AcDbLine
 10
13.127004
 20
95.127068
 30
0.0
 11
10.127001
 21
95.127068
 31
0.0
  0
LINE
  5
171
100
AcDbEntity
  8
Layer_1
 62
7
100
AcDbLine
 10
10.127001
 20
95.127068
 30
0.0
 11
10.127001
 21
110.127080
 31
0.0
  0
LINE
  5
172
100
AcDbEntity
  8
Layer_1
 62
7
100
AcDbLine
 10
10.127001
 20
110.127080
 30
0.0
 11
13.127004
 21
110.127080
 31
0.0
  0
LINE
  5
173
100
AcDbEntity
  8
Layer_1
 62
7
100
AcDbLine
 10
13.127004
 20
110.127080
 30
0.0
 11
13.127004
 21
125.127093
 31
0.0
  0
LINE
  5
174
100
AcDbEntity
  8
Layer_1
 62
7
100
AcDbLine
 10
13.127004
 20
125.127093
 30
0.0
 11
10.127001
 21
125.127093
 31
0.0
  0
LINE
  5
175
100
AcDbEntity
  8
Layer_1
 62
7
100
AcDbLine
 10
10.127001
 20
125.127093
 30
0.0
 11
10.127001
 21
140.127105
 31
0.0
  0
LINE
  5
176
100
AcDbEntity
  8
Layer_1
 62
7
100
AcDbLine
 10
10.127001
 20
140.127105
 30
0.0
 11
13.127004
 21
140.127105
 31
0.0
  0
LINE
  5
177
100
AcDbEntity
  8
Layer_1
 62
7
100
AcDbLine
 10
13.127004
 20
140.127105
 30
0.0
 11
13.127004
 21
155.127117
 31
0.0
  0
LINE
  5
178
100
AcDbEntity
  8
Layer_1
 62
7
100
AcDbLine
 10
13.127004
 20
155.127117
 30
0.0
 11
10.127001
 21
155.127117
 31
0.0
  0
LINE
  5
179
100
AcDbEntity
  8
Layer_1
 62
7
100
AcDbLine
 10
10.127001
 20
155.127117
 30
0.0
 11
10.127001
 21
170.127130
 31
0.0
  0
LINE
  5
17a
100
AcDbEntity
  8
Layer_1
 62
7
100
AcDbLine
 10
10.127001
 20
170.127130
 30
0.0
 11
13.127004
 21
170.127130
 31
0.0
  0
LINE
  5
17b
100
AcDbEntity
  8
Layer_1
 62
7
100
AcDbLine
 10
13.127004
 20
170.127130
 30
0.0
 11
13.127004
 21
185.127142
 31
0.0
  0
LINE
  5
17c
100
AcDbEntity
  8
Layer_1
 62
7
100
AcDbLine
 10
13.127004
 20
185.127142
 30
0.0
 11
10.127001
 21
185.127142
 31
0.0
  0
LINE
  5
17d
100
AcDbEntity
  8
Layer_1
 62
7
100
AcDbLine
 10
10.127001
 20
185.127142
 30
0.0
 11
10.127001
 21
200.127154
 31
0.0
  0
LINE
  5
17e
100
AcDbEntity
  8
Layer_1
 62
7
100
AcDbLine
 10
10.127001
 20
200.127154
 30
0.0
 11
13.127004
 21
200.127154
 31
0.0
  0
LINE
  5
17f
100
AcDbEntity
  8
Layer_1
 62
7
100
AcDbLine
 10
13.127004
 20
200.127154
 30
0.0
 11
13.127004
 21
215.127167
 31
0.0
  0
LINE
  5
180
100
AcDbEntity
  8
Layer_1
 62
7
100
AcDbLine
 10
13.127004
 20
215.127167
 30
0.0
 11
10.127001
 21
215.127167
 31
0.0
  0
LINE
  5
181
100
AcDbEntity
  8
Layer_1
 62
7
100
AcDbLine
 10
10.127001
 20
215.127167
 30
0.0
 11
10.127001
 21
230.127179
 31
0.0
  0
LINE
  5
182
100
AcDbEntity
  8
Layer_1
 62
7
100
AcDbLine
 10
10.127001
 20
230.127179
 30
0.0
 11
13.127004
 21
230.127179
 31
0.0
  0
LINE
  5
183
100
AcDbEntity
  8
Layer_1
 62
7
100
AcDbLine
 10
13.127004
 20
230.127179
 30
0.0
 11
13.127004
 21
245.127191
 31
0.0
  0
LINE
  5
184
100
AcDbEntity
  8
Layer_1
 62
7
100
AcDbLine
 10
13.127004
 20
245.127191
 30
0.0
 11
10.127001
 21
245.127191
 31
0.0
  0
LINE
  5
185
100
AcDbEntity
  8
Layer_1
 62
7
100
AcDbLine
 10
10.127001
 20
245.127191
 30
0.0
 11
10.127001
 21
260.127204
 31
0.0
  0
LINE
  5
186
100
AcDbEntity
  8
Layer_1
 62
7
100
AcDbLine
 10
10.127001
 20
260.127204
 30
0.0
 11
13.127004
 21
260.127204
 31
0.0
  0
LINE
  5
187
100
AcDbEntity
  8
Layer_1
 62
7
100
AcDbLine
 10
13.127004
 20
260.127204
 30
0.0
 11
13.127004
 21
275.127216
 31
0.0
  0
LINE
  5
188
100
AcDbEntity
  8
Layer_1
 62
7
100
AcDbLine
 10
13.127004
 20
275.127216
 30
0.0
 11
10.127001
 21
275.127216
 31
0.0
  0
LINE
  5
189
100
AcDbEntity
  8
Layer_1
 62
7
100
AcDbLine
 10
10.127001
 20
275.127216
 30
0.0
 11
10.127001
 21
290.127228
 31
0.0
  0
LINE
  5
18a
100
AcDbEntity
  8
Layer_1
 62
7
100
AcDbLine
 10
10.127001
 20
290.127228
 30
0.0
 11
13.127004
 21
290.127228
 31
0.0
  0
LINE
  5
18b
100
AcDbEntity
  8
Layer_1
 62
7
100
AcDbLine
 10
13.127004
 20
290.127228
 30
0.0
 11
13.127004
 21
305.127241
 31
0.0
  0
LINE
  5
18c
100
AcDbEntity
  8
Layer_1
 62
7
100
AcDbLine
 10
13.127004
 20
305.127241
 30
0.0
 11
10.127001
 21
305.127241
 31
0.0
  0
LINE
  5
18d
100
AcDbEntity
  8
Layer_1
 62
7
100
AcDbLine
 10
10.127001
 20
305.127241
 30
0.0
 11
10.127001
 21
325.127257
 31
0.0
  0
LINE
  5
18e
100
AcDbEntity
  8
Layer_1
 62
7
100
AcDbLine
 10
10.127001
 20
325.127257
 30
0.0
 11
13.127004
 21
325.127257
 31
0.0
  0
LINE
  5
18f
100
AcDbEntity
  8
Layer_1
 62
7
100
AcDbLine
 10
13.127004
 20
325.127257
 30
0.0
 11
13.127004
 21
342.127271
 31
0.0
  0
LINE
  5
190
100
AcDbEntity
  8
Layer_1
 62
7
100
AcDbLine
 10
13.127004
 20
342.127271
 30
0.0
 11
34.377021
 21
342.127271
 31
0.0
  0
LINE
  5
191
100
AcDbEntity
  8
Layer_1
 62
7
100
AcDbLine
 10
34.377021
 20
342.127271
 30
0.0
 11
34.377021
 21
345.127274
 31
0.0
  0
LINE
  5
192
100
AcDbEntity
  8
Layer_1
 62
7
100
AcDbLine
 10
34.377021
 20
345.127274
 30
0.0
 11
58.627042
 21
345.127274
 31
0.0
  0
LINE
  5
193
100
AcDbEntity
  8
Layer_1
 62
7
100
AcDbLine
 10
58.627042
 20
345.127274
 30
0.0
 11
58.627042
 21
342.127271
 31
0.0
  0
LINE
  5
194
100
AcDbEntity
  8
Layer_1
 62
7
100
AcDbLine
 10
58.627042
 20
342.127271
 30
0.0
 11
73.627055
 21
342.127271
 31
0.0
  0
LINE
  5
195
100
AcDbEntity
  8
Layer_1
 62
7
100
AcDbLine
 10
73.627055
 20
342.127271
 30
0.0
 11
73.627055
 21
345.127274
 31
0.0
  0
LINE
  5
196
100
AcDbEntity
  8
Layer_1
 62
7
100
AcDbLine
 10
73.627055
 20
345.127274
 30
0.0
 11
88.627064
 21
345.127274
 31
0.0
  0
LINE
  5
197
100
AcDbEntity
  8
Layer_1
 62
7
100
AcDbLine
 10
88.627064
 20
345.127274
 30
0.0
 11
88.627064
 21
342.127271
 31
0.0
  0
LINE
  5
198
100
AcDbEntity
  8
Layer_1
 62
7
100
AcDbLine
 10
88.627064
 20
342.127271
 30
0.0
 11
103.627079
 21
342.127271
 31
0.0
  0
LINE
  5
199
100
AcDbEntity
  8
Layer_1
 62
7
100
AcDbLine
 10
103.627079
 20
342.127271
 30
0.0
 11
103.627079
 21
345.127274
 31
0.0
  0
LINE
  5
19a
100
AcDbEntity
  8
Layer_1
 62
7
100
AcDbLine
 10
103.627079
 20
345.127274
 30
0.0
 11
118.627092
 21
345.127274
 31
0.0
  0
LINE
  5
19b
100
AcDbEntity
  8
Layer_1
 62
7
100
AcDbLine
 10
118.627092
 20
345.127274
 30
0.0
 11
118.627092
 21
342.127271
 31
0.0
  0
LINE
  5
19c
100
AcDbEntity
  8
Layer_1
 62
7
100
AcDbLine
 10
392.627090
 20
13.127001
 30
0.0
 11
377.627076
 21
13.127001
 31
0.0
  0
LINE
  5
19d
100
AcDbEntity
  8
Layer_1
 62
7
100
AcDbLine
 10
377.627076
 20
13.127001
 30
0.0
 11
377.627076
 21
10.126998
 31
0.0
  0
LINE
  5
19e
100
AcDbEntity
  8
Layer_1
 62
7
100
AcDbLine
 10
377.627076
 20
10.126998
 30
0.0
 11
356.377055
 21
10.126998
 31
0.0
  0
LINE
  5
19f
100
AcDbEntity
  8
Layer_1
 62
7
100
AcDbLine
 10
356.377055
 20
10.126998
 30
0.0
 11
356.377055
 21
13.127001
 31
0.0
  0
LINE
  5
1a0
100
AcDbEntity
  8
Layer_1
 62
7
100
AcDbLine
 10
356.377055
 20
13.127001
 30
0.0
 11
335.127036
 21
13.127001
 31
0.0
  0
LINE
  5
1a1
100
AcDbEntity
  8
Layer_1
 62
7
100
AcDbLine
 10
335.127036
 20
13.127001
 30
0.0
 11
335.127036
 21
30.127013
 31
0.0
  0
LINE
  5
1a2
100
AcDbEntity
  8
Layer_1
 62
7
100
AcDbLine
 10
335.127036
 20
30.127013
 30
0.0
 11
338.127038
 21
30.127013
 31
0.0
  0
LINE
  5
1a3
100
AcDbEntity
  8
Layer_1
 62
7
100
AcDbLine
 10
338.127038
 20
30.127013
 30
0.0
 11
338.127038
 21
50.127029
 31
0.0
  0
LINE
  5
1a4
100
AcDbEntity
  8
Layer_1
 62
7
100
AcDbLine
 10
338.127038
 20
50.127029
 30
0.0
 11
335.127036
 21
50.127029
 31
0.0
  0
LINE
  5
1a5
100
AcDbEntity
  8
Layer_1
 62
7
100
AcDbLine
 10
335.127036
 20
50.127029
 30
0.0
 11
335.127036
 21
65.127040
 31
0.0
  0
LINE
  5
1a6
100
AcDbEntity
  8
Layer_1
 62
7
100
AcDbLine
 10
335.127036
 20
65.127040
 30
0.0
 11
338.127038
 21
65.127040
 31
0.0
  0
LINE
  5
1a7
100
AcDbEntity
  8
Layer_1
 62
7
100
AcDbLine
 10
338.127038
 20
65.127040
 30
0.0
 11
338.127038
 21
80.127052
 31
0.0
  0
LINE
  5
1a8
100
AcDbEntity
  8
Layer_1
 62
7
100
AcDbLine
 10
338.127038
 20
80.127052
 30
0.0
 11
335.127036
 21
80.127052
 31
0.0
  0
LINE
  5
1a9
100
AcDbEntity
  8
Layer_1
 62
7
100
AcDbLine
 10
335.127036
 20
80.127052
 30
0.0
 11
335.127036
 21
95.127063
 31
0.0
  0
LINE
  5
1aa
100
AcDbEntity
  8
Layer_1
 62
7
100
AcDbLine
 10
335.127036
 20
95.127063
 30
0.0
 11
338.127038
 21
95.127063
 31
0.0
  0
LINE
  5
1ab
100
AcDbEntity
  8
Layer_1
 62
7
100
AcDbLine
 10
338.127038
 20
95.127063
 30
0.0
 11
338.127038
 21
110.127074
 31
0.0
  0
LINE
  5
1ac
100
AcDbEntity
  8
Layer_1
 62
7
100
AcDbLine
 10
338.127038
 20
110.127074
 30
0.0
 11
335.127036
 21
110.127074
 31
0.0
  0
LINE
  5
1ad
100
AcDbEntity
  8
Layer_1
 62
7
100
AcDbLine
 10
335.127036
 20
110.127074
 30
0.0
 11
335.127036
 21
125.127086
 31
0.0
  0
LINE
  5
1ae
100
AcDbEntity
  8
Layer_1
 62
7
100
AcDbLine
 10
335.127036
 20
125.127086
 30
0.0
 11
338.127038
 21
125.127086
 31
0.0
  0
LINE
  5
1af
100
AcDbEntity
  8
Layer_1
 62
7
100
AcDbLine
 10
338.127038
 20
125.127086
 30
0.0
 11
338.127038
 21
140.127097
 31
0.0
  0
LINE
  5
1b0
100
AcDbEntity
  8
Layer_1
 62
7
100
AcDbLine
 10
338.127038
 20
140.127097
 30
0.0
 11
335.127036
 21
140.127097
 31
0.0
  0
LINE
  5
1b1
100
AcDbEntity
  8
Layer_1
 62
7
100
AcDbLine
 10
335.127036
 20
140.127097
 30
0.0
 11
335.127036
 21
155.127109
 31
0.0
  0
LINE
  5
1b2
100
AcDbEntity
  8
Layer_1
 62
7
100
AcDbLine
 10
335.127036
 20
155.127109
 30
0.0
 11
338.127038
 21
155.127109
 31
0.0
  0
LINE
  5
1b3
100
AcDbEntity
  8
Layer_1
 62
7
100
AcDbLine
 10
338.127038
 20
155.127109
 30
0.0
 11
338.127038
 21
170.127120
 31
0.0
  0
LINE
  5
1b4
100
AcDbEntity
  8
Layer_1
 62
7
100
AcDbLine
 10
338.127038
 20
170.127120
 30
0.0
 11
335.127036
 21
170.127120
 31
0.0
  0
LINE
  5
1b5
100
AcDbEntity
  8
Layer_1
 62
7
100
AcDbLine
 10
335.127036
 20
170.127120
 30
0.0
 11
335.127036
 21
185.127132
 31
0.0
  0
LINE
  5
1b6
100
AcDbEntity
  8
Layer_1
 62
7
100
AcDbLine
 10
335.127036
 20
185.127132
 30
0.0
 11
338.127038
 21
185.127132
 31
0.0
  0
LINE
  5
1b7
100
AcDbEntity
  8
Layer_1
 62
7
100
AcDbLine
 10
338.127038
 20
185.127132
 30
0.0
 11
338.127038
 21
200.127143
 31
0.0
  0
LINE
  5
1b8
100
AcDbEntity
  8
Layer_1
 62
7
100
AcDbLine
 10
338.127038
 20
200.127143
 30
0.0
 11
335.127036
 21
200.127143
 31
0.0
  0
LINE
  5
1b9
100
AcDbEntity
  8
Layer_1
 62
7
100
AcDbLine
 10
335.127036
 20
200.127143
 30
0.0
 11
335.127036
 21
215.127154
 31
0.0
  0
LINE
  5
1ba
100
AcDbEntity
  8
Layer_1
 62
7
100
AcDbLine
 10
335.127036
 20
215.127154
 30
0.0
 11
338.127038
 21
215.127154
 31
0.0
  0
LINE
  5
1bb
100
AcDbEntity
  8
Layer_1
 62
7
100
AcDbLine
 10
338.127038
 20
215.127154
 30
0.0
 11
338.127038
 21
230.127166
 31
0.0
  0
LINE
  5
1bc
100
AcDbEntity
  8
Layer_1
 62
7
100
AcDbLine
 10
338.127038
 20
230.127166
 30
0.0
 11
335.127036
 21
230.127166
 31
0.0
  0
LINE
  5
1bd
100
AcDbEntity
  8
Layer_1
 62
7
100
AcDbLine
 10
335.127036
 20
230.127166
 30
0.0
 11
335.127036
 21
245.127177
 31
0.0
  0
LINE
  5
1be
100
AcDbEntity
  8
Layer_1
 62
7
100
AcDbLine
 10
335.127036
 20
245.127177
 30
0.0
 11
338.127038
 21
245.127177
 31
0.0
  0
LINE
  5
1bf
100
AcDbEntity
  8
Layer_1
 62
7
100
AcDbLine
 10
338.127038
 20
245.127177
 30
0.0
 11
338.127038
 21
260.127189
 31
0.0
  0
LINE
  5
1c0
100
AcDbEntity
  8
Layer_1
 62
7
100
AcDbLine
 10
338.127038
 20
260.127189
 30
0.0
 11
335.127036
 21
260.127189
 31
0.0
  0
LINE
  5
1c1
100
AcDbEntity
  8
Layer_1
 62
7
100
AcDbLine
 10
335.127036
 20
260.127189
 30
0.0
 11
335.127036
 21
275.127200
 31
0.0
  0
LINE
  5
1c2
100
AcDbEntity
  8
Layer_1
 62
7
100
AcDbLine
 10
335.127036
 20
275.127200
 30
0.0
 11
338.127038
 21
275.127200
 31
0.0
  0
LINE
  5
1c3
100
AcDbEntity
  8
Layer_1
 62
7
100
AcDbLine
 10
338.127038
 20
275.127200
 30
0.0
 11
338.127038
 21
290.127212
 31
0.0
  0
LINE
  5
1c4
100
AcDbEntity
  8
Layer_1
 62
7
100
AcDbLine
 10
338.127038
 20
290.127212
 30
0.0
 11
335.127036
 21
290.127212
 31
0.0
  0
LINE
  5
1c5
100
AcDbEntity
  8
Layer_1
 62
7
100
AcDbLine
 10
335.127036
 20
290.127212
 30
0.0
 11
335.127036
 21
305.127209
 31
0.0
  0
LINE
  5
1c6
100
AcDbEntity
  8
Layer_1
 62
7
100
AcDbLine
 10
335.127036
 20
305.127209
 30
0.0
 11
338.127038
 21
305.127209
 31
0.0
  0
LINE
  5
1c7
100
AcDbEntity
  8
Layer_1
 62
7
100
AcDbLine
 10
338.127038
 20
305.127209
 30
0.0
 11
338.127038
 21
325.127252
 31
0.0
  0
LINE
  5
1c8
100
AcDbEntity
  8
Layer_1
 62
7
100
AcDbLine
 10
338.127038
 20
325.127252
 30
0.0
 11
335.127036
 21
325.127252
 31
0.0
  0
LINE
  5
1c9
100
AcDbEntity
  8
Layer_1
 62
7
100
AcDbLine
 10
335.127036
 20
325.127252
 30
0.0
 11
335.127036
 21
342.127246
 31
0.0
  0
LINE
  5
1ca
100
AcDbEntity
  8
Layer_1
 62
7
100
AcDbLine
 10
335.127036
 20
342.127246
 30
0.0
 11
356.377055
 21
342.127246
 31
0.0
  0
LINE
  5
1cb
100
AcDbEntity
  8
Layer_1
 62
7
100
AcDbLine
 10
356.377055
 20
342.127246
 30
0.0
 11
356.377055
 21
345.127239
 31
0.0
  0
LINE
  5
1cc
100
AcDbEntity
  8
Layer_1
 62
7
100
AcDbLine
 10
356.377055
 20
345.127239
 30
0.0
 11
377.627076
 21
345.127239
 31
0.0
  0
LINE
  5
1cd
100
AcDbEntity
  8
Layer_1
 62
7
100
AcDbLine
 10
377.627076
 20
345.127239
 30
0.0
 11
377.627076
 21
342.127246
 31
0.0
  0
LINE
  5
1ce
100
AcDbEntity
  8
Layer_1
 62
7
100
AcDbLine
 10
377.627076
 20
342.127246
 30
0.0
 11
392.627090
 21
342.127246
 31
0.0
  0
LINE
  5
1cf
100
AcDbEntity
  8
Layer_1
 62
7
100
AcDbLine
 10
392.627090
 20
342.127246
 30
0.0
 11
392.627090
 21
345.127239
 31
0.0
  0
LINE
  5
1d0
100
AcDbEntity
  8
Layer_1
 62
7
100
AcDbLine
 10
392.627090
 20
345.127239
 30
0.0
 11
407.627101
 21
345.127239
 31
0.0
  0
LINE
  5
1d1
100
AcDbEntity
  8
Layer_1
 62
7
100
AcDbLine
 10
407.627101
 20
345.127239
 30
0.0
 11
407.627101
 21
342.127246
 31
0.0
  0
LINE
  5
1d2
100
AcDbEntity
  8
Layer_1
 62
7
100
AcDbLine
 10
407.627101
 20
342.127246
 30
0.0
 11
422.627118
 21
342.127246
 31
0.0
  0
LINE
  5
1d3
100
AcDbEntity
  8
Layer_1
 62
7
100
AcDbLine
 10
422.627118
 20
342.127246
 30
0.0
 11
422.627118
 21
345.127239
 31
0.0
  0
LINE
  5
1d4
100
AcDbEntity
  8
Layer_1
 62
7
100
AcDbLine
 10
422.627118
 20
345.127239
 30
0.0
 11
437.627131
 21
345.127239
 31
0.0
  0
LINE
  5
1d5
100
AcDbEntity
  8
Layer_1
 62
7
100
AcDbLine
 10
437.627131
 20
345.127239
 30
0.0
 11
437.627131
 21
342.127246
 31
0.0
  0
LINE
  5
1d6
100
AcDbEntity
  8
Layer_1
 62
7
100
AcDbLine
 10
437.627131
 20
342.127246
 30
0.0
 11
452.627145
 21
342.127246
 31
0.0
  0
LINE
  5
1d7
100
AcDbEntity
  8
Layer_1
 62
7
100
AcDbLine
 10
452.627145
 20
342.127246
 30
0.0
 11
452.627145
 21
345.127239
 31
0.0
  0
LINE
  5
1d8
100
AcDbEntity
  8
Layer_1
 62
7
100
AcDbLine
 10
452.627145
 20
345.127239
 30
0.0
 11
467.627156
 21
345.127239
 31
0.0
  0
LINE
  5
1d9
100
AcDbEntity
  8
Layer_1
 62
7
100
AcDbLine
 10
467.627156
 20
345.127239
 30
0.0
 11
467.627156
 21
342.127246
 31
0.0
  0
LINE
  5
1da
100
AcDbEntity
  8
Layer_1
 62
7
100
AcDbLine
 10
467.627156
 20
342.127246
 30
0.0
 11
482.627173
 21
342.127246
 31
0.0
  0
LINE
  5
1db
100
AcDbEntity
  8
Layer_1
 62
7
100
AcDbLine
 10
482.627173
 20
342.127246
 30
0.0
 11
482.627173
 21
345.127239
 31
0.0
  0
LINE
  5
1dc
100
AcDbEntity
  8
Layer_1
 62
7
100
AcDbLine
 10
482.627173
 20
345.127239
 30
0.0
 11
497.627184
 21
345.127239
 31
0.0
  0
LINE
  5
1dd
100
AcDbEntity
  8
Layer_1
 62
7
100
AcDbLine
 10
497.627184
 20
345.127239
 30
0.0
 11
497.627184
 21
342.127246
 31
0.0
  0
LINE
  5
1de
100
AcDbEntity
  8
Layer_1
 62
7
100
AcDbLine
 10
497.627184
 20
342.127246
 30
0.0
 11
512.627201
 21
342.127246
 31
0.0
  0
LINE
  5
1df
100
AcDbEntity
  8
Layer_1
 62
7
100
AcDbLine
 10
512.627201
 20
342.127246
 30
0.0
 11
512.627201
 21
345.127239
 31
0.0
  0
LINE
  5
1e0
100
AcDbEntity
  8
Layer_1
 62
7
100
AcDbLine
 10
512.627201
 20
345.127239
 30
0.0
 11
533.877218
 21
345.127239
 31
0.0
  0
LINE
  5
1e1
100
AcDbEntity
  8
Layer_1
 62
7
100
AcDbLine
 10
533.877218
 20
345.127239
 30
0.0
 11
533.877218
 21
342.127246
 31
0.0
  0
LINE
  5
1e2
100
AcDbEntity
  8
Layer_1
 62
7
100
AcDbLine
 10
533.877218
 20
342.127246
 30
0.0
 11
555.127238
 21
342.127246
 31
0.0
  0
LINE
  5
1e3
100
AcDbEntity
  8
Layer_1
 62
7
100
AcDbLine
 10
555.127238
 20
342.127246
 30
0.0
 11
555.127238
 21
325.127252
 31
0.0
  0
LINE
  5
1e4
100
AcDbEntity
  8
Layer_1
 62
7
100
AcDbLine
 10
555.127238
 20
325.127252
 30
0.0
 11
552.127236
 21
325.127252
 31
0.0
  0
LINE
  5
1e5
100
AcDbEntity
  8
Layer_1
 62
7
100
AcDbLine
 10
552.127236
 20
325.127252
 30
0.0
 11
552.127236
 21
305.127209
 31
0.0
  0
LINE
  5
1e6
100
AcDbEntity
  8
Layer_1
 62
7
100
AcDbLine
 10
552.127236
 20
305.127209
 30
0.0
 11
555.127238
 21
305.127209
 31
0.0
  0
LINE
  5
1e7
100
AcDbEntity
  8
Layer_1
 62
7
100
AcDbLine
 10
555.127238
 20
305.127209
 30
0.0
 11
555.127238
 21
290.127212
 31
0.0
  0
LINE
  5
1e8
100
AcDbEntity
  8
Layer_1
 62
7
100
AcDbLine
 10
555.127238
 20
290.127212
 30
0.0
 11
552.127236
 21
290.127212
 31
0.0
  0
LINE
  5
1e9
100
AcDbEntity
  8
Layer_1
 62
7
100
AcDbLine
 10
552.127236
 20
290.127212
 30
0.0
 11
552.127236
 21
275.127200
 31
0.0
  0
LINE
  5
1ea
100
AcDbEntity
  8
Layer_1
 62
7
100
AcDbLine
 10
552.127236
 20
275.127200
 30
0.0
 11
555.127238
 21
275.127200
 31
0.0
  0
LINE
  5
1eb
100
AcDbEntity
  8
Layer_1
 62
7
100
AcDbLine
 10
555.127238
 20
275.127200
 30
0.0
 11
555.127238
 21
260.127189
 31
0.0
  0
LINE
  5
1ec
100
AcDbEntity
  8
Layer_1
 62
7
100
AcDbLine
 10
555.127238
 20
260.127189
 30
0.0
 11
552.127236
 21
260.127189
 31
0.0
  0
LINE
  5
1ed
100
AcDbEntity
  8
Layer_1
 62
7
100
AcDbLine
 10
552.127236
 20
260.127189
 30
0.0
 11
552.127236
 21
245.127177
 31
0.0
  0
LINE
  5
1ee
100
AcDbEntity
  8
Layer_1
 62
7
100
AcDbLine
 10
552.127236
 20
245.127177
 30
0.0
 11
555.127238
 21
245.127177
 31
0.0
  0
LINE
  5
1ef
100
AcDbEntity
  8
Layer_1
 62
7
100
AcDbLine
 10
555.127238
 20
245.127177
 30
0.0
 11
555.127238
 21
230.127166
 31
0.0
  0
LINE
  5
1f0
100
AcDbEntity
  8
Layer_1
 62
7
100
AcDbLine
 10
555.127238
 20
230.127166
 30
0.0
 11
552.127236
 21
230.127166
 31
0.0
  0
LINE
  5
1f1
100
AcDbEntity
  8
Layer_1
 62
7
100
AcDbLine
 10
552.127236
 20
230.127166
 30
0.0
 11
552.127236
 21
215.127154
 31
0.0
  0
LINE
  5
1f2
100
AcDbEntity
  8
Layer_1
 62
7
100
AcDbLine
 10
552.127236
 20
215.127154
 30
0.0
 11
555.127238
 21
215.127154
 31
0.0
  0
LINE
  5
1f3
100
AcDbEntity
  8
Layer_1
 62
7
100
AcDbLine
 10
555.127238
 20
215.127154
 30
0.0
 11
555.127238
 21
200.127143
 31
0.0
  0
LINE
  5
1f4
100
AcDbEntity
  8
Layer_1
 62
7
100
AcDbLine
 10
555.127238
 20
200.127143
 30
0.0
 11
552.127236
 21
200.127143
 31
0.0
  0
LINE
  5
1f5
100
AcDbEntity
  8
Layer_1
 62
7
100
AcDbLine
 10
552.127236
 20
200.127143
 30
0.0
 11
552.127236
 21
185.127132
 31
0.0
  0
LINE
  5
1f6
100
AcDbEntity
  8
Layer_1
 62
7
100
AcDbLine
 10
552.127236
 20
185.127132
 30
0.0
 11
555.127238
 21
185.127132
 31
0.0
  0
LINE
  5
1f7
100
AcDbEntity
  8
Layer_1
 62
7
100
AcDbLine
 10
555.127238
 20
185.127132
 30
0.0
 11
555.127238
 21
170.127120
 31
0.0
  0
LINE
  5
1f8
100
AcDbEntity
  8
Layer_1
 62
7
100
AcDbLine
 10
555.127238
 20
170.127120
 30
0.0
 11
552.127236
 21
170.127120
 31
0.0
  0
LINE
  5
1f9
100
AcDbEntity
  8
Layer_1
 62
7
100
AcDbLine
 10
552.127236
 20
170.127120
 30
0.0
 11
552.127236
 21
155.127109
 31
0.0
  0
LINE
  5
1fa
100
AcDbEntity
  8
Layer_1
 62
7
100
AcDbLine
 10
552.127236
 20
155.127109
 30
0.0
 11
555.127238
 21
155.127109
 31
0.0
  0
LINE
  5
1fb
100
AcDbEntity
  8
Layer_1
 62
7
100
AcDbLine
 10
555.127238
 20
155.127109
 30
0.0
 11
555.127238
 21
140.127097
 31
0.0
  0
LINE
  5
1fc
100
AcDbEntity
  8
Layer_1
 62
7
100
AcDbLine
 10
555.127238
 20
140.127097
 30
0.0
 11
552.127236
 21
140.127097
 31
0.0
  0
LINE
  5
1fd
100
AcDbEntity
  8
Layer_1
 62
7
100
AcDbLine
 10
552.127236
 20
140.127097
 30
0.0
 11
552.127236
 21
125.127086
 31
0.0
  0
LINE
  5
1fe
100
AcDbEntity
  8
Layer_1
 62
7
100
AcDbLine
 10
552.127236
 20
125.127086
 30
0.0
 11
555.127238
 21
125.127086
 31
0.0
  0
LINE
  5
1ff
100
AcDbEntity
  8
Layer_1
 62
7
100
AcDbLine
 10
555.127238
 20
125.127086
 30
0.0
 11
555.127238
 21
110.127074
 31
0.0
  0
LINE
  5
200
100
AcDbEntity
  8
Layer_1
 62
7
100
AcDbLine
 10
555.127238
 20
110.127074
 30
0.0
 11
552.127236
 21
110.127074
 31
0.0
  0
LINE
  5
201
100
AcDbEntity
  8
Layer_1
 62
7
100
AcDbLine
 10
552.127236
 20
110.127074
 30
0.0
 11
552.127236
 21
95.127063
 31
0.0
  0
LINE
  5
202
100
AcDbEntity
  8
Layer_1
 62
7
100
AcDbLine
 10
552.127236
 20
95.127063
 30
0.0
 11
555.127238
 21
95.127063
 31
0.0
  0
LINE
  5
203
100
AcDbEntity
  8
Layer_1
 62
7
100
AcDbLine
 10
555.127238
 20
95.127063
 30
0.0
 11
555.127238
 21
80.127052
 31
0.0
  0
LINE
  5
204
100
AcDbEntity
  8
Layer_1
 62
7
100
AcDbLine
 10
555.127238
 20
80.127052
 30
0.0
 11
552.127236
 21
80.127052
 31
0.0
  0
LINE
  5
205
100
AcDbEntity
  8
Layer_1
 62
7
100
AcDbLine
 10
552.127236
 20
80.127052
 30
0.0
 11
552.127236
 21
65.127040
 31
0.0
  0
LINE
  5
206
100
AcDbEntity
  8
Layer_1
 62
7
100
AcDbLine
 10
552.127236
 20
65.127040
 30
0.0
 11
555.127238
 21
65.127040
 31
0.0
  0
LINE
  5
207
100
AcDbEntity
  8
Layer_1
 62
7
100
AcDbLine
 10
555.127238
 20
65.127040
 30
0.0
 11
555.127238
 21
50.127029
 31
0.0
  0
LINE
  5
208
100
AcDbEntity
  8
Layer_1
 62
7
100
AcDbLine
 10
555.127238
 20
50.127029
 30
0.0
 11
552.127236
 21
50.127029
 31
0.0
  0
LINE
  5
209
100
AcDbEntity
  8
Layer_1
 62
7
100
AcDbLine
 10
552.127236
 20
50.127029
 30
0.0
 11
552.127236
 21
30.127013
 31
0.0
  0
LINE
  5
20a
100
AcDbEntity
  8
Layer_1
 62
7
100
AcDbLine
 10
552.127236
 20
30.127013
 30
0.0
 11
555.127238
 21
30.127013
 31
0.0
  0
LINE
  5
20b
100
AcDbEntity
  8
Layer_1
 62
7
100
AcDbLine
 10
555.127238
 20
30.127013
 30
0.0
 11
555.127238
 21
13.127001
 31
0.0
  0
LINE
  5
20c
100
AcDbEntity
  8
Layer_1
 62
7
100
AcDbLine
 10
555.127238
 20
13.127001
 30
0.0
 11
533.877218
 21
13.127001
 31
0.0
  0
LINE
  5
20d
100
AcDbEntity
  8
Layer_1
 62
7
100
AcDbLine
 10
533.877218
 20
13.127001
 30
0.0
 11
533.877218
 21
10.126998
 31
0.0
  0
LINE
  5
20e
100
AcDbEntity
  8
Layer_1
 62
7
100
AcDbLine
 10
533.877218
 20
10.126998
 30
0.0
 11
512.627201
 21
10.126998
 31
0.0
  0
LINE
  5
20f
100
AcDbEntity
  8
Layer_1
 62
7
100
AcDbLine
 10
512.627201
 20
10.126998
 30
0.0
 11
512.627201
 21
13.127001
 31
0.0
  0
LINE
  5
210
100
AcDbEntity
  8
Layer_1
 62
7
100
AcDbLine
 10
512.627201
 20
13.127001
 30
0.0
 11
497.627184
 21
13.127001
 31
0.0
  0
LINE
  5
211
100
AcDbEntity
  8
Layer_1
 62
7
100
AcDbLine
 10
497.627184
 20
13.127001
 30
0.0
 11
497.627184
 21
10.126998
 31
0.0
  0
LINE
  5
212
100
AcDbEntity
  8
Layer_1
 62
7
100
AcDbLine
 10
497.627184
 20
10.126998
 30
0.0
 11
482.627173
 21
10.126998
 31
0.0
  0
LINE
  5
213
100
AcDbEntity
  8
Layer_1
 62
7
100
AcDbLine
 10
482.627173
 20
10.126998
 30
0.0
 11
482.627173
 21
13.127001
 31
0.0
  0
LINE
  5
214
100
AcDbEntity
  8
Layer_1
 62
7
100
AcDbLine
 10
482.627173
 20
13.127001
 30
0.0
 11
467.627156
 21
13.127001
 31
0.0
  0
LINE
  5
215
100
AcDbEntity
  8
Layer_1
 62
7
100
AcDbLine
 10
467.627156
 20
13.127001
 30
0.0
 11
467.627156
 21
10.126998
 31
0.0
  0
LINE
  5
216
100
AcDbEntity
  8
Layer_1
 62
7
100
AcDbLine
 10
467.627156
 20
10.126998
 30
0.0
 11
452.627145
 21
10.126998
 31
0.0
  0
LINE
  5
217
100
AcDbEntity
  8
Layer_1
 62
7
100
AcDbLine
 10
452.627145
 20
10.126998
 30
0.0
 11
452.627145
 21
13.127001
 31
0.0
  0
LINE
  5
218
100
AcDbEntity
  8
Layer_1
 62
7
100
AcDbLine
 10
452.627145
 20
13.127001
 30
0.0
 11
437.627131
 21
13.127001
 31
0.0
  0
LINE
  5
219
100
AcDbEntity
  8
Layer_1
 62
7
100
AcDbLine
 10
437.627131
 20
13.127001
 30
0.0
 11
437.627131
 21
10.126998
 31
0.0
  0
LINE
  5
21a
100
AcDbEntity
  8
Layer_1
 62
7
100
AcDbLine
 10
437.627131
 20
10.126998
 30
0.0
 11
422.627118
 21
10.126998
 31
0.0
  0
LINE
  5
21b
100
AcDbEntity
  8
Layer_1
 62
7
100
AcDbLine
 10
422.627118
 20
10.126998
 30
0.0
 11
422.627118
 21
13.127001
 31
0.0
  0
LINE
  5
21c
100
AcDbEntity
  8
Layer_1
 62
7
100
AcDbLine
 10
422.627118
 20
13.127001
 30
0.0
 11
407.627101
 21
13.127001
 31
0.0
  0
LINE
  5
21d
100
AcDbEntity
  8
Layer_1
 62
7
100
AcDbLine
 10
407.627101
 20
13.127001
 30
0.0
 11
407.627101
 21
10.126998
 31
0.0
  0
LINE
  5
21e
100
AcDbEntity
  8
Layer_1
 62
7
100
AcDbLine
 10
407.627101
 20
10.126998
 30
0.0
 11
392.627090
 21
10.126998
 31
0.0
  0
LINE
  5
21f
100
AcDbEntity
  8
Layer_1
 62
7
100
AcDbLine
 10
392.627090
 20
10.126998
 30
0.0
 11
392.627090
 21
13.127001
 31
0.0
  0
ENDSEC
  0
SECTION
  2
OBJECTS
  0
DICTIONARY
  5
C
330
0
100
AcDbDictionary
  3
ACAD_GROUP
350
D
  3
ACAD_MLINESTYLE
350
17
  0
DICTIONARY
  5
D
330
C
100
AcDbDictionary
  0
DICTIONARY
  5
1A
330
C
100
AcDbDictionary
  0
DICTIONARY
  5
17
330
C
100
AcDbDictionary
  3
STANDARD
350
18
  0
DICTIONARY
  5
19
330
C
100
AcDbDictionary
  0
ENDSEC
  0
EOF
