<?xml version="1.0" encoding="UTF-8" standalone="no"?>
<!-- Created with Inkscape (http://www.inkscape.org/) -->

<svg
   xmlns:dc="http://purl.org/dc/elements/1.1/"
   xmlns:cc="http://creativecommons.org/ns#"
   xmlns:rdf="http://www.w3.org/1999/02/22-rdf-syntax-ns#"
   xmlns:svg="http://www.w3.org/2000/svg"
   xmlns="http://www.w3.org/2000/svg"
   xmlns:sodipodi="http://sodipodi.sourceforge.net/DTD/sodipodi-0.dtd"
   xmlns:inkscape="http://www.inkscape.org/namespaces/inkscape"
   width="600mm"
   height="400mm"
   viewBox="0 0 2125.9844 1417.3228"
   id="svg7639"
   version="1.1"
   inkscape:version="0.91 r13725"
   sodipodi:docname="TopAndSide-600x400.svg">
  <defs
     id="defs7641" />
  <sodipodi:namedview
     id="base"
     pagecolor="#ffffff"
     bordercolor="#666666"
     borderopacity="1.0"
     inkscape:pageopacity="0.0"
     inkscape:pageshadow="2"
     inkscape:zoom="0.7"
     inkscape:cx="972.17629"
     inkscape:cy="688.29889"
     inkscape:document-units="mm"
     inkscape:current-layer="layer1"
     showgrid="true"
     inkscape:window-width="2560"
     inkscape:window-height="1335"
     inkscape:window-x="1912"
     inkscape:window-y="-8"
     inkscape:window-maximized="1">
    <inkscape:grid
       type="xygrid"
       id="grid8187" />
  </sodipodi:namedview>
  <metadata
     id="metadata7644">
    <rdf:RDF>
      <cc:Work
         rdf:about="">
        <dc:format>image/svg+xml</dc:format>
        <dc:type
           rdf:resource="http://purl.org/dc/dcmitype/StillImage" />
        <dc:title />
      </cc:Work>
    </rdf:RDF>
  </metadata>
  <g
     inkscape:label="Layer 1"
     inkscape:groupmode="layer"
     id="layer1"
     transform="translate(0,364.96067)">
    <g
       id="g8319"
       transform="translate(35.883075,-170.52975)">
      <path
         style="fill:none;stroke:#000000;stroke-width:0.90000075"
         d="m 384.44914,10.62993 53.14965,0 0,-10.62993 53.14964,0 0,10.62993 53.14966,0 0,-10.62993 53.14964,0 0,10.62993 53.14966,0 0,-10.62993 53.14965,0 0,10.62993 53.14965,0 0,-10.62993 53.14965,0 0,10.62993 53.14965,0 0,-10.62993 53.14965,0 0,10.62993 53.14965,0 0,-10.62993 85.92531,0 0,10.62993 75.2953,0 0,60.23627 10.6299,0 0,70.8662 -10.6299,0 0,53.14965 10.6299,0 0,53.14965 -10.6299,0 0,53.14965 10.6299,0 0,53.14965 -10.6299,0 0,53.14965 10.6299,0 0,53.14965 -10.6299,0 0,53.14965 10.6299,0 0,53.14965 -10.6299,0 0,53.14965 10.6299,0 0,53.14965 -10.6299,0 0,53.14965 10.6299,0 0,53.14965 -10.6299,0 0,53.14965 10.6299,0 0,53.14965 -10.6299,0 0,53.14965 10.6299,0 0,53.14965 -10.6299,0 0,53.1496 10.6299,0 0,70.8663 -10.6299,0 0,60.2362 -75.2953,0 0,10.6299 -85.92531,0 0,-10.6299 -53.14965,0 0,10.6299 -53.14965,0 0,-10.6299 -53.14965,0 0,10.6299 -53.14965,0 0,-10.6299 -53.14965,0 0,10.6299 -53.14965,0 0,-10.6299 -53.14966,0 0,10.6299 -53.14964,0 0,-10.6299 -53.14966,0 0,10.6299 -53.14964,0 0,-10.6299 -53.14965,0 0,10.6299 -53.14965,0 0,-10.6299 -53.14966,0 0,10.6299 -53.14964,0 0,-10.6299 -53.14965,0 0,10.6299 -85.925272,0 0,-10.6299 -75.295338,0 0,-60.2362 -10.62993,0 0,-70.8663 10.62993,0 0,-53.1496 -10.62993,0 0,-53.14965 10.62993,0 0,-53.14965 -10.62993,0 0,-53.14965 10.62993,0 0,-53.14965 -10.62993,0 0,-53.14965 10.62993,0 0,-53.14965 -10.62993,0 0,-53.14965 10.62993,0 0,-53.14965 -10.62993,0 0,-53.14965 10.62993,0 0,-53.14965 -10.62993,0 0,-53.14965 10.62993,0 0,-53.14965 -10.62993,0 0,-53.14965 10.62993,0 0,-53.14965 -10.62993,0 0,-53.14965 10.62993,0 0,-53.14965 -10.62993,0 0,-70.8662 10.62993,0 0,-60.23627 75.295338,0 0,-10.62993 85.925272,0 0,10.62993 53.14965,0 0,-10.62993 53.14964,0 0,10.62993 53.14966,0 0,-10.62993 53.14965,0 z"
         id="polygon8321" />
    </g>
    <g
       id="g8315"
       transform="matrix(0,-0.99999994,1.0000001,0,1187.458,1016.4791)">
      <path
         style="fill:none;stroke:#000000;stroke-width:0.90000075"
         d="m 10.62993,203.74033 0,-53.14965 -10.62993,0 0,-75.295342 10.62993,0 0,-75.295338 60.23627,0 0,10.62993 70.8662,0 0,-10.62993 53.14965,0 0,10.62993 53.14965,0 0,-10.62993 53.14965,0 0,10.62993 53.14965,0 0,-10.62993 53.14965,0 0,10.62993 53.14965,0 0,-10.62993 53.14965,0 0,10.62993 53.14965,0 0,-10.62993 53.14965,0 0,10.62993 53.14965,0 0,-10.62993 53.14965,0 0,10.62993 53.14965,0 0,-10.62993 53.14965,0 0,10.62993 53.14965,0 0,-10.62993 53.14965,0 0,10.62993 53.14965,0 0,-10.62993 53.1496,0 0,10.62993 70.8663,0 0,-10.62993 60.2362,0 0,75.295338 10.6299,0 0,75.295342 -10.6299,0 0,53.14965 10.6299,0 0,53.14964 -10.6299,0 0,53.14966 10.6299,0 0,53.14965 -10.6299,0 0,53.14965 10.6299,0 0,53.14964 -10.6299,0 0,53.14966 10.6299,0 0,53.14964 -10.6299,0 0,53.14966 10.6299,0 0,75.29533 -10.6299,0 0,75.29534 -60.2362,0 0,-10.62993 -70.8663,0 0,10.62993 -53.1496,0 0,-10.62993 -53.14965,0 0,10.62993 -53.14965,0 0,-10.62993 -53.14965,0 0,10.62993 -53.14965,0 0,-10.62993 -53.14965,0 0,10.62993 -53.14965,0 0,-10.62993 -53.14965,0 0,10.62993 -53.14965,0 0,-10.62993 -53.14965,0 0,10.62993 -53.14965,0 0,-10.62993 -53.14965,0 0,10.62993 -53.14965,0 0,-10.62993 -53.14965,0 0,10.62993 -53.14965,0 0,-10.62993 -53.14965,0 0,10.62993 -53.14965,0 0,-10.62993 -70.8662,0 0,10.62993 -60.23627,0 0,-75.29534 -10.62993,0 0,-75.29533 10.62993,0 0,-53.14966 -10.62993,0 0,-53.14964 10.62993,0 0,-53.14966 -10.62993,0 0,-53.14964 10.62993,0 0,-53.14965 -10.62993,0 0,-53.14965 10.62993,0 0,-53.14966 -10.62993,0 0,-53.14964 z"
         id="polygon8317" />
    </g>
  </g>
</svg>
