  0
SECTION
  2
HEADER
  9
$ACADVER
  1
AC1014
  9
$HANDSEED
  5
FFFF
  9
$MEASUREMENT
 70
     1
  0
ENDSEC
  0
SECTION
  2
TABLES
  0
TABLE
  2
VPORT
  5
8
330
0
100
AcDbSymbolTable
 70
     4
  0
VPORT
  5
2E
330
8
100
AcDbSymbolTableRecord
100
AcDbViewportTableRecord
  2
*ACTIVE
 70
     0
 10
0.0
 20
0.0
 11
1.0
 21
1.0
 12
210.0
 22
148.5
 13
0.0
 23
0.0
 14
10.0
 24
10.0
 15
10.0
 25
10.0
 16
0.0
 26
0.0
 36
1.0
 17
0.0
 27
0.0
 37
0.0
 40
341.0
 41
1.24
 42
50.0
 43
0.0
 44
0.0
 50
0.0
 51
0.0
 71
     0
 72
   100
 73
     1
 74
     3
 75
     0
 76
     0
 77
     0
 78
     0
  0
ENDTAB
  0
TABLE
  2
LTYPE
  5
5
330
0
100
AcDbSymbolTable
 70
     1
  0
LTYPE
  5
14
330
5
100
AcDbSymbolTableRecord
100
AcDbLinetypeTableRecord
  2
BYBLOCK
 70
     0
  3

 72
    65
 73
     0
 40
0.0
  0
LTYPE
  5
15
330
5
100
AcDbSymbolTableRecord
100
AcDbLinetypeTableRecord
  2
BYLAYER
 70
     0
  3

 72
    65
 73
     0
 40
0.0
  0
LTYPE
  5
16
330
5
100
AcDbSymbolTableRecord
100
AcDbLinetypeTableRecord
  2
CONTINUOUS
 70
     0
  3
Solid line
 72
    65
 73
     0
 40
0.0
  0
ENDTAB
  0
TABLE
  2
LAYER
  5
2
100
AcDbSymbolTable
 70
2
  0
LAYER
  5
50
100
AcDbSymbolTableRecord
100
AcDbLayerTableRecord
  2
0
 70
0
  6
CONTINUOUS
  0
LAYER
  5
51
100
AcDbSymbolTableRecord
100
AcDbLayerTableRecord
  2
Layer_1
 70
0
  6
CONTINUOUS
  0
ENDTAB
  0
TABLE
  2
STYLE
  5
3
330
0
100
AcDbSymbolTable
 70
     1
  0
STYLE
  5
11
330
3
100
AcDbSymbolTableRecord
100
AcDbTextStyleTableRecord
  2
STANDARD
 70
     0
 40
0.0
 41
1.0
 50
0.0
 71
     0
 42
2.5
  3
txt
  4

  0
ENDTAB
  0
TABLE
  2
VIEW
  5
6
330
0
100
AcDbSymbolTable
 70
     0
  0
ENDTAB
  0
TABLE
  2
UCS
  5
7
330
0
100
AcDbSymbolTable
 70
     0
  0
ENDTAB
  0
TABLE
  2
APPID
  5
9
330
0
100
AcDbSymbolTable
 70
     2
  0
APPID
  5
12
330
9
100
AcDbSymbolTableRecord
100
AcDbRegAppTableRecord
  2
ACAD
 70
     0
  0
ENDTAB
  0
TABLE
  2
DIMSTYLE
  5
A
330
0
100
AcDbSymbolTable
 70
     1
  0
DIMSTYLE
105
27
330
A
100
AcDbSymbolTableRecord
100
AcDbDimStyleTableRecord
  2
ISO-25
 70
     0
  3

  4

  5

  6

  7

 40
1.0
 41
2.5
 42
0.625
 43
3.75
 44
1.25
 45
0.0
 46
0.0
 47
0.0
 48
0.0
140
2.5
141
2.5
142
0.0
143
0.03937007874016
144
1.0
145
0.0
146
1.0
147
0.625
 71
     0
 72
     0
 73
     0
 74
     0
 75
     0
 76
     0
 77
     1
 78
     8
170
     0
171
     3
172
     1
173
     0
174
     0
175
     0
176
     0
177
     0
178
     0
270
     2
271
     2
272
     2
273
     2
274
     3
340
11
275
     0
280
     0
281
     0
282
     0
283
     0
284
     8
285
     0
286
     0
287
     3
288
     0
  0
ENDTAB
  0
TABLE
  2
BLOCK_RECORD
  5
1
330
0
100
AcDbSymbolTable
 70
     1
  0
BLOCK_RECORD
  5
1F
330
1
100
AcDbSymbolTableRecord
100
AcDbBlockTableRecord
  2
*MODEL_SPACE
  0
BLOCK_RECORD
  5
1B
330
1
100
AcDbSymbolTableRecord
100
AcDbBlockTableRecord
  2
*PAPER_SPACE
  0
ENDTAB
  0
ENDSEC
  0
SECTION
  2
BLOCKS
  0
BLOCK
  5
20
330
1F
100
AcDbEntity
  8
0
100
AcDbBlockBegin
  2
*MODEL_SPACE
 70
     0
 10
0.0
 20
0.0
 30
0.0
  3
*MODEL_SPACE
  1

  0
ENDBLK
  5
21
330
1F
100
AcDbEntity
  8
0
100
AcDbBlockEnd
  0
BLOCK
  5
1C
330
1B
100
AcDbEntity
 67
     1
  8
0
100
AcDbBlockBegin
  2
*PAPER_SPACE
  1

  0
ENDBLK
  5
1D
330
1B
100
AcDbEntity
 67
     1
  8
0
100
AcDbBlockEnd
  0
ENDSEC
  0
SECTION
  2
ENTITIES
  0
LWPOLYLINE
  5
100
100
AcDbEntity
  8
Layer_1
 62
7
100
AcDbPolyline
 90
125
 70
1
 10
593.124874
 20
316.135707
 30
0.0
 10
596.124877
 20
316.135707
 30
0.0
 10
596.124877
 20
301.135693
 30
0.0
 10
593.124874
 20
301.135693
 30
0.0
 10
593.124874
 20
286.135681
 30
0.0
 10
596.124877
 20
286.135681
 30
0.0
 10
596.124877
 20
271.135670
 30
0.0
 10
593.124874
 20
271.135670
 30
0.0
 10
593.124874
 20
256.135661
 30
0.0
 10
596.124877
 20
256.135661
 30
0.0
 10
596.124877
 20
241.135647
 30
0.0
 10
593.124874
 20
241.135647
 30
0.0
 10
593.124874
 20
226.135639
 30
0.0
 10
596.124877
 20
226.135639
 30
0.0
 10
596.124877
 20
211.135624
 30
0.0
 10
593.124874
 20
211.135624
 30
0.0
 10
593.124874
 20
196.135613
 30
0.0
 10
596.124877
 20
196.135613
 30
0.0
 10
596.124877
 20
181.135601
 30
0.0
 10
593.124874
 20
181.135601
 30
0.0
 10
593.124874
 20
166.135590
 30
0.0
 10
596.124877
 20
166.135590
 30
0.0
 10
596.124877
 20
151.135579
 30
0.0
 10
593.124874
 20
151.135579
 30
0.0
 10
593.124874
 20
136.135567
 30
0.0
 10
596.124877
 20
136.135567
 30
0.0
 10
596.124877
 20
121.135556
 30
0.0
 10
593.124874
 20
121.135556
 30
0.0
 10
593.124874
 20
96.885525
 30
0.0
 10
596.124877
 20
96.885525
 30
0.0
 10
596.124877
 20
72.635526
 30
0.0
 10
574.874857
 20
72.635526
 30
0.0
 10
574.874857
 20
75.635520
 30
0.0
 10
553.624836
 20
75.635520
 30
0.0
 10
553.624836
 20
72.635526
 30
0.0
 10
538.624822
 20
72.635526
 30
0.0
 10
538.624822
 20
75.635520
 30
0.0
 10
523.624811
 20
75.635520
 30
0.0
 10
523.624811
 20
72.635526
 30
0.0
 10
508.624795
 20
72.635526
 30
0.0
 10
508.624795
 20
75.635520
 30
0.0
 10
493.624781
 20
75.635520
 30
0.0
 10
493.624781
 20
72.635526
 30
0.0
 10
478.624767
 20
72.635526
 30
0.0
 10
478.624767
 20
75.635520
 30
0.0
 10
463.624756
 20
75.635520
 30
0.0
 10
463.624756
 20
72.635526
 30
0.0
 10
448.624739
 20
72.635526
 30
0.0
 10
448.624739
 20
75.635520
 30
0.0
 10
433.624728
 20
75.635520
 30
0.0
 10
433.624728
 20
72.635526
 30
0.0
 10
418.624712
 20
72.635526
 30
0.0
 10
418.624712
 20
75.635520
 30
0.0
 10
397.374694
 20
75.635520
 30
0.0
 10
397.374694
 20
72.635526
 30
0.0
 10
376.124674
 20
72.635526
 30
0.0
 10
376.124674
 20
96.885525
 30
0.0
 10
379.124677
 20
96.885525
 30
0.0
 10
379.124677
 20
121.135556
 30
0.0
 10
376.124674
 20
121.135556
 30
0.0
 10
376.124674
 20
136.135567
 30
0.0
 10
379.124677
 20
136.135567
 30
0.0
 10
379.124677
 20
151.135579
 30
0.0
 10
376.124674
 20
151.135579
 30
0.0
 10
376.124674
 20
166.135590
 30
0.0
 10
379.124677
 20
166.135590
 30
0.0
 10
379.124677
 20
181.135601
 30
0.0
 10
376.124674
 20
181.135601
 30
0.0
 10
376.124674
 20
196.135613
 30
0.0
 10
379.124677
 20
196.135613
 30
0.0
 10
379.124677
 20
211.135624
 30
0.0
 10
376.124674
 20
211.135624
 30
0.0
 10
376.124674
 20
226.135639
 30
0.0
 10
379.124677
 20
226.135639
 30
0.0
 10
379.124677
 20
241.135647
 30
0.0
 10
376.124674
 20
241.135647
 30
0.0
 10
376.124674
 20
256.135661
 30
0.0
 10
379.124677
 20
256.135661
 30
0.0
 10
379.124677
 20
271.135670
 30
0.0
 10
376.124674
 20
271.135670
 30
0.0
 10
376.124674
 20
286.135681
 30
0.0
 10
379.124677
 20
286.135681
 30
0.0
 10
379.124677
 20
301.135693
 30
0.0
 10
376.124674
 20
301.135693
 30
0.0
 10
376.124674
 20
316.135707
 30
0.0
 10
379.124677
 20
316.135707
 30
0.0
 10
379.124677
 20
331.135716
 30
0.0
 10
376.124674
 20
331.135716
 30
0.0
 10
376.124674
 20
346.135727
 30
0.0
 10
379.124677
 20
346.135727
 30
0.0
 10
379.124677
 20
370.385747
 30
0.0
 10
376.124674
 20
370.385747
 30
0.0
 10
376.124674
 20
394.635766
 30
0.0
 10
397.374694
 20
394.635766
 30
0.0
 10
397.374694
 20
391.635763
 30
0.0
 10
418.624712
 20
391.635763
 30
0.0
 10
418.624712
 20
394.635766
 30
0.0
 10
433.624728
 20
394.635766
 30
0.0
 10
433.624728
 20
391.635763
 30
0.0
 10
448.624739
 20
391.635763
 30
0.0
 10
448.624739
 20
394.635766
 30
0.0
 10
463.624756
 20
394.635766
 30
0.0
 10
463.624756
 20
391.635763
 30
0.0
 10
478.624767
 20
391.635763
 30
0.0
 10
478.624767
 20
394.635766
 30
0.0
 10
493.624781
 20
394.635766
 30
0.0
 10
493.624781
 20
391.635763
 30
0.0
 10
508.624795
 20
391.635763
 30
0.0
 10
508.624795
 20
394.635766
 30
0.0
 10
523.624811
 20
394.635766
 30
0.0
 10
523.624811
 20
391.635763
 30
0.0
 10
538.624822
 20
391.635763
 30
0.0
 10
538.624822
 20
394.635766
 30
0.0
 10
553.624836
 20
394.635766
 30
0.0
 10
553.624836
 20
391.635763
 30
0.0
 10
574.874857
 20
391.635763
 30
0.0
 10
574.874857
 20
394.635766
 30
0.0
 10
596.124877
 20
394.635766
 30
0.0
 10
596.124877
 20
370.385747
 30
0.0
 10
593.124874
 20
370.385747
 30
0.0
 10
593.124874
 20
346.135727
 30
0.0
 10
596.124877
 20
346.135727
 30
0.0
 10
596.124877
 20
331.135716
 30
0.0
 10
593.124874
 20
331.135716
 30
0.0
 10
593.124874
 20
316.135707
 30
0.0
  0
LWPOLYLINE
  5
101
100
AcDbEntity
  8
Layer_1
 62
7
100
AcDbPolyline
 90
2
 70
1
 10
576.124857
 20
140.635572
 30
0.0
 10
576.124857
 20
104.635544
 30
0.0
  0
SPLINE
  5
102
100
AcDbEntity
  8
Layer_1
 62
7
100
AcDbSpline
 70
0
 71
3
 72
10
 73
6
 74
4
 40
0.000000
 40
0.000000
 40
0.000000
 40
0.000000
 40
1.046993
 40
2.060615
 40
3.107607
 40
3.107607
 40
3.107607
 40
3.107607
 10
576.124857
 20
104.635544
 30
0.0
 10
576.070279
 20
104.284539
 30
0.0
 10
575.962863
 20
103.593716
 30
0.0
 10
575.166684
 20
102.797542
 30
0.0
 10
574.475861
 20
102.690126
 30
0.0
 10
574.124856
 20
102.635549
 30
0.0
 11
576.124857
 21
104.635544
 31
0.0
 11
575.852561
 21
103.624581
 31
0.0
 11
575.135819
 21
102.907843
 31
0.0
 11
574.124856
 21
102.635549
 31
0.0
  0
LWPOLYLINE
  5
103
100
AcDbEntity
  8
Layer_1
 62
7
100
AcDbPolyline
 90
2
 70
1
 10
574.124856
 20
102.635549
 30
0.0
 10
378.124678
 20
102.635549
 30
0.0
  0
SPLINE
  5
104
100
AcDbEntity
  8
Layer_1
 62
7
100
AcDbSpline
 70
0
 71
3
 72
10
 73
6
 74
4
 40
0.000000
 40
0.000000
 40
0.000000
 40
0.000000
 40
1.046992
 40
2.060615
 40
3.107607
 40
3.107607
 40
3.107607
 40
3.107607
 10
378.124678
 20
102.635549
 30
0.0
 10
377.773673
 20
102.690126
 30
0.0
 10
377.082850
 20
102.797542
 30
0.0
 10
376.286671
 20
103.593716
 30
0.0
 10
376.179255
 20
104.284539
 30
0.0
 10
376.124677
 20
104.635544
 30
0.0
 11
378.124678
 21
102.635549
 31
0.0
 11
377.113714
 21
102.907843
 31
0.0
 11
376.396973
 21
103.624581
 31
0.0
 11
376.124677
 21
104.635544
 31
0.0
  0
LWPOLYLINE
  5
105
100
AcDbEntity
  8
Layer_1
 62
7
100
AcDbPolyline
 90
2
 70
1
 10
376.124677
 20
104.635544
 30
0.0
 10
376.124677
 20
140.635572
 30
0.0
  0
SPLINE
  5
106
100
AcDbEntity
  8
Layer_1
 62
7
100
AcDbSpline
 70
0
 71
3
 72
10
 73
6
 74
4
 40
0.000000
 40
0.000000
 40
0.000000
 40
0.000000
 40
1.046991
 40
2.060617
 40
3.107610
 40
3.107610
 40
3.107610
 40
3.107610
 10
376.124677
 20
140.635572
 30
0.0
 10
376.179255
 20
140.986577
 30
0.0
 10
376.286672
 20
141.677400
 30
0.0
 10
377.082849
 20
142.473578
 30
0.0
 10
377.773673
 20
142.580995
 30
0.0
 10
378.124678
 20
142.635573
 30
0.0
 11
376.124677
 21
140.635572
 31
0.0
 11
376.396973
 21
141.646535
 31
0.0
 11
377.113714
 21
142.363276
 31
0.0
 11
378.124678
 21
142.635573
 31
0.0
  0
LWPOLYLINE
  5
107
100
AcDbEntity
  8
Layer_1
 62
7
100
AcDbPolyline
 90
2
 70
1
 10
378.124678
 20
142.635573
 30
0.0
 10
574.124856
 20
142.635573
 30
0.0
  0
LWPOLYLINE
  5
108
100
AcDbEntity
  8
Layer_1
 62
7
100
AcDbPolyline
 90
2
 70
1
 10
576.124857
 20
140.635572
 30
0.0
 10
576.124857
 20
140.635572
 30
0.0
  0
SPLINE
  5
109
100
AcDbEntity
  8
Layer_1
 62
7
100
AcDbSpline
 70
0
 71
3
 72
10
 73
6
 74
4
 40
0.000000
 40
0.000000
 40
0.000000
 40
0.000000
 40
1.046993
 40
2.060618
 40
3.107610
 40
3.107610
 40
3.107610
 40
3.107610
 10
574.124856
 20
142.635573
 30
0.0
 10
574.475861
 20
142.580995
 30
0.0
 10
575.166685
 20
142.473578
 30
0.0
 10
575.962862
 20
141.677400
 30
0.0
 10
576.070279
 20
140.986577
 30
0.0
 10
576.124857
 20
140.635572
 30
0.0
 11
574.124856
 21
142.635573
 31
0.0
 11
575.135819
 21
142.363276
 31
0.0
 11
575.852561
 21
141.646535
 31
0.0
 11
576.124857
 21
140.635572
 31
0.0
  0
LWPOLYLINE
  5
10a
100
AcDbEntity
  8
Layer_1
 62
7
100
AcDbPolyline
 90
125
 70
1
 10
361.210550
 20
314.523010
 30
0.0
 10
361.210550
 20
299.522996
 30
0.0
 10
358.210547
 20
299.522996
 30
0.0
 10
358.210547
 20
284.522985
 30
0.0
 10
361.210550
 20
284.522985
 30
0.0
 10
361.210550
 20
269.522973
 30
0.0
 10
358.210547
 20
269.522973
 30
0.0
 10
358.210547
 20
254.522965
 30
0.0
 10
361.210550
 20
254.522965
 30
0.0
 10
361.210550
 20
239.522950
 30
0.0
 10
358.210547
 20
239.522950
 30
0.0
 10
358.210547
 20
224.522942
 30
0.0
 10
361.210550
 20
224.522942
 30
0.0
 10
361.210550
 20
209.522927
 30
0.0
 10
358.210547
 20
209.522927
 30
0.0
 10
358.210547
 20
194.522916
 30
0.0
 10
361.210550
 20
194.522916
 30
0.0
 10
361.210550
 20
179.522905
 30
0.0
 10
358.210547
 20
179.522905
 30
0.0
 10
358.210547
 20
164.522893
 30
0.0
 10
361.210550
 20
164.522893
 30
0.0
 10
361.210550
 20
149.522882
 30
0.0
 10
358.210547
 20
149.522882
 30
0.0
 10
358.210547
 20
134.522870
 30
0.0
 10
361.210550
 20
134.522870
 30
0.0
 10
361.210550
 20
119.522859
 30
0.0
 10
358.210547
 20
119.522859
 30
0.0
 10
358.210547
 20
95.272828
 30
0.0
 10
361.210550
 20
95.272828
 30
0.0
 10
361.210550
 20
71.022829
 30
0.0
 10
339.960530
 20
71.022829
 30
0.0
 10
339.960530
 20
74.022823
 30
0.0
 10
318.710509
 20
74.022823
 30
0.0
 10
318.710509
 20
71.022829
 30
0.0
 10
303.710495
 20
71.022829
 30
0.0
 10
303.710495
 20
74.022823
 30
0.0
 10
288.710484
 20
74.022823
 30
0.0
 10
288.710484
 20
71.022829
 30
0.0
 10
273.710467
 20
71.022829
 30
0.0
 10
273.710467
 20
74.022823
 30
0.0
 10
258.710454
 20
74.022823
 30
0.0
 10
258.710454
 20
71.022829
 30
0.0
 10
243.710440
 20
71.022829
 30
0.0
 10
243.710440
 20
74.022823
 30
0.0
 10
228.710429
 20
74.022823
 30
0.0
 10
228.710429
 20
71.022829
 30
0.0
 10
213.710412
 20
71.022829
 30
0.0
 10
213.710412
 20
74.022823
 30
0.0
 10
198.710401
 20
74.022823
 30
0.0
 10
198.710401
 20
71.022829
 30
0.0
 10
183.710384
 20
71.022829
 30
0.0
 10
183.710384
 20
74.022823
 30
0.0
 10
162.460367
 20
74.022823
 30
0.0
 10
162.460367
 20
71.022829
 30
0.0
 10
141.210347
 20
71.022829
 30
0.0
 10
141.210347
 20
95.272828
 30
0.0
 10
144.210349
 20
95.272828
 30
0.0
 10
144.210349
 20
119.522859
 30
0.0
 10
141.210347
 20
119.522859
 30
0.0
 10
141.210347
 20
134.522870
 30
0.0
 10
144.210349
 20
134.522870
 30
0.0
 10
144.210349
 20
149.522882
 30
0.0
 10
141.210347
 20
149.522882
 30
0.0
 10
141.210347
 20
164.522893
 30
0.0
 10
144.210349
 20
164.522893
 30
0.0
 10
144.210349
 20
179.522905
 30
0.0
 10
141.210347
 20
179.522905
 30
0.0
 10
141.210347
 20
194.522916
 30
0.0
 10
144.210349
 20
194.522916
 30
0.0
 10
144.210349
 20
209.522927
 30
0.0
 10
141.210347
 20
209.522927
 30
0.0
 10
141.210347
 20
224.522942
 30
0.0
 10
144.210349
 20
224.522942
 30
0.0
 10
144.210349
 20
239.522950
 30
0.0
 10
141.210347
 20
239.522950
 30
0.0
 10
141.210347
 20
254.522965
 30
0.0
 10
144.210349
 20
254.522965
 30
0.0
 10
144.210349
 20
269.522973
 30
0.0
 10
141.210347
 20
269.522973
 30
0.0
 10
141.210347
 20
284.522985
 30
0.0
 10
144.210349
 20
284.522985
 30
0.0
 10
144.210349
 20
299.522996
 30
0.0
 10
141.210347
 20
299.522996
 30
0.0
 10
141.210347
 20
314.523010
 30
0.0
 10
144.210349
 20
314.523010
 30
0.0
 10
144.210349
 20
329.523019
 30
0.0
 10
141.210347
 20
329.523019
 30
0.0
 10
141.210347
 20
344.523030
 30
0.0
 10
144.210349
 20
344.523030
 30
0.0
 10
144.210349
 20
368.773050
 30
0.0
 10
141.210347
 20
368.773050
 30
0.0
 10
141.210347
 20
393.023069
 30
0.0
 10
162.460367
 20
393.023069
 30
0.0
 10
162.460367
 20
390.023066
 30
0.0
 10
183.710384
 20
390.023066
 30
0.0
 10
183.710384
 20
393.023069
 30
0.0
 10
198.710401
 20
393.023069
 30
0.0
 10
198.710401
 20
390.023066
 30
0.0
 10
213.710412
 20
390.023066
 30
0.0
 10
213.710412
 20
393.023069
 30
0.0
 10
228.710429
 20
393.023069
 30
0.0
 10
228.710429
 20
390.023066
 30
0.0
 10
243.710440
 20
390.023066
 30
0.0
 10
243.710440
 20
393.023069
 30
0.0
 10
258.710454
 20
393.023069
 30
0.0
 10
258.710454
 20
390.023066
 30
0.0
 10
273.710467
 20
390.023066
 30
0.0
 10
273.710467
 20
393.023069
 30
0.0
 10
288.710484
 20
393.023069
 30
0.0
 10
288.710484
 20
390.023066
 30
0.0
 10
303.710495
 20
390.023066
 30
0.0
 10
303.710495
 20
393.023069
 30
0.0
 10
318.710509
 20
393.023069
 30
0.0
 10
318.710509
 20
390.023066
 30
0.0
 10
339.960530
 20
390.023066
 30
0.0
 10
339.960530
 20
393.023069
 30
0.0
 10
361.210550
 20
393.023069
 30
0.0
 10
361.210550
 20
368.773050
 30
0.0
 10
358.210547
 20
368.773050
 30
0.0
 10
358.210547
 20
344.523030
 30
0.0
 10
361.210550
 20
344.523030
 30
0.0
 10
361.210550
 20
329.523019
 30
0.0
 10
358.210547
 20
329.523019
 30
0.0
 10
358.210547
 20
314.523010
 30
0.0
 10
361.210550
 20
314.523010
 30
0.0
  0
ENDSEC
  0
SECTION
  2
OBJECTS
  0
DICTIONARY
  5
C
330
0
100
AcDbDictionary
  3
ACAD_GROUP
350
D
  3
ACAD_MLINESTYLE
350
17
  0
DICTIONARY
  5
D
330
C
100
AcDbDictionary
  0
DICTIONARY
  5
1A
330
C
100
AcDbDictionary
  0
DICTIONARY
  5
17
330
C
100
AcDbDictionary
  3
STANDARD
350
18
  0
DICTIONARY
  5
19
330
C
100
AcDbDictionary
  0
ENDSEC
  0
EOF
