<?xml version="1.0" encoding="UTF-8" standalone="no"?>
<!-- Created with Inkscape (http://www.inkscape.org/) -->

<svg
   xmlns:dc="http://purl.org/dc/elements/1.1/"
   xmlns:cc="http://creativecommons.org/ns#"
   xmlns:rdf="http://www.w3.org/1999/02/22-rdf-syntax-ns#"
   xmlns:svg="http://www.w3.org/2000/svg"
   xmlns="http://www.w3.org/2000/svg"
   xmlns:sodipodi="http://sodipodi.sourceforge.net/DTD/sodipodi-0.dtd"
   xmlns:inkscape="http://www.inkscape.org/namespaces/inkscape"
   width="600mm"
   height="400mm"
   viewBox="0 0 2125.9843 1417.3228"
   id="svg4340"
   version="1.1"
   inkscape:version="0.91 r13725"
   sodipodi:docname="lid-2.svg">
  <defs
     id="defs4342" />
  <sodipodi:namedview
     id="base"
     pagecolor="#ffffff"
     bordercolor="#666666"
     borderopacity="1.0"
     inkscape:pageopacity="0.0"
     inkscape:pageshadow="2"
     inkscape:zoom="0.175"
     inkscape:cx="-47.722063"
     inkscape:cy="1089.6288"
     inkscape:document-units="mm"
     inkscape:current-layer="layer1"
     showgrid="true"
     inkscape:window-width="1366"
     inkscape:window-height="705"
     inkscape:window-x="-8"
     inkscape:window-y="-8"
     inkscape:window-maximized="1">
    <inkscape:grid
       type="xygrid"
       id="grid4888" />
  </sodipodi:namedview>
  <metadata
     id="metadata4345">
    <rdf:RDF>
      <cc:Work
         rdf:about="">
        <dc:format>image/svg+xml</dc:format>
        <dc:type
           rdf:resource="http://purl.org/dc/dcmitype/StillImage" />
        <dc:title></dc:title>
      </cc:Work>
    </rdf:RDF>
  </metadata>
  <g
     inkscape:label="Layer 1"
     inkscape:groupmode="layer"
     id="layer1"
     transform="translate(0,364.96067)">
    <g
       transform="translate(965.35726,-334.28871)"
       id="g4910"
       style="stroke:#000000;stroke-opacity:1;stroke-width:0.35433074;stroke-miterlimit:4;stroke-dasharray:none">
      <path
         style="fill:none;stroke:#000000;stroke-width:0.35433075;stroke-miterlimit:4;stroke-dasharray:none;stroke-opacity:1"
         d="m 225.00019,0 53.14964,0 0,10.62993 53.14966,0 0,-10.62993 53.14965,0 0,10.62993 53.14965,0 0,-10.62993 53.14964,0 0,10.62993 53.14966,0 0,-10.62993 53.14964,0 0,10.62993 53.14966,0 0,-10.62993 53.14965,0 0,10.62993 53.14965,0 0,-10.62993 53.14965,0 0,10.62993 53.14965,0 0,-10.62993 53.14965,0 0,10.62993 53.14965,0 0,-10.62993 85.92531,0 0,10.62993 75.2953,0 0,60.23627 10.6299,0 0,70.8662 -10.6299,0 0,53.14965 10.6299,0 0,53.14965 -10.6299,0 0,53.14965 10.6299,0 0,53.14965 -10.6299,0 0,53.14965 10.6299,0 0,53.14965 -10.6299,0 0,53.14965 10.6299,0 0,53.14965 -10.6299,0 0,53.14965 10.6299,0 0,53.14965 -10.6299,0 0,53.14965 10.6299,0 0,53.14965 -10.6299,0 0,53.14965 10.6299,0 0,53.14965 -10.6299,0 0,53.14965 10.6299,0 0,53.14965 -10.6299,0 0,53.1496 10.6299,0 0,70.8663 -10.6299,0 0,60.2362 -75.2953,0 0,10.6299 -85.92531,0 0,-10.6299 -53.14965,0 0,10.6299 -53.14965,0 0,-10.6299 -53.14965,0 0,10.6299 -53.14965,0 0,-10.6299 -53.14965,0 0,10.6299 -53.14965,0 0,-10.6299 -53.14966,0 0,10.6299 -53.14964,0 0,-10.6299 -53.14966,0 0,10.6299 -53.14964,0 0,-10.6299 -53.14965,0 0,10.6299 -53.14965,0 0,-10.6299 -53.14966,0 0,10.6299 -53.14964,0 0,-10.6299 -53.14965,0 0,10.6299 -85.925272,0 0,-10.6299 -75.295338,0 0,-60.2362 -10.62993,0 0,-70.8663 10.62993,0 0,-53.1496 -10.62993,0 0,-53.14965 10.62993,0 0,-53.14965 -10.62993,0 0,-53.14965 10.62993,0 0,-53.14965 -10.62993,0 0,-53.14965 10.62993,0 0,-53.14965 -10.62993,0 0,-53.14965 10.62993,0 0,-53.14965 -10.62993,0 0,-53.14965 10.62993,0 0,-53.14965 -10.62993,0 0,-53.14965 10.62993,0 0,-53.14965 -10.62993,0 0,-53.14965 10.62993,0 0,-53.14965 -10.62993,0 0,-53.14965 10.62993,0 0,-53.14965 -10.62993,0 0,-70.8662 10.62993,0 0,-60.23627 75.295338,0 0,-10.62993 85.925272,0 0,10.62993 53.14965,0 z"
         id="polygon4912" />
      <path
         style="fill:none;stroke:#000000;stroke-width:0.35433075;stroke-miterlimit:4;stroke-dasharray:none;stroke-opacity:1"
         d="m 599.70523,593.50439 a 25.688997,25.688997 0 0 1 -25.68899,25.689 25.688997,25.688997 0 0 1 -25.689,-25.689 25.688997,25.688997 0 0 1 25.689,-25.68899 25.688997,25.688997 0 0 1 25.68899,25.68899 z"
         id="circle4914" />
      <path
         style="fill:none;stroke:#000000;stroke-width:0.35433075;stroke-miterlimit:4;stroke-dasharray:none;stroke-opacity:1"
         d="m 527.06737,593.50439 a 6.2007923,6.2007923 0 0 1 -6.20079,6.2008 6.2007923,6.2007923 0 0 1 -6.2008,-6.2008 6.2007923,6.2007923 0 0 1 6.2008,-6.20079 6.2007923,6.2007923 0 0 1 6.20079,6.20079 z"
         id="circle4916" />
      <path
         style="fill:none;stroke:#000000;stroke-width:0.35433075;stroke-miterlimit:4;stroke-dasharray:none;stroke-opacity:1"
         d="m 633.36669,593.50439 a 6.2007923,6.2007923 0 0 1 -6.2008,6.2008 6.2007923,6.2007923 0 0 1 -6.20079,-6.2008 6.2007923,6.2007923 0 0 1 6.20079,-6.20079 6.2007923,6.2007923 0 0 1 6.2008,6.20079 z"
         id="circle4918" />
    </g>
    <g
       transform="matrix(0,0.99999994,-1.0000001,0,939.08679,-332.31467)"
       id="g4906"
       style="stroke:#000000;stroke-opacity:1;stroke-width:0.35433073;stroke-miterlimit:4;stroke-dasharray:none">
      <path
         style="fill:none;stroke:#000000;stroke-width:0.35433072;stroke-miterlimit:4;stroke-dasharray:none;stroke-opacity:1"
         d="m 248.0317,10.62993 0,-10.62993 53.14965,0 0,10.62993 53.14965,0 0,-10.62993 53.14965,0 0,10.62993 53.14965,0 0,-10.62993 53.14965,0 0,10.62993 53.14965,0 0,-10.62993 53.14965,0 0,10.62993 53.14965,0 0,-10.62993 53.14965,0 0,10.62993 53.14965,0 0,-10.62993 53.14965,0 0,10.62993 53.14965,0 0,-10.62993 53.14965,0 0,10.62993 53.14965,0 0,-10.62993 53.1496,0 0,10.62993 70.8663,0 0,-10.62993 60.2362,0 0,75.295338 10.6299,0 0,75.295342 -10.6299,0 0,53.14965 10.6299,0 0,53.14964 -10.6299,0 0,53.14966 10.6299,0 0,53.14965 -10.6299,0 0,53.14965 10.6299,0 0,53.14964 -10.6299,0 0,53.14966 10.6299,0 0,53.14964 -10.6299,0 0,53.14966 10.6299,0 0,75.29533 -10.6299,0 0,75.29534 -60.2362,0 0,-10.62993 -70.8663,0 0,10.62993 -53.1496,0 0,-10.62993 -53.14965,0 0,10.62993 -53.14965,0 0,-10.62993 -53.14965,0 0,10.62993 -53.14965,0 0,-10.62993 -53.14965,0 0,10.62993 -53.14965,0 0,-10.62993 -53.14965,0 0,10.62993 -53.14965,0 0,-10.62993 -53.14965,0 0,10.62993 -53.14965,0 0,-10.62993 -53.14965,0 0,10.62993 -53.14965,0 0,-10.62993 -53.14965,0 0,10.62993 -53.14965,0 0,-10.62993 -53.14965,0 0,10.62993 -53.14965,0 0,-10.62993 -70.8662,0 0,10.62993 -60.23627,0 0,-75.29534 -10.62993,0 0,-75.29533 10.62993,0 0,-53.14966 -10.62993,0 0,-53.14964 10.62993,0 0,-53.14966 -10.62993,0 0,-53.14964 10.62993,0 0,-53.14965 -10.62993,0 0,-53.14965 10.62993,0 0,-53.14966 -10.62993,0 0,-53.14964 10.62993,0 0,-53.14965 -10.62993,0 0,-75.295342 10.62993,0 0,-75.295338 60.23627,0 0,10.62993 70.8662,0 0,-10.62993 53.14965,0 0,10.62993 z"
         id="polygon4908" />
    </g>
  </g>
</svg>
