  0
SECTION
  2
HEADER
  9
$ACADVER
  1
AC1014
  9
$HANDSEED
  5
FFFF
  9
$MEASUREMENT
 70
     1
  0
ENDSEC
  0
SECTION
  2
TABLES
  0
TABLE
  2
VPORT
  5
8
330
0
100
AcDbSymbolTable
 70
     4
  0
VPORT
  5
2E
330
8
100
AcDbSymbolTableRecord
100
AcDbViewportTableRecord
  2
*ACTIVE
 70
     0
 10
0.0
 20
0.0
 11
1.0
 21
1.0
 12
210.0
 22
148.5
 13
0.0
 23
0.0
 14
10.0
 24
10.0
 15
10.0
 25
10.0
 16
0.0
 26
0.0
 36
1.0
 17
0.0
 27
0.0
 37
0.0
 40
341.0
 41
1.24
 42
50.0
 43
0.0
 44
0.0
 50
0.0
 51
0.0
 71
     0
 72
   100
 73
     1
 74
     3
 75
     0
 76
     0
 77
     0
 78
     0
  0
ENDTAB
  0
TABLE
  2
LTYPE
  5
5
330
0
100
AcDbSymbolTable
 70
     1
  0
LTYPE
  5
14
330
5
100
AcDbSymbolTableRecord
100
AcDbLinetypeTableRecord
  2
BYBLOCK
 70
     0
  3

 72
    65
 73
     0
 40
0.0
  0
LTYPE
  5
15
330
5
100
AcDbSymbolTableRecord
100
AcDbLinetypeTableRecord
  2
BYLAYER
 70
     0
  3

 72
    65
 73
     0
 40
0.0
  0
LTYPE
  5
16
330
5
100
AcDbSymbolTableRecord
100
AcDbLinetypeTableRecord
  2
CONTINUOUS
 70
     0
  3
Solid line
 72
    65
 73
     0
 40
0.0
  0
ENDTAB
  0
TABLE
  2
LAYER
  5
2
100
AcDbSymbolTable
 70
2
  0
LAYER
  5
50
100
AcDbSymbolTableRecord
100
AcDbLayerTableRecord
  2
0
 70
0
  6
CONTINUOUS
  0
LAYER
  5
51
100
AcDbSymbolTableRecord
100
AcDbLayerTableRecord
  2
Layer_1
 70
0
  6
CONTINUOUS
  0
ENDTAB
  0
TABLE
  2
STYLE
  5
3
330
0
100
AcDbSymbolTable
 70
     1
  0
STYLE
  5
11
330
3
100
AcDbSymbolTableRecord
100
AcDbTextStyleTableRecord
  2
STANDARD
 70
     0
 40
0.0
 41
1.0
 50
0.0
 71
     0
 42
2.5
  3
txt
  4

  0
ENDTAB
  0
TABLE
  2
VIEW
  5
6
330
0
100
AcDbSymbolTable
 70
     0
  0
ENDTAB
  0
TABLE
  2
UCS
  5
7
330
0
100
AcDbSymbolTable
 70
     0
  0
ENDTAB
  0
TABLE
  2
APPID
  5
9
330
0
100
AcDbSymbolTable
 70
     2
  0
APPID
  5
12
330
9
100
AcDbSymbolTableRecord
100
AcDbRegAppTableRecord
  2
ACAD
 70
     0
  0
ENDTAB
  0
TABLE
  2
DIMSTYLE
  5
A
330
0
100
AcDbSymbolTable
 70
     1
  0
DIMSTYLE
105
27
330
A
100
AcDbSymbolTableRecord
100
AcDbDimStyleTableRecord
  2
ISO-25
 70
     0
  3

  4

  5

  6

  7

 40
1.0
 41
2.5
 42
0.625
 43
3.75
 44
1.25
 45
0.0
 46
0.0
 47
0.0
 48
0.0
140
2.5
141
2.5
142
0.0
143
0.03937007874016
144
1.0
145
0.0
146
1.0
147
0.625
 71
     0
 72
     0
 73
     0
 74
     0
 75
     0
 76
     0
 77
     1
 78
     8
170
     0
171
     3
172
     1
173
     0
174
     0
175
     0
176
     0
177
     0
178
     0
270
     2
271
     2
272
     2
273
     2
274
     3
340
11
275
     0
280
     0
281
     0
282
     0
283
     0
284
     8
285
     0
286
     0
287
     3
288
     0
  0
ENDTAB
  0
TABLE
  2
BLOCK_RECORD
  5
1
330
0
100
AcDbSymbolTable
 70
     1
  0
BLOCK_RECORD
  5
1F
330
1
100
AcDbSymbolTableRecord
100
AcDbBlockTableRecord
  2
*MODEL_SPACE
  0
BLOCK_RECORD
  5
1B
330
1
100
AcDbSymbolTableRecord
100
AcDbBlockTableRecord
  2
*PAPER_SPACE
  0
ENDTAB
  0
ENDSEC
  0
SECTION
  2
BLOCKS
  0
BLOCK
  5
20
330
1F
100
AcDbEntity
  8
0
100
AcDbBlockBegin
  2
*MODEL_SPACE
 70
     0
 10
0.0
 20
0.0
 30
0.0
  3
*MODEL_SPACE
  1

  0
ENDBLK
  5
21
330
1F
100
AcDbEntity
  8
0
100
AcDbBlockEnd
  0
BLOCK
  5
1C
330
1B
100
AcDbEntity
 67
     1
  8
0
100
AcDbBlockBegin
  2
*PAPER_SPACE
  1

  0
ENDBLK
  5
1D
330
1B
100
AcDbEntity
 67
     1
  8
0
100
AcDbBlockEnd
  0
ENDSEC
  0
SECTION
  2
ENTITIES
  0
LWPOLYLINE
  5
100
100
AcDbEntity
  8
Layer_1
 62
7
100
AcDbPolyline
 90
133
 70
1
 10
256.967668
 20
303.234113
 30
0.0
 10
253.967665
 20
303.234113
 30
0.0
 10
253.967665
 20
288.234102
 30
0.0
 10
256.967668
 20
288.234102
 30
0.0
 10
256.967668
 20
273.234090
 30
0.0
 10
253.967665
 20
273.234090
 30
0.0
 10
253.967665
 20
258.234079
 30
0.0
 10
256.967668
 20
258.234079
 30
0.0
 10
256.967668
 20
243.234068
 30
0.0
 10
253.967665
 20
243.234068
 30
0.0
 10
253.967665
 20
228.234056
 30
0.0
 10
256.967668
 20
228.234056
 30
0.0
 10
256.967668
 20
213.234045
 30
0.0
 10
253.967665
 20
213.234045
 30
0.0
 10
253.967665
 20
198.234033
 30
0.0
 10
256.967668
 20
198.234033
 30
0.0
 10
256.967668
 20
183.234022
 30
0.0
 10
253.967665
 20
183.234022
 30
0.0
 10
253.967665
 20
168.234010
 30
0.0
 10
256.967668
 20
168.234010
 30
0.0
 10
256.967668
 20
153.233999
 30
0.0
 10
253.967665
 20
153.233999
 30
0.0
 10
253.967665
 20
138.233988
 30
0.0
 10
256.967668
 20
138.233988
 30
0.0
 10
256.967668
 20
123.233976
 30
0.0
 10
253.967665
 20
123.233976
 30
0.0
 10
253.967665
 20
108.233965
 30
0.0
 10
256.967668
 20
108.233965
 30
0.0
 10
256.967668
 20
93.233967
 30
0.0
 10
253.967665
 20
93.233967
 30
0.0
 10
253.967665
 20
73.233924
 30
0.0
 10
256.967668
 20
73.233924
 30
0.0
 10
256.967668
 20
56.233931
 30
0.0
 10
235.717649
 20
56.233931
 30
0.0
 10
235.717649
 20
53.233937
 30
0.0
 10
214.467628
 20
53.233937
 30
0.0
 10
214.467628
 20
56.233931
 30
0.0
 10
199.467614
 20
56.233931
 30
0.0
 10
199.467614
 20
53.233937
 30
0.0
 10
184.467603
 20
53.233937
 30
0.0
 10
184.467603
 20
56.233931
 30
0.0
 10
169.467586
 20
56.233931
 30
0.0
 10
169.467586
 20
53.233937
 30
0.0
 10
154.467572
 20
53.233937
 30
0.0
 10
154.467572
 20
56.233931
 30
0.0
 10
139.467558
 20
56.233931
 30
0.0
 10
139.467558
 20
53.233937
 30
0.0
 10
124.467547
 20
53.233937
 30
0.0
 10
124.467547
 20
56.233931
 30
0.0
 10
109.467531
 20
56.233931
 30
0.0
 10
109.467531
 20
53.233937
 30
0.0
 10
94.467520
 20
53.233937
 30
0.0
 10
94.467520
 20
56.233931
 30
0.0
 10
79.467503
 20
56.233931
 30
0.0
 10
79.467503
 20
53.233937
 30
0.0
 10
58.217486
 20
53.233937
 30
0.0
 10
58.217486
 20
56.233931
 30
0.0
 10
36.967465
 20
56.233931
 30
0.0
 10
36.967465
 20
73.233924
 30
0.0
 10
39.967468
 20
73.233924
 30
0.0
 10
39.967468
 20
93.233967
 30
0.0
 10
36.967465
 20
93.233967
 30
0.0
 10
36.967465
 20
108.233965
 30
0.0
 10
39.967468
 20
108.233965
 30
0.0
 10
39.967468
 20
123.233976
 30
0.0
 10
36.967465
 20
123.233976
 30
0.0
 10
36.967465
 20
138.233988
 30
0.0
 10
39.967468
 20
138.233988
 30
0.0
 10
39.967468
 20
153.233999
 30
0.0
 10
36.967465
 20
153.233999
 30
0.0
 10
36.967465
 20
168.234010
 30
0.0
 10
39.967468
 20
168.234010
 30
0.0
 10
39.967468
 20
183.234022
 30
0.0
 10
36.967465
 20
183.234022
 30
0.0
 10
36.967465
 20
198.234033
 30
0.0
 10
39.967468
 20
198.234033
 30
0.0
 10
39.967468
 20
213.234045
 30
0.0
 10
36.967465
 20
213.234045
 30
0.0
 10
36.967465
 20
228.234056
 30
0.0
 10
39.967468
 20
228.234056
 30
0.0
 10
39.967468
 20
243.234068
 30
0.0
 10
36.967465
 20
243.234068
 30
0.0
 10
36.967465
 20
258.234079
 30
0.0
 10
39.967468
 20
258.234079
 30
0.0
 10
39.967468
 20
273.234090
 30
0.0
 10
36.967465
 20
273.234090
 30
0.0
 10
36.967465
 20
288.234102
 30
0.0
 10
39.967468
 20
288.234102
 30
0.0
 10
39.967468
 20
303.234113
 30
0.0
 10
36.967465
 20
303.234113
 30
0.0
 10
36.967465
 20
318.234125
 30
0.0
 10
39.967468
 20
318.234125
 30
0.0
 10
39.967468
 20
333.234136
 30
0.0
 10
36.967465
 20
333.234136
 30
0.0
 10
36.967465
 20
348.234148
 30
0.0
 10
39.967468
 20
348.234148
 30
0.0
 10
39.967468
 20
368.234163
 30
0.0
 10
36.967465
 20
368.234163
 30
0.0
 10
36.967465
 20
385.234176
 30
0.0
 10
58.217486
 20
385.234176
 30
0.0
 10
58.217486
 20
388.234178
 30
0.0
 10
79.467503
 20
388.234178
 30
0.0
 10
79.467503
 20
385.234176
 30
0.0
 10
94.467520
 20
385.234176
 30
0.0
 10
94.467520
 20
388.234178
 30
0.0
 10
109.467531
 20
388.234178
 30
0.0
 10
109.467531
 20
385.234176
 30
0.0
 10
124.467547
 20
385.234176
 30
0.0
 10
124.467547
 20
388.234178
 30
0.0
 10
139.467558
 20
388.234178
 30
0.0
 10
139.467558
 20
385.234176
 30
0.0
 10
154.467572
 20
385.234176
 30
0.0
 10
154.467572
 20
388.234178
 30
0.0
 10
169.467586
 20
388.234178
 30
0.0
 10
169.467586
 20
385.234176
 30
0.0
 10
184.467603
 20
385.234176
 30
0.0
 10
184.467603
 20
388.234178
 30
0.0
 10
199.467614
 20
388.234178
 30
0.0
 10
199.467614
 20
385.234176
 30
0.0
 10
214.467628
 20
385.234176
 30
0.0
 10
214.467628
 20
388.234178
 30
0.0
 10
235.717649
 20
388.234178
 30
0.0
 10
235.717649
 20
385.234176
 30
0.0
 10
256.967668
 20
385.234176
 30
0.0
 10
256.967668
 20
368.234163
 30
0.0
 10
253.967665
 20
368.234163
 30
0.0
 10
253.967665
 20
348.234148
 30
0.0
 10
256.967668
 20
348.234148
 30
0.0
 10
256.967668
 20
333.234136
 30
0.0
 10
253.967665
 20
333.234136
 30
0.0
 10
253.967665
 20
318.234125
 30
0.0
 10
256.967668
 20
318.234125
 30
0.0
 10
256.967668
 20
303.234113
 30
0.0
  0
LWPOLYLINE
  5
101
100
AcDbEntity
  8
Layer_1
 62
7
100
AcDbPolyline
 90
157
 70
1
 10
350.405646
 20
385.118292
 30
0.0
 10
365.405662
 20
385.118292
 30
0.0
 10
365.405662
 20
388.118295
 30
0.0
 10
380.405674
 20
388.118295
 30
0.0
 10
380.405674
 20
385.118292
 30
0.0
 10
395.405686
 20
385.118292
 30
0.0
 10
395.405686
 20
388.118295
 30
0.0
 10
410.405696
 20
388.118295
 30
0.0
 10
410.405696
 20
385.118292
 30
0.0
 10
425.405711
 20
385.118292
 30
0.0
 10
425.405711
 20
388.118295
 30
0.0
 10
440.405720
 20
388.118295
 30
0.0
 10
440.405720
 20
385.118292
 30
0.0
 10
455.405736
 20
385.118292
 30
0.0
 10
455.405736
 20
388.118295
 30
0.0
 10
470.405748
 20
388.118295
 30
0.0
 10
470.405748
 20
385.118292
 30
0.0
 10
485.405760
 20
385.118292
 30
0.0
 10
485.405760
 20
388.118295
 30
0.0
 10
500.405773
 20
388.118295
 30
0.0
 10
500.405773
 20
385.118292
 30
0.0
 10
515.405785
 20
385.118292
 30
0.0
 10
515.405785
 20
388.118295
 30
0.0
 10
530.405797
 20
388.118295
 30
0.0
 10
530.405797
 20
385.118292
 30
0.0
 10
545.405810
 20
385.118292
 30
0.0
 10
545.405810
 20
388.118295
 30
0.0
 10
569.655841
 20
388.118295
 30
0.0
 10
569.655841
 20
385.118292
 30
0.0
 10
590.905848
 20
385.118292
 30
0.0
 10
590.905848
 20
368.118278
 30
0.0
 10
593.905842
 20
368.118278
 30
0.0
 10
593.905842
 20
348.118262
 30
0.0
 10
590.905848
 20
348.118262
 30
0.0
 10
590.905848
 20
333.118250
 30
0.0
 10
593.905842
 20
333.118250
 30
0.0
 10
593.905842
 20
318.118237
 30
0.0
 10
590.905848
 20
318.118237
 30
0.0
 10
590.905848
 20
303.118225
 30
0.0
 10
593.905842
 20
303.118225
 30
0.0
 10
593.905842
 20
288.118213
 30
0.0
 10
590.905848
 20
288.118213
 30
0.0
 10
590.905848
 20
273.118200
 30
0.0
 10
593.905842
 20
273.118200
 30
0.0
 10
593.905842
 20
258.118188
 30
0.0
 10
590.905848
 20
258.118188
 30
0.0
 10
590.905848
 20
243.118176
 30
0.0
 10
593.905842
 20
243.118176
 30
0.0
 10
593.905842
 20
228.118163
 30
0.0
 10
590.905848
 20
228.118163
 30
0.0
 10
590.905848
 20
213.118151
 30
0.0
 10
593.905842
 20
213.118151
 30
0.0
 10
593.905842
 20
198.118139
 30
0.0
 10
590.905848
 20
198.118139
 30
0.0
 10
590.905848
 20
183.118126
 30
0.0
 10
593.905842
 20
183.118126
 30
0.0
 10
593.905842
 20
168.118114
 30
0.0
 10
590.905848
 20
168.118114
 30
0.0
 10
590.905848
 20
153.118102
 30
0.0
 10
593.905842
 20
153.118102
 30
0.0
 10
593.905842
 20
138.118089
 30
0.0
 10
590.905848
 20
138.118089
 30
0.0
 10
590.905848
 20
123.118077
 30
0.0
 10
593.905842
 20
123.118077
 30
0.0
 10
593.905842
 20
108.118065
 30
0.0
 10
590.905848
 20
108.118065
 30
0.0
 10
590.905848
 20
93.118066
 30
0.0
 10
593.905842
 20
93.118066
 30
0.0
 10
593.905842
 20
73.118022
 30
0.0
 10
590.905848
 20
73.118022
 30
0.0
 10
590.905848
 20
56.118028
 30
0.0
 10
569.655841
 20
56.118028
 30
0.0
 10
569.655841
 20
53.118034
 30
0.0
 10
545.405810
 20
53.118034
 30
0.0
 10
545.405810
 20
56.118028
 30
0.0
 10
530.405797
 20
56.118028
 30
0.0
 10
530.405797
 20
53.118034
 30
0.0
 10
515.405785
 20
53.118034
 30
0.0
 10
515.405785
 20
56.118028
 30
0.0
 10
500.405773
 20
56.118028
 30
0.0
 10
500.405773
 20
53.118034
 30
0.0
 10
485.405760
 20
53.118034
 30
0.0
 10
485.405760
 20
56.118028
 30
0.0
 10
470.405748
 20
56.118028
 30
0.0
 10
470.405748
 20
53.118034
 30
0.0
 10
455.405736
 20
53.118034
 30
0.0
 10
455.405736
 20
56.118028
 30
0.0
 10
440.405720
 20
56.118028
 30
0.0
 10
440.405720
 20
53.118034
 30
0.0
 10
425.405711
 20
53.118034
 30
0.0
 10
425.405711
 20
56.118028
 30
0.0
 10
410.405696
 20
56.118028
 30
0.0
 10
410.405696
 20
53.118034
 30
0.0
 10
395.405686
 20
53.118034
 30
0.0
 10
395.405686
 20
56.118028
 30
0.0
 10
380.405674
 20
56.118028
 30
0.0
 10
380.405674
 20
53.118034
 30
0.0
 10
365.405662
 20
53.118034
 30
0.0
 10
365.405662
 20
56.118028
 30
0.0
 10
350.405646
 20
56.118028
 30
0.0
 10
350.405646
 20
53.118034
 30
0.0
 10
335.405637
 20
53.118034
 30
0.0
 10
335.405637
 20
56.118028
 30
0.0
 10
320.405625
 20
56.118028
 30
0.0
 10
320.405625
 20
53.118034
 30
0.0
 10
296.155603
 20
53.118034
 30
0.0
 10
296.155603
 20
56.118028
 30
0.0
 10
274.905586
 20
56.118028
 30
0.0
 10
274.905586
 20
73.118022
 30
0.0
 10
271.905583
 20
73.118022
 30
0.0
 10
271.905583
 20
93.118066
 30
0.0
 10
274.905586
 20
93.118066
 30
0.0
 10
274.905586
 20
108.118065
 30
0.0
 10
271.905583
 20
108.118065
 30
0.0
 10
271.905583
 20
123.118077
 30
0.0
 10
274.905586
 20
123.118077
 30
0.0
 10
274.905586
 20
138.118089
 30
0.0
 10
271.905583
 20
138.118089
 30
0.0
 10
271.905583
 20
153.118102
 30
0.0
 10
274.905586
 20
153.118102
 30
0.0
 10
274.905586
 20
168.118114
 30
0.0
 10
271.905583
 20
168.118114
 30
0.0
 10
271.905583
 20
183.118126
 30
0.0
 10
274.905586
 20
183.118126
 30
0.0
 10
274.905586
 20
198.118139
 30
0.0
 10
271.905583
 20
198.118139
 30
0.0
 10
271.905583
 20
213.118151
 30
0.0
 10
274.905586
 20
213.118151
 30
0.0
 10
274.905586
 20
228.118163
 30
0.0
 10
271.905583
 20
228.118163
 30
0.0
 10
271.905583
 20
243.118176
 30
0.0
 10
274.905586
 20
243.118176
 30
0.0
 10
274.905586
 20
258.118188
 30
0.0
 10
271.905583
 20
258.118188
 30
0.0
 10
271.905583
 20
273.118200
 30
0.0
 10
274.905586
 20
273.118200
 30
0.0
 10
274.905586
 20
288.118213
 30
0.0
 10
271.905583
 20
288.118213
 30
0.0
 10
271.905583
 20
303.118225
 30
0.0
 10
274.905586
 20
303.118225
 30
0.0
 10
274.905586
 20
318.118237
 30
0.0
 10
271.905583
 20
318.118237
 30
0.0
 10
271.905583
 20
333.118250
 30
0.0
 10
274.905586
 20
333.118250
 30
0.0
 10
274.905586
 20
348.118262
 30
0.0
 10
271.905583
 20
348.118262
 30
0.0
 10
271.905583
 20
368.118278
 30
0.0
 10
274.905586
 20
368.118278
 30
0.0
 10
274.905586
 20
385.118292
 30
0.0
 10
296.155603
 20
385.118292
 30
0.0
 10
296.155603
 20
388.118295
 30
0.0
 10
320.405625
 20
388.118295
 30
0.0
 10
320.405625
 20
385.118292
 30
0.0
 10
335.405637
 20
385.118292
 30
0.0
 10
335.405637
 20
388.118295
 30
0.0
 10
350.405646
 20
388.118295
 30
0.0
 10
350.405646
 20
385.118292
 30
0.0
  0
LWPOLYLINE
  5
102
100
AcDbEntity
  8
Layer_1
 62
7
100
AcDbPolyline
 90
2
 70
1
 10
298.905605
 20
368.118278
 30
0.0
 10
566.905840
 20
368.118278
 30
0.0
  0
SPLINE
  5
103
100
AcDbEntity
  8
Layer_1
 62
7
100
AcDbSpline
 70
0
 71
3
 72
10
 73
6
 74
4
 40
0.000000
 40
0.000000
 40
0.000000
 40
0.000000
 40
1.046993
 40
2.060615
 40
3.107607
 40
3.107607
 40
3.107607
 40
3.107607
 10
566.905840
 20
368.118278
 30
0.0
 10
567.256845
 20
368.063700
 30
0.0
 10
567.947669
 20
367.956283
 30
0.0
 10
568.743843
 20
367.160104
 30
0.0
 10
568.851258
 20
366.469281
 30
0.0
 10
568.905836
 20
366.118276
 30
0.0
 11
566.905840
 21
368.118278
 31
0.0
 11
567.916804
 21
367.845981
 31
0.0
 11
568.633542
 21
367.129240
 31
0.0
 11
568.905836
 21
366.118276
 31
0.0
  0
LWPOLYLINE
  5
104
100
AcDbEntity
  8
Layer_1
 62
7
100
AcDbPolyline
 90
2
 70
1
 10
568.905836
 20
366.118276
 30
0.0
 10
568.905836
 20
95.118034
 30
0.0
  0
SPLINE
  5
105
100
AcDbEntity
  8
Layer_1
 62
7
100
AcDbSpline
 70
0
 71
3
 72
10
 73
6
 74
4
 40
0.000000
 40
0.000000
 40
0.000000
 40
0.000000
 40
1.046980
 40
2.060605
 40
3.107598
 40
3.107598
 40
3.107598
 40
3.107598
 10
568.905836
 20
95.118034
 30
0.0
 10
568.851257
 20
94.767034
 30
0.0
 10
568.743839
 20
94.076215
 30
0.0
 10
567.947669
 20
93.280037
 30
0.0
 10
567.256845
 20
93.172618
 30
0.0
 10
566.905840
 20
93.118038
 30
0.0
 11
568.905836
 21
95.118034
 31
0.0
 11
568.633542
 21
94.107083
 31
0.0
 11
567.916804
 21
93.390339
 31
0.0
 11
566.905840
 21
93.118038
 31
0.0
  0
LWPOLYLINE
  5
106
100
AcDbEntity
  8
Layer_1
 62
7
100
AcDbPolyline
 90
2
 70
1
 10
566.905840
 20
93.118038
 30
0.0
 10
298.905605
 20
93.118038
 30
0.0
  0
SPLINE
  5
107
100
AcDbEntity
  8
Layer_1
 62
7
100
AcDbSpline
 70
0
 71
3
 72
10
 73
6
 74
4
 40
0.000000
 40
0.000000
 40
0.000000
 40
0.000000
 40
1.046993
 40
2.060621
 40
3.107601
 40
3.107601
 40
3.107601
 40
3.107601
 10
298.905605
 20
93.118038
 30
0.0
 10
298.554600
 20
93.172618
 30
0.0
 10
297.863775
 20
93.280038
 30
0.0
 10
297.067602
 20
94.076214
 30
0.0
 10
296.960183
 20
94.767034
 30
0.0
 10
296.905603
 20
95.118034
 30
0.0
 11
298.905605
 21
93.118038
 31
0.0
 11
297.894641
 21
93.390339
 31
0.0
 11
297.177900
 21
94.107083
 31
0.0
 11
296.905603
 21
95.118034
 31
0.0
  0
LWPOLYLINE
  5
108
100
AcDbEntity
  8
Layer_1
 62
7
100
AcDbPolyline
 90
2
 70
1
 10
296.905603
 20
95.118034
 30
0.0
 10
296.905603
 20
366.118276
 30
0.0
  0
LWPOLYLINE
  5
109
100
AcDbEntity
  8
Layer_1
 62
7
100
AcDbPolyline
 90
2
 70
1
 10
298.905605
 20
368.118278
 30
0.0
 10
298.905605
 20
368.118278
 30
0.0
  0
SPLINE
  5
10a
100
AcDbEntity
  8
Layer_1
 62
7
100
AcDbSpline
 70
0
 71
3
 72
10
 73
6
 74
4
 40
0.000000
 40
0.000000
 40
0.000000
 40
0.000000
 40
1.046992
 40
2.060618
 40
3.107610
 40
3.107610
 40
3.107610
 40
3.107610
 10
296.905603
 20
366.118276
 30
0.0
 10
296.960182
 20
366.469281
 30
0.0
 10
297.067599
 20
367.160105
 30
0.0
 10
297.863776
 20
367.956282
 30
0.0
 10
298.554600
 20
368.063699
 30
0.0
 10
298.905605
 20
368.118278
 30
0.0
 11
296.905603
 21
366.118276
 31
0.0
 11
297.177900
 21
367.129240
 31
0.0
 11
297.894641
 21
367.845981
 31
0.0
 11
298.905605
 21
368.118278
 31
0.0
  0
LWPOLYLINE
  5
10b
100
AcDbEntity
  8
Layer_1
 62
7
100
AcDbPolyline
 90
2
 70
1
 10
288.905597
 20
93.118038
 30
0.0
 10
339.905639
 20
93.118038
 30
0.0
  0
SPLINE
  5
10c
100
AcDbEntity
  8
Layer_1
 62
7
100
AcDbSpline
 70
0
 71
3
 72
10
 73
6
 74
4
 40
0.000000
 40
0.000000
 40
0.000000
 40
0.000000
 40
1.046992
 40
2.060615
 40
3.107607
 40
3.107607
 40
3.107607
 40
3.107607
 10
339.905639
 20
93.118038
 30
0.0
 10
340.256644
 20
93.063461
 30
0.0
 10
340.947467
 20
92.956045
 30
0.0
 10
341.743646
 20
92.159871
 30
0.0
 10
341.851063
 20
91.469048
 30
0.0
 10
341.905641
 20
91.118042
 30
0.0
 11
339.905639
 21
93.118038
 31
0.0
 11
340.916603
 21
92.845744
 31
0.0
 11
341.633344
 21
92.129006
 31
0.0
 11
341.905641
 21
91.118042
 31
0.0
  0
LWPOLYLINE
  5
10d
100
AcDbEntity
  8
Layer_1
 62
7
100
AcDbPolyline
 90
2
 70
1
 10
341.905641
 20
91.118042
 30
0.0
 10
341.905641
 20
56.117999
 30
0.0
  0
SPLINE
  5
10e
100
AcDbEntity
  8
Layer_1
 62
7
100
AcDbSpline
 70
0
 71
3
 72
10
 73
6
 74
4
 40
0.000000
 40
0.000000
 40
0.000000
 40
0.000000
 40
1.046980
 40
2.060608
 40
3.107601
 40
3.107601
 40
3.107601
 40
3.107601
 10
341.905641
 20
56.117999
 30
0.0
 10
341.851062
 20
55.766999
 30
0.0
 10
341.743642
 20
55.076179
 30
0.0
 10
340.947469
 20
54.280003
 30
0.0
 10
340.256645
 20
54.172583
 30
0.0
 10
339.905639
 20
54.118003
 30
0.0
 11
341.905641
 21
56.117999
 31
0.0
 11
341.633344
 21
55.107048
 31
0.0
 11
340.916603
 21
54.390304
 31
0.0
 11
339.905639
 21
54.118003
 31
0.0
  0
LWPOLYLINE
  5
10f
100
AcDbEntity
  8
Layer_1
 62
7
100
AcDbPolyline
 90
2
 70
1
 10
339.905639
 20
54.118003
 30
0.0
 10
288.905597
 20
54.118003
 30
0.0
  0
SPLINE
  5
110
100
AcDbEntity
  8
Layer_1
 62
7
100
AcDbSpline
 70
0
 71
3
 72
10
 73
6
 74
4
 40
0.000000
 40
0.000000
 40
0.000000
 40
0.000000
 40
1.046993
 40
2.060621
 40
3.107601
 40
3.107601
 40
3.107601
 40
3.107601
 10
288.905597
 20
54.118003
 30
0.0
 10
288.554592
 20
54.172583
 30
0.0
 10
287.863768
 20
54.280003
 30
0.0
 10
287.067595
 20
55.076179
 30
0.0
 10
286.960175
 20
55.766999
 30
0.0
 10
286.905596
 20
56.117999
 30
0.0
 11
288.905597
 21
54.118003
 31
0.0
 11
287.894634
 21
54.390304
 31
0.0
 11
287.177892
 21
55.107048
 31
0.0
 11
286.905596
 21
56.117999
 31
0.0
  0
LWPOLYLINE
  5
111
100
AcDbEntity
  8
Layer_1
 62
7
100
AcDbPolyline
 90
2
 70
1
 10
286.905596
 20
56.117999
 30
0.0
 10
286.905596
 20
91.118042
 30
0.0
  0
SPLINE
  5
112
100
AcDbEntity
  8
Layer_1
 62
7
100
AcDbSpline
 70
0
 71
3
 72
10
 73
6
 74
4
 40
0.000000
 40
0.000000
 40
0.000000
 40
0.000000
 40
1.046993
 40
2.060615
 40
3.107607
 40
3.107607
 40
3.107607
 40
3.107607
 10
286.905596
 20
91.118042
 30
0.0
 10
286.960174
 20
91.469048
 30
0.0
 10
287.067590
 20
92.159871
 30
0.0
 10
287.863769
 20
92.956045
 30
0.0
 10
288.554592
 20
93.063461
 30
0.0
 10
288.905597
 20
93.118038
 30
0.0
 11
286.905596
 21
91.118042
 31
0.0
 11
287.177892
 21
92.129006
 31
0.0
 11
287.894634
 21
92.845744
 31
0.0
 11
288.905597
 21
93.118038
 31
0.0
  0
LWPOLYLINE
  5
113
100
AcDbEntity
  8
Layer_1
 62
7
100
AcDbPolyline
 90
2
 70
1
 10
288.905597
 20
93.118038
 30
0.0
 10
288.905597
 20
93.118038
 30
0.0
  0
ENDSEC
  0
SECTION
  2
OBJECTS
  0
DICTIONARY
  5
C
330
0
100
AcDbDictionary
  3
ACAD_GROUP
350
D
  3
ACAD_MLINESTYLE
350
17
  0
DICTIONARY
  5
D
330
C
100
AcDbDictionary
  0
DICTIONARY
  5
1A
330
C
100
AcDbDictionary
  0
DICTIONARY
  5
17
330
C
100
AcDbDictionary
  3
STANDARD
350
18
  0
DICTIONARY
  5
19
330
C
100
AcDbDictionary
  0
ENDSEC
  0
EOF
