  0
SECTION
  2
HEADER
  9
$ACADVER
  1
AC1014
  9
$HANDSEED
  5
FFFF
  9
$MEASUREMENT
 70
     1
  0
ENDSEC
  0
SECTION
  2
TABLES
  0
TABLE
  2
VPORT
  5
8
330
0
100
AcDbSymbolTable
 70
     4
  0
VPORT
  5
2E
330
8
100
AcDbSymbolTableRecord
100
AcDbViewportTableRecord
  2
*ACTIVE
 70
     0
 10
0.0
 20
0.0
 11
1.0
 21
1.0
 12
210.0
 22
148.5
 13
0.0
 23
0.0
 14
10.0
 24
10.0
 15
10.0
 25
10.0
 16
0.0
 26
0.0
 36
1.0
 17
0.0
 27
0.0
 37
0.0
 40
341.0
 41
1.24
 42
50.0
 43
0.0
 44
0.0
 50
0.0
 51
0.0
 71
     0
 72
   100
 73
     1
 74
     3
 75
     0
 76
     0
 77
     0
 78
     0
  0
ENDTAB
  0
TABLE
  2
LTYPE
  5
5
330
0
100
AcDbSymbolTable
 70
     1
  0
LTYPE
  5
14
330
5
100
AcDbSymbolTableRecord
100
AcDbLinetypeTableRecord
  2
BYBLOCK
 70
     0
  3

 72
    65
 73
     0
 40
0.0
  0
LTYPE
  5
15
330
5
100
AcDbSymbolTableRecord
100
AcDbLinetypeTableRecord
  2
BYLAYER
 70
     0
  3

 72
    65
 73
     0
 40
0.0
  0
LTYPE
  5
16
330
5
100
AcDbSymbolTableRecord
100
AcDbLinetypeTableRecord
  2
CONTINUOUS
 70
     0
  3
Solid line
 72
    65
 73
     0
 40
0.0
  0
ENDTAB
  0
TABLE
  2
LAYER
  5
2
100
AcDbSymbolTable
 70
2
  0
LAYER
  5
50
100
AcDbSymbolTableRecord
100
AcDbLayerTableRecord
  2
0
 70
0
  6
CONTINUOUS
  0
LAYER
  5
51
100
AcDbSymbolTableRecord
100
AcDbLayerTableRecord
  2
Layer_1
 70
0
  6
CONTINUOUS
  0
ENDTAB
  0
TABLE
  2
STYLE
  5
3
330
0
100
AcDbSymbolTable
 70
     1
  0
STYLE
  5
11
330
3
100
AcDbSymbolTableRecord
100
AcDbTextStyleTableRecord
  2
STANDARD
 70
     0
 40
0.0
 41
1.0
 50
0.0
 71
     0
 42
2.5
  3
txt
  4

  0
ENDTAB
  0
TABLE
  2
VIEW
  5
6
330
0
100
AcDbSymbolTable
 70
     0
  0
ENDTAB
  0
TABLE
  2
UCS
  5
7
330
0
100
AcDbSymbolTable
 70
     0
  0
ENDTAB
  0
TABLE
  2
APPID
  5
9
330
0
100
AcDbSymbolTable
 70
     2
  0
APPID
  5
12
330
9
100
AcDbSymbolTableRecord
100
AcDbRegAppTableRecord
  2
ACAD
 70
     0
  0
ENDTAB
  0
TABLE
  2
DIMSTYLE
  5
A
330
0
100
AcDbSymbolTable
 70
     1
  0
DIMSTYLE
105
27
330
A
100
AcDbSymbolTableRecord
100
AcDbDimStyleTableRecord
  2
ISO-25
 70
     0
  3

  4

  5

  6

  7

 40
1.0
 41
2.5
 42
0.625
 43
3.75
 44
1.25
 45
0.0
 46
0.0
 47
0.0
 48
0.0
140
2.5
141
2.5
142
0.0
143
0.03937007874016
144
1.0
145
0.0
146
1.0
147
0.625
 71
     0
 72
     0
 73
     0
 74
     0
 75
     0
 76
     0
 77
     1
 78
     8
170
     0
171
     3
172
     1
173
     0
174
     0
175
     0
176
     0
177
     0
178
     0
270
     2
271
     2
272
     2
273
     2
274
     3
340
11
275
     0
280
     0
281
     0
282
     0
283
     0
284
     8
285
     0
286
     0
287
     3
288
     0
  0
ENDTAB
  0
TABLE
  2
BLOCK_RECORD
  5
1
330
0
100
AcDbSymbolTable
 70
     1
  0
BLOCK_RECORD
  5
1F
330
1
100
AcDbSymbolTableRecord
100
AcDbBlockTableRecord
  2
*MODEL_SPACE
  0
BLOCK_RECORD
  5
1B
330
1
100
AcDbSymbolTableRecord
100
AcDbBlockTableRecord
  2
*PAPER_SPACE
  0
ENDTAB
  0
ENDSEC
  0
SECTION
  2
BLOCKS
  0
BLOCK
  5
20
330
1F
100
AcDbEntity
  8
0
100
AcDbBlockBegin
  2
*MODEL_SPACE
 70
     0
 10
0.0
 20
0.0
 30
0.0
  3
*MODEL_SPACE
  1

  0
ENDBLK
  5
21
330
1F
100
AcDbEntity
  8
0
100
AcDbBlockEnd
  0
BLOCK
  5
1C
330
1B
100
AcDbEntity
 67
     1
  8
0
100
AcDbBlockBegin
  2
*PAPER_SPACE
  1

  0
ENDBLK
  5
1D
330
1B
100
AcDbEntity
 67
     1
  8
0
100
AcDbBlockEnd
  0
ENDSEC
  0
SECTION
  2
ENTITIES
  0
LWPOLYLINE
  5
100
100
AcDbEntity
  8
Layer_1
 62
7
100
AcDbPolyline
 90
157
 70
1
 10
335.945325
 20
391.343691
 30
0.0
 10
350.945334
 20
391.343691
 30
0.0
 10
350.945334
 20
388.343689
 30
0.0
 10
365.945349
 20
388.343689
 30
0.0
 10
365.945349
 20
391.343691
 30
0.0
 10
380.945362
 20
391.343691
 30
0.0
 10
380.945362
 20
388.343689
 30
0.0
 10
395.945374
 20
388.343689
 30
0.0
 10
395.945374
 20
391.343691
 30
0.0
 10
410.945384
 20
391.343691
 30
0.0
 10
410.945384
 20
388.343689
 30
0.0
 10
425.945399
 20
388.343689
 30
0.0
 10
425.945399
 20
391.343691
 30
0.0
 10
440.945408
 20
391.343691
 30
0.0
 10
440.945408
 20
388.343689
 30
0.0
 10
455.945423
 20
388.343689
 30
0.0
 10
455.945423
 20
391.343691
 30
0.0
 10
470.945436
 20
391.343691
 30
0.0
 10
470.945436
 20
388.343689
 30
0.0
 10
485.945448
 20
388.343689
 30
0.0
 10
485.945448
 20
391.343691
 30
0.0
 10
500.945460
 20
391.343691
 30
0.0
 10
500.945460
 20
388.343689
 30
0.0
 10
515.945473
 20
388.343689
 30
0.0
 10
515.945473
 20
391.343691
 30
0.0
 10
530.945485
 20
391.343691
 30
0.0
 10
530.945485
 20
388.343689
 30
0.0
 10
545.945497
 20
388.343689
 30
0.0
 10
545.945497
 20
391.343691
 30
0.0
 10
570.195529
 20
391.343691
 30
0.0
 10
570.195529
 20
388.343689
 30
0.0
 10
591.445536
 20
388.343689
 30
0.0
 10
591.445536
 20
371.343675
 30
0.0
 10
594.445530
 20
371.343675
 30
0.0
 10
594.445530
 20
351.343658
 30
0.0
 10
591.445536
 20
351.343658
 30
0.0
 10
591.445536
 20
336.343646
 30
0.0
 10
594.445530
 20
336.343646
 30
0.0
 10
594.445530
 20
321.343634
 30
0.0
 10
591.445536
 20
321.343634
 30
0.0
 10
591.445536
 20
306.343621
 30
0.0
 10
594.445530
 20
306.343621
 30
0.0
 10
594.445530
 20
291.343609
 30
0.0
 10
591.445536
 20
291.343609
 30
0.0
 10
591.445536
 20
276.343597
 30
0.0
 10
594.445530
 20
276.343597
 30
0.0
 10
594.445530
 20
261.343584
 30
0.0
 10
591.445536
 20
261.343584
 30
0.0
 10
591.445536
 20
246.343572
 30
0.0
 10
594.445530
 20
246.343572
 30
0.0
 10
594.445530
 20
231.343560
 30
0.0
 10
591.445536
 20
231.343560
 30
0.0
 10
591.445536
 20
216.343547
 30
0.0
 10
594.445530
 20
216.343547
 30
0.0
 10
594.445530
 20
201.343535
 30
0.0
 10
591.445536
 20
201.343535
 30
0.0
 10
591.445536
 20
186.343523
 30
0.0
 10
594.445530
 20
186.343523
 30
0.0
 10
594.445530
 20
171.343510
 30
0.0
 10
591.445536
 20
171.343510
 30
0.0
 10
591.445536
 20
156.343498
 30
0.0
 10
594.445530
 20
156.343498
 30
0.0
 10
594.445530
 20
141.343486
 30
0.0
 10
591.445536
 20
141.343486
 30
0.0
 10
591.445536
 20
126.343473
 30
0.0
 10
594.445530
 20
126.343473
 30
0.0
 10
594.445530
 20
111.343461
 30
0.0
 10
591.445536
 20
111.343461
 30
0.0
 10
591.445536
 20
96.343463
 30
0.0
 10
594.445530
 20
96.343463
 30
0.0
 10
594.445530
 20
76.343418
 30
0.0
 10
591.445536
 20
76.343418
 30
0.0
 10
591.445536
 20
59.343424
 30
0.0
 10
570.195529
 20
59.343424
 30
0.0
 10
570.195529
 20
56.343430
 30
0.0
 10
545.945497
 20
56.343430
 30
0.0
 10
545.945497
 20
59.343424
 30
0.0
 10
530.945485
 20
59.343424
 30
0.0
 10
530.945485
 20
56.343430
 30
0.0
 10
515.945473
 20
56.343430
 30
0.0
 10
515.945473
 20
59.343424
 30
0.0
 10
500.945460
 20
59.343424
 30
0.0
 10
500.945460
 20
56.343430
 30
0.0
 10
485.945448
 20
56.343430
 30
0.0
 10
485.945448
 20
59.343424
 30
0.0
 10
470.945436
 20
59.343424
 30
0.0
 10
470.945436
 20
56.343430
 30
0.0
 10
455.945423
 20
56.343430
 30
0.0
 10
455.945423
 20
59.343424
 30
0.0
 10
440.945408
 20
59.343424
 30
0.0
 10
440.945408
 20
56.343430
 30
0.0
 10
425.945399
 20
56.343430
 30
0.0
 10
425.945399
 20
59.343424
 30
0.0
 10
410.945384
 20
59.343424
 30
0.0
 10
410.945384
 20
56.343430
 30
0.0
 10
395.945374
 20
56.343430
 30
0.0
 10
395.945374
 20
59.343424
 30
0.0
 10
380.945362
 20
59.343424
 30
0.0
 10
380.945362
 20
56.343430
 30
0.0
 10
365.945349
 20
56.343430
 30
0.0
 10
365.945349
 20
59.343424
 30
0.0
 10
350.945334
 20
59.343424
 30
0.0
 10
350.945334
 20
56.343430
 30
0.0
 10
335.945325
 20
56.343430
 30
0.0
 10
335.945325
 20
59.343424
 30
0.0
 10
320.945312
 20
59.343424
 30
0.0
 10
320.945312
 20
56.343430
 30
0.0
 10
296.695291
 20
56.343430
 30
0.0
 10
296.695291
 20
59.343424
 30
0.0
 10
275.445274
 20
59.343424
 30
0.0
 10
275.445274
 20
76.343418
 30
0.0
 10
272.445271
 20
76.343418
 30
0.0
 10
272.445271
 20
96.343463
 30
0.0
 10
275.445274
 20
96.343463
 30
0.0
 10
275.445274
 20
111.343461
 30
0.0
 10
272.445271
 20
111.343461
 30
0.0
 10
272.445271
 20
126.343473
 30
0.0
 10
275.445274
 20
126.343473
 30
0.0
 10
275.445274
 20
141.343486
 30
0.0
 10
272.445271
 20
141.343486
 30
0.0
 10
272.445271
 20
156.343498
 30
0.0
 10
275.445274
 20
156.343498
 30
0.0
 10
275.445274
 20
171.343510
 30
0.0
 10
272.445271
 20
171.343510
 30
0.0
 10
272.445271
 20
186.343523
 30
0.0
 10
275.445274
 20
186.343523
 30
0.0
 10
275.445274
 20
201.343535
 30
0.0
 10
272.445271
 20
201.343535
 30
0.0
 10
272.445271
 20
216.343547
 30
0.0
 10
275.445274
 20
216.343547
 30
0.0
 10
275.445274
 20
231.343560
 30
0.0
 10
272.445271
 20
231.343560
 30
0.0
 10
272.445271
 20
246.343572
 30
0.0
 10
275.445274
 20
246.343572
 30
0.0
 10
275.445274
 20
261.343584
 30
0.0
 10
272.445271
 20
261.343584
 30
0.0
 10
272.445271
 20
276.343597
 30
0.0
 10
275.445274
 20
276.343597
 30
0.0
 10
275.445274
 20
291.343609
 30
0.0
 10
272.445271
 20
291.343609
 30
0.0
 10
272.445271
 20
306.343621
 30
0.0
 10
275.445274
 20
306.343621
 30
0.0
 10
275.445274
 20
321.343634
 30
0.0
 10
272.445271
 20
321.343634
 30
0.0
 10
272.445271
 20
336.343646
 30
0.0
 10
275.445274
 20
336.343646
 30
0.0
 10
275.445274
 20
351.343658
 30
0.0
 10
272.445271
 20
351.343658
 30
0.0
 10
272.445271
 20
371.343675
 30
0.0
 10
275.445274
 20
371.343675
 30
0.0
 10
275.445274
 20
388.343689
 30
0.0
 10
296.695291
 20
388.343689
 30
0.0
 10
296.695291
 20
391.343691
 30
0.0
 10
320.945312
 20
391.343691
 30
0.0
 10
320.945312
 20
388.343689
 30
0.0
 10
335.945325
 20
388.343689
 30
0.0
 10
335.945325
 20
391.343691
 30
0.0
  0
SPLINE
  5
101
100
AcDbEntity
  8
Layer_1
 62
7
100
AcDbSpline
 70
0
 71
3
 72
22
 73
18
 74
16
 40
0.000000
 40
0.000000
 40
0.000000
 40
0.000000
 40
3.790731
 40
7.469031
 40
11.259762
 40
13.157632
 40
15.039796
 40
16.937666
 40
18.835535
 40
20.717700
 40
22.615569
 40
26.406301
 40
30.084600
 40
33.875331
 40
37.666062
 40
41.344360
 40
45.135091
 40
45.135091
 40
45.135091
 40
45.135091
 10
441.695414
 20
223.843563
 30
0.0
 10
441.495920
 20
222.565594
 30
0.0
 10
441.102848
 20
220.047558
 30
0.0
 10
438.219845
 20
217.273958
 30
0.0
 10
435.076856
 20
216.423487
 30
0.0
 10
432.547601
 20
216.760900
 30
0.0
 10
430.778894
 20
217.492710
 30
0.0
 10
429.259712
 20
218.657907
 30
0.0
 10
428.094564
 20
220.176889
 30
0.0
 10
427.362754
 20
221.946344
 30
0.0
 10
427.025275
 20
224.471850
 30
0.0
 10
427.876281
 20
227.643075
 30
0.0
 10
430.647699
 20
230.411275
 30
0.0
 10
434.451987
 20
231.439639
 30
0.0
 10
438.217200
 20
230.412100
 30
0.0
 10
441.103523
 20
227.639840
 30
0.0
 10
441.496147
 20
225.121625
 30
0.0
 10
441.695414
 20
223.843563
 30
0.0
 11
441.695414
 21
223.843563
 31
0.0
 11
440.705576
 21
220.184347
 31
0.0
 11
438.104626
 21
217.583396
 31
0.0
 11
434.445410
 21
216.593557
 31
0.0
 11
432.563865
 21
216.841946
 31
0.0
 11
430.824972
 21
217.562219
 31
0.0
 11
429.318881
 21
218.717034
 31
0.0
 11
428.164065
 21
220.223125
 31
0.0
 11
427.443792
 21
221.962018
 31
0.0
 11
427.195403
 21
223.843563
 31
0.0
 11
428.185242
 21
227.502780
 31
0.0
 11
430.786193
 21
230.103730
 31
0.0
 11
434.445410
 21
231.093567
 31
0.0
 11
438.104625
 21
230.103729
 31
0.0
 11
440.705575
 21
227.502779
 31
0.0
 11
441.695414
 21
223.843563
 31
0.0
  0
LWPOLYLINE
  5
102
100
AcDbEntity
  8
Layer_1
 62
7
100
AcDbPolyline
 90
2
 70
1
 10
441.695414
 20
223.843563
 30
0.0
 10
441.695414
 20
223.843563
 30
0.0
  0
SPLINE
  5
103
100
AcDbEntity
  8
Layer_1
 62
7
100
AcDbSpline
 70
0
 71
3
 72
28
 73
24
 74
22
 40
0.000000
 40
0.000000
 40
0.000000
 40
0.000000
 40
0.458107
 40
0.912422
 40
1.370529
 40
1.828636
 40
2.282951
 40
2.741058
 40
3.199165
 40
3.653481
 40
4.111588
 40
4.569695
 40
5.024012
 40
5.482119
 40
5.940225
 40
6.394541
 40
6.852648
 40
7.310754
 40
7.765070
 40
8.223177
 40
9.138180
 40
10.026045
 40
10.941049
 40
10.941049
 40
10.941049
 40
10.941049
 10
421.195396
 20
223.843563
 30
0.0
 10
421.183730
 20
223.690424
 30
0.0
 10
421.160495
 20
223.385411
 30
0.0
 10
420.976876
 20
222.958560
 30
0.0
 10
420.697518
 20
222.591829
 30
0.0
 10
420.330295
 20
222.310635
 30
0.0
 10
419.903575
 20
222.133827
 30
0.0
 10
419.445387
 20
222.073343
 30
0.0
 10
418.987244
 20
222.133826
 30
0.0
 10
418.560390
 20
222.310634
 30
0.0
 10
418.193659
 20
222.591828
 30
0.0
 10
417.912465
 20
222.958559
 30
0.0
 10
417.735658
 20
223.385411
 30
0.0
 10
417.675174
 20
223.843563
 30
0.0
 10
417.735659
 20
224.301715
 30
0.0
 10
417.912465
 20
224.728569
 30
0.0
 10
418.193664
 20
225.095288
 30
0.0
 10
418.560376
 20
225.376524
 30
0.0
 10
418.987302
 20
225.553173
 30
0.0
 10
419.597813
 20
225.634615
 30
0.0
 10
420.356465
 20
225.429330
 30
0.0
 10
421.052362
 20
224.759840
 30
0.0
 10
421.147242
 20
224.152039
 30
0.0
 10
421.195396
 20
223.843563
 30
0.0
 11
421.195396
 21
223.843563
 31
0.0
 11
421.135440
 21
223.389397
 31
0.0
 11
420.961581
 21
222.969664
 31
0.0
 11
420.682833
 21
222.606124
 31
0.0
 11
420.319294
 21
222.327375
 31
0.0
 11
419.899561
 21
222.153516
 31
0.0
 11
419.445395
 21
222.093560
 31
0.0
 11
418.991228
 21
222.153515
 31
0.0
 11
418.571495
 21
222.327374
 31
0.0
 11
418.207955
 21
222.606123
 31
0.0
 11
417.929206
 21
222.969663
 31
0.0
 11
417.755347
 21
223.389397
 31
0.0
 11
417.695391
 21
223.843563
 31
0.0
 11
417.755347
 21
224.297730
 31
0.0
 11
417.929207
 21
224.717463
 31
0.0
 11
418.207956
 21
225.081002
 31
0.0
 11
418.571495
 21
225.359750
 31
0.0
 11
418.991229
 21
225.533609
 31
0.0
 11
419.445395
 21
225.593564
 31
0.0
 11
420.328654
 21
225.354638
 31
0.0
 11
420.956469
 21
224.726822
 31
0.0
 11
421.195396
 21
223.843563
 31
0.0
  0
LWPOLYLINE
  5
104
100
AcDbEntity
  8
Layer_1
 62
7
100
AcDbPolyline
 90
2
 70
1
 10
421.195396
 20
223.843563
 30
0.0
 10
421.195396
 20
223.843563
 30
0.0
  0
LWPOLYLINE
  5
105
100
AcDbEntity
  8
Layer_1
 62
7
100
AcDbPolyline
 90
2
 70
1
 10
451.195426
 20
223.843563
 30
0.0
 10
451.195426
 20
223.843563
 30
0.0
  0
SPLINE
  5
106
100
AcDbEntity
  8
Layer_1
 62
7
100
AcDbSpline
 70
0
 71
3
 72
28
 73
24
 74
22
 40
0.000000
 40
0.000000
 40
0.000000
 40
0.000000
 40
0.458107
 40
0.912423
 40
1.370530
 40
1.828637
 40
2.282954
 40
2.741061
 40
3.199167
 40
3.653483
 40
4.111590
 40
4.569696
 40
5.024012
 40
5.482119
 40
6.397122
 40
7.284988
 40
8.199991
 40
8.658098
 40
9.112414
 40
9.570520
 40
10.028627
 40
10.482943
 40
10.941049
 40
10.941049
 40
10.941049
 40
10.941049
 10
451.195426
 20
223.843563
 30
0.0
 10
451.183760
 20
223.690424
 30
0.0
 10
451.160525
 20
223.385411
 30
0.0
 10
450.976906
 20
222.958559
 30
0.0
 10
450.697547
 20
222.591828
 30
0.0
 10
450.330323
 20
222.310634
 30
0.0
 10
449.903603
 20
222.133827
 30
0.0
 10
449.445415
 20
222.073342
 30
0.0
 10
448.987273
 20
222.133828
 30
0.0
 10
448.560416
 20
222.310631
 30
0.0
 10
448.193698
 20
222.591843
 30
0.0
 10
447.912460
 20
222.958506
 30
0.0
 10
447.735818
 20
223.385611
 30
0.0
 10
447.654344
 20
223.995227
 30
0.0
 10
447.859872
 20
224.760620
 30
0.0
 10
448.528371
 20
225.429112
 30
0.0
 10
449.293743
 20
225.634642
 30
0.0
 10
449.903401
 20
225.553168
 30
0.0
 10
450.330376
 20
225.376526
 30
0.0
 10
450.697531
 20
225.095288
 30
0.0
 10
450.976909
 20
224.728569
 30
0.0
 10
451.160523
 20
224.301715
 30
0.0
 10
451.183760
 20
223.996703
 30
0.0
 10
451.195426
 20
223.843563
 30
0.0
 11
451.195426
 21
223.843563
 31
0.0
 11
451.135470
 21
223.389397
 31
0.0
 11
450.961611
 21
222.969663
 31
0.0
 11
450.682862
 21
222.606123
 31
0.0
 11
450.319323
 21
222.327374
 31
0.0
 11
449.899589
 21
222.153515
 31
0.0
 11
449.445422
 21
222.093560
 31
0.0
 11
448.991256
 21
222.153516
 31
0.0
 11
448.571523
 21
222.327375
 31
0.0
 11
448.207984
 21
222.606124
 31
0.0
 11
447.929236
 21
222.969664
 31
0.0
 11
447.755377
 21
223.389397
 31
0.0
 11
447.695422
 21
223.843563
 31
0.0
 11
447.934348
 21
224.726822
 31
0.0
 11
448.562164
 21
225.354638
 31
0.0
 11
449.445422
 21
225.593564
 31
0.0
 11
449.899589
 21
225.533609
 31
0.0
 11
450.319322
 21
225.359750
 31
0.0
 11
450.682861
 21
225.081002
 31
0.0
 11
450.961610
 21
224.717463
 31
0.0
 11
451.135470
 21
224.297730
 31
0.0
 11
451.195426
 21
223.843563
 31
0.0
  0
LWPOLYLINE
  5
107
100
AcDbEntity
  8
Layer_1
 62
7
100
AcDbPolyline
 90
133
 70
1
 10
262.031158
 20
320.786520
 30
0.0
 10
265.031161
 20
320.786520
 30
0.0
 10
265.031161
 20
305.786509
 30
0.0
 10
262.031158
 20
305.786509
 30
0.0
 10
262.031158
 20
290.786497
 30
0.0
 10
265.031161
 20
290.786497
 30
0.0
 10
265.031161
 20
275.786486
 30
0.0
 10
262.031158
 20
275.786486
 30
0.0
 10
262.031158
 20
260.786474
 30
0.0
 10
265.031161
 20
260.786474
 30
0.0
 10
265.031161
 20
245.786463
 30
0.0
 10
262.031158
 20
245.786463
 30
0.0
 10
262.031158
 20
230.786451
 30
0.0
 10
265.031161
 20
230.786451
 30
0.0
 10
265.031161
 20
215.786440
 30
0.0
 10
262.031158
 20
215.786440
 30
0.0
 10
262.031158
 20
200.786429
 30
0.0
 10
265.031161
 20
200.786429
 30
0.0
 10
265.031161
 20
185.786417
 30
0.0
 10
262.031158
 20
185.786417
 30
0.0
 10
262.031158
 20
170.786406
 30
0.0
 10
265.031161
 20
170.786406
 30
0.0
 10
265.031161
 20
155.786394
 30
0.0
 10
262.031158
 20
155.786394
 30
0.0
 10
262.031158
 20
140.786383
 30
0.0
 10
265.031161
 20
140.786383
 30
0.0
 10
265.031161
 20
125.786371
 30
0.0
 10
262.031158
 20
125.786371
 30
0.0
 10
262.031158
 20
110.786360
 30
0.0
 10
265.031161
 20
110.786360
 30
0.0
 10
265.031161
 20
95.786363
 30
0.0
 10
262.031158
 20
95.786363
 30
0.0
 10
262.031158
 20
75.786319
 30
0.0
 10
265.031161
 20
75.786319
 30
0.0
 10
265.031161
 20
58.786326
 30
0.0
 10
243.781141
 20
58.786326
 30
0.0
 10
243.781141
 20
55.786332
 30
0.0
 10
222.531120
 20
55.786332
 30
0.0
 10
222.531120
 20
58.786326
 30
0.0
 10
207.531106
 20
58.786326
 30
0.0
 10
207.531106
 20
55.786332
 30
0.0
 10
192.531095
 20
55.786332
 30
0.0
 10
192.531095
 20
58.786326
 30
0.0
 10
177.531079
 20
58.786326
 30
0.0
 10
177.531079
 20
55.786332
 30
0.0
 10
162.531065
 20
55.786332
 30
0.0
 10
162.531065
 20
58.786326
 30
0.0
 10
147.531051
 20
58.786326
 30
0.0
 10
147.531051
 20
55.786332
 30
0.0
 10
132.531040
 20
55.786332
 30
0.0
 10
132.531040
 20
58.786326
 30
0.0
 10
117.531023
 20
58.786326
 30
0.0
 10
117.531023
 20
55.786332
 30
0.0
 10
102.531012
 20
55.786332
 30
0.0
 10
102.531012
 20
58.786326
 30
0.0
 10
87.530996
 20
58.786326
 30
0.0
 10
87.530996
 20
55.786332
 30
0.0
 10
66.280978
 20
55.786332
 30
0.0
 10
66.280978
 20
58.786326
 30
0.0
 10
45.030958
 20
58.786326
 30
0.0
 10
45.030958
 20
75.786319
 30
0.0
 10
48.030961
 20
75.786319
 30
0.0
 10
48.030961
 20
95.786363
 30
0.0
 10
45.030958
 20
95.786363
 30
0.0
 10
45.030958
 20
110.786360
 30
0.0
 10
48.030961
 20
110.786360
 30
0.0
 10
48.030961
 20
125.786371
 30
0.0
 10
45.030958
 20
125.786371
 30
0.0
 10
45.030958
 20
140.786383
 30
0.0
 10
48.030961
 20
140.786383
 30
0.0
 10
48.030961
 20
155.786394
 30
0.0
 10
45.030958
 20
155.786394
 30
0.0
 10
45.030958
 20
170.786406
 30
0.0
 10
48.030961
 20
170.786406
 30
0.0
 10
48.030961
 20
185.786417
 30
0.0
 10
45.030958
 20
185.786417
 30
0.0
 10
45.030958
 20
200.786429
 30
0.0
 10
48.030961
 20
200.786429
 30
0.0
 10
48.030961
 20
215.786440
 30
0.0
 10
45.030958
 20
215.786440
 30
0.0
 10
45.030958
 20
230.786451
 30
0.0
 10
48.030961
 20
230.786451
 30
0.0
 10
48.030961
 20
245.786463
 30
0.0
 10
45.030958
 20
245.786463
 30
0.0
 10
45.030958
 20
260.786474
 30
0.0
 10
48.030961
 20
260.786474
 30
0.0
 10
48.030961
 20
275.786486
 30
0.0
 10
45.030958
 20
275.786486
 30
0.0
 10
45.030958
 20
290.786497
 30
0.0
 10
48.030961
 20
290.786497
 30
0.0
 10
48.030961
 20
305.786509
 30
0.0
 10
45.030958
 20
305.786509
 30
0.0
 10
45.030958
 20
320.786520
 30
0.0
 10
48.030961
 20
320.786520
 30
0.0
 10
48.030961
 20
335.786531
 30
0.0
 10
45.030958
 20
335.786531
 30
0.0
 10
45.030958
 20
350.786543
 30
0.0
 10
48.030961
 20
350.786543
 30
0.0
 10
48.030961
 20
370.786558
 30
0.0
 10
45.030958
 20
370.786558
 30
0.0
 10
45.030958
 20
387.786571
 30
0.0
 10
66.280978
 20
387.786571
 30
0.0
 10
66.280978
 20
390.786573
 30
0.0
 10
87.530996
 20
390.786573
 30
0.0
 10
87.530996
 20
387.786571
 30
0.0
 10
102.531012
 20
387.786571
 30
0.0
 10
102.531012
 20
390.786573
 30
0.0
 10
117.531023
 20
390.786573
 30
0.0
 10
117.531023
 20
387.786571
 30
0.0
 10
132.531040
 20
387.786571
 30
0.0
 10
132.531040
 20
390.786573
 30
0.0
 10
147.531051
 20
390.786573
 30
0.0
 10
147.531051
 20
387.786571
 30
0.0
 10
162.531065
 20
387.786571
 30
0.0
 10
162.531065
 20
390.786573
 30
0.0
 10
177.531079
 20
390.786573
 30
0.0
 10
177.531079
 20
387.786571
 30
0.0
 10
192.531095
 20
387.786571
 30
0.0
 10
192.531095
 20
390.786573
 30
0.0
 10
207.531106
 20
390.786573
 30
0.0
 10
207.531106
 20
387.786571
 30
0.0
 10
222.531120
 20
387.786571
 30
0.0
 10
222.531120
 20
390.786573
 30
0.0
 10
243.781141
 20
390.786573
 30
0.0
 10
243.781141
 20
387.786571
 30
0.0
 10
265.031161
 20
387.786571
 30
0.0
 10
265.031161
 20
370.786558
 30
0.0
 10
262.031158
 20
370.786558
 30
0.0
 10
262.031158
 20
350.786543
 30
0.0
 10
265.031161
 20
350.786543
 30
0.0
 10
265.031161
 20
335.786531
 30
0.0
 10
262.031158
 20
335.786531
 30
0.0
 10
262.031158
 20
320.786520
 30
0.0
  0
ENDSEC
  0
SECTION
  2
OBJECTS
  0
DICTIONARY
  5
C
330
0
100
AcDbDictionary
  3
ACAD_GROUP
350
D
  3
ACAD_MLINESTYLE
350
17
  0
DICTIONARY
  5
D
330
C
100
AcDbDictionary
  0
DICTIONARY
  5
1A
330
C
100
AcDbDictionary
  0
DICTIONARY
  5
17
330
C
100
AcDbDictionary
  3
STANDARD
350
18
  0
DICTIONARY
  5
19
330
C
100
AcDbDictionary
  0
ENDSEC
  0
EOF
