<?xml version="1.0" encoding="UTF-8" standalone="no"?>
<!-- Created with Inkscape (http://www.inkscape.org/) -->

<svg
   xmlns:dc="http://purl.org/dc/elements/1.1/"
   xmlns:cc="http://creativecommons.org/ns#"
   xmlns:rdf="http://www.w3.org/1999/02/22-rdf-syntax-ns#"
   xmlns:svg="http://www.w3.org/2000/svg"
   xmlns="http://www.w3.org/2000/svg"
   xmlns:sodipodi="http://sodipodi.sourceforge.net/DTD/sodipodi-0.dtd"
   xmlns:inkscape="http://www.inkscape.org/namespaces/inkscape"
   width="600mm"
   height="400mm"
   viewBox="0 0 2125.9843 1417.3228"
   id="svg4340"
   version="1.1"
   inkscape:version="0.91 r13725"
   sodipodi:docname="lid-1.svg">
  <defs
     id="defs4342" />
  <sodipodi:namedview
     id="base"
     pagecolor="#ffffff"
     bordercolor="#666666"
     borderopacity="1.0"
     inkscape:pageopacity="0.0"
     inkscape:pageshadow="2"
     inkscape:zoom="0.175"
     inkscape:cx="-47.722063"
     inkscape:cy="1089.6288"
     inkscape:document-units="mm"
     inkscape:current-layer="layer1"
     showgrid="true"
     inkscape:window-width="1366"
     inkscape:window-height="705"
     inkscape:window-x="-8"
     inkscape:window-y="-8"
     inkscape:window-maximized="1">
    <inkscape:grid
       type="xygrid"
       id="grid4888" />
  </sodipodi:namedview>
  <metadata
     id="metadata4345">
    <rdf:RDF>
      <cc:Work
         rdf:about="">
        <dc:format>image/svg+xml</dc:format>
        <dc:type
           rdf:resource="http://purl.org/dc/dcmitype/StillImage" />
        <dc:title></dc:title>
      </cc:Work>
    </rdf:RDF>
  </metadata>
  <g
     inkscape:label="Layer 1"
     inkscape:groupmode="layer"
     id="layer1"
     transform="translate(0,364.96067)">
    <g
       transform="matrix(0,0.99999994,-1.0000001,0,2112.2535,-345.95354)"
       id="g4896"
       style="stroke:#000000;stroke-opacity:1;stroke-width:0.35433073;stroke-miterlimit:4;stroke-dasharray:none">
      <path
         style="fill:none;stroke:#000000;stroke-width:0.35433072;stroke-miterlimit:4;stroke-dasharray:none;stroke-opacity:1"
         d="m 278.14983,10.62993 0,-10.62993 53.14966,0 0,10.62993 53.14965,0 0,-10.62993 53.14965,0 0,10.62993 53.14964,0 0,-10.62993 53.14966,0 0,10.62993 53.14964,0 0,-10.62993 53.14966,0 0,10.62993 53.14965,0 0,-10.62993 53.14965,0 0,10.62993 53.14965,0 0,-10.62993 53.14965,0 0,10.62993 53.14965,0 0,-10.62993 53.14965,0 0,10.62993 85.92531,0 0,-10.62993 85.9252,0 0,75.295338 -10.6299,0 0,75.295342 10.6299,0 0,53.14965 -10.6299,0 0,53.14964 10.6299,0 0,53.14966 -10.6299,0 0,53.14965 10.6299,0 0,53.14965 -10.6299,0 0,53.14964 10.6299,0 0,53.14966 -10.6299,0 0,53.14964 10.6299,0 0,53.14966 -10.6299,0 0,75.29533 10.6299,0 0,75.29534 -85.9252,0 0,-10.62993 -85.92531,0 0,10.62993 -53.14965,0 0,-10.62993 -53.14965,0 0,10.62993 -53.14965,0 0,-10.62993 -53.14965,0 0,10.62993 -53.14965,0 0,-10.62993 -53.14965,0 0,10.62993 -53.14966,0 0,-10.62993 -53.14964,0 0,10.62993 -53.14966,0 0,-10.62993 -53.14964,0 0,10.62993 -53.14965,0 0,-10.62993 -53.14965,0 0,10.62993 -53.14966,0 0,-10.62993 -53.14964,0 0,10.62993 -53.14965,0 0,-10.62993 -85.925272,0 0,10.62993 -85.925268,0 0,-75.29534 10.62993,0 0,-75.29533 -10.62993,0 0,-53.14966 10.62993,0 0,-53.14964 -10.62993,0 0,-53.14966 10.62993,0 0,-53.14964 -10.62993,0 0,-53.14965 10.62993,0 0,-53.14965 -10.62993,0 0,-53.14966 10.62993,0 0,-53.14964 -10.62993,0 0,-53.14965 10.62993,0 0,-75.295342 L 0,75.295338 0,0 l 85.925268,0 0,10.62993 85.925272,0 0,-10.62993 53.14965,0 0,10.62993 z"
         id="polygon4898" />
      <path
         style="fill:none;stroke:#000000;stroke-width:0.35433072;stroke-miterlimit:4;stroke-dasharray:none;stroke-opacity:1"
         d="m 900.00074,70.866203 127.55916,0 c 3.926,0 7.0866,3.160633 7.0866,7.08662 l 0,694.488747 c 0,3.92599 -3.1606,7.08662 -7.0866,7.08662 l -127.55916,0 c -3.92598,0 -7.08662,-3.16063 -7.08662,-7.08662 l 0,-694.488747 c 0,-3.925987 3.16064,-7.08662 7.08662,-7.08662 z"
         id="rect4900" />
    </g>
    <g
       transform="matrix(0,0.99999994,-1.0000001,0,1279.8799,-340.23926)"
       id="g4892"
       style="stroke:#000000;stroke-opacity:1;stroke-width:0.35433073;stroke-miterlimit:4;stroke-dasharray:none">
      <path
         style="fill:none;stroke:#000000;stroke-width:0.35433072;stroke-miterlimit:4;stroke-dasharray:none;stroke-opacity:1"
         d="m 278.14983,0 53.14966,0 0,10.62993 53.14965,0 0,-10.62993 53.14965,0 0,10.62993 53.14964,0 0,-10.62993 53.14966,0 0,10.62993 53.14964,0 0,-10.62993 53.14966,0 0,10.62993 53.14965,0 0,-10.62993 53.14965,0 0,10.62993 53.14965,0 0,-10.62993 53.14965,0 0,10.62993 53.14965,0 0,-10.62993 53.14965,0 0,10.62993 85.92531,0 0,-10.62993 85.9252,0 0,75.295338 -10.6299,0 0,75.295342 10.6299,0 0,53.14965 -10.6299,0 0,53.14964 10.6299,0 0,53.14966 -10.6299,0 0,53.14965 10.6299,0 0,53.14965 -10.6299,0 0,53.14964 10.6299,0 0,53.14966 -10.6299,0 0,53.14964 10.6299,0 0,53.14966 -10.6299,0 0,75.29533 10.6299,0 0,75.29534 -85.9252,0 0,-10.62993 -85.92531,0 0,10.62993 -53.14965,0 0,-10.62993 -53.14965,0 0,10.62993 -53.14965,0 0,-10.62993 -53.14965,0 0,10.62993 -53.14965,0 0,-10.62993 -53.14965,0 0,10.62993 -53.14966,0 0,-10.62993 -53.14964,0 0,10.62993 -53.14966,0 0,-10.62993 -53.14964,0 0,10.62993 -53.14965,0 0,-10.62993 -53.14965,0 0,10.62993 -53.14966,0 0,-10.62993 -53.14964,0 0,10.62993 -53.14965,0 0,-10.62993 -85.925272,0 0,10.62993 -85.925268,0 0,-75.29534 10.62993,0 0,-75.29533 -10.62993,0 0,-53.14966 10.62993,0 0,-53.14964 -10.62993,0 0,-53.14966 10.62993,0 0,-53.14964 -10.62993,0 0,-53.14965 10.62993,0 0,-53.14965 -10.62993,0 0,-53.14966 10.62993,0 0,-53.14964 -10.62993,0 0,-53.14965 10.62993,0 0,-75.295342 L 0,75.295338 0,0 l 85.925268,0 0,10.62993 85.925272,0 0,-10.62993 53.14965,0 0,10.62993 53.14964,0 z"
         id="polygon4894" />
    </g>
  </g>
</svg>
