  0
SECTION
  2
HEADER
  9
$ACADVER
  1
AC1014
  9
$HANDSEED
  5
FFFF
  9
$MEASUREMENT
 70
     1
  0
ENDSEC
  0
SECTION
  2
TABLES
  0
TABLE
  2
VPORT
  5
8
330
0
100
AcDbSymbolTable
 70
     4
  0
VPORT
  5
2E
330
8
100
AcDbSymbolTableRecord
100
AcDbViewportTableRecord
  2
*ACTIVE
 70
     0
 10
0.0
 20
0.0
 11
1.0
 21
1.0
 12
210.0
 22
148.5
 13
0.0
 23
0.0
 14
10.0
 24
10.0
 15
10.0
 25
10.0
 16
0.0
 26
0.0
 36
1.0
 17
0.0
 27
0.0
 37
0.0
 40
341.0
 41
1.24
 42
50.0
 43
0.0
 44
0.0
 50
0.0
 51
0.0
 71
     0
 72
   100
 73
     1
 74
     3
 75
     0
 76
     0
 77
     0
 78
     0
  0
ENDTAB
  0
TABLE
  2
LTYPE
  5
5
330
0
100
AcDbSymbolTable
 70
     1
  0
LTYPE
  5
14
330
5
100
AcDbSymbolTableRecord
100
AcDbLinetypeTableRecord
  2
BYBLOCK
 70
     0
  3

 72
    65
 73
     0
 40
0.0
  0
LTYPE
  5
15
330
5
100
AcDbSymbolTableRecord
100
AcDbLinetypeTableRecord
  2
BYLAYER
 70
     0
  3

 72
    65
 73
     0
 40
0.0
  0
LTYPE
  5
16
330
5
100
AcDbSymbolTableRecord
100
AcDbLinetypeTableRecord
  2
CONTINUOUS
 70
     0
  3
Solid line
 72
    65
 73
     0
 40
0.0
  0
ENDTAB
  0
TABLE
  2
LAYER
  5
2
100
AcDbSymbolTable
 70
2
  0
LAYER
  5
50
100
AcDbSymbolTableRecord
100
AcDbLayerTableRecord
  2
0
 70
0
  6
CONTINUOUS
  0
LAYER
  5
51
100
AcDbSymbolTableRecord
100
AcDbLayerTableRecord
  2
Layer_1
 70
0
  6
CONTINUOUS
  0
ENDTAB
  0
TABLE
  2
STYLE
  5
3
330
0
100
AcDbSymbolTable
 70
     1
  0
STYLE
  5
11
330
3
100
AcDbSymbolTableRecord
100
AcDbTextStyleTableRecord
  2
STANDARD
 70
     0
 40
0.0
 41
1.0
 50
0.0
 71
     0
 42
2.5
  3
txt
  4

  0
ENDTAB
  0
TABLE
  2
VIEW
  5
6
330
0
100
AcDbSymbolTable
 70
     0
  0
ENDTAB
  0
TABLE
  2
UCS
  5
7
330
0
100
AcDbSymbolTable
 70
     0
  0
ENDTAB
  0
TABLE
  2
APPID
  5
9
330
0
100
AcDbSymbolTable
 70
     2
  0
APPID
  5
12
330
9
100
AcDbSymbolTableRecord
100
AcDbRegAppTableRecord
  2
ACAD
 70
     0
  0
ENDTAB
  0
TABLE
  2
DIMSTYLE
  5
A
330
0
100
AcDbSymbolTable
 70
     1
  0
DIMSTYLE
105
27
330
A
100
AcDbSymbolTableRecord
100
AcDbDimStyleTableRecord
  2
ISO-25
 70
     0
  3

  4

  5

  6

  7

 40
1.0
 41
2.5
 42
0.625
 43
3.75
 44
1.25
 45
0.0
 46
0.0
 47
0.0
 48
0.0
140
2.5
141
2.5
142
0.0
143
0.03937007874016
144
1.0
145
0.0
146
1.0
147
0.625
 71
     0
 72
     0
 73
     0
 74
     0
 75
     0
 76
     0
 77
     1
 78
     8
170
     0
171
     3
172
     1
173
     0
174
     0
175
     0
176
     0
177
     0
178
     0
270
     2
271
     2
272
     2
273
     2
274
     3
340
11
275
     0
280
     0
281
     0
282
     0
283
     0
284
     8
285
     0
286
     0
287
     3
288
     0
  0
ENDTAB
  0
TABLE
  2
BLOCK_RECORD
  5
1
330
0
100
AcDbSymbolTable
 70
     1
  0
BLOCK_RECORD
  5
1F
330
1
100
AcDbSymbolTableRecord
100
AcDbBlockTableRecord
  2
*MODEL_SPACE
  0
BLOCK_RECORD
  5
1B
330
1
100
AcDbSymbolTableRecord
100
AcDbBlockTableRecord
  2
*PAPER_SPACE
  0
ENDTAB
  0
ENDSEC
  0
SECTION
  2
BLOCKS
  0
BLOCK
  5
20
330
1F
100
AcDbEntity
  8
0
100
AcDbBlockBegin
  2
*MODEL_SPACE
 70
     0
 10
0.0
 20
0.0
 30
0.0
  3
*MODEL_SPACE
  1

  0
ENDBLK
  5
21
330
1F
100
AcDbEntity
  8
0
100
AcDbBlockEnd
  0
BLOCK
  5
1C
330
1B
100
AcDbEntity
 67
     1
  8
0
100
AcDbBlockBegin
  2
*PAPER_SPACE
  1

  0
ENDBLK
  5
1D
330
1B
100
AcDbEntity
 67
     1
  8
0
100
AcDbBlockEnd
  0
ENDSEC
  0
SECTION
  2
ENTITIES
  0
LWPOLYLINE
  5
100
100
AcDbEntity
  8
Layer_1
 62
7
100
AcDbPolyline
 90
157
 70
1
 10
335.945325
 20
391.343691
 30
0.0
 10
350.945334
 20
391.343691
 30
0.0
 10
350.945334
 20
388.343689
 30
0.0
 10
365.945349
 20
388.343689
 30
0.0
 10
365.945349
 20
391.343691
 30
0.0
 10
380.945362
 20
391.343691
 30
0.0
 10
380.945362
 20
388.343689
 30
0.0
 10
395.945374
 20
388.343689
 30
0.0
 10
395.945374
 20
391.343691
 30
0.0
 10
410.945384
 20
391.343691
 30
0.0
 10
410.945384
 20
388.343689
 30
0.0
 10
425.945399
 20
388.343689
 30
0.0
 10
425.945399
 20
391.343691
 30
0.0
 10
440.945408
 20
391.343691
 30
0.0
 10
440.945408
 20
388.343689
 30
0.0
 10
455.945423
 20
388.343689
 30
0.0
 10
455.945423
 20
391.343691
 30
0.0
 10
470.945436
 20
391.343691
 30
0.0
 10
470.945436
 20
388.343689
 30
0.0
 10
485.945448
 20
388.343689
 30
0.0
 10
485.945448
 20
391.343691
 30
0.0
 10
500.945460
 20
391.343691
 30
0.0
 10
500.945460
 20
388.343689
 30
0.0
 10
515.945473
 20
388.343689
 30
0.0
 10
515.945473
 20
391.343691
 30
0.0
 10
530.945485
 20
391.343691
 30
0.0
 10
530.945485
 20
388.343689
 30
0.0
 10
545.945497
 20
388.343689
 30
0.0
 10
545.945497
 20
391.343691
 30
0.0
 10
570.195529
 20
391.343691
 30
0.0
 10
570.195529
 20
388.343689
 30
0.0
 10
591.445536
 20
388.343689
 30
0.0
 10
591.445536
 20
371.343675
 30
0.0
 10
594.445530
 20
371.343675
 30
0.0
 10
594.445530
 20
351.343658
 30
0.0
 10
591.445536
 20
351.343658
 30
0.0
 10
591.445536
 20
336.343646
 30
0.0
 10
594.445530
 20
336.343646
 30
0.0
 10
594.445530
 20
321.343634
 30
0.0
 10
591.445536
 20
321.343634
 30
0.0
 10
591.445536
 20
306.343621
 30
0.0
 10
594.445530
 20
306.343621
 30
0.0
 10
594.445530
 20
291.343609
 30
0.0
 10
591.445536
 20
291.343609
 30
0.0
 10
591.445536
 20
276.343597
 30
0.0
 10
594.445530
 20
276.343597
 30
0.0
 10
594.445530
 20
261.343584
 30
0.0
 10
591.445536
 20
261.343584
 30
0.0
 10
591.445536
 20
246.343572
 30
0.0
 10
594.445530
 20
246.343572
 30
0.0
 10
594.445530
 20
231.343560
 30
0.0
 10
591.445536
 20
231.343560
 30
0.0
 10
591.445536
 20
216.343547
 30
0.0
 10
594.445530
 20
216.343547
 30
0.0
 10
594.445530
 20
201.343535
 30
0.0
 10
591.445536
 20
201.343535
 30
0.0
 10
591.445536
 20
186.343523
 30
0.0
 10
594.445530
 20
186.343523
 30
0.0
 10
594.445530
 20
171.343510
 30
0.0
 10
591.445536
 20
171.343510
 30
0.0
 10
591.445536
 20
156.343498
 30
0.0
 10
594.445530
 20
156.343498
 30
0.0
 10
594.445530
 20
141.343486
 30
0.0
 10
591.445536
 20
141.343486
 30
0.0
 10
591.445536
 20
126.343473
 30
0.0
 10
594.445530
 20
126.343473
 30
0.0
 10
594.445530
 20
111.343461
 30
0.0
 10
591.445536
 20
111.343461
 30
0.0
 10
591.445536
 20
96.343463
 30
0.0
 10
594.445530
 20
96.343463
 30
0.0
 10
594.445530
 20
76.343418
 30
0.0
 10
591.445536
 20
76.343418
 30
0.0
 10
591.445536
 20
59.343424
 30
0.0
 10
570.195529
 20
59.343424
 30
0.0
 10
570.195529
 20
56.343430
 30
0.0
 10
545.945497
 20
56.343430
 30
0.0
 10
545.945497
 20
59.343424
 30
0.0
 10
530.945485
 20
59.343424
 30
0.0
 10
530.945485
 20
56.343430
 30
0.0
 10
515.945473
 20
56.343430
 30
0.0
 10
515.945473
 20
59.343424
 30
0.0
 10
500.945460
 20
59.343424
 30
0.0
 10
500.945460
 20
56.343430
 30
0.0
 10
485.945448
 20
56.343430
 30
0.0
 10
485.945448
 20
59.343424
 30
0.0
 10
470.945436
 20
59.343424
 30
0.0
 10
470.945436
 20
56.343430
 30
0.0
 10
455.945423
 20
56.343430
 30
0.0
 10
455.945423
 20
59.343424
 30
0.0
 10
440.945408
 20
59.343424
 30
0.0
 10
440.945408
 20
56.343430
 30
0.0
 10
425.945399
 20
56.343430
 30
0.0
 10
425.945399
 20
59.343424
 30
0.0
 10
410.945384
 20
59.343424
 30
0.0
 10
410.945384
 20
56.343430
 30
0.0
 10
395.945374
 20
56.343430
 30
0.0
 10
395.945374
 20
59.343424
 30
0.0
 10
380.945362
 20
59.343424
 30
0.0
 10
380.945362
 20
56.343430
 30
0.0
 10
365.945349
 20
56.343430
 30
0.0
 10
365.945349
 20
59.343424
 30
0.0
 10
350.945334
 20
59.343424
 30
0.0
 10
350.945334
 20
56.343430
 30
0.0
 10
335.945325
 20
56.343430
 30
0.0
 10
335.945325
 20
59.343424
 30
0.0
 10
320.945312
 20
59.343424
 30
0.0
 10
320.945312
 20
56.343430
 30
0.0
 10
296.695291
 20
56.343430
 30
0.0
 10
296.695291
 20
59.343424
 30
0.0
 10
275.445274
 20
59.343424
 30
0.0
 10
275.445274
 20
76.343418
 30
0.0
 10
272.445271
 20
76.343418
 30
0.0
 10
272.445271
 20
96.343463
 30
0.0
 10
275.445274
 20
96.343463
 30
0.0
 10
275.445274
 20
111.343461
 30
0.0
 10
272.445271
 20
111.343461
 30
0.0
 10
272.445271
 20
126.343473
 30
0.0
 10
275.445274
 20
126.343473
 30
0.0
 10
275.445274
 20
141.343486
 30
0.0
 10
272.445271
 20
141.343486
 30
0.0
 10
272.445271
 20
156.343498
 30
0.0
 10
275.445274
 20
156.343498
 30
0.0
 10
275.445274
 20
171.343510
 30
0.0
 10
272.445271
 20
171.343510
 30
0.0
 10
272.445271
 20
186.343523
 30
0.0
 10
275.445274
 20
186.343523
 30
0.0
 10
275.445274
 20
201.343535
 30
0.0
 10
272.445271
 20
201.343535
 30
0.0
 10
272.445271
 20
216.343547
 30
0.0
 10
275.445274
 20
216.343547
 30
0.0
 10
275.445274
 20
231.343560
 30
0.0
 10
272.445271
 20
231.343560
 30
0.0
 10
272.445271
 20
246.343572
 30
0.0
 10
275.445274
 20
246.343572
 30
0.0
 10
275.445274
 20
261.343584
 30
0.0
 10
272.445271
 20
261.343584
 30
0.0
 10
272.445271
 20
276.343597
 30
0.0
 10
275.445274
 20
276.343597
 30
0.0
 10
275.445274
 20
291.343609
 30
0.0
 10
272.445271
 20
291.343609
 30
0.0
 10
272.445271
 20
306.343621
 30
0.0
 10
275.445274
 20
306.343621
 30
0.0
 10
275.445274
 20
321.343634
 30
0.0
 10
272.445271
 20
321.343634
 30
0.0
 10
272.445271
 20
336.343646
 30
0.0
 10
275.445274
 20
336.343646
 30
0.0
 10
275.445274
 20
351.343658
 30
0.0
 10
272.445271
 20
351.343658
 30
0.0
 10
272.445271
 20
371.343675
 30
0.0
 10
275.445274
 20
371.343675
 30
0.0
 10
275.445274
 20
388.343689
 30
0.0
 10
296.695291
 20
388.343689
 30
0.0
 10
296.695291
 20
391.343691
 30
0.0
 10
320.945312
 20
391.343691
 30
0.0
 10
320.945312
 20
388.343689
 30
0.0
 10
335.945325
 20
388.343689
 30
0.0
 10
335.945325
 20
391.343691
 30
0.0
  0
LWPOLYLINE
  5
101
100
AcDbEntity
  8
Layer_1
 62
7
100
AcDbPolyline
 90
133
 70
1
 10
262.031158
 20
320.786520
 30
0.0
 10
265.031161
 20
320.786520
 30
0.0
 10
265.031161
 20
305.786509
 30
0.0
 10
262.031158
 20
305.786509
 30
0.0
 10
262.031158
 20
290.786497
 30
0.0
 10
265.031161
 20
290.786497
 30
0.0
 10
265.031161
 20
275.786486
 30
0.0
 10
262.031158
 20
275.786486
 30
0.0
 10
262.031158
 20
260.786474
 30
0.0
 10
265.031161
 20
260.786474
 30
0.0
 10
265.031161
 20
245.786463
 30
0.0
 10
262.031158
 20
245.786463
 30
0.0
 10
262.031158
 20
230.786451
 30
0.0
 10
265.031161
 20
230.786451
 30
0.0
 10
265.031161
 20
215.786440
 30
0.0
 10
262.031158
 20
215.786440
 30
0.0
 10
262.031158
 20
200.786429
 30
0.0
 10
265.031161
 20
200.786429
 30
0.0
 10
265.031161
 20
185.786417
 30
0.0
 10
262.031158
 20
185.786417
 30
0.0
 10
262.031158
 20
170.786406
 30
0.0
 10
265.031161
 20
170.786406
 30
0.0
 10
265.031161
 20
155.786394
 30
0.0
 10
262.031158
 20
155.786394
 30
0.0
 10
262.031158
 20
140.786383
 30
0.0
 10
265.031161
 20
140.786383
 30
0.0
 10
265.031161
 20
125.786371
 30
0.0
 10
262.031158
 20
125.786371
 30
0.0
 10
262.031158
 20
110.786360
 30
0.0
 10
265.031161
 20
110.786360
 30
0.0
 10
265.031161
 20
95.786363
 30
0.0
 10
262.031158
 20
95.786363
 30
0.0
 10
262.031158
 20
75.786319
 30
0.0
 10
265.031161
 20
75.786319
 30
0.0
 10
265.031161
 20
58.786326
 30
0.0
 10
243.781141
 20
58.786326
 30
0.0
 10
243.781141
 20
55.786332
 30
0.0
 10
222.531120
 20
55.786332
 30
0.0
 10
222.531120
 20
58.786326
 30
0.0
 10
207.531106
 20
58.786326
 30
0.0
 10
207.531106
 20
55.786332
 30
0.0
 10
192.531095
 20
55.786332
 30
0.0
 10
192.531095
 20
58.786326
 30
0.0
 10
177.531079
 20
58.786326
 30
0.0
 10
177.531079
 20
55.786332
 30
0.0
 10
162.531065
 20
55.786332
 30
0.0
 10
162.531065
 20
58.786326
 30
0.0
 10
147.531051
 20
58.786326
 30
0.0
 10
147.531051
 20
55.786332
 30
0.0
 10
132.531040
 20
55.786332
 30
0.0
 10
132.531040
 20
58.786326
 30
0.0
 10
117.531023
 20
58.786326
 30
0.0
 10
117.531023
 20
55.786332
 30
0.0
 10
102.531012
 20
55.786332
 30
0.0
 10
102.531012
 20
58.786326
 30
0.0
 10
87.530996
 20
58.786326
 30
0.0
 10
87.530996
 20
55.786332
 30
0.0
 10
66.280978
 20
55.786332
 30
0.0
 10
66.280978
 20
58.786326
 30
0.0
 10
45.030958
 20
58.786326
 30
0.0
 10
45.030958
 20
75.786319
 30
0.0
 10
48.030961
 20
75.786319
 30
0.0
 10
48.030961
 20
95.786363
 30
0.0
 10
45.030958
 20
95.786363
 30
0.0
 10
45.030958
 20
110.786360
 30
0.0
 10
48.030961
 20
110.786360
 30
0.0
 10
48.030961
 20
125.786371
 30
0.0
 10
45.030958
 20
125.786371
 30
0.0
 10
45.030958
 20
140.786383
 30
0.0
 10
48.030961
 20
140.786383
 30
0.0
 10
48.030961
 20
155.786394
 30
0.0
 10
45.030958
 20
155.786394
 30
0.0
 10
45.030958
 20
170.786406
 30
0.0
 10
48.030961
 20
170.786406
 30
0.0
 10
48.030961
 20
185.786417
 30
0.0
 10
45.030958
 20
185.786417
 30
0.0
 10
45.030958
 20
200.786429
 30
0.0
 10
48.030961
 20
200.786429
 30
0.0
 10
48.030961
 20
215.786440
 30
0.0
 10
45.030958
 20
215.786440
 30
0.0
 10
45.030958
 20
230.786451
 30
0.0
 10
48.030961
 20
230.786451
 30
0.0
 10
48.030961
 20
245.786463
 30
0.0
 10
45.030958
 20
245.786463
 30
0.0
 10
45.030958
 20
260.786474
 30
0.0
 10
48.030961
 20
260.786474
 30
0.0
 10
48.030961
 20
275.786486
 30
0.0
 10
45.030958
 20
275.786486
 30
0.0
 10
45.030958
 20
290.786497
 30
0.0
 10
48.030961
 20
290.786497
 30
0.0
 10
48.030961
 20
305.786509
 30
0.0
 10
45.030958
 20
305.786509
 30
0.0
 10
45.030958
 20
320.786520
 30
0.0
 10
48.030961
 20
320.786520
 30
0.0
 10
48.030961
 20
335.786531
 30
0.0
 10
45.030958
 20
335.786531
 30
0.0
 10
45.030958
 20
350.786543
 30
0.0
 10
48.030961
 20
350.786543
 30
0.0
 10
48.030961
 20
370.786558
 30
0.0
 10
45.030958
 20
370.786558
 30
0.0
 10
45.030958
 20
387.786571
 30
0.0
 10
66.280978
 20
387.786571
 30
0.0
 10
66.280978
 20
390.786573
 30
0.0
 10
87.530996
 20
390.786573
 30
0.0
 10
87.530996
 20
387.786571
 30
0.0
 10
102.531012
 20
387.786571
 30
0.0
 10
102.531012
 20
390.786573
 30
0.0
 10
117.531023
 20
390.786573
 30
0.0
 10
117.531023
 20
387.786571
 30
0.0
 10
132.531040
 20
387.786571
 30
0.0
 10
132.531040
 20
390.786573
 30
0.0
 10
147.531051
 20
390.786573
 30
0.0
 10
147.531051
 20
387.786571
 30
0.0
 10
162.531065
 20
387.786571
 30
0.0
 10
162.531065
 20
390.786573
 30
0.0
 10
177.531079
 20
390.786573
 30
0.0
 10
177.531079
 20
387.786571
 30
0.0
 10
192.531095
 20
387.786571
 30
0.0
 10
192.531095
 20
390.786573
 30
0.0
 10
207.531106
 20
390.786573
 30
0.0
 10
207.531106
 20
387.786571
 30
0.0
 10
222.531120
 20
387.786571
 30
0.0
 10
222.531120
 20
390.786573
 30
0.0
 10
243.781141
 20
390.786573
 30
0.0
 10
243.781141
 20
387.786571
 30
0.0
 10
265.031161
 20
387.786571
 30
0.0
 10
265.031161
 20
370.786558
 30
0.0
 10
262.031158
 20
370.786558
 30
0.0
 10
262.031158
 20
350.786543
 30
0.0
 10
265.031161
 20
350.786543
 30
0.0
 10
265.031161
 20
335.786531
 30
0.0
 10
262.031158
 20
335.786531
 30
0.0
 10
262.031158
 20
320.786520
 30
0.0
  0
ENDSEC
  0
SECTION
  2
OBJECTS
  0
DICTIONARY
  5
C
330
0
100
AcDbDictionary
  3
ACAD_GROUP
350
D
  3
ACAD_MLINESTYLE
350
17
  0
DICTIONARY
  5
D
330
C
100
AcDbDictionary
  0
DICTIONARY
  5
1A
330
C
100
AcDbDictionary
  0
DICTIONARY
  5
17
330
C
100
AcDbDictionary
  3
STANDARD
350
18
  0
DICTIONARY
  5
19
330
C
100
AcDbDictionary
  0
ENDSEC
  0
EOF
