<?xml version="1.0" encoding="UTF-8" standalone="no"?>
<!-- Created with Inkscape (http://www.inkscape.org/) -->

<svg
   xmlns:dc="http://purl.org/dc/elements/1.1/"
   xmlns:cc="http://creativecommons.org/ns#"
   xmlns:rdf="http://www.w3.org/1999/02/22-rdf-syntax-ns#"
   xmlns:svg="http://www.w3.org/2000/svg"
   xmlns="http://www.w3.org/2000/svg"
   xmlns:sodipodi="http://sodipodi.sourceforge.net/DTD/sodipodi-0.dtd"
   xmlns:inkscape="http://www.inkscape.org/namespaces/inkscape"
   width="600mm"
   height="400mm"
   viewBox="0 0 2125.9843 1417.3228"
   id="svg4340"
   version="1.1"
   inkscape:version="0.91 r13725"
   sodipodi:docname="lid-3.svg">
  <defs
     id="defs4342" />
  <sodipodi:namedview
     id="base"
     pagecolor="#ffffff"
     bordercolor="#666666"
     borderopacity="1.0"
     inkscape:pageopacity="0.0"
     inkscape:pageshadow="2"
     inkscape:zoom="0.175"
     inkscape:cx="795.13508"
     inkscape:cy="1089.6288"
     inkscape:document-units="mm"
     inkscape:current-layer="layer1"
     showgrid="true"
     inkscape:window-width="1366"
     inkscape:window-height="705"
     inkscape:window-x="-8"
     inkscape:window-y="-8"
     inkscape:window-maximized="1">
    <inkscape:grid
       type="xygrid"
       id="grid4888" />
  </sodipodi:namedview>
  <metadata
     id="metadata4345">
    <rdf:RDF>
      <cc:Work
         rdf:about="">
        <dc:format>image/svg+xml</dc:format>
        <dc:type
           rdf:resource="http://purl.org/dc/dcmitype/StillImage" />
        <dc:title></dc:title>
      </cc:Work>
    </rdf:RDF>
  </metadata>
  <g
     inkscape:label="Layer 1"
     inkscape:groupmode="layer"
     id="layer1"
     transform="translate(0,364.96067)">
    <g
       transform="matrix(0,0.99999994,-1.0000001,0,910.51536,-323.27075)"
       id="g4902">
      <polygon
         style="fill:none;stroke:#000000;stroke-width:0.90000075"
         points="301.18135,0 301.18135,10.62993 354.331,10.62993 354.331,0 407.48065,0 407.48065,10.62993 460.6303,10.62993 460.6303,0 513.77995,0 513.77995,10.62993 566.9296,10.62993 566.9296,0 620.07925,0 620.07925,10.62993 673.2289,10.62993 673.2289,0 726.37855,0 726.37855,10.62993 779.5282,10.62993 779.5282,0 832.67785,0 832.67785,10.62993 885.8275,10.62993 885.8275,0 938.97715,0 938.97715,10.62993 992.1268,10.62993 992.1268,0 1045.2764,0 1045.2764,10.62993 1116.1427,10.62993 1116.1427,0 1176.3789,0 1176.3789,75.295338 1187.0088,75.295338 1187.0088,150.59068 1176.3789,150.59068 1176.3789,203.74033 1187.0088,203.74033 1187.0088,256.88997 1176.3789,256.88997 1176.3789,310.03963 1187.0088,310.03963 1187.0088,363.18928 1176.3789,363.18928 1176.3789,416.33893 1187.0088,416.33893 1187.0088,469.48857 1176.3789,469.48857 1176.3789,522.63823 1187.0088,522.63823 1187.0088,575.78787 1176.3789,575.78787 1176.3789,628.93753 1187.0088,628.93753 1187.0088,704.23286 1176.3789,704.23286 1176.3789,779.5282 1116.1427,779.5282 1116.1427,768.89827 1045.2764,768.89827 1045.2764,779.5282 992.1268,779.5282 992.1268,768.89827 938.97715,768.89827 938.97715,779.5282 885.8275,779.5282 885.8275,768.89827 832.67785,768.89827 832.67785,779.5282 779.5282,779.5282 779.5282,768.89827 726.37855,768.89827 726.37855,779.5282 673.2289,779.5282 673.2289,768.89827 620.07925,768.89827 620.07925,779.5282 566.9296,779.5282 566.9296,768.89827 513.77995,768.89827 513.77995,779.5282 460.6303,779.5282 460.6303,768.89827 407.48065,768.89827 407.48065,779.5282 354.331,779.5282 354.331,768.89827 301.18135,768.89827 301.18135,779.5282 248.0317,779.5282 248.0317,768.89827 194.88205,768.89827 194.88205,779.5282 141.7324,779.5282 141.7324,768.89827 70.8662,768.89827 70.8662,779.5282 10.62993,779.5282 10.62993,704.23286 0,704.23286 0,628.93753 10.62993,628.93753 10.62993,575.78787 0,575.78787 0,522.63823 10.62993,522.63823 10.62993,469.48857 0,469.48857 0,416.33893 10.62993,416.33893 10.62993,363.18928 0,363.18928 0,310.03963 10.62993,310.03963 10.62993,256.88997 0,256.88997 0,203.74033 10.62993,203.74033 10.62993,150.59068 0,150.59068 0,75.295338 10.62993,75.295338 10.62993,0 70.8662,0 70.8662,10.62993 141.7324,10.62993 141.7324,0 194.88205,0 194.88205,10.62993 248.0317,10.62993 248.0317,0 "
         id="polygon4904" />
    </g>
    <g
       transform="translate(963.44498,-322.86014)"
       id="g4920">
      <polygon
         style="fill:none;stroke:#000000;stroke-width:0.90000075"
         points="278.14983,10.62993 331.29949,10.62993 331.29949,0 384.44914,0 384.44914,10.62993 437.59879,10.62993 437.59879,0 490.74843,0 490.74843,10.62993 543.89809,10.62993 543.89809,0 597.04773,0 597.04773,10.62993 650.19739,10.62993 650.19739,0 703.34704,0 703.34704,10.62993 756.49669,10.62993 756.49669,0 809.64634,0 809.64634,10.62993 862.79599,10.62993 862.79599,0 915.94564,0 915.94564,10.62993 969.09529,10.62993 969.09529,0 1055.0206,0 1055.0206,10.62993 1130.3159,10.62993 1130.3159,70.8662 1140.9458,70.8662 1140.9458,141.7324 1130.3159,141.7324 1130.3159,194.88205 1140.9458,194.88205 1140.9458,248.0317 1130.3159,248.0317 1130.3159,301.18135 1140.9458,301.18135 1140.9458,354.331 1130.3159,354.331 1130.3159,407.48065 1140.9458,407.48065 1140.9458,460.6303 1130.3159,460.6303 1130.3159,513.77995 1140.9458,513.77995 1140.9458,566.9296 1130.3159,566.9296 1130.3159,620.07925 1140.9458,620.07925 1140.9458,673.2289 1130.3159,673.2289 1130.3159,726.37855 1140.9458,726.37855 1140.9458,779.5282 1130.3159,779.5282 1130.3159,832.67785 1140.9458,832.67785 1140.9458,885.8275 1130.3159,885.8275 1130.3159,938.97715 1140.9458,938.97715 1140.9458,992.1268 1130.3159,992.1268 1130.3159,1045.2764 1140.9458,1045.2764 1140.9458,1116.1427 1130.3159,1116.1427 1130.3159,1176.3789 1055.0206,1176.3789 1055.0206,1187.0088 969.09529,1187.0088 969.09529,1176.3789 915.94564,1176.3789 915.94564,1187.0088 862.79599,1187.0088 862.79599,1176.3789 809.64634,1176.3789 809.64634,1187.0088 756.49669,1187.0088 756.49669,1176.3789 703.34704,1176.3789 703.34704,1187.0088 650.19739,1187.0088 650.19739,1176.3789 597.04773,1176.3789 597.04773,1187.0088 543.89809,1187.0088 543.89809,1176.3789 490.74843,1176.3789 490.74843,1187.0088 437.59879,1187.0088 437.59879,1176.3789 384.44914,1176.3789 384.44914,1187.0088 331.29949,1187.0088 331.29949,1176.3789 278.14983,1176.3789 278.14983,1187.0088 225.00019,1187.0088 225.00019,1176.3789 171.85054,1176.3789 171.85054,1187.0088 85.925268,1187.0088 85.925268,1176.3789 10.62993,1176.3789 10.62993,1116.1427 0,1116.1427 0,1045.2764 10.62993,1045.2764 10.62993,992.1268 0,992.1268 0,938.97715 10.62993,938.97715 10.62993,885.8275 0,885.8275 0,832.67785 10.62993,832.67785 10.62993,779.5282 0,779.5282 0,726.37855 10.62993,726.37855 10.62993,673.2289 0,673.2289 0,620.07925 10.62993,620.07925 10.62993,566.9296 0,566.9296 0,513.77995 10.62993,513.77995 10.62993,460.6303 0,460.6303 0,407.48065 10.62993,407.48065 10.62993,354.331 0,354.331 0,301.18135 10.62993,301.18135 10.62993,248.0317 0,248.0317 0,194.88205 10.62993,194.88205 10.62993,141.7324 0,141.7324 0,70.8662 10.62993,70.8662 10.62993,10.62993 85.925268,10.62993 85.925268,0 171.85054,0 171.85054,10.62993 225.00019,10.62993 225.00019,0 278.14983,0 "
         id="polygon4922" />
      <rect
         x="88.582748"
         y="70.866203"
         width="963.78033"
         height="974.41028"
         rx="7.0866199"
         ry="7.0866199"
         style="fill:none;stroke:#000000;stroke-width:0.90000075"
         id="rect4924" />
      <rect
         x="53.149651"
         y="1045.2765"
         width="194.88205"
         height="138.18909"
         rx="7.0866199"
         ry="7.0866199"
         style="fill:none;stroke:#000000;stroke-width:0.90000075"
         id="rect4926" />
    </g>
  </g>
</svg>
