<svg xmlns="http://www.w3.org/2000/svg" version="1.1" width="991.7mm" height="607.7mm" viewBox = " 0 0 3513.9005270000002 2153.269487" >
<!-- Front--> 
<g transform="translate(22.5000185, 22.5000185) " > 
<polygon style="stroke:#000000; fill:none; stroke-width:0.90000074" points="0, 0 85.9252675, 0 85.9252675, 10.62993 171.850535, 10.62993 171.850535, 0 225.00018500000002, 0 225.00018500000002, 10.62993 278.149835, 10.62993 278.149835, 0 331.299485, 0 331.299485, 10.62993 384.449135, 10.62993 384.449135, 0 437.598785, 0 437.598785, 10.62993 490.748435, 10.62993 490.748435, 0 543.898085, 0 543.898085, 10.62993 597.047735, 10.62993 597.047735, 0 650.197385, 0 650.197385, 10.62993 703.347035, 10.62993 703.347035, 0 756.4966850000001, 0 756.4966850000001, 10.62993 809.646335, 10.62993 809.646335, 0 862.7959850000001, 0 862.7959850000001, 10.62993 915.945635, 10.62993 915.945635, 0 969.0952850000001, 0 969.0952850000001, 10.62993 1055.0205525000001, 10.62993 1055.0205525000001, 0 1140.94582, 0 1140.94582, 84.1536125 1130.3158899999999, 84.1536125 1130.3158899999999, 168.307225 1140.94582, 168.307225 1140.94582, 221.456875 1130.3158899999999, 221.456875 1130.3158899999999, 274.606525 1140.94582, 274.606525 1140.94582, 327.756175 1130.3158899999999, 327.756175 1130.3158899999999, 380.905825 1140.94582, 380.905825 1140.94582, 434.055475 1130.3158899999999, 434.055475 1130.3158899999999, 487.20512499999995 1140.94582, 487.20512499999995 1140.94582, 540.354775 1130.3158899999999, 540.354775 1130.3158899999999, 593.504425 1140.94582, 593.504425 1140.94582, 646.654075 1130.3158899999999, 646.654075 1130.3158899999999, 699.803725 1140.94582, 699.803725 1140.94582, 752.953375 1130.3158899999999, 752.953375 1130.3158899999999, 837.1069875000001 1140.94582, 837.1069875000001 1140.9458200000001, 921.2606 1055.0205525000001, 921.2606 1055.0205525000001, 910.63067 969.0952850000001, 910.63067 969.0952850000001, 921.2606 915.945635, 921.2606 915.945635, 910.63067 862.7959850000001, 910.63067 862.7959850000001, 921.2606 809.646335, 921.2606 809.646335, 910.63067 756.4966850000001, 910.63067 756.4966850000001, 921.2606 703.347035, 921.2606 703.347035, 910.63067 650.197385, 910.63067 650.197385, 921.2606 597.047735, 921.2606 597.047735, 910.63067 543.898085, 910.63067 543.898085, 921.2606 490.748435, 921.2606 490.748435, 910.63067 437.598785, 910.63067 437.598785, 921.2606 384.449135, 921.2606 384.449135, 910.63067 331.299485, 910.63067 331.299485, 921.2606 278.149835, 921.2606 278.149835, 910.63067 225.00018500000002, 910.63067 225.00018500000002, 921.2606 171.850535, 921.2606 171.850535, 910.63067 85.9252675, 910.63067 85.9252675, 921.2606 0, 921.2606000000001 0, 837.1069875000001 10.62993, 837.1069875000001 10.62993, 752.953375 0, 752.953375 0, 699.803725 10.62993, 699.803725 10.62993, 646.654075 0, 646.654075 0, 593.504425 10.62993, 593.504425 10.62993, 540.354775 0, 540.354775 0, 487.20512499999995 10.62993, 487.20512499999995 10.62993, 434.055475 0, 434.055475 0, 380.905825 10.62993, 380.905825 10.62993, 327.756175 0, 327.756175 0, 274.606525 10.62993, 274.606525 10.62993, 221.456875 0, 221.456875 0, 168.307225 10.62993, 168.307225 10.62993, 84.1536125 0, 84.1536125 "/> 
 <circle cx="799.3353029" cy="76.4646298" r="7.08662" style="stroke:#000000;stroke-width:0.90000074;fill:none" /> 
 <circle cx="799.3353029" cy="309.0829313" r="7.08662" style="stroke:#000000;stroke-width:0.90000074;fill:none" /> 
 <circle cx="352.16958089999997" cy="76.4646298" r="7.08662" style="stroke:#000000;stroke-width:0.90000074;fill:none" /> 
 <circle cx="352.16958089999997" cy="309.0829313" r="7.08662" style="stroke:#000000;stroke-width:0.90000074;fill:none" /> 
 <rect x="458.46888089999993" y="41.0315298" width="270.000222" height="331.8309815" rx="10.62993" ry="10.62993" style="stroke:#000000;stroke-width:0.90000074;fill:none" /> 
</g>
<!-- Back--> 
<g transform="translate(1163.4458385, 22.5000185) " > 
<polygon style="stroke:#000000; fill:none; stroke-width:0.90000074" points="0, 0 85.9252675, 0 85.9252675, 10.62993 171.850535, 10.62993 171.850535, 0 225.00018500000002, 0 225.00018500000002, 10.62993 278.149835, 10.62993 278.149835, 0 331.299485, 0 331.299485, 10.62993 384.449135, 10.62993 384.449135, 0 437.598785, 0 437.598785, 10.62993 490.748435, 10.62993 490.748435, 0 543.898085, 0 543.898085, 10.62993 597.047735, 10.62993 597.047735, 0 650.197385, 0 650.197385, 10.62993 703.347035, 10.62993 703.347035, 0 756.4966850000001, 0 756.4966850000001, 10.62993 809.646335, 10.62993 809.646335, 0 862.7959850000001, 0 862.7959850000001, 10.62993 915.945635, 10.62993 915.945635, 0 969.0952850000001, 0 969.0952850000001, 10.62993 1055.0205525000001, 10.62993 1055.0205525000001, 0 1140.94582, 0 1140.94582, 84.1536125 1130.3158899999999, 84.1536125 1130.3158899999999, 168.307225 1140.94582, 168.307225 1140.94582, 221.456875 1130.3158899999999, 221.456875 1130.3158899999999, 274.606525 1140.94582, 274.606525 1140.94582, 327.756175 1130.3158899999999, 327.756175 1130.3158899999999, 380.905825 1140.94582, 380.905825 1140.94582, 434.055475 1130.3158899999999, 434.055475 1130.3158899999999, 487.20512499999995 1140.94582, 487.20512499999995 1140.94582, 540.354775 1130.3158899999999, 540.354775 1130.3158899999999, 593.504425 1140.94582, 593.504425 1140.94582, 646.654075 1130.3158899999999, 646.654075 1130.3158899999999, 699.803725 1140.94582, 699.803725 1140.94582, 752.953375 1130.3158899999999, 752.953375 1130.3158899999999, 837.1069875000001 1140.94582, 837.1069875000001 1140.9458200000001, 921.2606 1055.0205525000001, 921.2606 1055.0205525000001, 910.63067 969.0952850000001, 910.63067 969.0952850000001, 921.2606 915.945635, 921.2606 915.945635, 910.63067 862.7959850000001, 910.63067 862.7959850000001, 921.2606 809.646335, 921.2606 809.646335, 910.63067 756.4966850000001, 910.63067 756.4966850000001, 921.2606 703.347035, 921.2606 703.347035, 910.63067 650.197385, 910.63067 650.197385, 921.2606 597.047735, 921.2606 597.047735, 910.63067 543.898085, 910.63067 543.898085, 921.2606 490.748435, 921.2606 490.748435, 910.63067 437.598785, 910.63067 437.598785, 921.2606 384.449135, 921.2606 384.449135, 910.63067 331.299485, 910.63067 331.299485, 921.2606 278.149835, 921.2606 278.149835, 910.63067 225.00018500000002, 910.63067 225.00018500000002, 921.2606 171.850535, 921.2606 171.850535, 910.63067 85.9252675, 910.63067 85.9252675, 921.2606 0, 921.2606000000001 0, 837.1069875000001 10.62993, 837.1069875000001 10.62993, 752.953375 0, 752.953375 0, 699.803725 10.62993, 699.803725 10.62993, 646.654075 0, 646.654075 0, 593.504425 10.62993, 593.504425 10.62993, 540.354775 0, 540.354775 0, 487.20512499999995 10.62993, 487.20512499999995 10.62993, 434.055475 0, 434.055475 0, 380.905825 10.62993, 380.905825 10.62993, 327.756175 0, 327.756175 0, 274.606525 10.62993, 274.606525 10.62993, 221.456875 0, 221.456875 0, 168.307225 10.62993, 168.307225 10.62993, 84.1536125 0, 84.1536125 "/> 
 <rect x="807.87468" y="212.5986" width="226.77184" height="715.74862" rx="7.08662" ry="7.08662" style="stroke:#000000;stroke-width:0.90000074;fill:none" /> 
 <circle cx="781.299855" cy="318.8979" r="6.2007925" style="stroke:#000000;stroke-width:0.90000074;fill:none" /> 
 <circle cx="781.299855" cy="566.9295999999999" r="6.2007925" style="stroke:#000000;stroke-width:0.90000074;fill:none" /> 
 <circle cx="781.299855" cy="814.9612999999999" r="6.2007925" style="stroke:#000000;stroke-width:0.90000074;fill:none" /> 
 <circle cx="1061.221345" cy="814.9612999999999" r="6.2007925" style="stroke:#000000;stroke-width:0.90000074;fill:none" /> 
 <circle cx="1061.221345" cy="566.9295999999999" r="6.2007925" style="stroke:#000000;stroke-width:0.90000074;fill:none" /> 
 <circle cx="1061.221345" cy="318.8979" r="6.2007925" style="stroke:#000000;stroke-width:0.90000074;fill:none" /> 
</g>
<!-- Left--> 
<g transform="translate(2304.3916585, 22.5000185) " > 
<polygon style="stroke:#000000; fill:none; stroke-width:0.90000074" points="10.62993, 0 70.86619999999999, 0 70.86619999999999, 10.62993 141.73239999999998, 10.62993 141.73239999999998, 0 194.88205, 0 194.88205, 10.62993 248.0317, 10.62993 248.0317, 0 301.18134999999995, 0 301.18134999999995, 10.62993 354.331, 10.62993 354.331, 0 407.48064999999997, 0 407.48064999999997, 10.62993 460.6303, 10.62993 460.6303, 0 513.77995, 0 513.77995, 10.62993 566.9295999999999, 10.62993 566.9295999999999, 0 620.07925, 0 620.07925, 10.62993 673.2289, 10.62993 673.2289, 0 726.37855, 0 726.37855, 10.62993 779.5282, 10.62993 779.5282, 0 832.67785, 0 832.67785, 10.62993 885.8275, 10.62993 885.8275, 0 938.97715, 0 938.97715, 10.62993 992.1268, 10.62993 992.1268, 0 1045.2764499999998, 0 1045.2764499999998, 10.62993 1116.14265, 10.62993 1116.14265, 0 1176.3789199999999, 0 1176.3789199999999, 84.1536125 1187.00885, 84.1536125 1187.00885, 168.307225 1176.3789199999999, 168.307225 1176.3789199999999, 221.456875 1187.00885, 221.456875 1187.00885, 274.606525 1176.3789199999999, 274.606525 1176.3789199999999, 327.756175 1187.00885, 327.756175 1187.00885, 380.905825 1176.3789199999999, 380.905825 1176.3789199999999, 434.055475 1187.00885, 434.055475 1187.00885, 487.20512499999995 1176.3789199999999, 487.20512499999995 1176.3789199999999, 540.354775 1187.00885, 540.354775 1187.00885, 593.504425 1176.3789199999999, 593.504425 1176.3789199999999, 646.654075 1187.00885, 646.654075 1187.00885, 699.803725 1176.3789199999999, 699.803725 1176.3789199999999, 752.953375 1187.00885, 752.953375 1187.00885, 837.1069875000001 1176.3789199999999, 837.1069875000001 1176.3789199999999, 921.2606 1116.14265, 921.2606 1116.14265, 910.63067 1045.2764499999998, 910.63067 1045.2764499999998, 921.2606 992.1268, 921.2606 992.1268, 910.63067 938.97715, 910.63067 938.97715, 921.2606 885.8275, 921.2606 885.8275, 910.63067 832.67785, 910.63067 832.67785, 921.2606 779.5282, 921.2606 779.5282, 910.63067 726.37855, 910.63067 726.37855, 921.2606 673.2289, 921.2606 673.2289, 910.63067 620.07925, 910.63067 620.07925, 921.2606 566.9295999999999, 921.2606 566.9295999999999, 910.63067 513.77995, 910.63067 513.77995, 921.2606 460.6303, 921.2606 460.6303, 910.63067 407.48064999999997, 910.63067 407.48064999999997, 921.2606 354.331, 921.2606 354.331, 910.63067 301.18134999999995, 910.63067 301.18134999999995, 921.2606 248.0317, 921.2606 248.0317, 910.63067 194.88205, 910.63067 194.88205, 921.2606 141.73239999999998, 921.2606 141.73239999999998, 910.63067 70.86619999999999, 910.63067 70.86619999999999, 921.2606 10.62993, 921.2606000000001 10.62993, 837.1069875000001 0, 837.1069875000001 0, 752.953375 10.62993, 752.953375 10.62993, 699.803725 0, 699.803725 0, 646.654075 10.62993, 646.654075 10.62993, 593.504425 0, 593.504425 0, 540.354775 10.62993, 540.354775 10.62993, 487.20512499999995 0, 487.20512499999995 0, 434.055475 10.62993, 434.055475 10.62993, 380.905825 0, 380.905825 0, 327.756175 10.62993, 327.756175 10.62993, 274.606525 0, 274.606525 0, 221.456875 10.62993, 221.456875 10.62993, 168.307225 0, 168.307225 0, 84.1536125 10.62993, 84.1536125 "/> 
</g>
<!-- Right--> 
<g transform="translate(2304.3916585, 943.7606185000001) " > 
<polygon style="stroke:#000000; fill:none; stroke-width:0.90000074" points="10.62993, 0 70.86619999999999, 0 70.86619999999999, 10.62993 141.73239999999998, 10.62993 141.73239999999998, 0 194.88205, 0 194.88205, 10.62993 248.0317, 10.62993 248.0317, 0 301.18134999999995, 0 301.18134999999995, 10.62993 354.331, 10.62993 354.331, 0 407.48064999999997, 0 407.48064999999997, 10.62993 460.6303, 10.62993 460.6303, 0 513.77995, 0 513.77995, 10.62993 566.9295999999999, 10.62993 566.9295999999999, 0 620.07925, 0 620.07925, 10.62993 673.2289, 10.62993 673.2289, 0 726.37855, 0 726.37855, 10.62993 779.5282, 10.62993 779.5282, 0 832.67785, 0 832.67785, 10.62993 885.8275, 10.62993 885.8275, 0 938.97715, 0 938.97715, 10.62993 992.1268, 10.62993 992.1268, 0 1045.2764499999998, 0 1045.2764499999998, 10.62993 1116.14265, 10.62993 1116.14265, 0 1176.3789199999999, 0 1176.3789199999999, 84.1536125 1187.00885, 84.1536125 1187.00885, 168.307225 1176.3789199999999, 168.307225 1176.3789199999999, 221.456875 1187.00885, 221.456875 1187.00885, 274.606525 1176.3789199999999, 274.606525 1176.3789199999999, 327.756175 1187.00885, 327.756175 1187.00885, 380.905825 1176.3789199999999, 380.905825 1176.3789199999999, 434.055475 1187.00885, 434.055475 1187.00885, 487.20512499999995 1176.3789199999999, 487.20512499999995 1176.3789199999999, 540.354775 1187.00885, 540.354775 1187.00885, 593.504425 1176.3789199999999, 593.504425 1176.3789199999999, 646.654075 1187.00885, 646.654075 1187.00885, 699.803725 1176.3789199999999, 699.803725 1176.3789199999999, 752.953375 1187.00885, 752.953375 1187.00885, 837.1069875000001 1176.3789199999999, 837.1069875000001 1176.3789199999999, 921.2606 1116.14265, 921.2606 1116.14265, 910.63067 1045.2764499999998, 910.63067 1045.2764499999998, 921.2606 992.1268, 921.2606 992.1268, 910.63067 938.97715, 910.63067 938.97715, 921.2606 885.8275, 921.2606 885.8275, 910.63067 832.67785, 910.63067 832.67785, 921.2606 779.5282, 921.2606 779.5282, 910.63067 726.37855, 910.63067 726.37855, 921.2606 673.2289, 921.2606 673.2289, 910.63067 620.07925, 910.63067 620.07925, 921.2606 566.9295999999999, 921.2606 566.9295999999999, 910.63067 513.77995, 910.63067 513.77995, 921.2606 460.6303, 921.2606 460.6303, 910.63067 407.48064999999997, 910.63067 407.48064999999997, 921.2606 354.331, 921.2606 354.331, 910.63067 301.18134999999995, 910.63067 301.18134999999995, 921.2606 248.0317, 921.2606 248.0317, 910.63067 194.88205, 910.63067 194.88205, 921.2606 141.73239999999998, 921.2606 141.73239999999998, 910.63067 70.86619999999999, 910.63067 70.86619999999999, 921.2606 10.62993, 921.2606000000001 10.62993, 837.1069875000001 0, 837.1069875000001 0, 752.953375 10.62993, 752.953375 10.62993, 699.803725 0, 699.803725 0, 646.654075 10.62993, 646.654075 10.62993, 593.504425 0, 593.504425 0, 540.354775 10.62993, 540.354775 10.62993, 487.20512499999995 0, 487.20512499999995 0, 434.055475 10.62993, 434.055475 10.62993, 380.905825 0, 380.905825 0, 327.756175 10.62993, 327.756175 10.62993, 274.606525 0, 274.606525 0, 221.456875 10.62993, 221.456875 10.62993, 168.307225 0, 168.307225 0, 84.1536125 10.62993, 84.1536125 "/> 
</g>
<!-- Top--> 
<g transform="translate(22.5000185, 943.7606185000001) " > 
<polygon style="stroke:#000000; fill:none; stroke-width:0.90000074" points="10.62993, 10.62993 85.9252675, 10.62993 85.9252675, 0 171.850535, 0 171.850535, 10.62993 225.00018500000002, 10.62993 225.00018500000002, 0 278.149835, 0 278.149835, 10.62993 331.299485, 10.62993 331.299485, 0 384.449135, 0 384.449135, 10.62993 437.598785, 10.62993 437.598785, 0 490.748435, 0 490.748435, 10.62993 543.898085, 10.62993 543.898085, 0 597.047735, 0 597.047735, 10.62993 650.197385, 10.62993 650.197385, 0 703.347035, 0 703.347035, 10.62993 756.4966850000001, 10.62993 756.4966850000001, 0 809.646335, 0 809.646335, 10.62993 862.7959850000001, 10.62993 862.7959850000001, 0 915.945635, 0 915.945635, 10.62993 969.0952850000001, 10.62993 969.0952850000001, 0 1055.0205525000001, 0 1055.0205525000001, 10.62993 1130.3158899999999, 10.62993 1130.3158899999999, 70.86619999999999 1140.94582, 70.86619999999999 1140.94582, 141.73239999999998 1130.3158899999999, 141.73239999999998 1130.3158899999999, 194.88205 1140.94582, 194.88205 1140.94582, 248.0317 1130.3158899999999, 248.0317 1130.3158899999999, 301.18134999999995 1140.94582, 301.18134999999995 1140.94582, 354.331 1130.3158899999999, 354.331 1130.3158899999999, 407.48064999999997 1140.94582, 407.48064999999997 1140.94582, 460.6303 1130.3158899999999, 460.6303 1130.3158899999999, 513.77995 1140.94582, 513.77995 1140.94582, 566.9295999999999 1130.3158899999999, 566.9295999999999 1130.3158899999999, 620.07925 1140.94582, 620.07925 1140.94582, 673.2289 1130.3158899999999, 673.2289 1130.3158899999999, 726.37855 1140.94582, 726.37855 1140.94582, 779.5282 1130.3158899999999, 779.5282 1130.3158899999999, 832.67785 1140.94582, 832.67785 1140.94582, 885.8275 1130.3158899999999, 885.8275 1130.3158899999999, 938.97715 1140.94582, 938.97715 1140.94582, 992.1268 1130.3158899999999, 992.1268 1130.3158899999999, 1045.2764499999998 1140.94582, 1045.2764499999998 1140.94582, 1116.14265 1130.3158899999999, 1116.14265 1130.31589, 1176.3789199999999 1055.0205525000001, 1176.3789199999999 1055.0205525000001, 1187.00885 969.0952850000001, 1187.00885 969.0952850000001, 1176.3789199999999 915.945635, 1176.3789199999999 915.945635, 1187.00885 862.7959850000001, 1187.00885 862.7959850000001, 1176.3789199999999 809.646335, 1176.3789199999999 809.646335, 1187.00885 756.4966850000001, 1187.00885 756.4966850000001, 1176.3789199999999 703.347035, 1176.3789199999999 703.347035, 1187.00885 650.197385, 1187.00885 650.197385, 1176.3789199999999 597.047735, 1176.3789199999999 597.047735, 1187.00885 543.898085, 1187.00885 543.898085, 1176.3789199999999 490.748435, 1176.3789199999999 490.748435, 1187.00885 437.598785, 1187.00885 437.598785, 1176.3789199999999 384.449135, 1176.3789199999999 384.449135, 1187.00885 331.299485, 1187.00885 331.299485, 1176.3789199999999 278.149835, 1176.3789199999999 278.149835, 1187.00885 225.00018500000002, 1187.00885 225.00018500000002, 1176.3789199999999 171.850535, 1176.3789199999999 171.850535, 1187.00885 85.9252675, 1187.00885 85.9252675, 1176.3789199999999 10.62993, 1176.3789199999999 10.62993, 1116.14265 0, 1116.14265 0, 1045.2764499999998 10.62993, 1045.2764499999998 10.62993, 992.1268 0, 992.1268 0, 938.97715 10.62993, 938.97715 10.62993, 885.8275 0, 885.8275 0, 832.67785 10.62993, 832.67785 10.62993, 779.5282 0, 779.5282 0, 726.37855 10.62993, 726.37855 10.62993, 673.2289 0, 673.2289 0, 620.07925 10.62993, 620.07925 10.62993, 566.9295999999999 0, 566.9295999999999 0, 513.77995 10.62993, 513.77995 10.62993, 460.6303 0, 460.6303 0, 407.48064999999997 10.62993, 407.48064999999997 10.62993, 354.331 0, 354.331 0, 301.18134999999995 10.62993, 301.18134999999995 10.62993, 248.0317 0, 248.0317 0, 194.88205 10.62993, 194.88205 10.62993, 141.73239999999998 0, 141.73239999999998 0, 70.86619999999999 10.62993, 70.86619999999999 "/> 
</g>
<!-- Bottom--> 
<g transform="translate(1163.4458385, 943.7606185000001) " > 
<polygon style="stroke:#000000; fill:none; stroke-width:0.90000074" points="10.62993, 10.62993 85.9252675, 10.62993 85.9252675, 0 171.850535, 0 171.850535, 10.62993 225.00018500000002, 10.62993 225.00018500000002, 0 278.149835, 0 278.149835, 10.62993 331.299485, 10.62993 331.299485, 0 384.449135, 0 384.449135, 10.62993 437.598785, 10.62993 437.598785, 0 490.748435, 0 490.748435, 10.62993 543.898085, 10.62993 543.898085, 0 597.047735, 0 597.047735, 10.62993 650.197385, 10.62993 650.197385, 0 703.347035, 0 703.347035, 10.62993 756.4966850000001, 10.62993 756.4966850000001, 0 809.646335, 0 809.646335, 10.62993 862.7959850000001, 10.62993 862.7959850000001, 0 915.945635, 0 915.945635, 10.62993 969.0952850000001, 10.62993 969.0952850000001, 0 1055.0205525000001, 0 1055.0205525000001, 10.62993 1130.3158899999999, 10.62993 1130.3158899999999, 70.86619999999999 1140.94582, 70.86619999999999 1140.94582, 141.73239999999998 1130.3158899999999, 141.73239999999998 1130.3158899999999, 194.88205 1140.94582, 194.88205 1140.94582, 248.0317 1130.3158899999999, 248.0317 1130.3158899999999, 301.18134999999995 1140.94582, 301.18134999999995 1140.94582, 354.331 1130.3158899999999, 354.331 1130.3158899999999, 407.48064999999997 1140.94582, 407.48064999999997 1140.94582, 460.6303 1130.3158899999999, 460.6303 1130.3158899999999, 513.77995 1140.94582, 513.77995 1140.94582, 566.9295999999999 1130.3158899999999, 566.9295999999999 1130.3158899999999, 620.07925 1140.94582, 620.07925 1140.94582, 673.2289 1130.3158899999999, 673.2289 1130.3158899999999, 726.37855 1140.94582, 726.37855 1140.94582, 779.5282 1130.3158899999999, 779.5282 1130.3158899999999, 832.67785 1140.94582, 832.67785 1140.94582, 885.8275 1130.3158899999999, 885.8275 1130.3158899999999, 938.97715 1140.94582, 938.97715 1140.94582, 992.1268 1130.3158899999999, 992.1268 1130.3158899999999, 1045.2764499999998 1140.94582, 1045.2764499999998 1140.94582, 1116.14265 1130.3158899999999, 1116.14265 1130.31589, 1176.3789199999999 1055.0205525000001, 1176.3789199999999 1055.0205525000001, 1187.00885 969.0952850000001, 1187.00885 969.0952850000001, 1176.3789199999999 915.945635, 1176.3789199999999 915.945635, 1187.00885 862.7959850000001, 1187.00885 862.7959850000001, 1176.3789199999999 809.646335, 1176.3789199999999 809.646335, 1187.00885 756.4966850000001, 1187.00885 756.4966850000001, 1176.3789199999999 703.347035, 1176.3789199999999 703.347035, 1187.00885 650.197385, 1187.00885 650.197385, 1176.3789199999999 597.047735, 1176.3789199999999 597.047735, 1187.00885 543.898085, 1187.00885 543.898085, 1176.3789199999999 490.748435, 1176.3789199999999 490.748435, 1187.00885 437.598785, 1187.00885 437.598785, 1176.3789199999999 384.449135, 1176.3789199999999 384.449135, 1187.00885 331.299485, 1187.00885 331.299485, 1176.3789199999999 278.149835, 1176.3789199999999 278.149835, 1187.00885 225.00018500000002, 1187.00885 225.00018500000002, 1176.3789199999999 171.850535, 1176.3789199999999 171.850535, 1187.00885 85.9252675, 1187.00885 85.9252675, 1176.3789199999999 10.62993, 1176.3789199999999 10.62993, 1116.14265 0, 1116.14265 0, 1045.2764499999998 10.62993, 1045.2764499999998 10.62993, 992.1268 0, 992.1268 0, 938.97715 10.62993, 938.97715 10.62993, 885.8275 0, 885.8275 0, 832.67785 10.62993, 832.67785 10.62993, 779.5282 0, 779.5282 0, 726.37855 10.62993, 726.37855 10.62993, 673.2289 0, 673.2289 0, 620.07925 10.62993, 620.07925 10.62993, 566.9295999999999 0, 566.9295999999999 0, 513.77995 10.62993, 513.77995 10.62993, 460.6303 0, 460.6303 0, 407.48064999999997 10.62993, 407.48064999999997 10.62993, 354.331 0, 354.331 0, 301.18134999999995 10.62993, 301.18134999999995 10.62993, 248.0317 0, 248.0317 0, 194.88205 10.62993, 194.88205 10.62993, 141.73239999999998 0, 141.73239999999998 0, 70.86619999999999 10.62993, 70.86619999999999 "/> 
 <rect x="88.58275" y="70.86619999999999" width="963.78032" height="974.41025" rx="7.08662" ry="7.08662" style="stroke:#000000;stroke-width:0.90000074;fill:none" /> 
 <rect x="53.14965" y="1038.18983" width="279.92149" height="155.90564" rx="0" ry="0" style="stroke:#000000;stroke-width:0.90000074;fill:none" /> 
</g></svg>